<?xml version="1.0" encoding="utf-8"?>
<!-- Generator: Adobe Illustrator 25.2.1, SVG Export Plug-In . SVG Version: 6.00 Build 0)  -->
<svg version="1.1" id="레이어_1" xmlns="http://www.w3.org/2000/svg" xmlns:xlink="http://www.w3.org/1999/xlink" x="0px"
	 y="0px" viewBox="0 0 54.733 54.733" enable-background="new 0 0 54.733 54.733" xml:space="preserve">
<linearGradient id="SVGID_1_" gradientUnits="userSpaceOnUse" x1="14.803" y1="61.4432" x2="38.1438" y2="-1.8656">
	<stop  offset="0.1741" style="stop-color:#FEDE74"/>
	<stop  offset="0.2052" style="stop-color:#FCD571"/>
	<stop  offset="0.262" style="stop-color:#F6BC69"/>
	<stop  offset="0.2916" style="stop-color:#F2AD64"/>
	<stop  offset="0.3476" style="stop-color:#EE9C5F"/>
	<stop  offset="0.4006" style="stop-color:#EA8859"/>
	<stop  offset="0.4734" style="stop-color:#E57253"/>
	<stop  offset="0.5394" style="stop-color:#E25B4D"/>
	<stop  offset="0.5958" style="stop-color:#DE535D"/>
	<stop  offset="0.6848" style="stop-color:#D74573"/>
	<stop  offset="0.7675" style="stop-color:#CD2589"/>
	<stop  offset="0.7806" style="stop-color:#C5328C"/>
	<stop  offset="0.8274" style="stop-color:#A74B98"/>
	<stop  offset="0.851" style="stop-color:#9A529C"/>
	<stop  offset="0.8689" style="stop-color:#8E56A0"/>
	<stop  offset="0.9129" style="stop-color:#725EA7"/>
	<stop  offset="0.9377" style="stop-color:#6661A9"/>
</linearGradient>
<circle fill="url(#SVGID_1_)" cx="27.366" cy="27.366" r="27.366"/>
<g>
	<g>
		<g>
			<path fill="#A6A6A6" d="M34.329,14.292c3.972,0,7.203,3.231,7.203,7.203v12.504c0,3.972-3.231,7.203-7.203,7.203H21.825
				c-3.972,0-7.203-3.231-7.203-7.203V21.495c0-3.972,3.231-7.203,7.203-7.203H34.329 M34.329,12.292H21.825
				c-5.083,0-9.203,4.12-9.203,9.203v12.504c0,5.083,4.12,9.203,9.203,9.203h12.504c5.083,0,9.203-4.12,9.203-9.203V21.495
				C43.532,16.412,39.411,12.292,34.329,12.292L34.329,12.292z"/>
			<path fill="#A6A6A6" d="M28.077,21.878c3.236,0,5.868,2.632,5.868,5.868c0,3.236-2.632,5.868-5.868,5.868
				c-3.236,0-5.868-2.632-5.868-5.868C22.209,24.511,24.841,21.878,28.077,21.878 M28.077,19.878c-4.345,0-7.868,3.523-7.868,7.868
				s3.523,7.868,7.868,7.868s7.868-3.523,7.868-7.868S32.422,19.878,28.077,19.878L28.077,19.878z"/>
		</g>
		<path fill="#A6A6A6" d="M36.149,17.583c-0.933,0-1.689,0.756-1.689,1.689c0,0.933,0.756,1.689,1.689,1.689
			c0.933,0,1.689-0.756,1.689-1.689C37.838,18.34,37.082,17.583,36.149,17.583L36.149,17.583z"/>
	</g>
	<g>
		<g>
			<path fill="#FFFFFF" d="M33.618,13.912c3.972,0,7.203,3.231,7.203,7.203v12.504c0,3.972-3.231,7.203-7.203,7.203H21.115
				c-3.972,0-7.203-3.231-7.203-7.203V21.115c0-3.972,3.231-7.203,7.203-7.203H33.618 M33.618,11.912H21.115
				c-5.083,0-9.203,4.12-9.203,9.203v12.504c0,5.083,4.12,9.203,9.203,9.203h12.504c5.083,0,9.203-4.12,9.203-9.203V21.115
				C42.821,16.032,38.701,11.912,33.618,11.912L33.618,11.912z"/>
			<path fill="#FFFFFF" d="M27.366,21.498c3.236,0,5.868,2.632,5.868,5.868c0,3.236-2.632,5.868-5.868,5.868
				c-3.236,0-5.868-2.632-5.868-5.868C21.498,24.131,24.131,21.498,27.366,21.498 M27.366,19.498c-4.345,0-7.868,3.523-7.868,7.868
				s3.523,7.868,7.868,7.868s7.868-3.523,7.868-7.868S31.712,19.498,27.366,19.498L27.366,19.498z"/>
		</g>
		<path fill="#FFFFFF" d="M35.438,17.203c-0.933,0-1.689,0.756-1.689,1.689c0,0.933,0.756,1.689,1.689,1.689
			c0.933,0,1.689-0.756,1.689-1.689C37.127,17.96,36.371,17.203,35.438,17.203L35.438,17.203z"/>
	</g>
</g>
</svg>
