<?xml version="1.0" encoding="utf-8"?>
<!-- Generator: Adobe Illustrator 25.2.1, SVG Export Plug-In . SVG Version: 6.00 Build 0)  -->
<svg version="1.1" id="레이어_1" xmlns="http://www.w3.org/2000/svg" xmlns:xlink="http://www.w3.org/1999/xlink" x="0px"
	 y="0px" viewBox="0 0 30.12 27.079" enable-background="new 0 0 30.12 27.079" xml:space="preserve">
<g>
	<g>
		<g>
			<path fill="#E27162" d="M15.038,26.704c-0.268,0-0.536-0.058-0.787-0.174C12.838,25.867,0.487,19.79,0.389,9.686
				c0-4.814,3.951-9.351,8.13-9.351c2.582,0,5.021,1.255,6.591,3.336c1.528-2.063,3.932-3.309,6.489-3.309
				c4.203,0,8.177,4.523,8.177,9.308v0.002c-0.013,10.085-12.525,16.193-13.952,16.857C15.576,26.645,15.307,26.704,15.038,26.704z
				 M14.466,23.605c-0.001,0.001-0.003,0.002-0.004,0.002C14.464,23.606,14.465,23.606,14.466,23.605z M8.519,3.559
				c-2.384,0-4.906,3.141-4.906,6.112c0.071,7.305,9.03,12.416,11.431,13.654c2.588-1.303,11.499-6.323,11.509-13.656
				c-0.001-2.956-2.546-6.082-4.953-6.082c-1.765,0-3.352,0.95-4.247,2.543c-0.458,0.814-1.32,1.322-2.248,1.325
				c-0.003,0-0.005,0-0.008,0c-0.914,0-1.728-0.473-2.181-1.267C11.99,4.565,10.307,3.559,8.519,3.559z"/>
			<path fill="#542211" d="M15.038,27.079c-0.327,0-0.645-0.07-0.945-0.21c-1.432-0.672-13.979-6.856-14.079-17.18
				c0-5.003,4.133-9.729,8.505-9.729c2.51,0,4.938,1.153,6.588,3.107c1.611-1.937,4.003-3.08,6.491-3.08
				c4.396,0,8.553,4.706,8.553,9.683c-0.014,10.313-12.72,16.525-14.169,17.199C15.688,27.006,15.361,27.079,15.038,27.079z
				 M8.519,0.71c-3.986,0-7.755,4.362-7.755,8.976C0.859,19.548,13.023,25.539,14.41,26.19c0.396,0.184,0.861,0.183,1.255-0.001
				c1.405-0.654,13.723-6.671,13.736-16.517c0-4.593-3.792-8.935-7.803-8.935c-2.41,0-4.724,1.18-6.188,3.157l-0.298,0.403
				l-0.302-0.4C13.305,1.901,10.953,0.71,8.519,0.71z M14.462,23.982h-1.588l1.344-0.672C10.965,21.53,3.305,16.602,3.238,9.674
				c0-3.216,2.666-6.49,5.281-6.49c1.921,0,3.731,1.08,4.723,2.818c0.385,0.675,1.079,1.078,1.855,1.078
				c0.8-0.002,1.537-0.437,1.928-1.134c0.963-1.712,2.673-2.734,4.574-2.734c2.638,0,5.327,3.259,5.328,6.457
				c-0.01,7.515-8.97,12.609-11.715,13.991l-0.17,0.086l-0.17-0.088c-0.124-0.063-0.262-0.136-0.41-0.215v0.158l0.269,0.27
				l-0.11,0.109L14.462,23.982z M14.46,23.6l0.001,0.001v-0.158c-0.037-0.021-0.074-0.04-0.111-0.061L14.46,23.6z M8.519,3.934
				c-2.16,0-4.531,3.002-4.531,5.737c0.067,6.88,8.262,11.766,11.058,13.232c2.829-1.448,11.123-6.294,11.132-13.234
				c-0.001-2.72-2.396-5.707-4.578-5.707c-1.627,0-3.092,0.879-3.92,2.352c-0.524,0.932-1.511,1.513-2.574,1.517
				c-1.058,0-1.995-0.544-2.516-1.456C11.732,4.869,10.172,3.934,8.519,3.934z"/>
		</g>
	</g>
	<g>
		<rect x="13.759" y="23.166" fill="#E27162" width="2.291" height="2.291"/>
	</g>
	<g>
		<g>
			<path fill="#F9F3EF" d="M21.205,17.535c-0.487-1.297-0.835-2.655-0.702-4.035c0.008-0.083-0.069-0.607-0.069-0.692
				c0-2.069-2.426-3.123-5.412-3.123S9.62,10.739,9.62,12.808c0,0.171,0.097,0.78,0.13,0.945c0.232,1.184,0.004,2.381-0.537,3.459
				c-0.218,0.435-0.337,0.902-0.337,1.388c0,2.369,2.804,4.289,6.262,4.289c3.459,0,6.262-1.92,6.262-4.289
				C21.401,18.233,21.333,17.876,21.205,17.535z"/>
		</g>
		<g>
			<path fill="#040000" d="M16.574,17.564c0,0.517-0.635,1.039-1.419,1.039c-0.784,0-1.419-0.521-1.419-1.039
				c0-0.517,0.635-0.835,1.419-0.835C15.938,16.729,16.574,17.047,16.574,17.564z"/>
		</g>
		<g>
			<path fill="#A13C23" d="M20.31,13.45c0.008-0.083,0.338-0.801,0.338-0.885c0-1.808-2.258-2.647-4.717-2.879
				c-0.617,0.866-0.985,1.933-0.985,3.092c0,2.883,2.533,5.027,5.316,5.027c0.392,0,0.772-0.051,1.139-0.139
				c-0.03-0.127-0.343-0.059-0.389-0.181C20.525,16.187,20.177,14.829,20.31,13.45z"/>
		</g>
		<g>
			<circle fill="#040000" cx="12.522" cy="15.375" r="0.668"/>
		</g>
		<g>
			<path fill="#FFFFFF" d="M16.242,17.435c0.011,0.041,0.034,0.154-0.075,0.298c-0.118,0.155-0.345,0.302-0.408,0.315
				c-0.076,0.016,0.121-0.14,0.217-0.282c0.051-0.075,0.097-0.137,0.069-0.233c-0.026-0.09-0.117-0.135-0.078-0.205
				C16.022,17.228,16.209,17.313,16.242,17.435z"/>
		</g>
		<g>
			<circle fill="#040000" cx="17.633" cy="15.375" r="0.668"/>
		</g>
		<g>
			<path fill="#A13C23" d="M11.148,10.737c0.562,0.347,0.641,1.245,0.487,1.834c-0.129,0.49-0.595,1.312-0.948,2.188
				c-0.284,0.706-0.783,2.116-1.336,2.806c-0.875,1.091-2.465,1.49-3.471,1c-1.202-0.586-1.695-1.869-1.542-2.701
				c0.168-0.911,0.533-1.453,1.186-2.131c0.906-0.94,1.786-1.671,2.423-2.132C9.426,10.527,10.582,10.387,11.148,10.737z"/>
		</g>
		<g>
			<path fill="#A13C23" d="M19.118,10.802c-0.564,0.348-0.555,1.246-0.403,1.831c0.127,0.487,0.499,1.302,0.848,2.173
				c0.282,0.702,0.775,2.105,1.326,2.789c0.871,1.083,2.46,1.475,3.47,0.982c1.205-0.588,1.704-1.869,1.554-2.697
				c-0.165-0.907-0.528-1.446-1.178-2.118c-0.902-0.933-1.781-1.658-2.416-2.114C20.842,10.586,19.686,10.451,19.118,10.802z"/>
		</g>
		<g>
			<g>
				<path fill="#562312" d="M15.023,9.686c1.708,0,3.23,0.346,4.222,1.028c0.152-0.051,0.329-0.08,0.53-0.08
					c0.619,0,1.464,0.274,2.476,1.01c0.632,0.46,1.508,1.189,2.408,2.126c0.649,0.675,1.013,1.215,1.181,2.122
					c0.154,0.828-0.332,2.103-1.524,2.683c-0.28,0.136-0.606,0.202-0.948,0.202c-0.681,0-1.429-0.26-2.023-0.74
					c0.036,0.185,0.056,0.373,0.056,0.565c0,2.369-2.804,4.289-6.262,4.289c-3.459,0-6.262-1.92-6.262-4.289
					c0-0.211,0.026-0.418,0.07-0.621c-0.604,0.518-1.385,0.798-2.093,0.798c-0.345,0-0.672-0.066-0.954-0.203
					c-1.192-0.58-1.678-1.855-1.524-2.683c0.169-0.907,0.532-1.447,1.181-2.122c0.9-0.937,1.776-1.666,2.408-2.126
					c1.013-0.737,1.86-1.011,2.48-1.011c0.15,0,0.287,0.016,0.41,0.046C11.845,10.019,13.344,9.686,15.023,9.686 M15.023,8.936
					c-1.729,0-3.25,0.339-4.326,0.959c-0.082-0.008-0.167-0.012-0.252-0.012c-0.872,0-1.882,0.399-2.921,1.155
					c-0.473,0.344-1.427,1.089-2.508,2.212c-0.698,0.726-1.172,1.398-1.378,2.504c-0.214,1.151,0.45,2.773,1.933,3.495
					c0.38,0.185,0.811,0.279,1.282,0.279c0.449,0,0.904-0.086,1.337-0.246c0.463,2.458,3.403,4.359,6.949,4.359
					c3.538,0,6.472-1.892,6.946-4.342c0.418,0.149,0.856,0.229,1.284,0.229c0.468,0,0.898-0.093,1.277-0.278
					c1.483-0.722,2.147-2.344,1.933-3.495c-0.206-1.106-0.68-1.778-1.378-2.504c-1.08-1.124-2.035-1.868-2.508-2.212
					c-1.038-0.755-2.047-1.154-2.918-1.154c-0.136,0-0.268,0.01-0.394,0.029C18.299,9.281,16.769,8.936,15.023,8.936L15.023,8.936z"
					/>
			</g>
		</g>
		<g>
			<path fill="#562312" d="M8.58,19.145c-0.131,0-0.259-0.069-0.328-0.191c-0.101-0.181-0.037-0.409,0.144-0.511
				c0.833-0.467,1.62-2.095,1.853-2.682l0.813-2.079c0.396-1.039,0.449-1.356,0.451-1.37c0.296-1.37-0.702-1.67-0.817-1.7
				c-0.199-0.052-0.321-0.255-0.271-0.455c0.051-0.2,0.25-0.32,0.451-0.273c0.634,0.154,1.738,0.888,1.375,2.562
				c-0.002,0.029-0.063,0.387-0.489,1.506l-0.815,2.083c-0.039,0.098-0.95,2.369-2.184,3.062C8.705,19.129,8.642,19.145,8.58,19.145
				z"/>
		</g>
		<g>
			<path fill="#562312" d="M21.756,19.137c-0.062,0-0.123-0.015-0.181-0.047c-1.152-0.634-2.085-2.738-2.188-2.977l-0.888-2.05
				c-0.467-1.107-0.54-1.463-0.55-1.523c-0.415-1.627,0.661-2.399,1.289-2.576c0.205-0.057,0.406,0.061,0.463,0.259
				c0.056,0.199-0.06,0.405-0.258,0.462c-0.117,0.035-1.099,0.373-0.761,1.702c0.008,0.039,0.072,0.354,0.506,1.382l0.887,2.046
				c0.251,0.582,1.074,2.185,1.86,2.618c0.182,0.1,0.248,0.327,0.147,0.509C22.016,19.067,21.888,19.137,21.756,19.137z"/>
		</g>
		<g>
			<path d="M13.804,19.637c-0.489,0-0.97-0.238-1.282-0.595c-0.093-0.105-0.083-0.267,0.023-0.359
				c0.106-0.095,0.267-0.083,0.359,0.023c0.35,0.399,0.995,0.592,1.465,0.227c0.382-0.297,0.513-1.012,0.52-1.109
				c0.01-0.14,0.133-0.261,0.271-0.236c0.141,0.009,0.247,0.131,0.237,0.271c-0.001,0.01-0.104,1-0.715,1.477
				C14.412,19.546,14.106,19.637,13.804,19.637z"/>
		</g>
		<g>
			<path d="M16.507,19.621c-0.303,0-0.608-0.092-0.879-0.303c-0.537-0.417-0.703-1.285-0.715-1.478
				c-0.009-0.141,0.098-0.262,0.238-0.271c0.129-0.026,0.261,0.097,0.271,0.237c0.006,0.098,0.135,0.81,0.519,1.108
				c0.472,0.369,1.114,0.174,1.465-0.227c0.092-0.106,0.252-0.117,0.359-0.023c0.105,0.092,0.116,0.253,0.023,0.359
				C17.476,19.383,16.995,19.621,16.507,19.621z"/>
		</g>
	</g>
</g>
</svg>
