<svg width="120" height="108" viewBox="0 0 120 108" fill="none" xmlns="http://www.w3.org/2000/svg">
<path d="M45.1018 101.499C70.0109 101.499 90.2037 81.6241 90.2037 57.1075C90.2037 32.591 70.0109 12.7164 45.1018 12.7164C20.1928 12.7164 0 32.591 0 57.1075C0 81.6241 20.1928 101.499 45.1018 101.499Z" fill="#ED7565"/>
<path d="M110.559 49.5153C114.72 49.5153 118.093 46.1951 118.093 42.0994C118.093 38.0036 114.72 34.6834 110.559 34.6834C106.397 34.6834 103.024 38.0036 103.024 42.0994C103.024 46.1951 106.397 49.5153 110.559 49.5153Z" fill="#ED7565"/>
<path d="M93.3967 50.6268C96.223 52.2422 98.8878 54.1167 101.356 56.2255C109.495 64.0269 106.246 79.9648 105.526 83.2185C105.32 85.3628 104.525 87.4115 103.226 89.1451C101.927 90.8786 100.174 92.2317 98.1535 93.0594C96.5128 93.6561 94.7619 93.9025 93.017 93.7822C91.2721 93.662 89.5732 93.1778 88.0329 92.3618C87.1166 84.7611 86.1399 77.082 85.103 69.3246C84.0194 61.227 82.8936 53.2258 81.7254 45.3209C85.7937 46.6829 89.7056 48.4613 93.3967 50.6268V50.6268Z" fill="#FEF3EC"/>
<path d="M86.4383 26.0945L77.53 45.688L62.9828 43.1181L73.9939 24.793L86.4383 26.0945Z" fill="#FAD5C6"/>
<path d="M89.2227 74.8618C89.232 75.6511 89.2227 76.4312 89.1947 77.2022C89.1761 77.8538 89.1481 78.4963 89.1201 79.1296H89.1108C89.0735 79.9189 89.0176 80.6899 88.943 81.4609C88.8963 82.1125 88.8311 82.755 88.7565 83.3974C88.6632 84.1776 88.57 84.9486 88.4487 85.7103C88.3648 86.362 88.2622 87.0045 88.1503 87.6378C88.0198 88.3996 87.8799 89.1522 87.7307 89.8864C87.7289 89.9088 87.7225 89.9307 87.712 89.9507C87.5908 90.6023 87.4509 91.2448 87.3111 91.8781C87.1246 92.6582 86.9381 93.4292 86.7422 94.1818C86.5837 94.8334 86.4065 95.4667 86.2294 96.0909C86.0149 96.8802 85.7817 97.642 85.5486 98.3854C85.3435 99.0462 85.1383 99.6795 84.9332 100.294C84.6721 101.084 84.4016 101.846 84.1312 102.58C83.8888 103.241 83.6556 103.874 83.4132 104.48C83.1894 105.049 82.9749 105.59 82.7604 106.113C82.3221 106.123 81.8745 106.132 81.4362 106.15H81.3989L38.7179 107.252C38.7645 105.462 38.8298 103.617 38.9324 101.717C38.9697 101.084 39.007 100.432 39.0443 99.7805C39.1002 99.0187 39.1469 98.2386 39.2028 97.4584C39.2588 96.8159 39.3054 96.1643 39.3613 95.5126C39.4266 94.7417 39.4919 93.9707 39.5758 93.1906C39.6318 92.5481 39.697 91.9056 39.7716 91.254C39.8462 90.483 39.9302 89.712 40.0234 88.9319C40.098 88.2986 40.1819 87.6561 40.2659 87.0045C40.3032 86.7016 40.3405 86.3895 40.3871 86.0683C40.443 85.6094 40.5083 85.1505 40.5736 84.6824C40.6668 84.0491 40.7601 83.4066 40.8533 82.7642C40.9746 81.9932 41.0958 81.2222 41.2264 80.4421C41.3196 79.8088 41.4315 79.1571 41.5434 78.5147C41.674 77.7529 41.8138 76.9819 41.963 76.2109C42.0749 75.5776 42.1962 74.9352 42.3267 74.2927C42.4666 73.5309 42.6251 72.7599 42.7836 71.9798C42.9142 71.3465 43.0541 70.704 43.194 70.0616C43.7255 67.5926 44.3223 65.087 44.9844 62.5446C47.1699 54.1206 49.9111 45.8458 53.1905 37.7728C57.7818 36.4824 62.5932 36.1325 67.3273 36.7448C70.311 37.1869 73.1635 38.2542 75.692 39.8746C78.1191 41.4594 80.1991 43.5066 81.8093 45.8954C84.4856 49.8237 85.819 54.2843 86.9474 58.341C88.2634 63.0944 89.0114 67.9827 89.1761 72.9068V72.9252C89.2041 73.5768 89.2134 74.2193 89.2227 74.8618Z" fill="#9FB0DA"/>
<path d="M94.9277 19.2604C97.0516 19.2604 98.7734 17.5658 98.7734 15.4753C98.7734 13.3849 97.0516 11.6902 94.9277 11.6902C92.8038 11.6902 91.082 13.3849 91.082 15.4753C91.082 17.5658 92.8038 19.2604 94.9277 19.2604Z" fill="#F5C3B3"/>
<path d="M97.441 14.7686C97.4433 18.6229 95.9135 22.3251 93.1787 25.0837C90.4439 27.8423 86.7211 29.4383 82.8063 29.5306C78.8914 29.623 75.0953 28.2042 72.2294 25.5776C69.3635 22.9511 67.6553 19.3253 67.4701 15.4753C67.4608 15.2367 67.4514 15.0072 67.4514 14.7686C67.4445 12.6123 67.9189 10.4807 68.8412 8.52472C69.7635 6.56873 71.1111 4.83605 72.7888 3.44921C74.4665 2.06237 76.4333 1.05523 78.55 0.499022C80.6668 -0.057191 82.8819 -0.148899 85.0386 0.230383C85.1971 0.24874 85.3463 0.285452 85.5049 0.312987C87.978 0.820217 90.2809 1.93424 92.1997 3.55162C94.1185 5.16901 95.591 7.23734 96.4805 9.56459C97.1201 11.2272 97.4456 12.9908 97.441 14.7686V14.7686Z" fill="#FAD5C6"/>
<path d="M93.4723 22.2332C94.5858 22.2332 95.4884 21.3448 95.4884 20.2489C95.4884 19.153 94.5858 18.2646 93.4723 18.2646C92.3589 18.2646 91.4562 19.153 91.4562 20.2489C91.4562 21.3448 92.3589 22.2332 93.4723 22.2332Z" fill="#F5B3A3"/>
<path d="M88.8247 28.1274C87.3508 29.1181 85.5939 29.6196 83.8102 29.5589C82.0265 29.4981 80.3091 28.8783 78.9083 27.7897" stroke="#040000" stroke-miterlimit="10" stroke-linecap="round"/>
<path d="M90.9422 16.718C90.6868 17.3745 90.5743 18.0765 90.6121 18.7785C90.6644 19.6712 90.9555 20.5343 91.456 21.2805L88.9028 20.605" stroke="#040000" stroke-width="0.75" stroke-linecap="round" stroke-linejoin="round"/>
<path d="M87.2009 12.3887C87.0071 12.1849 86.7602 12.0373 86.4871 11.962C86.214 11.8868 85.9252 11.8867 85.652 11.9619C85.4389 12.0303 85.2429 12.1427 85.0773 12.2914C84.9117 12.4402 84.7802 12.622 84.6915 12.8247" stroke="#040000" stroke-width="0.75" stroke-linecap="round" stroke-linejoin="round"/>
<path d="M97.4407 12.5722C93.374 11.4452 89.7531 9.16255 88.5306 5.72257C88.0365 4.24364 87.9167 2.66831 88.1818 1.13348C88.3329 1.18305 88.4709 1.24913 88.621 1.30787C90.9363 2.30211 92.9587 3.85602 94.5006 5.8253C96.0425 7.79458 97.0538 10.1154 97.4407 12.5722V12.5722Z" fill="#1C0404"/>
<path d="M83.2192 18.2646C84.3327 18.2646 85.2353 17.3762 85.2353 16.2803C85.2353 15.1844 84.3327 14.2959 83.2192 14.2959C82.1058 14.2959 81.2032 15.1844 81.2032 16.2803C81.2032 17.3762 82.1058 18.2646 83.2192 18.2646Z" fill="#F5B3A3"/>
<path d="M88.3377 22.9831C87.9902 23.1609 87.5997 23.2417 87.2088 23.2166C86.8179 23.1916 86.4414 23.0616 86.1202 22.8408C85.8499 22.6399 85.6295 22.3811 85.4756 22.0842C85.3216 21.7872 85.2382 21.4597 85.2315 21.1263" stroke="#040000" stroke-width="0.75" stroke-miterlimit="10" stroke-linecap="round"/>
<path d="M85.9459 16.5951C86.463 16.5951 86.8821 16.1825 86.8821 15.6736C86.8821 15.1646 86.463 14.7521 85.9459 14.7521C85.4288 14.7521 85.0097 15.1646 85.0097 15.6736C85.0097 16.1825 85.4288 16.5951 85.9459 16.5951Z" fill="#040000"/>
<path d="M92.8483 18.4206C93.3653 18.4206 93.7845 18.008 93.7845 17.4991C93.7845 16.9902 93.3653 16.5776 92.8483 16.5776C92.3312 16.5776 91.912 16.9902 91.912 17.4991C91.912 18.008 92.3312 18.4206 92.8483 18.4206Z" fill="#040000"/>
<path d="M78.773 14.3042C78.3671 14.2616 77.9591 14.3621 77.6214 14.5878C77.3512 14.7907 77.1441 15.0639 77.0234 15.3767C76.9028 15.6894 76.8735 16.0291 76.9388 16.3573" stroke="#231815" stroke-miterlimit="10" stroke-linecap="round"/>
<path d="M86.5742 53.3995C85.4365 52.803 83.3775 52.3597 82.2119 53.4785C81.16 54.4881 81.4659 56.1732 81.5992 56.9111C81.6589 57.2397 82.3331 60.6925 84.7166 61.0321C86.7952 61.3277 89.078 59.1047 88.9978 56.8184C88.9232 54.6726 86.77 53.5014 86.5742 53.3995Z" fill="#FEF3EC"/>
<path d="M114.205 68.6022C113.897 70.7489 112.9 72.7426 111.361 74.2927C111.155 74.5038 110.95 74.6966 110.754 74.8801C110.263 75.3315 109.733 75.74 109.169 76.1008C109.121 76.1339 109.071 76.1645 109.02 76.1926L108.778 76.0733L106.689 75.0729L104.115 73.843L98.6505 71.2272C100.823 68.9969 101.634 67.1245 101.849 65.6469C101.903 65.2731 101.922 64.8951 101.905 64.5179C101.83 62.5905 100.851 61.0853 101.756 59.8554C102.199 59.3276 102.822 58.9755 103.509 58.8642C103.854 58.7724 104.236 58.699 104.647 58.6255C106.244 58.2702 107.909 58.3431 109.468 58.8367C112.899 60.1491 114.708 64.7749 114.205 68.6022Z" fill="#FAD5C6"/>
<path d="M83.3122 37.927C81.2281 39.2808 81.2066 42.1857 81.2029 42.7061C81.1395 51.3271 98.2818 57.0717 101.724 56.1622C101.906 56.1176 102.084 56.0587 102.256 55.986C103.808 55.2816 105.227 54.3233 106.452 53.1517C106.819 52.7745 107.092 52.4487 107.263 52.2413L108.178 51.072C109.643 49.2904 110.334 47.0109 110.099 44.7302C109.864 42.4496 108.723 40.3528 106.923 38.8971L101.066 34.4604C100.425 33.9764 99.7142 33.5894 98.957 33.3122C97.1503 32.6989 95.1924 32.6662 93.3656 33.2188C91.5388 33.7714 89.9375 34.8808 88.7926 36.3869L87.8424 37.5975C87.107 37.3313 86.3224 37.223 85.5411 37.2798C84.7597 37.3366 83.9998 37.5573 83.3122 37.927V37.927Z" fill="#FEF3EC"/>
<path d="M94.0846 40.3766C92.6756 43.4697 94.3644 46.7463 95.8061 49.5466C97.1494 52.1378 99.0417 54.4153 101.355 56.2255C101.587 56.1854 101.816 56.133 102.042 56.0686C103.748 55.4947 105.269 54.4875 106.453 53.149V53.149C106.826 52.7745 107.096 52.4487 107.267 52.2413L108.181 51.072C109.636 49.1994 110.279 46.8363 109.97 44.4988C109.66 42.1612 108.424 40.0392 106.53 38.5961L102.681 35.6655C98.819 35.7931 95.3846 37.5231 94.0846 40.3766Z" fill="#A13C23"/>
<path d="M86.7395 42.5849C86.5782 42.6766 86.663 43.2081 86.8831 43.6055C87.0192 43.8577 87.2168 44.0727 87.4582 44.2311C87.6996 44.3895 87.9772 44.4865 88.266 44.5132C88.4973 44.526 88.8983 44.4921 88.9579 44.3149C89.0176 44.1378 88.6782 44.0222 88.474 43.5577C88.2949 43.1475 88.4292 42.9401 88.2446 42.8088C88.0329 42.6601 87.8166 42.9006 87.355 42.8088C86.9792 42.7308 86.8533 42.5151 86.7395 42.5849Z" fill="#F5B3A3"/>
<path d="M95.5638 42.8006C96.0551 42.8006 96.4534 42.4086 96.4534 41.925C96.4534 41.4414 96.0551 41.0494 95.5638 41.0494C95.0724 41.0494 94.6741 41.4414 94.6741 41.925C94.6741 42.4086 95.0724 42.8006 95.5638 42.8006Z" fill="#131313"/>
<path d="M90.0797 38.6465C90.5711 38.6465 90.9694 38.2545 90.9694 37.7709C90.9694 37.2874 90.5711 36.8954 90.0797 36.8954C89.5884 36.8954 89.1901 37.2874 89.1901 37.7709C89.1901 38.2545 89.5884 38.6465 90.0797 38.6465Z" fill="#131313"/>
<path d="M103.333 39.9351C103.621 39.54 103.996 39.2149 104.432 38.9846C104.867 38.7542 105.349 38.6248 105.843 38.6061C107.391 38.6144 108.103 40.1003 109.601 41.4899C113.277 44.9033 116.682 43.0915 118.856 46.1084C119.889 47.542 120.437 49.7797 119.569 51.2941C118.096 53.8704 112.814 53.9016 109.328 52.2293C104.094 49.7191 101.395 42.6427 103.333 39.9351Z" fill="#A13C23"/>
<path d="M102.802 41.5193C102.771 43.4191 103.203 45.2985 104.063 46.9996C104.923 48.7007 106.186 50.1738 107.744 51.295" stroke="#040000" stroke-linecap="round" stroke-linejoin="round"/>
<path d="M88.8786 42.0388C88.7183 42.2068 88.5948 42.4054 88.5159 42.6224C88.437 42.8393 88.4043 43.0699 88.4198 43.2999C88.5106 43.7185 88.7461 44.0931 89.0862 44.3599C89.4263 44.6267 89.8499 44.7691 90.2848 44.7629" stroke="#131313" stroke-width="0.75" stroke-linecap="round" stroke-linejoin="round"/>
<path d="M88.8683 42.0342C88.7446 42.2296 88.5814 42.3978 88.3889 42.5285C88.1964 42.6593 87.9787 42.7497 87.7492 42.7942C87.3144 42.8149 86.8857 42.6864 86.5364 42.4306C86.187 42.1748 85.9387 41.8077 85.8339 41.3918" stroke="#131313" stroke-width="0.75" stroke-linecap="round" stroke-linejoin="round"/>
<path d="M85.6851 53.1655C86.6264 53.3657 87.4662 53.8856 88.0574 54.634C88.4982 55.2498 88.7623 55.9711 88.8219 56.7222C88.8815 57.4732 88.7343 58.2262 88.3959 58.9018" stroke="#040000" stroke-linecap="round" stroke-linejoin="round"/>
<path d="M112.293 78.2944C112.265 78.4046 112.237 78.5147 112.2 78.6248C112.041 79.249 111.845 79.8823 111.64 80.5339C111.389 81.2773 111.118 82.0391 110.792 82.8193C110.549 83.4434 110.27 84.0767 109.971 84.71C109.617 85.4442 109.234 86.1877 108.815 86.9311C108.805 86.9495 108.796 86.9586 108.787 86.977C108.423 87.6195 108.041 88.2436 107.64 88.8493C107.136 89.6295 106.605 90.3821 106.045 91.098C105.56 91.7405 105.057 92.3554 104.535 92.9428C103.854 93.7229 103.145 94.4572 102.418 95.1547C101.765 95.7972 101.094 96.3938 100.413 96.9628C99.4804 97.7522 98.5385 98.4772 97.5874 99.1381C96.6828 99.7805 95.769 100.368 94.8737 100.909C93.5403 101.708 92.2254 102.405 90.9572 103.011C90.5842 103.195 90.2112 103.369 89.8475 103.525C89.845 103.525 89.8427 103.526 89.8409 103.528C89.8392 103.53 89.8382 103.532 89.8382 103.534C88.8497 103.975 87.8986 104.37 87.0127 104.7C85.3621 105.333 83.9074 105.783 82.7604 106.113C82.5215 106.184 82.2731 106.218 82.0237 106.214H82.0144C81.8186 106.196 81.6228 106.178 81.4363 106.15H81.4083C80.9342 106.04 80.4992 105.805 80.1494 105.471C79.7484 105.095 79.3101 104.663 78.8532 104.195C78.2471 103.589 77.6036 102.901 76.9229 102.139C76.2422 101.378 75.5521 100.561 74.8341 99.6612C74.3305 99.0187 73.8083 98.3396 73.2954 97.6237C72.7359 96.8527 72.1764 96.0358 71.6169 95.1823C71.1973 94.5306 70.7777 93.8606 70.3767 93.1631C70.1342 92.7684 69.9104 92.3738 69.6866 91.9607C69.4628 91.5661 69.239 91.1622 69.0152 90.74C68.6795 90.0884 68.3438 89.4184 68.0174 88.73C67.6537 87.9591 67.2901 87.1514 66.945 86.3253C66.6839 85.6829 66.4228 85.0129 66.171 84.3337C65.882 83.5535 65.6022 82.755 65.3504 81.9382C65.1453 81.2957 64.9495 80.6349 64.7723 79.9649C64.5485 79.1847 64.3526 78.3954 64.1755 77.5877C64.1102 77.3399 64.0636 77.0921 64.0076 76.8443C63.9237 76.4313 63.8398 76.0274 63.7652 75.6236C63.616 74.8251 63.4854 74.0358 63.3828 73.2556C63.2896 72.5948 63.2057 71.9431 63.1404 71.3007C62.4408 64.3217 63.083 57.2755 65.0334 50.5304C65.1587 50.092 65.3958 49.6923 65.7222 49.3694C66.0487 49.0465 66.4535 48.8112 66.8984 48.6856C69.2297 48.0248 71.5703 47.364 73.9016 46.7123C74.3052 46.5965 74.7307 46.5752 75.1442 46.6502C75.5577 46.7251 75.9476 46.8941 76.2829 47.1439C76.6181 47.3936 76.8894 47.717 77.075 48.0883C77.2606 48.4596 77.3554 48.8684 77.3519 49.2822C77.2547 57.3332 79.0919 65.2928 82.7138 72.5122C82.761 72.6219 82.8139 72.7291 82.8723 72.8334C83.1314 73.3487 83.5531 73.7675 84.0742 74.0272C84.5953 74.287 85.1878 74.3737 85.7631 74.2744C85.8801 74.2556 85.9954 74.2279 86.1081 74.1918C87.1728 73.8758 88.201 73.4513 89.1761 72.9252C89.1854 72.9252 89.1948 72.916 89.2041 72.916C92.3587 71.2264 94.8424 68.5393 96.2539 65.289C96.4267 64.8786 96.7009 64.5173 97.0516 64.2377C97.4023 63.9581 97.8184 63.7692 98.2621 63.6881C98.7058 63.6069 99.1631 63.6361 99.5924 63.7731C100.022 63.91 100.41 64.1503 100.721 64.4721C101.094 64.8668 101.476 65.2522 101.849 65.6469C103.481 67.3357 105.113 69.0336 106.745 70.7224C107.864 71.8881 108.983 73.0445 110.102 74.2101C110.316 74.4304 110.531 74.6599 110.754 74.8801C111.043 75.183 111.333 75.4951 111.631 75.798C111.768 75.9445 111.89 76.1044 111.995 76.2752C112.179 76.5753 112.3 76.9084 112.351 77.2552C112.402 77.6019 112.382 77.9553 112.293 78.2944V78.2944Z" fill="#9FB0DA"/>
<path d="M91.1023 42.5475C91.5816 41.9344 91.231 40.8776 90.3192 40.187C89.4074 39.4964 88.2796 39.4335 87.8004 40.0466C87.3211 40.6596 87.6717 41.7164 88.5835 42.407C89.4953 43.0976 90.623 43.1605 91.1023 42.5475Z" fill="#131313"/>
<path d="M89.9416 2.58275C90.0488 1.87787 88.388 0.914167 86.8549 0.655344C85.8292 0.483714 84.1507 0.511248 83.9856 1.07478C83.7581 1.86318 86.439 3.90256 88.6855 3.37482C88.8542 3.33811 89.8632 3.10039 89.9416 2.58275Z" fill="#1C0404"/>
<path d="M105.444 60.6007C105.044 59.4382 104.643 58.2738 104.242 57.1075Z" fill="#FAD5C6"/>
<path d="M105.444 60.9578C105.698 60.5755 105.835 60.1295 105.839 59.6728C105.932 57.5214 103.787 55.0369 102.176 55.3343C101.775 55.4313 101.413 55.6441 101.136 55.9453C100.858 56.2466 100.679 56.6226 100.621 57.0249C100.556 57.8188 101.264 58.0143 101.528 59.1625C101.824 60.4474 101.119 60.9752 101.528 61.5231C102.143 62.3427 104.534 62.2262 105.444 60.9578Z" fill="#FAD5C6"/>
<path d="M105.171 58.5375C105.564 58.8718 105.891 59.2744 106.136 59.7251C106.606 60.628 106.748 61.6622 106.539 62.6557" stroke="#040000" stroke-linecap="round" stroke-linejoin="round"/>
<path opacity="0.1" d="M42.7836 71.9799L52.0901 72.5581L58.8881 72.9803L63.3828 73.2556L65.5929 73.3933L84.4016 74.5589L85.8097 74.6507L89.2227 74.8618L96.5056 75.3115L96.9066 75.3391L101.336 75.6144L106.623 75.9448L108.777 76.0733L109.169 76.1009L111.995 76.2753C111.89 76.1045 111.768 75.9445 111.631 75.798C111.333 75.4951 111.043 75.183 110.754 74.8802C110.95 74.6966 111.155 74.5039 111.361 74.2928L110.102 74.2102L106.735 74.0082L104.115 73.843L101.737 73.6962L97.6992 73.4484L96.9532 73.3933L89.2041 72.916L89.1761 72.9069L85.5486 72.6866L85.1103 72.6591L82.7138 72.5122L65.5089 71.4475L63.1404 71.3007L59.6248 71.0804L53.349 70.6949L43.1939 70.0616L42.7836 71.9799Z" fill="white"/>
<path opacity="0.1" d="M112.2 78.6248C112.041 79.2489 111.845 79.8822 111.64 80.5339L106.11 80.1943L100.45 79.8363L89.1108 79.1296L86.3599 78.9644L82.8443 78.7441L65.9938 77.6978L64.1754 77.5877L56.6967 77.1288L49.3112 76.6699L41.963 76.211L39.3053 76.0457L39.697 74.1275L42.3267 74.2927L50.5701 74.8067L57.8064 75.2564L63.7651 75.6236L65.77 75.752L83.553 76.8534L86.1174 77.0095L89.1947 77.2022L100.823 77.9181L106.381 78.2669L112.2 78.6248Z" fill="white"/>
<path opacity="0.1" d="M110.792 82.8192C110.55 83.4433 110.27 84.0766 109.971 84.7099L105.318 84.4254L99.8629 84.0858L88.7567 83.3975L86.9103 83.2781L81.2686 82.9294L66.7215 82.0299L65.3507 81.9381L52.9483 81.1672L46.5326 80.7725L41.2266 80.4421L38.457 80.2677L38.8394 78.3494L41.5436 78.5147L47.7915 78.9093L54.9718 79.3499L64.7725 79.9648L66.3485 80.0566L81.9867 81.0295L86.6679 81.3232L88.9432 81.4609L100.068 82.1584L105.672 82.5072L110.792 82.8192Z" fill="white"/>
<path opacity="0.1" d="M108.787 86.977C108.423 87.6194 108.041 88.2436 107.64 88.8493L103.602 88.6015L99.7972 88.3629L88.1501 87.6378L87.4414 87.5919L79.7016 87.1146L67.8214 86.3804L66.9448 86.3253L45.0774 84.967L43.7533 84.8843L40.5734 84.6824L37.5987 84.4989L37.981 82.5806L40.8532 82.7642L45.0122 83.0212L49.339 83.2873L66.1708 84.3337L67.2805 84.3979L80.4103 85.2148L87.199 85.637L88.4485 85.7104L99.7506 86.4171L104.6 86.72L108.787 86.977Z" fill="white"/>
<path opacity="0.1" d="M106.045 91.098C105.56 91.7404 105.057 92.3554 104.534 92.9428L100.347 92.6858L99.1538 92.6124H99.1445L87.973 91.9148L87.3109 91.8781L78.9556 91.355L69.2482 90.7492L69.015 90.74L40.9744 88.9962L40.0233 88.9319C40.0979 88.2986 40.1818 87.6562 40.2657 87.0045L42.2333 87.133L68.0173 88.73L68.5768 88.7667L78.8437 89.4L87.7119 89.9507H87.7305L100.012 90.7217L101.718 90.8318L106.045 91.098Z" fill="white"/>
<path opacity="0.1" d="M102.418 95.1547C101.765 95.7972 101.094 96.3938 100.413 96.9628L90.1739 96.3387L86.2293 96.0909L71.6169 95.1822L70.9455 95.1455L39.5758 93.1906C39.6317 92.5481 39.697 91.9056 39.7716 91.254L70.1342 93.1447L70.3766 93.1631L83.7862 93.9983L86.7422 94.1818L100.907 95.0629L102.418 95.1547Z" fill="white"/>
<path opacity="0.1" d="M39.3613 95.5127L72.0552 97.5503L73.2954 97.6237L85.5486 98.3855L97.5874 99.1381C96.6828 99.7805 95.769 100.368 94.8738 100.909L84.9332 100.295L74.8341 99.6612L73.1742 99.5603L39.2028 97.4585L39.3613 95.5127Z" fill="white"/>
<path opacity="0.1" d="M90.9572 103.011C90.5842 103.195 90.2112 103.369 89.8475 103.525C89.845 103.525 89.8427 103.526 89.8409 103.528C89.8392 103.53 89.8382 103.532 89.8382 103.534C89.2204 103.984 88.5724 104.392 87.8986 104.755L87.0127 104.7L83.4132 104.48L78.8532 104.195L76.9136 104.076L38.9324 101.717C38.9697 101.084 39.007 100.432 39.0443 99.7806L74.8807 102.011L76.9229 102.139L84.1312 102.58L90.9572 103.011Z" fill="white"/>
<path d="M66.4976 58.286C65.7329 62.631 65.4018 67.0391 65.5092 71.4475C65.5185 72.1084 65.5465 72.76 65.5931 73.3933C65.6304 74.2102 65.6957 74.9903 65.7703 75.7521C65.8356 76.4221 65.9101 77.0646 65.9941 77.6979C66.0967 78.5147 66.2179 79.304 66.3484 80.0566C66.4697 80.745 66.5909 81.3967 66.7214 82.03C66.8986 82.8652 67.0851 83.6545 67.2809 84.3979C67.4488 85.0955 67.6353 85.7563 67.8218 86.3804C68.0176 87.0412 68.2135 87.6562 68.4 88.2252C68.4559 88.3996 68.5212 88.5832 68.5771 88.7667C68.7916 89.3909 69.0154 90.0609 69.2485 90.7492C69.3884 91.1439 69.5283 91.5477 69.6868 91.9607C69.8267 92.3462 69.9759 92.7409 70.1344 93.1447C70.3769 93.8056 70.6473 94.4756 70.9457 95.1456C71.2907 95.9532 71.6637 96.7609 72.0554 97.5503C72.4098 98.2386 72.7828 98.9086 73.1744 99.5603C73.6825 100.417 74.2528 101.236 74.8809 102.011C75.4886 102.763 76.1694 103.454 76.9138 104.076C78.1859 105.167 79.7429 105.885 81.4085 106.15H81.4365C81.623 106.178 81.8188 106.196 82.0146 106.214H82.0239C84.084 106.293 86.1236 105.787 87.8988 104.755C88.5726 104.392 89.2206 103.984 89.8384 103.534C89.8384 103.532 89.8394 103.53 89.8411 103.528C89.8429 103.526 89.8452 103.525 89.8477 103.525" stroke="#231815" stroke-width="2" stroke-linecap="round" stroke-linejoin="round"/>
<path d="M87.8978 1.57131C87.6815 1.19133 87.0334 0.34694 84.6666 0.0899515C81.7021 -0.209684 78.709 0.242133 75.9719 1.40243C67.3191 5.53812 65.5464 13.8939 57.6648 17.6873C48.5859 22.057 43.4907 14.5226 31.8483 19.4926C29.4526 20.5151 23.0444 23.2557 20.397 29.3371C17.6843 35.5783 21.8396 38.6309 20.6357 47.1584C19.2099 57.2948 12.6311 57.9804 12.5891 65.4624C12.5406 74.2735 21.5925 83.693 31.645 85.8628C41.372 87.9627 50.2271 82.8578 51.2063 82.3145C51.3331 82.2447 51.9942 81.8482 52.5659 81.4526C66.5675 71.7678 60.6414 36.4254 72.2213 30.8809C73.4858 30.2761 76.6461 29.0719 78.2435 25.9889C79.2059 24.1313 79.8372 20.9868 78.3582 19.2329C77.3324 18.0131 76.0008 18.327 75.4478 17.0145C75.2423 16.3724 75.2227 15.6866 75.391 15.0341C75.5593 14.3816 75.909 13.7881 76.4009 13.3203C76.8885 12.8868 77.4674 12.5646 78.0962 12.3768C78.67 12.1817 79.2721 12.0791 79.8791 12.073C80.9683 12.0445 88.6149 8.21814 88.1785 2.7709C88.1766 2.35547 88.0808 1.94568 87.8978 1.57131V1.57131Z" fill="#1C0404"/>
<path d="M81.4166 11.6133L78.0929 9.95719C77.5801 9.70169 76.954 9.90371 76.6944 10.4084C76.4348 10.9131 76.64 11.5294 77.1528 11.7849L80.4766 13.441C80.9894 13.6965 81.6155 13.4945 81.8751 12.9898C82.1347 12.485 81.9294 11.8688 81.4166 11.6133Z" fill="#F8B54A"/>
<path d="M108.221 28.6524C108.353 28.0986 108.278 27.5164 108.01 27.0126C107.741 26.5088 107.297 26.1173 106.759 25.91C106.338 25.8202 105.899 25.8638 105.505 26.0346C105.111 26.2055 104.782 26.4947 104.565 26.8608C104.555 26.8769 104.54 26.8894 104.523 26.8968C104.505 26.9042 104.485 26.9059 104.467 26.9019C104.448 26.8979 104.431 26.8883 104.418 26.8743C104.405 26.8604 104.396 26.8429 104.394 26.8241C104.35 26.3969 104.172 25.9937 103.886 25.67C103.599 25.3462 103.218 25.1177 102.794 25.016C102.218 24.9787 101.647 25.1466 101.187 25.489C100.726 25.8315 100.406 26.3255 100.285 26.881C99.6847 29.6097 102.798 32.085 103.145 32.3512C103.155 32.359 103.166 32.3645 103.178 32.3672C103.19 32.3699 103.203 32.3698 103.215 32.3668C103.646 32.275 107.591 31.3719 108.221 28.6524V28.6524Z" fill="#F5B3A3"/>
<path d="M104.455 21.2705C104.51 21.0401 104.479 20.7979 104.368 20.5884C104.256 20.3788 104.071 20.2159 103.847 20.1296C103.672 20.0923 103.49 20.1105 103.326 20.1816C103.162 20.2526 103.025 20.3729 102.935 20.5252C102.932 20.5327 102.925 20.5387 102.918 20.5423C102.91 20.5459 102.902 20.5468 102.894 20.545C102.885 20.5432 102.878 20.5387 102.873 20.5323C102.867 20.5259 102.864 20.5179 102.864 20.5096C102.846 20.332 102.772 20.1643 102.653 20.0298C102.533 19.8952 102.375 19.8002 102.199 19.7579C101.959 19.7427 101.722 19.8126 101.53 19.955C101.339 20.0973 101.206 20.3026 101.155 20.5335C100.906 21.6679 102.2 22.6977 102.345 22.8087C102.349 22.8118 102.354 22.814 102.359 22.8151C102.364 22.8162 102.369 22.8162 102.374 22.8152C102.553 22.7766 104.193 22.4012 104.455 21.2705V21.2705Z" fill="#F5B3A3"/>
</svg>
