<svg width="124" height="100" viewBox="0 0 124 100" fill="none" xmlns="http://www.w3.org/2000/svg">
<path d="M30.6883 72.9107C41.9698 67.6202 43.9352 54.3914 44.1119 53.0513L35.827 44.836L28.0271 42.1372C26.476 44.8625 24.9584 47.7116 23.4744 50.6846C17.5545 62.6102 13.0219 75.1558 9.96295 88.0828L31.2323 88.8C31.9423 88.5758 32.5924 88.1981 33.1349 87.6946C33.6774 87.191 34.0986 86.5744 34.3676 85.8899C34.6487 84.7577 34.5194 83.5645 34.002 82.5161C33.4847 81.4677 32.6117 80.63 31.5338 80.1475C29.4496 80.3283 27.3264 80.492 25.1643 80.6387C23.2418 80.7658 21.3476 80.8732 19.4817 80.9609L22.8306 74.9061C25.5544 74.7355 28.2207 74.0585 30.6883 72.9107V72.9107Z" fill="#F9D7C6"/>
<path d="M47.0875 98.1127C73.0932 98.1127 94.1749 97.0566 94.1749 95.7538C94.1749 94.451 73.0932 93.3949 47.0875 93.3949C21.0818 93.3949 0 94.451 0 95.7538C0 97.0566 21.0818 98.1127 47.0875 98.1127Z" fill="#ED7565"/>
<path d="M56.2489 84.6786C74.8994 84.6786 90.0186 69.7976 90.0186 51.441C90.0186 33.0845 74.8994 18.2035 56.2489 18.2035C37.5984 18.2035 22.4792 33.0845 22.4792 51.441C22.4792 69.7976 37.5984 84.6786 56.2489 84.6786Z" fill="#ED7565"/>
<path d="M114.702 85.1777C114.708 86.4507 114.289 87.6905 113.509 88.7057L76.9692 89.4916C76.8983 88.7862 76.8694 88.074 76.8694 87.3489C76.8646 84.2793 77.4829 81.2397 78.688 78.4085C80.8455 79.522 83.0049 80.638 85.1663 81.7567C91.6524 82.4391 98.2087 82.0489 104.564 80.6023C106.461 80.1278 110.274 79.0501 112.665 80.9619C113.289 81.4824 113.793 82.1274 114.144 82.8543C114.495 83.5811 114.685 84.373 114.702 85.1777V85.1777Z" fill="#A13C23"/>
<path d="M115.995 93.8989C120.113 93.8989 123.451 90.6136 123.451 86.561C123.451 82.5083 120.113 79.223 115.995 79.223C111.878 79.223 108.54 82.5083 108.54 86.561C108.54 90.6136 111.878 93.8989 115.995 93.8989Z" fill="#ED7565"/>
<path d="M102.606 87.8892C99.0731 91.6098 86.7285 92.5461 70.9711 89.3383C70.3323 88.7233 64.8712 83.3277 65.9333 75.7126C66.7867 69.6312 71.2905 66.2123 72.5552 65.1404C74.8641 63.1755 77.7149 61.9316 80.7446 61.5671C83.7743 61.2027 86.8457 61.7342 89.5673 63.094C91.1791 64.1403 92.4989 65.5674 93.4064 67.2448C94.5859 69.4928 94.9819 72.0601 94.5333 74.5514C96.8233 74.2732 99.1474 74.4877 101.345 75.1801C103.057 75.6663 104.506 76.7955 105.38 78.324C105.676 78.9398 105.861 79.6017 105.927 80.2801C105.953 80.5051 105.96 80.678 105.967 80.7811C105.97 80.787 106.125 84.1814 102.606 87.8892Z" fill="#FEF3EC"/>
<path d="M102.606 87.8902C99.073 91.6108 86.7275 92.5461 70.9711 89.3403C70.3322 88.7243 64.8702 83.3296 65.9332 75.7146C66.4818 72.2338 68.2088 69.0373 70.8343 66.6436C71.564 65.9559 72.1899 65.4499 72.5552 65.1424C74.864 63.1777 77.7146 61.9339 80.7441 61.5694C83.7736 61.205 86.8447 61.7364 89.5663 63.0959C91.1788 64.1415 92.4988 65.5687 93.4053 67.2468C94.585 69.4947 94.9813 72.062 94.5333 74.5533C94.9535 74.5101 95.5375 74.4639 96.2302 74.4551C97.4818 74.4173 98.7334 74.5318 99.9564 74.796C102.524 75.412 104.782 77.0262 105.376 78.323C105.621 78.9567 105.804 79.6121 105.923 80.2801C105.949 80.5041 105.956 80.678 105.962 80.7802C105.969 80.789 106.125 84.1824 102.606 87.8902Z" fill="#FEF3EC"/>
<path d="M96.2371 74.4571C95.0767 76.1341 93.5376 77.5238 91.7403 78.5176C89.7261 79.5677 87.4779 80.1076 85.1986 80.0886C82.9194 80.0696 80.6808 79.4922 78.685 78.4085C74.5326 76.1253 71.6977 71.4674 70.8373 66.6436C71.567 65.9559 72.1928 65.4499 72.5582 65.1424C74.8669 63.1777 77.7176 61.9339 80.7471 61.5694C83.7765 61.205 86.8477 61.7364 89.5692 63.0959C91.1817 64.1415 92.5018 65.5687 93.4083 67.2468C94.5879 69.4947 94.9843 72.062 94.5362 74.5534C95.1165 74.497 95.6835 74.4649 96.2371 74.4571Z" fill="#A13C23"/>
<path d="M91.413 73.9261C91.505 73.2129 90.9922 72.5613 90.2675 72.4708C89.5429 72.3803 88.8809 72.885 88.7889 73.5982C88.6969 74.3115 89.2098 74.963 89.9344 75.0536C90.6591 75.1441 91.3211 74.6393 91.413 73.9261Z" fill="#131313"/>
<path d="M105.93 80.2801C105.664 80.3326 105.393 80.3586 105.122 80.3577C104.063 80.3577 103.048 79.9437 102.299 79.2067C101.55 78.4697 101.129 77.4701 101.129 76.4279C101.127 76.0015 101.2 75.578 101.345 75.1762C103.057 75.6623 104.506 76.7915 105.38 78.3201C105.677 78.9369 105.864 79.6002 105.93 80.2801V80.2801Z" fill="#231815"/>
<path d="M104.844 79.5511C104.602 80.0428 104.263 80.4819 103.846 80.8424C103.429 81.2028 102.943 81.4773 102.416 81.6496C101.727 81.8231 101.006 81.8288 100.315 81.6661C99.6234 81.5035 98.9827 81.1775 98.4482 80.7163" stroke="#231815" stroke-linecap="round" stroke-linejoin="round"/>
<path d="M119.213 95.2439C119.218 96.5183 118.797 97.7588 118.016 98.7749C98.9902 99.1855 79.9644 99.5939 60.9383 100C48.8669 97.2348 37.7915 91.2786 28.9065 82.7736C23.5572 77.5577 15.3462 69.6018 14.0515 57.2434C13.773 54.5672 12.4953 39.9207 22.3734 32.8784C24.6598 31.2259 27.3439 30.1875 30.1616 29.8654C32.9794 29.5433 35.8338 29.9485 38.4442 31.0413C38.4894 31.0562 38.5331 31.0749 38.575 31.0973C44.3325 33.7813 46.8599 39.7547 50.0172 47.2361C51.2026 49.8303 52.1707 52.5154 52.9119 55.2647C53.6656 58.2956 53.8782 60.682 54.7546 62.5841C55.1361 63.4574 55.7063 64.2386 56.4255 64.8732C57.3684 65.6915 58.4938 66.2798 59.7106 66.5905C64.3022 67.1309 68.8969 67.6735 73.4945 68.2185C72.0032 72.5314 70.5126 76.8471 69.0227 81.1653C75.9022 84.7198 82.7847 88.2747 89.6702 91.8299C96.1551 92.5146 102.711 92.1224 109.064 90.6696C110.96 90.2019 114.773 89.1212 117.172 91.0321C117.795 91.5526 118.299 92.197 118.651 92.9229C119.003 93.6488 119.195 94.4398 119.213 95.2439V95.2439Z" fill="#FEF3EC"/>
<path d="M79.841 69.4279C79.8789 67.5612 79.0544 65.1109 77.2367 64.1796C74.9788 63.0222 72.8726 65.0746 66.4842 67.5494C59.0817 70.4192 56.5383 69.7442 55.5132 72.0098C54.2614 74.7773 56.4614 79.3075 59.6876 81.0484C66.5731 84.765 79.6972 76.6185 79.841 69.4279Z" fill="#A13C23"/>
<path d="M21.1845 80.1828C32.2744 74.515 33.7786 61.2273 33.9094 59.8843L25.343 51.9529L14.5476 45.9776C13.5094 48.4357 12.5046 50.9636 11.533 53.5612C6.42291 67.2914 2.88932 81.5411 0.998169 96.0446H22.2805C22.3893 96.0112 24.8948 95.1928 25.314 93.0304C25.3895 92.425 25.3277 91.8106 25.133 91.2314C24.9383 90.6523 24.6156 90.1229 24.1881 89.6812C22.017 87.2448 17.8326 87.8264 15.932 88.0887C13.7229 88.4024 11.6025 89.1581 9.70136 90.309L13.4006 82.4386C16.1168 82.1775 18.758 81.4121 21.1845 80.1828Z" fill="#FEF3EC"/>
<path d="M44.7726 13.0652C44.055 17.4666 40.5483 19.6221 37.4529 21.5271C34.8716 23.1118 32.6487 24.4745 31.899 26.8648C30.9807 29.8122 32.4979 33.7676 36.4098 38.6239C36.6235 38.8874 36.7822 39.1898 36.8768 39.5138C36.9715 39.8378 37.0003 40.1769 36.9615 40.5119C36.9227 40.8468 36.8172 41.171 36.6509 41.4657C36.4847 41.7605 36.261 42.02 35.9926 42.2295C35.5302 42.5888 34.9587 42.7853 34.3695 42.7875C33.9766 42.7875 33.5888 42.6997 33.2354 42.5307C32.8819 42.3617 32.5721 42.116 32.3292 41.8119C27.2784 35.5576 25.4597 30.0224 26.9131 25.3568C28.2297 21.1322 31.6645 19.0317 34.689 17.1709C37.5378 15.4202 39.2976 14.252 39.623 12.2586C39.7373 11.1788 39.5982 10.0876 39.2162 9.06918C38.8343 8.05072 38.2197 7.13222 37.42 6.38452C36.8489 5.84943 36.1494 5.46546 35.3867 5.26845C32.9032 4.65245 29.2598 6.37764 27.6957 10.2397C27.4398 10.8718 26.9393 11.378 26.3042 11.6469C25.6691 11.9158 24.9516 11.9254 24.3093 11.6736C23.6671 11.4217 23.1528 10.9291 22.8796 10.3041C22.6063 9.679 22.5966 8.97272 22.8525 8.34059C25.2541 2.39476 31.1893 -1.06251 36.6574 0.293285C37.1661 0.419073 37.6632 0.586341 38.1437 0.793356C42.9599 2.86339 45.4953 8.60487 44.7726 13.0652Z" fill="#FEF2EB"/>
<path d="M38.2026 2.00374C38.2023 3.49798 37.9374 4.98074 37.42 6.38551C36.8489 5.85042 36.1494 5.46645 35.3867 5.26944C32.9032 4.65343 29.2598 6.37863 27.6957 10.2407C27.4398 10.8728 26.9393 11.379 26.3042 11.6479C25.6691 11.9168 24.9516 11.9264 24.3093 11.6746C23.6671 11.4227 23.1528 10.9301 22.8796 10.3051C22.6063 9.67999 22.5966 8.97371 22.8525 8.34158C25.2541 2.39476 31.1893 -1.06251 36.6574 0.293283C37.1661 0.41907 37.6632 0.586339 38.1437 0.793354C38.183 1.18961 38.2026 1.59308 38.2026 2.00374Z" fill="#A13C23"/>
<path d="M87.9293 91.2856C84.5632 91.9168 81.0827 91.5578 77.9227 90.2534C74.7627 88.949 72.0633 86.7571 70.1616 83.9515" stroke="#F9D7C6" stroke-width="2" stroke-linecap="round" stroke-linejoin="round"/>
<path d="M24.3697 78.1659C28.1992 75.2212 30.9904 71.1654 32.3482 66.5728C33.8484 61.2145 33.329 55.5029 30.8858 50.492" stroke="#F9D7C6" stroke-width="2" stroke-linecap="round" stroke-linejoin="round"/>
<path d="M117.665 95.8442C117.856 95.4895 117.906 95.0775 117.804 94.6888C117.687 94.4016 117.503 94.1456 117.267 93.9416C117.031 93.7376 116.749 93.5913 116.445 93.5148C116.057 93.4068 115.651 93.3798 115.253 93.4354C114.854 93.4911 114.472 93.6282 114.131 93.838" stroke="#231815" stroke-linecap="round" stroke-linejoin="round"/>
<path d="M80.0157 69.0565C79.7661 70.0286 79.4263 70.976 79.0006 71.8869C76.6738 76.8631 71.2327 81.8314 64.8662 81.9208C62.395 82.0589 59.9568 81.3094 58.0047 79.8115C57.7402 79.5933 54.0778 76.4711 55.0441 73.1543C55.2992 72.3298 55.7778 71.5893 56.4286 71.0126" stroke="#231815" stroke-linecap="round" stroke-linejoin="round"/>
<path d="M88.0082 71.0303C87.9252 70.8386 87.9046 70.6263 87.9491 70.4226C87.9936 70.2189 88.101 70.0337 88.2568 69.8926C88.3943 69.7821 88.5654 69.7199 88.7429 69.7158C88.9205 69.7117 89.0943 69.7659 89.237 69.87" stroke="#131313" stroke-width="0.75" stroke-linecap="round" stroke-linejoin="round"/>
<path d="M54.7565 62.5811C51.3659 61.908 48.1739 60.4889 45.4193 58.43C42.6647 56.3712 40.4188 53.7258 38.8497 50.692C37.2806 47.6581 36.4289 44.3142 36.3583 40.9106C36.2877 37.507 37.0001 34.1317 38.4421 31.0373C38.4873 31.0523 38.531 31.071 38.5729 31.0933C44.3304 33.7774 46.8578 39.7507 50.0151 47.2322C51.2005 49.8263 52.1687 52.5115 52.9098 55.2608C53.6675 58.2917 53.8801 60.6781 54.7565 62.5811Z" fill="#A13C23"/>
<path d="M32.1416 29.7336C29.5214 29.7555 26.9417 30.3721 24.6033 31.5354" stroke="#F9D7C6" stroke-width="2" stroke-linecap="round" stroke-linejoin="round"/>
</svg>
