<?xml version="1.0" encoding="utf-8"?>
<!-- Generator: Adobe Illustrator 25.2.1, SVG Export Plug-In . SVG Version: 6.00 Build 0)  -->
<svg version="1.1" id="레이어_1" xmlns="http://www.w3.org/2000/svg" xmlns:xlink="http://www.w3.org/1999/xlink" x="0px"
	 y="0px" viewBox="0 0 29.629 29.647" enable-background="new 0 0 29.629 29.647" xml:space="preserve">
<g>
	<g>
		<circle fill="#F3A297" cx="14.805" cy="14.824" r="14.824"/>
	</g>
	<g>
		<circle fill="#F9D0CA" cx="14.805" cy="14.824" r="13.903"/>
		<path fill="#FFFFFF" d="M14.805,28.914c-7.77,0-14.091-6.32-14.091-14.09S7.035,0.733,14.805,0.733s14.09,6.321,14.09,14.091
			S22.575,28.914,14.805,28.914z M14.805,1.109C7.242,1.109,1.09,7.261,1.09,14.824s6.152,13.715,13.715,13.715
			s13.715-6.152,13.715-13.715S22.368,1.109,14.805,1.109z"/>
	</g>
	<g>
		<path fill="#FFFFFF" d="M23.844,25.383c-0.947-3.074-3.411-5.482-6.523-6.338c1.782-0.974,3.004-2.946,3.004-5.226
			c0-3.245-2.471-5.875-5.519-5.875s-5.519,2.631-5.519,5.875c0,2.279,1.222,4.251,3.004,5.226
			c-3.113,0.856-5.577,3.265-6.523,6.338c2.431,2.083,5.586,3.343,9.038,3.343S21.413,27.466,23.844,25.383z"/>
	</g>
</g>
<g>
	<g>
		<path fill="#F3A297" d="M17.784,18.012l-0.038-0.189c-0.02-0.1-0.132-0.15-0.22-0.099l0,0C16.919,18,16.338,18.33,15.79,18.709
			l-0.144,0.1c-0.005,0.002-0.013,0.004-0.019,0.006h-1.641c-0.007,0-0.013-0.002-0.019-0.006l0,0
			c-0.588-0.39-1.198-0.743-1.829-1.059l-0.053-0.026c-0.088-0.051-0.2,0-0.22,0.099l-0.038,0.189c-0.215,1.061-0.215,2.155,0,3.216
			l0.028,0.14c0.025,0.124,0.165,0.187,0.274,0.124l0.085-0.042c0.62-0.304,1.218-0.651,1.788-1.04l0,0
			c0.005-0.002,0.01-0.003,0.015-0.005h1.573c0.005,0.002,0.013,0.004,0.019,0.006l0,0c0.589,0.398,1.205,0.755,1.843,1.067
			l0.028,0.014c0.11,0.063,0.249,0,0.274-0.124l0.028-0.14C17.999,20.168,17.999,19.074,17.784,18.012z"/>
	</g>
	<g>
		<path fill="#FFFFFF" d="M15.38,20.47h-1.185c-0.174,0-0.315-0.142-0.315-0.316v-1.087c0-0.174,0.142-0.315,0.315-0.315h1.185
			c0.174,0,0.316,0.142,0.316,0.315v1.087C15.695,20.328,15.553,20.47,15.38,20.47z M14.195,18.861
			c-0.114,0-0.206,0.093-0.206,0.206v1.087c0,0.114,0.092,0.207,0.206,0.207h1.185c0.113,0,0.206-0.093,0.207-0.207v-1.087
			c0-0.113-0.093-0.206-0.207-0.206H14.195z"/>
	</g>
	<g>
		<path fill="#F3A297" d="M16.494,18.297"/>
	</g>
</g>
</svg>
