<svg width="136" height="109" viewBox="0 0 136 109" fill="none" xmlns="http://www.w3.org/2000/svg">
<rect x="20.0661" y="4.45912" width="7.80346" height="13.3774" fill="#DBFF8D"/>
<rect x="121.363" y="39.8414" width="7.80346" height="13.3774" transform="rotate(-31.7467 121.363 39.8414)" fill="#DBFF8D"/>
<rect x="107.019" y="2.563" width="4.8711" height="8.35045" transform="rotate(-31.7467 107.019 2.563)" fill="#DBFF8D"/>
<rect x="76.3625" y="12.2447" width="4.20343" height="7.20588" transform="rotate(-31.7467 76.3625 12.2447)" fill="#90FF8D"/>
<rect x="29.8112" y="35.673" width="4.20343" height="7.20588" transform="rotate(15.633 29.8112 35.673)" fill="#90FF8D"/>
<rect x="0.935181" y="66.3294" width="2.02444" height="3.47047" transform="rotate(15.633 0.935181 66.3294)" fill="#8DADFF"/>
<rect x="118.724" y="80.5201" width="6.18335" height="10.6" transform="rotate(-18.1685 118.724 80.5201)" fill="#8DADFF"/>
<rect x="1.11487" y="33.1419" width="6.18335" height="10.6" transform="rotate(-18.1685 1.11487 33.1419)" fill="#8DFFE4"/>
<rect x="16.6543" y="90.9365" width="6.18335" height="10.6" transform="rotate(1.14012 16.6543 90.9365)" fill="#8DFFE4"/>
<rect x="106.462" y="104.53" width="2.74417" height="4.7043" transform="rotate(-18.1685 106.462 104.53)" fill="#8DFFE4"/>
<rect x="25.515" y="21.1808" width="84.8068" height="84.8068" rx="42.4034" fill="#FE7968"/>
<path d="M87.3991 76.311C87.3974 81.7466 85.7841 87.0597 82.763 91.5784C79.7419 96.0972 75.4488 99.6187 70.4265 101.698C65.4041 103.777 59.8781 104.32 54.5472 103.258C49.2162 102.197 44.3196 99.5785 40.4767 95.7344C36.6337 91.8902 34.0168 86.9929 32.957 81.6616C31.8972 76.3303 32.442 70.8045 34.5225 65.7828C36.603 60.7611 40.1258 56.469 44.6454 53.4493C49.1651 50.4296 54.4787 48.8179 59.9143 48.8179C63.5312 48.7933 67.1169 49.4878 70.4632 50.8608C73.8094 52.2339 76.8494 54.2582 79.4066 56.8162C81.9639 59.3742 83.9873 62.4149 85.3593 65.7615C86.7314 69.1082 87.4247 72.6941 87.3991 76.311V76.311Z" fill="#ED7565"/>
<path d="M90.5937 60.7583C91.7789 64.2011 89.1788 67.6313 88.7128 68.2452C80.9978 78.4233 55.9995 69.9249 52.844 65.7963C52.6744 65.5818 52.5219 65.3542 52.388 65.1156C51.2298 62.9083 50.4546 60.5205 50.0953 58.0538C50.0118 57.2854 49.9917 56.659 49.9817 56.2639V54.0781C49.9817 46.83 55.5827 40.8999 62.4266 40.8999H73.201C74.379 40.9003 75.5503 41.078 76.6755 41.427C79.3201 42.3113 81.6151 44.0134 83.2289 46.2875C84.8427 48.5616 85.6917 51.2899 85.6533 54.0781V56.3408C86.4643 56.6281 89.5906 57.8417 90.5937 60.7583Z" fill="#FEF3EC"/>
<path d="M75.933 54.0564C74.7637 58.9408 69.8526 61.2844 65.6598 63.2915C61.7669 65.1386 57.5232 66.1297 53.2149 66.1981C52.9843 65.9449 52.7671 65.6797 52.5643 65.4038C51.1113 63.2132 50.2627 60.6777 50.1045 58.0538C50.021 57.2854 49.9951 56.659 49.9843 56.2639V54.0781C51.3782 50.2386 54.8428 41.939 59.7422 41.163C60.3218 41.0712 61.7467 40.9542 62.8041 40.8891C65.2853 40.7329 67.7737 40.7301 70.2552 40.8807C74.6042 44.4647 77.0088 49.5512 75.933 54.0564Z" fill="#A13C23"/>
<path d="M72.825 55.8555C73.5409 55.8555 74.1212 55.2751 74.1212 54.5592C74.1212 53.8433 73.5409 53.263 72.825 53.263C72.109 53.263 71.5287 53.8433 71.5287 54.5592C71.5287 55.2751 72.109 55.8555 72.825 55.8555Z" fill="#131313"/>
<path d="M82.9147 55.8555C83.6306 55.8555 84.211 55.2751 84.211 54.5592C84.211 53.8433 83.6306 53.263 82.9147 53.263C82.1988 53.263 81.6184 53.8433 81.6184 54.5592C81.6184 55.2751 82.1988 55.8555 82.9147 55.8555Z" fill="#131313"/>
<path d="M80.4558 61.3321C82.1335 61.3321 83.4935 60.4029 83.4935 59.2566C83.4935 58.1103 82.1335 57.181 80.4558 57.181C78.7781 57.181 77.4181 58.1103 77.4181 59.2566C77.4181 60.4029 78.7781 61.3321 80.4558 61.3321Z" fill="#131313"/>
<path d="M60.2807 41.3034C60.9362 41.6044 61.514 42.0516 61.9699 42.6106C62.4258 43.1696 62.7477 43.8255 62.9109 44.5282C63.3285 46.7457 61.3615 48.1839 59.7537 50.7172C55.8056 56.9388 59.3812 61.3045 55.5943 65.2643C53.7952 67.1452 50.694 68.5576 48.2443 67.7416C44.0907 66.3559 42.5848 58.8047 44.0531 53.3423C46.2598 45.1395 55.8114 39.2888 60.2807 41.3034Z" fill="#A13C23"/>
<path d="M80.4507 60.6371C80.4842 60.977 80.4475 61.3201 80.3427 61.6451C80.238 61.9701 80.0675 62.2701 79.8418 62.5264C79.3588 62.936 78.749 63.1659 78.1158 63.177C77.4827 63.1881 76.8651 62.9798 76.3681 62.5874" stroke="#131313" stroke-width="0.75" stroke-linecap="round" stroke-linejoin="round"/>
<path d="M80.4641 60.6371C80.431 60.977 80.468 61.3201 80.5729 61.6451C80.6777 61.9701 80.8482 62.27 81.0738 62.5264C81.5568 62.936 82.1666 63.1659 82.7998 63.177C83.4329 63.1881 84.0505 62.9798 84.5475 62.5874" stroke="#131313" stroke-width="0.75" stroke-linecap="round" stroke-linejoin="round"/>
<path d="M47.7274 60.5294C47.5913 60.2914 47.4096 60.0827 47.1926 59.9151C46.9756 59.7476 46.7277 59.6246 46.463 59.5532C46.1984 59.4818 45.9222 59.4634 45.6504 59.499C45.3786 59.5347 45.1165 59.6237 44.8792 59.761C44.3447 60.0617 43.7684 60.3707 43.1503 60.6714C43.6456 56.5492 43.0465 52.3693 41.4131 48.5523C39.751 44.6935 37.3873 42.2046 34.7647 41.5447C31.5574 40.7429 27.6402 42.5386 26.4208 45.3032C26.3593 45.4305 26.3063 45.5616 26.2621 45.6958C25.5939 47.6669 26.4291 49.4543 27.0973 50.7155C25.4268 50.4649 22.9379 50.1058 20.9083 51.6593C18.4193 53.5636 17.9432 57.3221 18.7617 59.8946C20.0981 64.1042 24.7921 65.7162 27.849 66.4345C28.5422 66.5848 29.1519 66.7017 29.6197 66.7936C31.4725 67.1361 33.3612 67.2427 35.2407 67.111C34.3045 67.8591 33.3226 68.5481 32.3007 69.174C29.6531 70.8612 26.663 72.7738 25.9864 76.8998C25.5942 79.8407 26.3281 82.8212 28.0411 85.2437C31.5992 90.489 38.0721 91.0068 39.9765 91.0402H40.0182C40.5486 91.0112 41.0479 90.7811 41.4146 90.3969C41.7813 90.0126 41.9877 89.5031 41.992 88.972C41.9963 88.4409 41.798 87.9281 41.4375 87.5381C41.077 87.148 40.5814 86.91 40.0516 86.8724C39.0577 86.8474 33.9879 86.5718 31.4989 82.9051C30.3988 81.3562 29.9054 79.4574 30.1124 77.5689C30.4632 75.3973 31.9499 74.3524 34.5475 72.6903C36.8778 71.2036 39.5171 69.5164 41.3379 66.2591C41.4131 66.1171 41.4882 65.9751 41.5634 65.8247C43.4391 65.1912 45.2466 64.3714 46.959 63.3775C47.1971 63.2417 47.406 63.06 47.5737 62.843C47.7414 62.6261 47.8644 62.3781 47.9359 62.1134C48.0073 61.8487 48.0256 61.5724 47.9898 61.3006C47.9541 61.0287 47.8649 60.7666 47.7274 60.5294ZM38.4898 62.3836C35.8425 63.0674 33.0787 63.1699 30.3881 62.6843C30.1375 62.6342 29.8368 62.5841 29.4944 62.5089C27.2894 62.0579 23.5058 61.0473 22.7374 58.6335C22.3198 57.3221 22.6622 55.5765 23.439 54.9752C23.8188 54.7405 24.2633 54.6323 24.7085 54.6661C25.3221 54.6864 25.9333 54.7506 26.5377 54.8582C27.7356 55.1545 28.9933 55.1024 30.1626 54.7079C30.6654 54.4804 31.0939 54.1156 31.3987 53.6555C32.5263 51.9851 31.5657 50.206 30.931 49.0284C30.5718 48.3602 30.079 47.4414 30.2127 47.0405C30.4716 46.2888 32.3926 45.2531 33.7457 45.5956C34.6978 45.8378 36.2764 47.1909 37.5794 50.206C39.0577 53.6321 39.7844 58.4581 38.4898 62.3836Z" fill="#FEF3EC"/>
<path d="M85.3828 91.6575C82.564 96.0156 78.6484 99.5557 74.029 101.922C69.4096 104.289 64.249 105.399 59.0651 105.141C53.8812 104.883 48.8563 103.266 44.4949 100.452C40.1334 97.6382 36.5888 93.7267 34.2169 89.11C34.8572 87.8949 35.6064 86.7403 36.4553 85.6605C38.1334 83.5228 40.0068 81.546 42.0513 79.7555C42.1123 79.7114 42.1708 79.664 42.2267 79.6135C42.9951 78.9537 43.4628 78.6112 43.4628 78.6112C44.5825 77.8111 45.6613 76.9553 46.6951 76.0471C48.1347 74.944 49.4015 73.6321 50.4536 72.1549C51.6608 70.092 52.3005 67.7464 52.3078 65.3562C61.2782 67.3691 70.2457 69.3764 79.2105 71.3782C80.4243 72.1035 81.5153 73.0169 82.4428 74.0843C86.6189 78.8785 86.527 85.8443 85.3828 91.6575Z" fill="#FEF3EC"/>
<path d="M80.4998 72.7012C77.7795 73.3284 71.1854 74.4301 64.5253 71.1226C62.8608 70.2942 61.3108 69.2535 59.914 68.0264" stroke="#050101" stroke-linecap="round" stroke-linejoin="round"/>
<path d="M62.5819 43.5126C62.9462 44.88 62.9126 46.323 62.485 47.672C62.0473 48.9566 61.4502 49.3558 60.4638 50.7665C59.1416 52.6045 58.2041 54.6905 57.7075 56.8996C57.1796 59.5923 57.994 60.3624 57.1872 62.5473C56.6918 63.8429 55.8971 65.0029 54.8677 65.9325" stroke="#070606" stroke-linecap="round" stroke-linejoin="round"/>
<path d="M29.4944 62.5089C29.0973 63.8758 28.5453 65.1929 27.849 66.4344C24.7921 65.7161 20.0981 64.1042 18.7617 59.8946C17.9432 57.3221 18.4193 53.5636 20.9083 51.6593C22.9379 50.1058 25.4268 50.4649 27.0973 50.7155C26.4291 49.4543 25.5939 47.6669 26.2621 45.6958C26.3063 45.5616 26.3593 45.4304 26.4208 45.3032C28.481 48.0502 29.7725 51.2963 30.1626 54.7079C28.9933 55.1024 27.7356 55.1545 26.5377 54.8582C25.9333 54.7505 25.3221 54.6863 24.7085 54.6661C24.2633 54.6322 23.8188 54.7404 23.439 54.9751C22.6622 55.5765 22.3198 57.3221 22.7374 58.6334C23.5058 61.0472 27.2894 62.0579 29.4944 62.5089Z" fill="#A13C23"/>
<path d="M74.1798 85.045C75.0793 84.6766 80.9944 82.3363 84.3103 85.045C88.4647 88.4402 85.5765 97.3453 82.2088 102.046C80.9159 103.85 79.0149 106.504 75.6389 106.951C72.4993 107.369 68.5395 105.815 67.8713 103.341C66.8524 99.5729 74.0286 95.7509 72.6263 91.4537C72.4313 90.876 72.114 90.3472 71.6958 89.9035" fill="#A13C23"/>
<path d="M63.1272 85.045C64.0268 84.6766 69.9418 82.3363 73.2569 85.045C77.4121 88.4402 74.5231 97.3453 71.1563 102.046C69.8633 103.85 67.9624 106.504 64.5864 106.951C61.4468 107.369 57.487 105.815 56.8188 103.341C55.7998 99.5729 62.9769 95.7509 61.5737 91.4537C61.3791 90.8758 61.0617 90.347 60.6433 89.9035" fill="#FEF3EC"/>
<path d="M69.2209 104.52C68.5936 105.059 67.9162 105.537 67.198 105.947C66.6681 106.262 66.1048 106.517 65.5184 106.707C65.1484 106.819 64.7699 106.901 64.3867 106.951C61.2462 107.369 57.2872 105.815 56.6191 103.341C55.6043 99.5888 62.7889 95.7902 61.374 91.4537C61.1794 90.8758 60.8619 90.347 60.4436 89.9035" stroke="#050101" stroke-linecap="round" stroke-linejoin="round"/>
<path d="M43.4795 85.3765C43.5761 89.541 42.4901 93.6476 40.3474 97.22C37.8545 94.8877 35.7808 92.1444 34.2169 89.1099C34.8572 87.8948 35.6064 86.7402 36.4553 85.6605C38.1334 83.5228 40.0068 81.5459 42.0513 79.7554C42.1123 79.7113 42.1708 79.6639 42.2267 79.6134L42.3269 79.5383C42.3888 79.4843 42.4559 79.4368 42.5274 79.3963C43.1182 81.3364 43.4386 83.3488 43.4795 85.3765V85.3765Z" fill="#A13C23"/>
</svg>
