<?xml version="1.0" encoding="utf-8"?>
<!-- Generator: Adobe Illustrator 25.2.1, SVG Export Plug-In . SVG Version: 6.00 Build 0)  -->
<svg version="1.1" id="레이어_1" xmlns="http://www.w3.org/2000/svg" xmlns:xlink="http://www.w3.org/1999/xlink" x="0px"
	 y="0px" viewBox="0 0 54.733 54.733" enable-background="new 0 0 54.733 54.733" xml:space="preserve">
<circle fill="#2A8BC7" cx="27.366" cy="27.366" r="27.366"/>
<g>
	<g>
		<path fill="#FFFFFF" d="M33.914,16.056c0.41,0,2.933,0.08,4.361,2.003c0,0,0.036,0.003,0.106,0.003c0.404,0,1.929-0.1,3.963-1.465
			c0,0,0.138,1.726-2.384,3.274c0,0,0.055,0.043,0.271,0.043c0.355,0,1.145-0.115,2.844-0.72c0,0,0.445,0.593-2.861,3.242
			c0,0,0.657,8.055-4.725,12.992c0,0-4.09,4.937-11.083,5.653c0,0-0.714,0.099-1.846,0.099c-2.361,0-6.542-0.432-9.872-3.096
			c0,0,0.605,0.069,1.523,0.069c2.016,0,5.54-0.335,7.463-2.479c0,0-0.052,0.003-0.146,0.003c-0.768,0-4.338-0.211-5.325-4.071
			c-0.042-0.165,0.088-0.325,0.255-0.325c0.007,0,0.014,0,0.021,0.001c0.296,0.023,0.737,0.051,1.166,0.051
			c0.558,0,1.097-0.047,1.274-0.21c0,0-4.99-0.423-5.058-5.813c-0.002-0.152,0.126-0.27,0.267-0.27c0.033,0,0.067,0.006,0.099,0.02
			c0.453,0.192,1.325,0.508,2.573,0.737c0,0-5.086-2.725-2.072-8.288c0.045-0.084,0.131-0.128,0.216-0.128
			c0.07,0,0.139,0.03,0.187,0.091c0.963,1.246,5.143,6.047,12.498,6.212c0,0-1.462-6.929,6.23-7.629
			C33.856,16.057,33.876,16.056,33.914,16.056 M33.914,14.495l-0.109,0.002c-0.026,0.001-0.063,0.003-0.09,0.006
			c-2.847,0.259-4.968,1.307-6.304,3.117c-1.078,1.459-1.392,3.114-1.444,4.374c-5.528-0.741-8.704-4.311-9.603-5.475
			c-0.342-0.443-0.861-0.698-1.422-0.698c-0.664,0-1.272,0.362-1.588,0.945c-1.142,2.108-1.432,4.14-0.863,6.039
			c0.12,0.4,0.272,0.771,0.447,1.115c-0.039,0.033-0.077,0.068-0.113,0.105c-0.346,0.35-0.533,0.814-0.527,1.305
			c0.034,2.688,1.1,4.477,2.434,5.618c-0.116,0.332-0.133,0.693-0.043,1.045c0.518,2.027,1.641,3.37,2.975,4.189
			c-1.335,0.352-2.698,0.411-3.454,0.411c-0.804,0-1.342-0.059-1.347-0.06c-0.058-0.006-0.116-0.01-0.174-0.01
			c-0.625,0-1.199,0.375-1.443,0.963c-0.266,0.642-0.077,1.382,0.466,1.816c3.739,2.991,8.401,3.438,10.848,3.438
			c1.101,0,1.859-0.088,2.027-0.11c7.086-0.734,11.393-5.39,12.028-6.119c4.801-4.464,5.206-11.022,5.187-13.354
			c1.594-1.313,3.712-3.315,2.522-4.902c-0.162-0.216-0.372-0.38-0.606-0.486c0.214-0.685,0.191-1.183,0.182-1.297
			c-0.044-0.553-0.378-1.04-0.877-1.281c-0.215-0.104-0.448-0.155-0.679-0.155c-0.305,0-0.608,0.089-0.87,0.265
			c-1.11,0.745-2.009,1.028-2.548,1.135C37.055,14.598,34.463,14.495,33.914,14.495L33.914,14.495z"/>
		<path fill="#2A709F" d="M45.608,18.035c-0.157-0.211-0.355-0.38-0.576-0.5c0.195-0.685,0.172-1.177,0.163-1.295
			c-0.05-0.63-0.431-1.186-1-1.459c-0.244-0.117-0.507-0.176-0.769-0.176c-0.349,0-0.696,0.103-0.995,0.305
			c-0.056,0.038-0.104,0.062-0.159,0.097c0.021-0.001,0.041-0.009,0.061-0.009c0.231,0,0.464,0.051,0.679,0.155
			c0.499,0.241,0.833,0.729,0.877,1.281c0.009,0.115,0.032,0.612-0.182,1.297c0.234,0.106,0.444,0.27,0.606,0.486
			c1.19,1.587-0.928,3.589-2.522,4.902c0.02,2.332-0.385,8.889-5.187,13.354c-0.635,0.729-4.942,5.385-12.028,6.119
			c-0.168,0.021-0.926,0.11-2.027,0.11c-2.446,0-7.109-0.447-10.848-3.438c-0.386-0.309-0.583-0.773-0.574-1.246
			c-0.027,0.05-0.065,0.091-0.087,0.144c-0.304,0.728-0.092,1.569,0.522,2.065c3.915,3.159,8.792,3.63,11.351,3.63
			c1.156,0,1.933-0.091,2.123-0.116c7.381-0.773,11.879-5.65,12.567-6.445c4.967-4.663,5.429-11.483,5.417-13.994
			C44.704,21.898,46.9,19.772,45.608,18.035z"/>
	</g>
	<path fill="#2A709F" d="M33.771,14.476l0.109-0.002c0.549,0,3.141,0.103,5.011,1.941c0.294-0.059,0.703-0.179,1.187-0.389
		c-0.054,0.014-0.119,0.035-0.168,0.045c-1.978-1.908-4.674-2.015-5.25-2.015l-0.119,0.002c-0.03,0.001-0.073,0.004-0.103,0.006
		c-1.974,0.181-3.61,0.734-4.906,1.636c1.141-0.657,2.521-1.071,4.147-1.219C33.708,14.479,33.745,14.477,33.771,14.476z"/>
</g>
</svg>
