<svg width="96" height="96" viewBox="0 0 96 96" fill="none" xmlns="http://www.w3.org/2000/svg">
<g filter="url(#filter0_d_1544_806)">
<circle cx="44" cy="44" r="28" fill="white"/>
</g>
<path d="M54.2438 55.7221C53.4716 53.6645 52.9199 51.5095 53.1311 49.3211C53.1433 49.1903 53.0217 48.3584 53.0217 48.2246C53.0217 44.9427 49.1761 43.2698 44.4414 43.2698C39.7066 43.2698 35.8763 44.9412 35.8763 48.2246C35.8763 48.4953 36.0313 49.4625 36.0815 49.7241C36.4508 51.6023 36.0876 53.5002 35.2303 55.2111C34.8837 55.9016 34.6968 56.6422 34.6968 57.4132C34.6968 61.1711 39.1412 64.2158 44.6253 64.2158C50.1094 64.2158 54.5538 61.1696 54.5538 57.4132C54.5554 56.8293 54.4474 56.2635 54.2438 55.7221Z" fill="#F9F3EF"/>
<path d="M46.7194 55.6461C46.7194 56.4673 45.7116 57.2946 44.4698 57.2946C43.228 57.2946 42.2202 56.4673 42.2202 55.6461C42.2202 54.8249 43.228 54.3215 44.4698 54.3215C45.7116 54.3215 46.7194 54.8264 46.7194 55.6461Z" fill="#040000"/>
<path d="M52.8257 49.4458C52.8378 49.3104 53.3607 48.1318 53.3607 47.9934C53.3607 45.0279 49.7811 43.6516 45.8824 43.2698C44.905 44.6903 44.3198 46.4407 44.3198 48.3417C44.3198 53.0714 48.3371 56.589 52.7481 56.589C53.3698 56.589 53.9732 56.5053 54.5539 56.3609C54.5068 56.154 54.0097 56.2635 53.9368 56.0628C53.1661 53.9382 52.6144 51.7103 52.8257 49.4458Z" fill="#A13C23"/>
<path d="M40.5647 53.5124C41.149 53.5124 41.6227 53.0385 41.6227 52.4539C41.6227 51.8694 41.149 51.3955 40.5647 51.3955C39.9805 51.3955 39.5068 51.8694 39.5068 52.4539C39.5068 53.0385 39.9805 53.5124 40.5647 53.5124Z" fill="#040000"/>
<path d="M48.2244 53.5124C48.8087 53.5124 49.2823 53.0385 49.2823 52.4539C49.2823 51.8694 48.8087 51.3955 48.2244 51.3955C47.6401 51.3955 47.1665 51.8694 47.1665 52.4539C47.1665 53.0385 47.6401 53.5124 48.2244 53.5124Z" fill="#040000"/>
<path d="M38.2912 45.0066C39.1743 45.5526 39.153 46.9745 38.9068 47.9022C38.7031 48.6748 38.1103 49.969 37.5525 51.3514C37.1026 52.4661 36.3137 54.6925 35.4412 55.7814C34.0611 57.506 31.5592 58.1402 29.9784 57.3707C28.0891 56.4506 27.3184 54.4279 27.5616 53.114C27.8292 51.6753 28.4052 50.8191 29.4343 49.7484C30.8615 48.2626 32.2493 47.1068 33.2525 46.3768C35.5841 44.6811 37.402 44.4576 38.2912 45.0066Z" fill="#A13C23"/>
<path d="M50.8644 45.0066C49.9813 45.5526 50.0026 46.9745 50.2488 47.9022C50.4525 48.6748 51.0453 49.969 51.6032 51.3514C52.0531 52.4661 52.8419 54.6925 53.7144 55.7814C55.0946 57.506 57.5964 58.1402 59.1772 57.3707C61.0666 56.4506 61.8372 54.4279 61.594 53.114C61.3265 51.6753 60.7504 50.8191 59.7214 49.7484C58.2941 48.2626 56.9064 47.1068 55.9032 46.3768C53.5715 44.6811 51.7536 44.4576 50.8644 45.0066Z" fill="#A13C23"/>
<path d="M44.4429 43.2714C47.1499 43.2714 49.5637 43.8204 51.1369 44.9032C51.377 44.8211 51.6582 44.7754 51.9774 44.7754C52.9593 44.7754 54.2984 45.2104 55.9035 46.3783C56.9052 47.1083 58.2945 48.2641 59.7217 49.75C60.7508 50.8206 61.3268 51.6768 61.5944 53.1155C61.8391 54.4279 61.0669 56.4521 59.1776 57.3722C58.7337 57.5881 58.2169 57.6931 57.6743 57.6931C56.5951 57.6931 55.4095 57.2809 54.4671 56.519C54.5234 56.8125 54.5553 57.1106 54.5553 57.4148C54.5553 61.1727 50.1109 64.2173 44.6268 64.2173C39.1427 64.2173 34.6982 61.1711 34.6982 57.4148C34.6982 57.0802 34.7408 56.7517 34.8092 56.4293C33.8516 57.2505 32.6143 57.6946 31.4911 57.6946C30.9454 57.6946 30.4256 57.5897 29.9787 57.3722C28.0893 56.4521 27.3187 54.4294 27.5619 53.1155C27.8294 51.6768 28.4055 50.8206 29.4345 49.75C30.8618 48.2641 32.2495 47.1083 33.2527 46.3783C34.8594 45.2089 36.2015 44.7739 37.1834 44.7739C37.422 44.7739 37.6394 44.7998 37.834 44.8469C39.4056 43.8006 41.7814 43.2714 44.4429 43.2714ZM44.4429 41.7506C41.6917 41.7506 39.2597 42.2844 37.5102 43.2638C37.4038 43.2562 37.2944 43.2531 37.1849 43.2531C35.7318 43.2531 34.0629 43.9086 32.359 45.148C31.6005 45.7001 30.0699 46.8954 28.3401 48.696C27.191 49.8929 26.4098 51.0016 26.0693 52.8372C25.7121 54.7579 26.7274 57.4786 29.3145 58.7394C29.962 59.0557 30.6946 59.2154 31.4911 59.2154C32.1158 59.2154 32.7481 59.1165 33.3591 58.928C34.3122 62.8486 38.9192 65.7396 44.6268 65.7396C50.3237 65.7396 54.9262 62.8607 55.8899 58.9492C56.4766 59.1226 57.0815 59.2139 57.6743 59.2139C58.4677 59.2139 59.1973 59.0542 59.8433 58.7394C62.4288 57.4802 63.4457 54.7579 63.0885 52.8372C62.7465 51.0016 61.9667 49.8914 60.8176 48.696C59.0879 46.8954 57.5573 45.7001 56.7988 45.148C55.0964 43.9086 53.4305 43.2546 51.9789 43.2546C51.7874 43.2546 51.602 43.2653 51.4196 43.2881C49.6594 42.2935 47.2153 41.7506 44.4429 41.7506Z" fill="#562312"/>
<path d="M34.5222 58.455C34.2623 58.455 34.0084 58.3211 33.8656 58.0793C33.6528 57.7189 33.7744 57.252 34.1361 57.0391C35.1591 56.4369 36.3279 53.9549 36.825 52.53L38.0698 49.058C38.7143 47.3669 38.8511 46.5897 38.8526 46.5821C39.1262 45.2225 38.0075 44.8545 37.6579 44.7739C37.2506 44.6796 36.9937 44.2736 37.0864 43.866C37.1791 43.4584 37.5804 43.1984 37.9847 43.2881C39.1718 43.5451 40.7815 44.707 40.3483 46.8574C40.3483 46.865 40.2024 47.7349 39.4971 49.5857L38.2598 53.0394C38.1109 53.4637 36.7399 57.2733 34.9083 58.35C34.7852 58.42 34.6529 58.455 34.5222 58.455Z" fill="#562312"/>
<path d="M55.5291 58.8094C55.4136 58.8094 55.2981 58.782 55.1871 58.7272C52.7491 57.4984 51.6441 54.8279 51.1729 53.6873C51.1181 53.555 51.0786 53.4531 51.0467 53.3877C51.0117 53.3375 50.9813 53.2828 50.9585 53.225L49.51 49.493C48.8017 48.0026 48.6953 47.2528 48.6983 46.9365C48.4977 44.593 50.1545 43.5299 51.0649 43.2957C51.4769 43.1893 51.8857 43.4356 51.9906 43.8417C52.094 44.2462 51.8523 44.6599 51.451 44.7663C51.2154 44.8332 50.0633 45.2439 50.2168 46.8407C50.2214 46.8909 50.2214 46.9426 50.2153 46.9943C50.2214 46.9943 50.2624 47.5357 50.9053 48.8922L52.3433 52.5923C52.4132 52.7094 52.477 52.8646 52.5758 53.1079C52.9832 54.0918 53.9362 56.3974 55.8681 57.3722C56.2435 57.5608 56.394 58.0185 56.2055 58.3927C56.0733 58.6573 55.8073 58.8094 55.5291 58.8094Z" fill="#562312"/>
<path d="M37.0309 39.956C36.5019 39.956 36.0718 39.5256 36.0718 38.9964V30.8875C36.0718 26.4057 39.7152 22.7604 44.1946 22.7604C48.674 22.7604 52.3174 26.4057 52.3174 30.8875V38.9964C52.3174 39.5256 51.8872 39.956 51.3567 39.956H37.0309Z" fill="#E83818"/>
<path d="M44.1953 23.5208C48.2612 23.5208 51.5581 26.8194 51.5581 30.8875V38.9949C51.5581 39.1059 51.4684 39.1941 51.359 39.1941H37.0316C36.9206 39.1941 36.8325 39.1044 36.8325 38.9949V30.8875C36.8325 26.8194 40.1293 23.5208 44.1953 23.5208ZM44.1953 22C39.2979 22 35.3125 25.9875 35.3125 30.8875V38.9949C35.3125 39.9439 36.0847 40.7149 37.0316 40.7149H51.359C52.3074 40.7149 53.0781 39.9424 53.0781 38.9949V30.8875C53.0781 25.9875 49.0927 22 44.1953 22Z" fill="#542211"/>
<path d="M34.8671 42.0471C33.496 42.0471 32.3804 40.9977 32.3804 39.7066C32.3804 38.4154 33.496 37.3676 34.8671 37.3676H53.5233C54.8944 37.3676 56.01 38.4169 56.01 39.7081C56.01 40.9992 54.8959 42.0486 53.5233 42.0486L34.8671 42.0471Z" fill="#676767"/>
<path d="M53.5231 38.128C54.4776 38.128 55.2498 38.8352 55.2498 39.7081C55.2498 40.581 54.4776 41.2882 53.5231 41.2882H34.8668C33.9123 41.2882 33.1401 40.581 33.1401 39.7081C33.1401 38.8352 33.9123 38.128 34.8668 38.128H53.5231ZM53.5231 36.6072H34.8668C33.0763 36.6072 31.6201 37.9987 31.6201 39.7081C31.6201 41.4175 33.0763 42.809 34.8668 42.809H53.5231C55.3136 42.809 56.7698 41.4175 56.7698 39.7081C56.7698 37.9987 55.3136 36.6072 53.5231 36.6072Z" fill="#542211"/>
<path d="M48.8279 30.9879C48.4388 30.9879 48.1226 30.6716 48.1226 30.2823C48.1226 29.2131 47.8384 28.401 47.2806 27.8642C46.4294 27.046 45.1739 27.0901 45.1587 27.0886C44.7498 27.0795 44.4412 26.8027 44.4245 26.4164C44.4078 26.0301 44.7042 25.7001 45.0903 25.6803C45.1556 25.6818 46.9462 25.5997 48.2412 26.8346C49.0969 27.6482 49.5316 28.8086 49.5316 30.2853C49.5332 30.6716 49.217 30.9879 48.8279 30.9879Z" fill="white"/>
<path d="M46.1149 55.421C46.1331 55.491 46.1711 55.6795 45.9887 55.9214C45.7911 56.1814 45.4081 56.4293 45.3017 56.4521C45.174 56.4795 45.5038 56.2164 45.6665 55.9776C45.7531 55.8514 45.8291 55.7465 45.7835 55.5853C45.7409 55.4332 45.5874 55.3587 45.6513 55.2416C45.744 55.0727 46.0601 55.2157 46.1149 55.421Z" fill="white"/>
<defs>
<filter id="filter0_d_1544_806" x="0" y="0" width="96" height="96" filterUnits="userSpaceOnUse" color-interpolation-filters="sRGB">
<feFlood flood-opacity="0" result="BackgroundImageFix"/>
<feColorMatrix in="SourceAlpha" type="matrix" values="0 0 0 0 0 0 0 0 0 0 0 0 0 0 0 0 0 0 127 0" result="hardAlpha"/>
<feOffset dx="4" dy="4"/>
<feGaussianBlur stdDeviation="10"/>
<feComposite in2="hardAlpha" operator="out"/>
<feColorMatrix type="matrix" values="0 0 0 0 0 0 0 0 0 0 0 0 0 0 0 0 0 0 0.1 0"/>
<feBlend mode="normal" in2="BackgroundImageFix" result="effect1_dropShadow_1544_806"/>
<feBlend mode="normal" in="SourceGraphic" in2="effect1_dropShadow_1544_806" result="shape"/>
</filter>
</defs>
</svg>
