<?xml version="1.0" encoding="utf-8"?>
<!-- Generator: Adobe Illustrator 25.2.1, SVG Export Plug-In . SVG Version: 6.00 Build 0)  -->
<svg version="1.1" id="레이어_1" xmlns="http://www.w3.org/2000/svg" xmlns:xlink="http://www.w3.org/1999/xlink" x="0px"
	 y="0px" viewBox="0 0 24.378 28.898" enable-background="new 0 0 24.378 28.898" xml:space="preserve">
<g>
	<g>
		<g>
			<path fill="#F9F3EF" d="M18.49,22.179c-0.508-1.353-0.871-2.77-0.732-4.209c0.008-0.086-0.072-0.633-0.072-0.721
				c0-2.158-2.53-3.258-5.645-3.258s-5.635,1.099-5.635,3.258c0,0.178,0.102,0.814,0.135,0.986c0.243,1.235,0.004,2.483-0.56,3.608
				c-0.228,0.454-0.351,0.941-0.351,1.448c0,2.471,2.924,4.473,6.532,4.473s6.532-2.003,6.532-4.473
				C18.695,22.907,18.624,22.535,18.49,22.179z"/>
		</g>
		<g>
			<path fill="#040000" d="M13.54,22.129c0,0.54-0.663,1.084-1.48,1.084s-1.48-0.544-1.48-1.084s0.663-0.871,1.48-0.871
				S13.54,21.59,13.54,22.129z"/>
		</g>
		<g>
			<path fill="#A13C23" d="M17.557,18.052c0.008-0.089,0.352-0.864,0.352-0.955c0-1.95-2.355-2.855-4.92-3.106
				c-0.643,0.934-1.028,2.085-1.028,3.335c0,3.11,2.643,5.423,5.545,5.423c0.409,0,0.806-0.055,1.188-0.15
				c-0.031-0.136-0.358-0.064-0.406-0.196C17.781,21.006,17.418,19.541,17.557,18.052z"/>
		</g>
		<g>
			<circle fill="#040000" cx="9.491" cy="20.03" r="0.696"/>
		</g>
		<g>
			<circle fill="#040000" cx="14.53" cy="20.03" r="0.696"/>
		</g>
		<g>
			<path fill="#A13C23" d="M7.995,15.133c0.581,0.359,0.567,1.294,0.405,1.904c-0.134,0.508-0.524,1.359-0.891,2.268
				c-0.296,0.733-0.815,2.197-1.389,2.913c-0.908,1.134-2.554,1.551-3.594,1.045c-1.243-0.605-1.75-1.935-1.59-2.799
				c0.176-0.946,0.555-1.509,1.232-2.213c0.939-0.977,1.852-1.737,2.512-2.217C6.214,14.919,7.41,14.772,7.995,15.133z"/>
		</g>
		<g>
			<path fill="#A13C23" d="M16.267,15.133c-0.581,0.359-0.567,1.294-0.405,1.904c0.134,0.508,0.524,1.359,0.891,2.268
				c0.296,0.733,0.815,2.197,1.389,2.913c0.908,1.134,2.554,1.551,3.594,1.045c1.243-0.605,1.75-1.935,1.59-2.799
				c-0.176-0.946-0.555-1.509-1.232-2.213c-0.939-0.977-1.852-1.737-2.512-2.217C18.048,14.919,16.852,14.772,16.267,15.133z"/>
		</g>
		<g>
			<g>
				<path fill="#562312" d="M12.042,13.992c1.781,0,3.369,0.361,4.404,1.073c0.158-0.054,0.343-0.084,0.553-0.084
					c0.646,0,1.527,0.286,2.583,1.054c0.659,0.48,1.573,1.24,2.512,2.217c0.677,0.704,1.056,1.267,1.232,2.213
					c0.161,0.863-0.347,2.194-1.59,2.799c-0.292,0.142-0.632,0.211-0.989,0.211c-0.71,0-1.49-0.271-2.11-0.772
					c0.037,0.193,0.058,0.389,0.058,0.589c0,2.471-2.924,4.473-6.532,4.473s-6.532-2.003-6.532-4.473
					c0-0.22,0.028-0.436,0.073-0.648c-0.63,0.54-1.444,0.832-2.183,0.832c-0.359,0-0.701-0.069-0.995-0.212
					c-1.243-0.605-1.75-1.935-1.59-2.799c0.176-0.946,0.555-1.509,1.232-2.213c0.939-0.977,1.852-1.737,2.512-2.217
					c1.057-0.769,1.94-1.055,2.586-1.055c0.157,0,0.3,0.017,0.428,0.048C8.728,14.34,10.291,13.992,12.042,13.992 M12.042,12.992
					c-1.81,0-3.41,0.351-4.561,0.995c-0.07-0.005-0.142-0.007-0.214-0.007c-0.956,0-2.054,0.431-3.175,1.246
					c-0.499,0.363-1.506,1.149-2.644,2.333c-0.756,0.787-1.27,1.516-1.494,2.723c-0.235,1.263,0.433,3.052,2.135,3.881
					c0.426,0.208,0.908,0.313,1.432,0.313c0.411,0,0.827-0.065,1.229-0.189c0.627,2.578,3.658,4.479,7.413,4.479
					c3.748,0,6.776-1.893,7.41-4.465c0.386,0.114,0.784,0.174,1.174,0.174c0.522,0,1.002-0.105,1.427-0.312
					c1.701-0.828,2.37-2.618,2.135-3.881c-0.225-1.207-0.738-1.937-1.494-2.723c-1.138-1.184-2.145-1.97-2.644-2.333
					c-1.12-0.815-2.216-1.245-3.171-1.245c-0.126,0-0.248,0.007-0.368,0.022C15.474,13.349,13.866,12.992,12.042,12.992
					L12.042,12.992z"/>
			</g>
		</g>
		<g>
			<path fill="#562312" d="M5.515,23.976c-0.171,0-0.338-0.088-0.432-0.247c-0.14-0.237-0.06-0.544,0.178-0.684
				c0.673-0.396,1.442-2.028,1.769-2.965l0.819-2.283c0.424-1.112,0.514-1.623,0.515-1.628c0.18-0.894-0.556-1.136-0.786-1.189
				c-0.268-0.062-0.437-0.329-0.376-0.597c0.061-0.268,0.325-0.439,0.591-0.38c0.781,0.169,1.84,0.933,1.555,2.347
				c0,0.005-0.096,0.577-0.56,1.794l-0.814,2.271c-0.098,0.279-1,2.784-2.205,3.492C5.688,23.953,5.601,23.976,5.515,23.976z"/>
		</g>
		<g>
			<path fill="#562312" d="M19.336,24.209c-0.076,0-0.152-0.018-0.225-0.054c-1.604-0.808-2.331-2.564-2.641-3.314
				c-0.036-0.087-0.062-0.154-0.083-0.197c-0.023-0.033-0.043-0.069-0.058-0.107l-0.953-2.454c-0.466-0.98-0.536-1.473-0.534-1.681
				c-0.132-1.541,0.958-2.24,1.557-2.394c0.271-0.07,0.54,0.092,0.609,0.359c0.068,0.266-0.091,0.538-0.355,0.608
				c-0.155,0.044-0.913,0.314-0.812,1.364c0.003,0.033,0.003,0.067-0.001,0.101l0,0c0.004,0,0.031,0.356,0.454,1.248l0.946,2.433
				c0.046,0.077,0.088,0.179,0.153,0.339c0.268,0.647,0.895,2.163,2.166,2.804c0.247,0.124,0.346,0.425,0.222,0.671
				C19.694,24.109,19.519,24.209,19.336,24.209z"/>
		</g>
	</g>
	<g>
		<g>
			<path fill="#E83818" d="M7.166,11.812c-0.348,0-0.631-0.283-0.631-0.631V5.849c0-2.947,2.397-5.344,5.344-5.344
				s5.344,2.397,5.344,5.344v5.332c0,0.348-0.283,0.631-0.632,0.631C16.591,11.812,7.166,11.812,7.166,11.812z"/>
		</g>
		<g>
			<path fill="#542211" d="M11.879,1.005c2.675,0,4.844,2.169,4.844,4.844v5.331c0,0.073-0.059,0.131-0.131,0.131H7.166
				c-0.073,0-0.131-0.059-0.131-0.131V5.849C7.035,3.174,9.204,1.005,11.879,1.005 M11.879,0.005c-3.222,0-5.844,2.622-5.844,5.844
				v5.331c0,0.624,0.508,1.131,1.131,1.131h9.426c0.624,0,1.131-0.508,1.131-1.131V5.849C17.723,2.627,15.101,0.005,11.879,0.005
				L11.879,0.005z"/>
		</g>
	</g>
	<g>
		<g>
			<g>
				<path fill="#676767" d="M5.742,13.187c-0.902,0-1.636-0.69-1.636-1.539S4.84,10.11,5.742,10.11h12.274
					c0.902,0,1.636,0.69,1.636,1.539s-0.733,1.539-1.636,1.539L5.742,13.187L5.742,13.187z"/>
			</g>
			<g>
				<path fill="#542211" d="M18.016,10.61c0.628,0,1.136,0.465,1.136,1.039s-0.508,1.039-1.136,1.039H5.742
					c-0.628,0-1.136-0.465-1.136-1.039s0.508-1.039,1.136-1.039L18.016,10.61 M18.016,9.61H5.742c-1.178,0-2.136,0.915-2.136,2.039
					s0.958,2.039,2.136,2.039h12.274c1.178,0,2.136-0.915,2.136-2.039S19.194,9.61,18.016,9.61L18.016,9.61z"/>
			</g>
		</g>
	</g>
	<g>
		<path fill="#FFFFFF" d="M14.927,5.915c-0.256,0-0.464-0.208-0.464-0.464c0-0.703-0.187-1.237-0.554-1.59
			c-0.56-0.538-1.386-0.509-1.396-0.51c-0.269-0.006-0.472-0.188-0.483-0.442s0.184-0.471,0.438-0.484
			c0.043,0.001,1.221-0.053,2.073,0.759c0.563,0.535,0.849,1.298,0.849,2.269C15.391,5.707,15.183,5.915,14.927,5.915z"/>
	</g>
	<g>
		<path fill="#FFFFFF" d="M13.142,21.981c0.012,0.046,0.037,0.17-0.083,0.329c-0.13,0.171-0.382,0.334-0.452,0.349
			c-0.084,0.018,0.133-0.155,0.24-0.312c0.057-0.083,0.107-0.152,0.077-0.258c-0.028-0.1-0.129-0.149-0.087-0.226
			C12.898,21.752,13.106,21.846,13.142,21.981z"/>
	</g>
</g>
</svg>
