<svg width="56" height="56" viewBox="0 0 56 56" fill="none" xmlns="http://www.w3.org/2000/svg">
<circle cx="28" cy="28" r="28" fill="#FE7968"/>
<path d="M36.3214 30.0654H20.6952C19.8326 30.0654 19.1326 29.3695 19.1326 28.5084C19.1326 27.6474 19.8326 26.9514 20.6952 26.9514H36.3214C37.1855 26.9514 37.884 27.649 37.884 28.5084C37.884 29.3679 37.1855 30.0654 36.3214 30.0654Z" fill="white"/>
<path d="M28.5082 37.8521C27.6456 37.8521 26.9456 37.1561 26.9456 36.2951V20.725C26.9456 19.8655 27.6456 19.168 28.5082 19.168C29.3707 19.168 30.0708 19.8655 30.0708 20.725V36.2951C30.0708 37.1561 29.3707 37.8521 28.5082 37.8521Z" fill="white"/>
</svg>
