<?xml version="1.0" encoding="utf-8"?>
<!-- Generator: Adobe Illustrator 25.2.1, SVG Export Plug-In . SVG Version: 6.00 Build 0)  -->
<svg version="1.1" id="레이어_1" xmlns="http://www.w3.org/2000/svg" xmlns:xlink="http://www.w3.org/1999/xlink" x="0px"
	 y="0px" viewBox="0 0 29.973 30.081" enable-background="new 0 0 29.973 30.081" xml:space="preserve">
<g>
	<path fill="#070606" d="M14.986,30.041c-8.271,0-15-6.729-15-15s6.729-15,15-15s15,6.729,15,15S23.257,30.041,14.986,30.041z
		 M14.986,2.041c-7.168,0-13,5.832-13,13s5.832,13,13,13s13-5.832,13-13S22.154,2.041,14.986,2.041z"/>
</g>
<g>
	<path fill="#040000" d="M19.986,16.04h-10c-0.552,0-1-0.447-1-1s0.448-1,1-1h10c0.553,0,1,0.448,1,1S20.539,16.04,19.986,16.04z"/>
</g>
<g>
	<path fill="#040000" d="M14.986,21.041c-0.552,0-1-0.447-1-1v-10c0-0.552,0.448-1,1-1s1,0.448,1,1v10
		C15.986,20.594,15.538,21.041,14.986,21.041z"/>
</g>
</svg>
