<svg width="36" height="36" viewBox="0 0 36 36" fill="none" xmlns="http://www.w3.org/2000/svg">
<path d="M18 36C27.9411 36 36 27.9411 36 18C36 8.05887 27.9411 0 18 0C8.05887 0 0 8.05887 0 18C0 27.9411 8.05887 36 18 36Z" fill="#FFDCDC"/>
<path d="M31.2583 10.994V25.0059C31.2583 26.3028 30.7431 27.5466 29.8261 28.4636C28.909 29.3807 27.6653 29.8958 26.3684 29.8958C25.0715 29.8958 23.8277 29.3807 22.9106 28.4636C21.9936 27.5466 21.4784 26.3028 21.4784 25.0059V10.994C21.4784 9.69707 21.9936 8.45329 22.9106 7.53624C23.8277 6.6192 25.0715 6.104 26.3684 6.104C27.6653 6.104 28.909 6.6192 29.8261 7.53624C30.7431 8.45329 31.2583 9.69707 31.2583 10.994V10.994Z" fill="white"/>
<path d="M15.8764 10.994V25.0059C15.8764 26.3028 15.3612 27.5466 14.4441 28.4637C13.5271 29.3807 12.2833 29.8959 10.9864 29.8959C9.68951 29.8959 8.44572 29.3807 7.52868 28.4637C6.61163 27.5466 6.09644 26.3028 6.09644 25.0059V10.994C6.0964 10.0269 6.38318 9.0814 6.92049 8.27721C7.45781 7.47303 8.22153 6.84624 9.11507 6.47612C10.0086 6.106 10.9919 6.00916 11.9404 6.19785C12.889 6.38655 13.7603 6.8523 14.4442 7.53621C14.9009 7.98837 15.2628 8.52709 15.5087 9.12082C15.7546 9.71456 15.8796 10.3514 15.8764 10.994Z" fill="white"/>
<path d="M28.8198 18C28.8192 18.8501 28.5726 19.6818 28.1097 20.3948C27.6468 21.1078 26.9875 21.6715 26.2113 22.018C25.435 22.3645 24.5751 22.479 23.7353 22.3475C22.8954 22.2161 22.1116 21.8443 21.4784 21.2772V14.7087C22.1124 14.1408 22.8975 13.7689 23.7385 13.6379C24.5795 13.5069 25.4404 13.6224 26.2172 13.9705C26.9939 14.3186 27.6531 14.8843 28.115 15.5992C28.5769 16.3141 28.8217 17.1476 28.8198 17.9988V18Z" fill="black"/>
<path d="M12.7733 18C12.7712 19.1685 12.3053 20.2883 11.4778 21.1133C10.6504 21.9384 9.52916 22.401 8.36069 22.3997C7.56429 22.4002 6.78311 22.1815 6.10278 21.7675V14.2196C6.78311 13.8056 7.56429 13.5869 8.36069 13.5874C8.94025 13.5871 9.5142 13.701 10.0497 13.9226C10.5852 14.1442 11.0718 14.4692 11.4816 14.8791C11.8914 15.2889 12.2164 15.7755 12.4381 16.311C12.6597 16.8465 12.7736 17.4204 12.7733 18V18Z" fill="black"/>
<path d="M23.2964 17.5716C23.9006 17.5716 24.3905 17.0817 24.3905 16.4775C24.3905 15.8732 23.9006 15.3834 23.2964 15.3834C22.6921 15.3834 22.2023 15.8732 22.2023 16.4775C22.2023 17.0817 22.6921 17.5716 23.2964 17.5716Z" fill="white"/>
<path d="M7.72357 17.5716C8.32783 17.5716 8.81769 17.0817 8.81769 16.4775C8.81769 15.8732 8.32783 15.3834 7.72357 15.3834C7.11931 15.3834 6.62946 15.8732 6.62946 16.4775C6.62946 17.0817 7.11931 17.5716 7.72357 17.5716Z" fill="white"/>
</svg>
