<svg width="36" height="36" viewBox="0 0 36 36" fill="none" xmlns="http://www.w3.org/2000/svg">
<path d="M18 36C27.9411 36 36 27.9411 36 18C36 8.05887 27.9411 0 18 0C8.05887 0 0 8.05887 0 18C0 27.9411 8.05887 36 18 36Z" fill="#FFF8F8"/>
<path d="M28.6859 9.04188L25.8629 19.9185C25.8461 19.9817 25.8203 20.0282 25.8048 20.0901L24.3856 25.5349C23.7367 27.8562 22.2028 29.8302 20.1136 31.0323C18.0244 32.2343 15.5469 32.5684 13.2139 31.9627C10.881 31.357 8.87893 29.8598 7.6384 27.7932C6.39787 25.7267 6.01797 23.2558 6.58039 20.912L10.473 5.92597C10.536 5.67688 10.6475 5.4427 10.8014 5.23691C10.9552 5.03112 11.1482 4.85779 11.3692 4.72688C11.5903 4.59598 11.8351 4.5101 12.0895 4.47417C12.3439 4.43825 12.6029 4.453 12.8515 4.51757C13.1002 4.58214 13.3337 4.69526 13.5384 4.85042C13.7432 5.00557 13.9153 5.1997 14.0447 5.42162C14.1742 5.64354 14.2585 5.88888 14.2927 6.1435C14.327 6.39813 14.3106 6.65701 14.2444 6.90526L12.1993 14.786C12.1808 14.8468 12.1747 14.9106 12.1815 14.9738C12.1883 15.037 12.2078 15.0982 12.2388 15.1536C12.2699 15.209 12.3118 15.2576 12.3621 15.2964C12.4124 15.3352 12.4701 15.3635 12.5316 15.3794C12.5931 15.3954 12.6572 15.3987 12.72 15.3892C12.7828 15.3797 12.8431 15.3576 12.8972 15.3242C12.9512 15.2909 12.998 15.2469 13.0346 15.195C13.0712 15.143 13.0969 15.0842 13.1102 15.0221L15.5488 5.63051C15.6813 5.13338 16.0052 4.70887 16.4496 4.44963C16.894 4.19039 17.4229 4.11746 17.9209 4.24677C18.4189 4.37608 18.8455 4.69713 19.1077 5.13983C19.3698 5.58254 19.4462 6.11097 19.3201 6.6098L16.8816 15.9988C16.8519 16.1214 16.8712 16.2507 16.9353 16.3593C16.9993 16.4679 17.1032 16.5473 17.2248 16.5807C17.3461 16.6096 17.4738 16.5894 17.5803 16.5247C17.6868 16.46 17.7635 16.3558 17.7938 16.2349L20.5845 5.48342C20.7144 4.98314 21.0377 4.55494 21.4833 4.29301C21.9288 4.03108 22.4602 3.95689 22.9605 4.08675C23.4608 4.21661 23.889 4.53989 24.1509 4.98547C24.4128 5.43105 24.487 5.96243 24.3572 6.46271L21.5819 17.16C21.5651 17.169 21.5587 17.1936 21.5522 17.2194C21.5234 17.3406 21.5435 17.4684 21.6082 17.5749C21.673 17.6814 21.7771 17.7581 21.898 17.7883C21.9571 17.804 22.0186 17.8079 22.0792 17.7996C22.1397 17.7913 22.198 17.7711 22.2507 17.7402C22.3034 17.7092 22.3494 17.6681 22.3861 17.6192C22.4228 17.5704 22.4494 17.5147 22.4644 17.4555V17.4426H22.4773L24.9146 8.06259C25.0471 7.56546 25.371 7.14095 25.8154 6.88171C26.2598 6.62247 26.7887 6.54955 27.2867 6.67886C27.7847 6.80817 28.2113 7.12921 28.4734 7.57192C28.7356 8.01463 28.812 8.54306 28.6859 9.04188V9.04188Z" fill="#FFDCDC"/>
<path d="M30.4703 22.2905C31.2803 21.5812 31.362 20.3495 30.6527 19.5394C29.9435 18.7294 28.7118 18.6477 27.9017 19.357L19.9953 26.2798C19.1852 26.989 19.1035 28.2207 19.8128 29.0308C20.5221 29.8408 21.7537 29.9225 22.5638 29.2133L30.4703 22.2905Z" fill="#FFDCDC"/>
<path d="M23.2433 22.1713C22.1404 21.7807 20.938 21.7739 19.8307 22.152C18.9958 22.504 18.2568 23.0498 17.6748 23.7442C17.0928 24.4386 16.6845 25.2617 16.4838 26.1452" stroke="#F9F9F9" stroke-width="0.75" stroke-miterlimit="10" stroke-linecap="round"/>
</svg>
