<svg width="42" height="35" viewBox="0 0 42 35" fill="none" xmlns="http://www.w3.org/2000/svg">
<path d="M21 14.2592C23.8954 14.2592 26.25 16.5848 26.25 19.4444C26.25 22.304 23.8954 24.6296 21 24.6296C18.1046 24.6296 15.75 22.304 15.75 19.4444C15.75 16.5848 18.1046 14.2592 21 14.2592ZM21 11.6666C16.6504 11.6666 13.125 15.1485 13.125 19.4444C13.125 23.7403 16.6504 27.2222 21 27.2222C25.3496 27.2222 28.875 23.7403 28.875 19.4444C28.875 15.1485 25.3496 11.6666 21 11.6666Z" fill="#F9F9F9"/>
<path d="M38.283 35H3.71569C1.66688 35 0 33.2824 0 31.1707V10.3094C0 8.19907 1.66688 6.48148 3.71569 6.48148H10.8557C11.2652 6.48148 11.6471 6.21315 11.8309 5.79704L13.4085 2.23741C14.0096 0.878889 15.3366 0 16.7882 0H25.2105C26.6621 0 27.9891 0.878889 28.5915 2.2387L30.1678 5.79704C30.3529 6.21315 30.7348 6.48148 31.1443 6.48148H38.2843C40.3331 6.48148 42 8.19907 42 10.3094V31.1707C42 33.2824 40.3331 35 38.283 35ZM3.71569 9.07407C3.11456 9.07407 2.625 9.62889 2.625 10.3094V31.1707C2.625 31.8526 3.11456 32.4074 3.71569 32.4074H38.283C38.8854 32.4074 39.375 31.8526 39.375 31.1707V10.3094C39.375 9.62889 38.8854 9.07407 38.283 9.07407H31.143C29.6914 9.07407 28.3644 8.19518 27.762 6.83537L26.1857 3.27704C26.0033 2.86093 25.62 2.59259 25.2105 2.59259H16.7882C16.38 2.59259 15.9968 2.86093 15.813 3.27704L14.2354 6.83667C13.6342 8.19519 12.3073 9.07407 10.8557 9.07407H3.71569Z" fill="#F9F9F9"/>
<path d="M9.56156 5.18518H6.18844C5.67 5.18518 5.25 5.6 5.25 6.11203V6.85092C5.25 7.36296 5.67 7.77777 6.18844 7.77777H9.56156C10.08 7.77777 10.5 7.36296 10.5 6.85092V6.11203C10.5 5.6 10.08 5.18518 9.56156 5.18518Z" fill="#F9F9F9"/>
</svg>
