<?xml version="1.0" encoding="utf-8"?>
<!-- Generator: Adobe Illustrator 25.2.1, SVG Export Plug-In . SVG Version: 6.00 Build 0)  -->
<svg version="1.1" id="레이어_1" xmlns="http://www.w3.org/2000/svg" xmlns:xlink="http://www.w3.org/1999/xlink" x="0px"
	 y="0px" viewBox="0 0 32 27" enable-background="new 0 0 32 27" xml:space="preserve">
<g>
	<g>
		<path fill="#040000" d="M16,11c2.206,0,4,1.794,4,4s-1.794,4-4,4s-4-1.794-4-4S13.794,11,16,11 M16,9c-3.314,0-6,2.686-6,6
			s2.686,6,6,6s6-2.686,6-6S19.314,9,16,9L16,9z"/>
	</g>
	<g>
		<path fill="#040000" d="M29.168,27H2.831C1.27,27,0,25.675,0,24.046V7.953C0,6.325,1.27,5,2.831,5h5.44
			c0.312,0,0.603-0.207,0.743-0.528l1.202-2.746C10.674,0.678,11.685,0,12.791,0h6.417c1.106,0,2.117,0.678,2.576,1.727l1.201,2.745
			C23.126,4.793,23.417,5,23.729,5h5.44C30.73,5,32,6.325,32,7.953v16.093C32,25.675,30.73,27,29.168,27z M2.831,7
			C2.373,7,2,7.428,2,7.953v16.093C2,24.572,2.373,25,2.831,25h26.337C29.627,25,30,24.572,30,24.046V7.953
			C30,7.428,29.627,7,29.168,7h-5.44c-1.106,0-2.117-0.678-2.576-1.727l-1.201-2.745C19.812,2.207,19.52,2,19.208,2h-6.417
			c-0.311,0-0.603,0.207-0.743,0.528l-1.202,2.746C10.388,6.322,9.377,7,8.271,7H2.831z"/>
	</g>
	<g>
		<path fill="#040000" d="M7.285,4h-2.57C4.32,4,4,4.32,4,4.715v0.57C4,5.68,4.32,6,4.715,6h2.57C7.68,6,8,5.68,8,5.285v-0.57
			C8,4.32,7.68,4,7.285,4L7.285,4z"/>
	</g>
</g>
</svg>
