<svg width="24" height="24" viewBox="0 0 24 24" fill="none" xmlns="http://www.w3.org/2000/svg">
<g clip-path="url(#clip0_1544_6130)">
<path d="M11.9991 23.9681C5.37633 23.9681 -0.0117188 18.5994 -0.0117188 12.0004C-0.0117188 5.40142 5.37633 0.0327148 11.9991 0.0327148C18.6219 0.0327148 24.0099 5.40142 24.0099 12.0004C24.0099 18.5994 18.6219 23.9681 11.9991 23.9681ZM11.9991 1.62841C6.25953 1.62841 1.58972 6.28144 1.58972 12.0004C1.58972 17.7194 6.25953 22.3724 11.9991 22.3724C17.7387 22.3724 22.4085 17.7194 22.4085 12.0004C22.4085 6.28144 17.7387 1.62841 11.9991 1.62841Z" fill="#070606"/>
<circle cx="12" cy="12" r="12" fill="#A4B8FF"/>
<path d="M15.9868 16.8026C15.7818 16.8026 15.5769 16.7244 15.4207 16.5689L7.41352 8.59039C7.10044 8.27844 7.10044 7.7742 7.41352 7.46224C7.7266 7.15028 8.23266 7.15028 8.54574 7.46224L16.5529 15.4407C16.866 15.7527 16.866 16.2569 16.5529 16.5689C16.3968 16.7244 16.1918 16.8026 15.9868 16.8026Z" fill="white"/>
<path d="M7.97963 16.8026C7.77465 16.8026 7.56966 16.7244 7.41352 16.5689C7.10044 16.2569 7.10044 15.7527 7.41352 15.4407L15.4207 7.46224C15.7338 7.15028 16.2399 7.15028 16.5529 7.46224C16.866 7.7742 16.866 8.27844 16.5529 8.59039L8.54574 16.5689C8.3896 16.7244 8.18462 16.8026 7.97963 16.8026Z" fill="#F9F9F9"/>
</g>
<defs>
<clipPath id="clip0_1544_6130">
<rect width="24" height="24" fill="white"/>
</clipPath>
</defs>
</svg>
