<?xml version="1.0" encoding="utf-8"?>
<!-- Generator: Adobe Illustrator 25.2.1, SVG Export Plug-In . SVG Version: 6.00 Build 0)  -->
<svg version="1.1" id="레이어_1" xmlns="http://www.w3.org/2000/svg" xmlns:xlink="http://www.w3.org/1999/xlink" x="0px"
	 y="0px" viewBox="0 0 29.973 30.081" enable-background="new 0 0 29.973 30.081" xml:space="preserve">
<g>
	<g>
		<path fill="none" stroke="#040000" stroke-width="2" stroke-miterlimit="10" d="M10.966,28.027"/>
	</g>
	<g>
		<g>
			<path fill="#070606" d="M14.986,30.041c-8.271,0-15-6.729-15-15s6.729-15,15-15s15,6.729,15,15S23.257,30.041,14.986,30.041z
				 M14.986,2.041c-7.168,0-13,5.832-13,13s5.832,13,13,13s13-5.832,13-13S22.154,2.041,14.986,2.041z"/>
		</g>
		<g>
			<path fill="#040000" d="M19.966,21.06c-0.256,0-0.512-0.098-0.707-0.293l-10-10c-0.391-0.391-0.391-1.023,0-1.414
				s1.023-0.391,1.414,0l10,10c0.391,0.391,0.391,1.023,0,1.414C20.478,20.962,20.222,21.06,19.966,21.06z"/>
		</g>
	</g>
	<g>
		<path fill="#040000" d="M9.966,21.06c-0.256,0-0.512-0.098-0.707-0.293c-0.391-0.391-0.391-1.023,0-1.414l10-10
			c0.391-0.391,1.023-0.391,1.414,0s0.391,1.023,0,1.414l-10,10C10.478,20.962,10.222,21.06,9.966,21.06z"/>
	</g>
</g>
</svg>
