<?xml version="1.0" encoding="utf-8"?>
<!-- Generator: Adobe Illustrator 25.2.1, SVG Export Plug-In . SVG Version: 6.00 Build 0)  -->
<svg version="1.1" id="레이어_1" xmlns="http://www.w3.org/2000/svg" xmlns:xlink="http://www.w3.org/1999/xlink" x="0px"
	 y="0px" viewBox="0 0 29.973 30.081" enable-background="new 0 0 29.973 30.081" xml:space="preserve">
<g>
	<g>
		<path fill="#070606" d="M14.986,30.021c-8.271,0-15-6.729-15-15c0-8.271,6.729-15,15-15s15,6.729,15,15
			C29.986,23.292,23.257,30.021,14.986,30.021z M14.986,2.021c-7.168,0-13,5.832-13,13c0,7.168,5.832,13,13,13s13-5.832,13-13
			C27.986,7.852,22.154,2.021,14.986,2.021z"/>
	</g>
	<g>
		<path fill="#040000" d="M14.986,21.021c-0.263,0-0.518-0.104-0.707-0.293l-5-5c-0.391-0.391-0.391-1.023,0-1.414
			s1.023-0.391,1.414,0l4.019,4.019l4.38-8.759c0.248-0.494,0.848-0.694,1.342-0.447s0.694,0.848,0.447,1.342l-5,10
			c-0.144,0.287-0.417,0.488-0.734,0.54C15.093,21.017,15.039,21.021,14.986,21.021z"/>
	</g>
</g>
</svg>
