<?xml version="1.0" encoding="utf-8"?>
<!-- Generator: Adobe Illustrator 25.2.1, SVG Export Plug-In . SVG Version: 6.00 Build 0)  -->
<svg version="1.1" id="레이어_1" xmlns="http://www.w3.org/2000/svg" xmlns:xlink="http://www.w3.org/1999/xlink" x="0px"
	 y="0px" viewBox="0 0 28.004 28.004" enable-background="new 0 0 28.004 28.004" xml:space="preserve">
<g>
	<g>
		<path fill="#070606" d="M14.002,28.002c-7.72,0-14-6.28-14-14s6.28-14,14-14s14,6.28,14,14S21.721,28.002,14.002,28.002z
			 M14.002,2.002c-6.617,0-12,5.383-12,12s5.383,12,12,12s12-5.383,12-12S20.618,2.002,14.002,2.002z"/>
	</g>
	<g>
		<path d="M14.002,15.002c-0.552,0-1-0.448-1-1v-7c0-0.552,0.448-1,1-1s1,0.448,1,1v7C15.002,14.555,14.554,15.002,14.002,15.002z"
			/>
	</g>
	<g>
		<path d="M19.001,19.002c-0.219,0-0.44-0.072-0.624-0.219l-5-4c-0.432-0.345-0.501-0.974-0.156-1.405
			c0.345-0.433,0.975-0.501,1.405-0.156l5,4c0.432,0.345,0.501,0.974,0.156,1.405C19.585,18.874,19.294,19.002,19.001,19.002z"/>
	</g>
</g>
</svg>
