<svg width="36" height="36" viewBox="0 0 36 36" fill="none" xmlns="http://www.w3.org/2000/svg">
<path d="M18 36C27.9411 36 36 27.9411 36 18C36 8.05887 27.9411 0 18 0C8.05887 0 0 8.05887 0 18C0 27.9411 8.05887 36 18 36Z" fill="#FFDCDC"/>
<path d="M17.9998 7.35425C9.67648 7.35425 2.94019 11.9204 2.94019 17.5471C2.99295 18.8281 3.33504 20.0806 3.94082 21.2106C4.54659 22.3405 5.40032 23.3187 6.438 24.0718L6.5167 24.3814C5.92995 25.7008 5.0677 26.8793 3.98785 27.8379C3.95735 27.8646 3.93421 27.8986 3.92065 27.9368C3.9071 27.9749 3.90359 28.0159 3.91045 28.0558C3.91732 28.0957 3.93434 28.1332 3.95987 28.1647C3.9854 28.1961 4.01858 28.2204 4.05623 28.2353C5.47709 28.7786 7.04771 28.7827 8.4714 28.2469C9.41311 27.9009 10.2786 27.375 11.0196 26.6987C11.0492 26.6715 11.0857 26.6531 11.125 26.6453C11.1644 26.6376 11.2052 26.6409 11.2428 26.6548C13.4202 27.3862 15.7029 27.7549 17.9998 27.7463C26.3166 27.7463 33.0593 23.1815 33.0593 17.5535C33.0593 11.9255 26.3204 7.35425 17.9998 7.35425Z" fill="white"/>
<path d="M12.9588 19.0942C13.5631 19.0942 14.0529 18.6043 14.0529 18.0001C14.0529 17.3958 13.5631 16.9059 12.9588 16.9059C12.3545 16.9059 11.8647 17.3958 11.8647 18.0001C11.8647 18.6043 12.3545 19.0942 12.9588 19.0942Z" fill="#230E00"/>
<path d="M18.0001 19.0942C18.6043 19.0942 19.0942 18.6043 19.0942 18.0001C19.0942 17.3958 18.6043 16.9059 18.0001 16.9059C17.3958 16.9059 16.9059 17.3958 16.9059 18.0001C16.9059 18.6043 17.3958 19.0942 18.0001 19.0942Z" fill="#230E00"/>
<path d="M23.0394 19.0942C23.6436 19.0942 24.1335 18.6043 24.1335 18.0001C24.1335 17.3958 23.6436 16.9059 23.0394 16.9059C22.4351 16.9059 21.9453 17.3958 21.9453 18.0001C21.9453 18.6043 22.4351 19.0942 23.0394 19.0942Z" fill="#230E00"/>
</svg>
