<svg width="28" height="24" viewBox="0 0 28 24" fill="none" xmlns="http://www.w3.org/2000/svg">
<g clip-path="url(#clip0_1657_1921)">
<path d="M13.702 1.71429C19.3686 1.71429 23.9784 6.32829 23.9784 12C23.9784 17.6717 19.3686 22.2857 13.702 22.2857C8.03545 22.2857 3.42562 17.6717 3.42562 12C3.42562 6.32829 8.03545 1.71429 13.702 1.71429ZM13.702 0C7.0806 0 1.71289 5.37257 1.71289 12C1.71289 18.6274 7.0806 24 13.702 24C20.3235 24 25.6912 18.6274 25.6912 12C25.6912 5.37257 20.3235 0 13.702 0Z" fill="#FE7968"/>
<path d="M17.5555 8.57141C16.8465 8.57141 16.271 9.14741 16.271 9.85713C16.271 10.5668 16.8465 11.1428 17.5555 11.1428C18.2646 11.1428 18.8401 10.5668 18.8401 9.85713C18.8401 9.14741 18.2646 8.57141 17.5555 8.57141Z" fill="#FE7968"/>
<path d="M9.84803 8.57141C9.13896 8.57141 8.56348 9.14741 8.56348 9.85713C8.56348 10.5668 9.13896 11.1428 9.84803 11.1428C10.5571 11.1428 11.1326 10.5668 11.1326 9.85713C11.1326 9.14741 10.5571 8.57141 9.84803 8.57141Z" fill="#FE7968"/>
<path d="M14.2321 10.7863H13.1565C12.146 10.7863 11.6142 11.9854 12.2925 12.7354L12.8303 13.3303C13.0615 13.5865 13.3783 13.7143 13.6943 13.7143C14.0103 13.7143 14.3272 13.5865 14.5584 13.3303L15.0962 12.7354C15.7753 11.9854 15.2435 10.7863 14.2321 10.7863Z" fill="#FE7968"/>
<path d="M10.2764 16.1571V14.7C11.5095 14.7 12.5826 13.8685 12.8849 12.678L14.2953 13.0371C13.8286 14.874 12.1758 16.1571 10.2764 16.1571Z" fill="#FE7968"/>
<path d="M17.1272 16.1571C15.2269 16.1571 13.5741 14.874 13.1074 13.0363L14.5179 12.6771C14.821 13.8686 15.894 14.7 17.1272 14.7V16.1571Z" fill="#FE7968"/>
<path d="M7.50865 7.51562C9.85634 5.1658 10.6176 2.11795 9.209 0.708063C7.80038 -0.701827 4.7553 0.060135 2.40761 2.40995C0.059917 4.75977 -0.701354 7.80761 0.70726 9.21751C2.11587 10.6274 5.16096 9.86543 7.50865 7.51562Z" fill="#FE7968"/>
<path d="M26.6963 9.21778C28.1049 7.80789 27.3436 4.76004 24.996 2.41022C22.6483 0.060406 19.6032 -0.701554 18.1946 0.708336C16.786 2.11823 17.5472 5.16607 19.8949 7.51589C22.2426 9.86571 25.2877 10.6277 26.6963 9.21778Z" fill="#FE7968"/>
</g>
<defs>
<clipPath id="clip0_1657_1921">
<rect width="27.4286" height="24" fill="white"/>
</clipPath>
</defs>
</svg>
