<svg width="28" height="24" viewBox="0 0 28 24" fill="none" xmlns="http://www.w3.org/2000/svg">
<g clip-path="url(#clip0_1657_2537)">
<path d="M13.7018 1.71429C19.3684 1.71429 23.9782 6.32829 23.9782 12C23.9782 17.6717 19.3684 22.2857 13.7018 22.2857C8.03526 22.2857 3.42544 17.6717 3.42544 12C3.42544 6.32829 8.03526 1.71429 13.7018 1.71429ZM13.7018 0C7.08041 0 1.71271 5.37257 1.71271 12C1.71271 18.6274 7.08041 24 13.7018 24C20.3233 24 25.691 18.6274 25.691 12C25.691 5.37257 20.3233 0 13.7018 0Z" fill="#6B6462"/>
<path d="M17.5555 8.57141C16.8464 8.57141 16.2709 9.14741 16.2709 9.85713C16.2709 10.5668 16.8464 11.1428 17.5555 11.1428C18.2646 11.1428 18.84 10.5668 18.84 9.85713C18.84 9.14741 18.2646 8.57141 17.5555 8.57141Z" fill="#6B6462"/>
<path d="M9.84821 8.57141C9.13914 8.57141 8.56366 9.14741 8.56366 9.85713C8.56366 10.5668 9.13914 11.1428 9.84821 11.1428C10.5573 11.1428 11.1328 10.5668 11.1328 9.85713C11.1328 9.14741 10.5573 8.57141 9.84821 8.57141Z" fill="#6B6462"/>
<path d="M14.232 10.7863H13.1564C12.1458 10.7863 11.614 11.9854 12.2923 12.7354L12.8301 13.3303C13.0613 13.5865 13.3782 13.7143 13.6942 13.7143C14.0102 13.7143 14.327 13.5865 14.5582 13.3303L15.096 12.7354C15.7751 11.9854 15.2433 10.7863 14.232 10.7863Z" fill="#6B6462"/>
<path d="M10.2764 16.1571V14.7C11.5096 14.7 12.5826 13.8685 12.8849 12.678L14.2954 13.0371C13.8286 14.874 12.1759 16.1571 10.2764 16.1571Z" fill="#6B6462"/>
<path d="M17.1273 16.1571C15.2271 16.1571 13.5743 14.874 13.1075 13.0363L14.518 12.6771C14.8211 13.8686 15.8942 14.7 17.1273 14.7V16.1571Z" fill="#6B6462"/>
<path d="M7.50883 7.51562C9.85652 5.1658 10.6178 2.11795 9.20918 0.708063C7.80057 -0.701827 4.75548 0.060135 2.40779 2.40995C0.0601001 4.75977 -0.701171 7.80761 0.707443 9.21751C2.11606 10.6274 5.16114 9.86543 7.50883 7.51562Z" fill="#6B6462"/>
<path d="M26.6962 9.21778C28.1048 7.80789 27.3435 4.76004 24.9958 2.41022C22.6481 0.060406 19.6031 -0.701554 18.1944 0.708336C16.7858 2.11823 17.5471 5.16607 19.8948 7.51589C22.2425 9.86571 25.2876 10.6277 26.6962 9.21778Z" fill="#6B6462"/>
</g>
<defs>
<clipPath id="clip0_1657_2537">
<rect width="27.4286" height="24" fill="white"/>
</clipPath>
</defs>
</svg>
