<?xml version="1.0" encoding="utf-8"?>
<!-- Generator: Adobe Illustrator 25.2.1, SVG Export Plug-In . SVG Version: 6.00 Build 0)  -->
<svg version="1.1" id="레이어_1" xmlns="http://www.w3.org/2000/svg" xmlns:xlink="http://www.w3.org/1999/xlink" x="0px"
	 y="0px" viewBox="0 0 32.029 28" enable-background="new 0 0 32.029 28" xml:space="preserve">
<g>
	<path fill="#040000" d="M16,2c6.617,0,12,5.383,12,12s-5.383,12-12,12S4,20.617,4,14S9.383,2,16,2 M16,0C8.268,0,2,6.268,2,14
		s6.268,14,14,14s14-6.268,14-14S23.732,0,16,0L16,0z"/>
</g>
<g>
	<path fill="#040000" d="M20.5,10c-0.828,0-1.5,0.672-1.5,1.5s0.672,1.5,1.5,1.5s1.5-0.672,1.5-1.5S21.328,10,20.5,10L20.5,10z"/>
</g>
<g>
	<path fill="#040000" d="M11.5,10c-0.828,0-1.5,0.672-1.5,1.5s0.672,1.5,1.5,1.5s1.5-0.672,1.5-1.5S12.328,10,11.5,10L11.5,10z"/>
</g>
<g>
	<path fill="#040000" d="M16.619,12.584h-1.256c-1.18,0-1.801,1.399-1.009,2.274l0.628,0.694c0.27,0.299,0.64,0.448,1.009,0.448
		c0.369,0,0.739-0.149,1.009-0.448l0.628-0.694C18.421,13.983,17.8,12.584,16.619,12.584L16.619,12.584z"/>
</g>
<g>
	<path fill="#040000" d="M12,18.85v-1.7c1.44,0,2.693-0.97,3.046-2.359l1.647,0.419C16.148,17.353,14.218,18.85,12,18.85z"/>
</g>
<g>
	<path fill="#040000" d="M20,18.85c-2.219,0-4.149-1.497-4.694-3.641l1.647-0.419C17.307,16.18,18.56,17.15,20,17.15V18.85z"/>
</g>
<g>
	
		<ellipse transform="matrix(0.7071 -0.7071 0.7071 0.7071 -2.3983 5.7899)" fill="#040000" cx="5.79" cy="5.79" rx="7.02" ry="4.212"/>
</g>
<g>
	
		<ellipse transform="matrix(0.7071 -0.7071 0.7071 0.7071 3.5827 20.2292)" fill="#040000" cx="26.21" cy="5.79" rx="4.212" ry="7.02"/>
</g>
</svg>
