<svg width="39" height="38" viewBox="0 0 39 38" fill="none" xmlns="http://www.w3.org/2000/svg">
<path d="M17.9666 2.10303C17.2718 2.90999 16.8188 3.89127 16.6581 4.93714C16.4975 5.98301 16.6356 7.05224 17.057 8.02528C16.8732 8.09959 16.6902 8.17827 16.5081 8.25958C16.1519 7.25517 15.5164 6.36933 14.6739 5.70287C13.8314 5.03641 12.8158 4.6161 11.7426 4.48976H11.7372C6.34196 4.93564 4.79728 10.2599 7.53845 13.3032C8.06086 13.8817 8.70866 14.3374 9.434 14.6364C9.32918 14.8177 9.22821 14.9998 9.1311 15.1829C8.18541 14.5968 7.08586 14.2965 5.96855 14.3192C4.85124 14.3419 3.76521 14.6865 2.84489 15.3105C-0.915115 19.0952 1.42368 24.1029 5.50167 24.6651C6.19949 24.7618 6.90994 24.7196 7.59086 24.541C7.62106 24.7315 7.65303 24.9213 7.69034 25.111C6.65229 25.3171 5.69115 25.7984 4.91064 26.5028C4.13013 27.2072 3.5599 28.1081 3.26148 29.1081V29.1081C2.84311 34.4411 7.9586 36.7937 11.4477 34.6002C11.8794 34.327 12.2684 33.9933 12.6024 33.6097C13.1302 34.073 13.6893 34.5006 14.2759 34.8896C23.8771 41.2455 38.0812 35.6598 38.7803 21.6235C38.857 20.1396 38.5875 18.658 37.9924 17.2925C35.5408 11.7033 31.3829 8.54284 26.9105 7.38619C27.0723 6.86428 27.1497 6.32053 27.1397 5.77493C27.0588 1.70437 22.2462 -1.18419 17.9666 2.10303Z" fill="#FEF3EC"/>
<path d="M24.0176 30.1493C28.705 30.1493 32.5049 26.4092 32.5049 21.7957C32.5049 17.1822 28.705 13.4421 24.0176 13.4421C19.3302 13.4421 15.5303 17.1822 15.5303 21.7957C15.5303 26.4092 19.3302 30.1493 24.0176 30.1493Z" fill="#F5B3A3"/>
</svg>
