<svg width="11" height="11" viewBox="0 0 11 11" fill="none" xmlns="http://www.w3.org/2000/svg">
<g clip-path="url(#clip0_1871_2501)">
<path d="M5.5 11C8.53757 11 11 8.53757 11 5.5C11 2.46243 8.53757 0 5.5 0C2.46243 0 0 2.46243 0 5.5C0 8.53757 2.46243 11 5.5 11Z" fill="#FE7968"/>
<path d="M5.49902 11C2.46632 11 -0.000976562 8.5327 -0.000976562 5.5C-0.000976562 2.4673 2.46632 0 5.49902 0C8.53172 0 10.999 2.4673 10.999 5.5C10.999 8.5327 8.53172 11 5.49902 11ZM5.49902 0.733333C2.87076 0.733333 0.732357 2.87173 0.732357 5.5C0.732357 8.12827 2.87076 10.2667 5.49902 10.2667C8.12729 10.2667 10.2657 8.12827 10.2657 5.5C10.2657 2.87173 8.12766 0.733333 5.49902 0.733333Z" fill="#FE7968"/>
<path d="M5.52499 9.16749C5.32259 9.16749 5.15833 9.00322 5.15833 8.80082V6.28842C5.15833 6.08602 5.32259 5.92175 5.52499 5.92175C5.72739 5.92175 5.89166 6.08602 5.89166 6.28842V8.80082C5.89166 9.00359 5.72739 9.16749 5.52499 9.16749Z" fill="white"/>
<path d="M5.49892 6.59233C4.18919 6.59233 3.12366 5.5268 3.12366 4.21706C3.12366 2.90733 4.18919 1.8418 5.49892 1.8418C6.80866 1.8418 7.87419 2.90733 7.87419 4.21706C7.87419 5.5268 6.80866 6.59233 5.49892 6.59233ZM5.49892 2.57513C4.59362 2.57513 3.85699 3.31176 3.85699 4.21706C3.85699 5.12236 4.59362 5.859 5.49892 5.859C6.40422 5.859 7.14086 5.12236 7.14086 4.21706C7.14086 3.31176 6.40422 2.57513 5.49892 2.57513Z" fill="white"/>
<path d="M6.56487 8.06457H4.43307C4.23067 8.06457 4.06641 7.9003 4.06641 7.6979C4.06641 7.4955 4.23067 7.33124 4.43307 7.33124H6.56487C6.76727 7.33124 6.93154 7.4955 6.93154 7.6979C6.93154 7.9003 6.76764 8.06457 6.56487 8.06457Z" fill="white"/>
</g>
<defs>
<clipPath id="clip0_1871_2501">
<rect width="11" height="11" fill="white"/>
</clipPath>
</defs>
</svg>
