<svg width="7" height="12" viewBox="0 0 7 12" fill="none" xmlns="http://www.w3.org/2000/svg">
<path d="M3.52964 11.4877C3.20494 11.4877 2.94141 11.2171 2.94141 10.8822V6.59994C2.94141 6.26569 3.20494 5.99442 3.52964 5.99442C3.85435 5.99442 4.11788 6.26569 4.11788 6.59994V10.8822C4.11788 11.2171 3.85435 11.4877 3.52964 11.4877Z" fill="#FE7968"/>
<path d="M3.5 7.20575C1.57 7.20575 0 5.58961 0 3.60288C0 1.61615 1.57 0 3.5 0C5.43 0 7 1.61615 7 3.60288C7 5.58961 5.43 7.20575 3.5 7.20575ZM3.5 1.21105C2.21882 1.21105 1.17647 2.28404 1.17647 3.60288C1.17647 4.92171 2.21882 5.9947 3.5 5.9947C4.78118 5.9947 5.82353 4.92171 5.82353 3.60288C5.82353 2.28404 4.78118 1.21105 3.5 1.21105Z" fill="#FE7968"/>
<path d="M5.2944 9.62762H1.76499C1.44029 9.62762 1.17676 9.35695 1.17676 9.02209C1.17676 8.68723 1.44029 8.41656 1.76499 8.41656H5.2944C5.6197 8.41656 5.88264 8.68723 5.88264 9.02209C5.88264 9.35695 5.6197 9.62762 5.2944 9.62762Z" fill="#FE7968"/>
</svg>
