<?xml version="1.0" encoding="utf-8"?>
<!-- Generator: Adobe Illustrator 25.2.1, SVG Export Plug-In . SVG Version: 6.00 Build 0)  -->
<svg version="1.1" id="레이어_1" xmlns="http://www.w3.org/2000/svg" xmlns:xlink="http://www.w3.org/1999/xlink" x="0px"
	 y="0px" viewBox="0 0 31.642 25.071" enable-background="new 0 0 31.642 25.071" xml:space="preserve">
<g>
	<path fill="#040000" d="M23.853,25.071H7.789c-1.085,0-1.968-0.929-1.968-2.07v-10.93h2v10.93l16.032,0.07l-0.032-11h2v10.93
		C25.821,24.143,24.938,25.071,23.853,25.071z"/>
</g>
<g>
	<path fill="#040000" d="M15.821,17.24c-0.191,0-0.382-0.041-0.561-0.123L0.785,10.471c-0.453-0.208-0.753-0.646-0.783-1.144
		c-0.03-0.498,0.216-0.969,0.641-1.229l14.533-7.914c0.424-0.25,0.854-0.245,1.278,0.018l14.498,7.871
		c0.471,0.287,0.716,0.757,0.687,1.255c-0.03,0.498-0.33,0.936-0.784,1.144l-14.473,6.646C16.204,17.199,16.012,17.24,15.821,17.24z
		 M2.805,9.197l13.016,5.978l13.017-5.978L15.802,2.121L2.805,9.197z M15.453,1.931c0.009,0.005,0.019,0.011,0.028,0.016
		L15.453,1.931z"/>
</g>
<g>
	<path fill="#040000" d="M29.051,18.038c-0.552,0-1-0.448-1-1v-6.06c0-0.552,0.448-1,1-1s1,0.448,1,1v6.06
		C30.051,17.59,29.604,18.038,29.051,18.038z"/>
</g>
</svg>
