<svg width="30" height="24" viewBox="0 0 30 24" fill="none" xmlns="http://www.w3.org/2000/svg">
<g clip-path="url(#clip0_1657_1689)">
<path d="M22.6151 24H7.38467C6.35598 24 5.5188 23.1107 5.5188 22.0184V11.5554H7.41501V22.0184L22.6151 22.0855L22.5847 11.5554H24.4809V22.0184C24.4809 23.1117 23.6438 24 22.6151 24Z" fill="#FE7968"/>
<path d="M14.9999 16.5036C14.8189 16.5036 14.6378 16.4643 14.4681 16.3858L0.744213 10.0237C0.314721 9.82462 0.0302886 9.40533 0.00184544 8.92861C-0.0265978 8.45188 0.206637 8.001 0.609582 7.75211L14.3884 0.176183C14.7904 -0.063137 15.1981 -0.0583506 15.6001 0.193414L29.3458 7.72818C29.7923 8.00292 30.0246 8.45284 29.9971 8.92956C29.9687 9.40629 29.6842 9.82558 29.2538 10.0247L15.5318 16.3868C15.3631 16.4643 15.181 16.5036 14.9999 16.5036ZM2.65939 8.80416L14.9999 14.5268L27.3415 8.80416L14.9819 2.03044L2.65939 8.80416ZM14.651 1.84855C14.6596 1.85334 14.6691 1.85908 14.6776 1.86387L14.651 1.84855Z" fill="#FE7968"/>
<path d="M27.5436 17.2674C27.0202 17.2674 26.5955 16.8386 26.5955 16.3102V10.509C26.5955 9.98062 27.0202 9.55176 27.5436 9.55176C28.0669 9.55176 28.4917 9.98062 28.4917 10.509V16.3102C28.4917 16.8386 28.0679 17.2674 27.5436 17.2674Z" fill="#FE7968"/>
</g>
<defs>
<clipPath id="clip0_1657_1689">
<rect width="30" height="24" fill="white"/>
</clipPath>
</defs>
</svg>
