<svg width="12" height="13" viewBox="0 0 12 13" fill="none" xmlns="http://www.w3.org/2000/svg">
<path d="M5.99948 11.6474C9.10256 11.6474 11.6181 9.12559 11.6181 6.01475C11.6181 2.90391 9.10256 0.38208 5.99948 0.38208C2.8964 0.38208 0.380859 2.90391 0.380859 6.01475C0.380859 9.12559 2.8964 11.6474 5.99948 11.6474Z" fill="#ED7565"/>
<path d="M5.99975 12.0298C2.69146 12.0298 0 9.33134 0 6.01477C0 2.69819 2.69146 0 5.99975 0C9.30805 0 11.9998 2.69819 11.9998 6.01477C11.9998 9.33134 9.30805 12.0298 5.99975 12.0298ZM5.99975 0.764187C3.11163 0.764187 0.76228 3.11972 0.76228 6.01477C0.76228 8.90981 3.11193 11.2657 5.99975 11.2657C8.88757 11.2657 11.2375 8.91012 11.2375 6.01477C11.2375 3.11941 8.88788 0.764187 5.99975 0.764187Z" fill="#040000"/>
<path d="M7.7507 8.72729H4.24848C4.05944 8.72729 3.89021 8.61083 3.82191 8.43415C3.75361 8.25747 3.80087 8.05694 3.94082 7.92948L6.57587 5.52718C6.71369 5.37342 6.87255 5.14386 6.87926 4.8981C6.88658 4.62697 6.79541 4.50928 6.7265 4.44448C6.48318 4.21614 5.97947 4.21125 5.8572 4.22256C5.00771 4.24885 4.90374 5.12491 4.89459 5.22456C4.87172 5.47583 4.64883 5.66229 4.40002 5.64089C4.14938 5.61949 3.96308 5.40063 3.9829 5.14936C4.03169 4.52976 4.47472 3.34741 5.8014 3.30767C5.87397 3.30034 6.77559 3.23431 7.35157 3.77536C7.56196 3.97282 7.80925 4.33199 7.79369 4.92286C7.78241 5.34775 7.59001 5.7763 7.23662 6.16176C7.22747 6.17185 7.21771 6.18163 7.20735 6.1911L5.43124 7.81057H7.7507C8.00347 7.81057 8.20807 8.01568 8.20807 8.26908C8.20807 8.52249 8.00317 8.72729 7.7507 8.72729Z" fill="white"/>
</svg>
