<svg width="12" height="12" viewBox="0 0 12 12" fill="none" xmlns="http://www.w3.org/2000/svg">
<path d="M5.89799 11.4532C8.94879 11.4532 11.4219 8.97341 11.4219 5.91446C11.4219 2.8555 8.94879 0.375732 5.89799 0.375732C2.84719 0.375732 0.374023 2.8555 0.374023 5.91446C0.374023 8.97341 2.84719 11.4532 5.89799 11.4532Z" fill="#ED7565"/>
<path d="M5.89868 11.8289C2.64612 11.8289 0 9.1757 0 5.91444C0 2.65319 2.64612 0 5.89868 0C9.15124 0 11.7973 2.65319 11.7973 5.91444C11.7973 9.1757 9.15124 11.8289 5.89868 11.8289ZM5.89868 0.751441C3.05921 0.751441 0.749438 3.06768 0.749438 5.91444C0.749438 8.7615 3.05921 11.0774 5.89868 11.0774C8.73815 11.0774 11.0479 8.7612 11.0479 5.91444C11.0479 3.06768 8.73815 0.751441 5.89868 0.751441Z" fill="#040000"/>
<path d="M7.26282 8.54088H4.70454C4.45633 8.54088 4.25488 8.33919 4.25488 8.09002C4.25488 7.84084 4.45633 7.63915 4.70454 7.63915H5.53912V5.0557L5.13772 5.57479C4.98513 5.77167 4.70305 5.80744 4.50699 5.65474C4.31064 5.50235 4.27497 5.21891 4.42695 5.02233L5.63325 3.46264C5.75136 3.31025 5.95251 3.24953 6.13417 3.31235C6.31613 3.37487 6.43844 3.5462 6.43844 3.73887V7.63945H7.26282C7.51103 7.63945 7.71248 7.84114 7.71248 8.09032C7.71248 8.33949 7.51103 8.54088 7.26282 8.54088Z" fill="white"/>
</svg>
