<svg width="17" height="14" viewBox="0 0 17 14" fill="none" xmlns="http://www.w3.org/2000/svg">
<path d="M16.048 4.569C16.048 2.284 14.048 0.016 12.021 0.016C11.1833 0.0145353 10.3662 0.275658 9.68457 0.762654C9.00295 1.24965 8.49111 1.93803 8.221 2.731C8.20993 2.76815 8.18716 2.80073 8.15608 2.8239C8.125 2.84707 8.08727 2.85958 8.0485 2.85958C8.00974 2.85958 7.97201 2.84707 7.94092 2.8239C7.90984 2.80073 7.88707 2.76815 7.876 2.731C7.58605 1.9345 7.05921 1.24585 6.3663 0.757632C5.67339 0.269412 4.84762 0.00502143 4 0C1.985 0 0 2.285 0 4.569C0.054 9.969 7.141 13.321 7.926 13.676C7.94778 13.6873 7.97196 13.6932 7.9965 13.6932C8.02104 13.6932 8.04522 13.6873 8.067 13.676C8.854 13.323 16.041 9.961 16.048 4.569Z" fill="#FE7968"/>
</svg>
