<?xml version="1.0" encoding="utf-8"?>
<!-- Generator: Adobe Illustrator 25.2.1, SVG Export Plug-In . SVG Version: 6.00 Build 0)  -->
<svg version="1.1" id="레이어_1" xmlns="http://www.w3.org/2000/svg" xmlns:xlink="http://www.w3.org/1999/xlink" x="0px"
	 y="0px" viewBox="0 0 18.049 15.694" enable-background="new 0 0 18.049 15.694" xml:space="preserve">
<g>
	<path fill="#040000" d="M8.997,15.694c-0.165,0-0.33-0.036-0.486-0.107C7.648,15.196,0.061,11.588,0,5.58C0,2.707,2.429,0,4.998,0
		c1.585,0,3.084,0.769,4.041,1.981c0.93-1.215,2.39-1.965,3.983-1.965c2.584,0,5.027,2.699,5.027,5.553v0.001
		c-0.008,5.869-7.142,9.375-8.572,10.019C9.322,15.659,9.16,15.694,8.997,15.694z M9.335,13.765c0.001,0,0.002,0,0.003,0.001
		C9.337,13.765,9.336,13.765,9.335,13.765z M4.998,2C3.541,2,2,3.834,2,5.569c0.043,4.293,5.548,7.313,7,8.035
		c1.567-0.762,7.042-3.73,7.048-8.036c-0.001-1.726-1.557-3.552-3.027-3.552c-1.291,0-2.437,0.819-2.851,2.038
		c-0.164,0.48-0.611,0.804-1.115,0.807c-0.001,0-0.003,0-0.005,0c-0.501,0-0.949-0.32-1.116-0.797C7.509,2.849,6.301,2,4.998,2z
		 M9.821,3.4c0,0,0,0.001,0.001,0.002C9.822,3.401,9.822,3.401,9.821,3.4z"/>
</g>
</svg>
