<?xml version="1.0" encoding="utf-8"?>
<!-- Generator: Adobe Illustrator 25.2.1, SVG Export Plug-In . SVG Version: 6.00 Build 0)  -->
<svg version="1.1" id="레이어_1" xmlns="http://www.w3.org/2000/svg" xmlns:xlink="http://www.w3.org/1999/xlink" x="0px"
	 y="0px" viewBox="0 0 18.049 15.694" enable-background="new 0 0 18.049 15.694" xml:space="preserve">
<g>
	<path fill="#060001" d="M17.049,5.57c0-2.285-2-4.553-4.027-4.553c-1.77,0-3.261,1.138-3.798,2.715
		C9.165,3.903,8.938,3.904,8.878,3.734c-0.554-1.582-2.122-2.733-3.88-2.733C2.986,1.001,1,3.285,1,5.57
		c0.054,5.395,7.141,8.752,7.926,9.108c0.05,0.023,0.091,0.023,0.141,0C9.855,14.323,17.042,10.961,17.049,5.57L17.049,5.57z"/>
	<path fill="#040000" d="M8.997,15.694c-0.162,0-0.325-0.035-0.479-0.104C7.648,15.197,0.061,11.589,0,5.58C0,2.707,2.429,0,4.998,0
		c1.585,0,3.084,0.769,4.041,1.982c0.93-1.216,2.391-1.966,3.983-1.966c2.584,0,5.027,2.699,5.027,5.554v0.001
		c-0.008,5.874-7.142,9.376-8.572,10.018C9.322,15.659,9.16,15.694,8.997,15.694z M4.998,2C3.541,2,2,3.835,2,5.57
		c0.043,4.293,5.548,7.312,7,8.034c1.567-0.76,7.043-3.726,7.049-8.036c-0.001-1.726-1.557-3.552-3.027-3.552
		c-1.291,0-2.437,0.819-2.851,2.038c-0.163,0.48-0.611,0.805-1.114,0.807c-0.002,0-0.003,0-0.005,0c-0.501,0-0.949-0.32-1.116-0.797
		C7.509,2.849,6.301,2,4.998,2z M8.277,3.408c0,0,0,0.001-0.001,0.002C8.277,3.41,8.277,3.409,8.277,3.408z M9.821,3.401
		c0,0,0,0.001,0.001,0.002C9.822,3.402,9.822,3.402,9.821,3.401z"/>
</g>
</svg>
