<svg width="19" height="16" viewBox="0 0 19 16" fill="none" xmlns="http://www.w3.org/2000/svg">
<path d="M9 15.693C8.83068 15.6927 8.66346 15.6555 8.51 15.584C7.648 15.2 0.06 11.592 0 5.579C0 2.707 2.429 0 5 0C5.77877 0.00659315 6.54611 0.188027 7.24536 0.530904C7.94462 0.87378 8.55792 1.36934 9.04 1.981C9.50812 1.36976 10.1107 0.874547 10.8011 0.533778C11.4915 0.193009 12.2511 0.0158361 13.021 0.016C15.604 0.016 18.048 2.716 18.048 5.569C18.04 11.444 10.907 14.945 9.477 15.587C9.32728 15.6557 9.16471 15.6918 9 15.693ZM9.333 13.761H9.341H9.333ZM5 2C3.541 2 2 3.834 2 5.569C2.043 9.869 7.549 12.882 9 13.603C10.567 12.842 16.042 9.877 16.048 5.568C16.048 3.841 14.491 2.016 13.021 2.016C12.3924 2.0151 11.7793 2.21107 11.2678 2.57641C10.7563 2.94176 10.3721 3.45811 10.169 4.053C10.0906 4.28702 9.94089 4.49064 9.74094 4.63535C9.541 4.78006 9.30081 4.85861 9.054 4.86C8.8077 4.85952 8.5677 4.78219 8.36746 4.63878C8.16722 4.49536 8.01674 4.29303 7.937 4.06C7.71581 3.45818 7.31595 2.93835 6.79102 2.57017C6.26609 2.20199 5.64117 2.00304 5 2ZM8.277 3.406V3.412V3.406ZM9.818 3.394V3.402V3.394Z" fill="#FE7968"/>
</svg>
