<?xml version="1.0" encoding="utf-8"?>
<!-- Generator: Adobe Illustrator 25.2.1, SVG Export Plug-In . SVG Version: 6.00 Build 0)  -->
<svg version="1.1" id="레이어_1" xmlns="http://www.w3.org/2000/svg" xmlns:xlink="http://www.w3.org/1999/xlink" x="0px"
	 y="0px" viewBox="0 0 32.949 31.787" enable-background="new 0 0 32.949 31.787" xml:space="preserve">
<g>
	<g>
		<g>
			<path fill="#070606" d="M21.095,18.919h-9.621c-0.552,0-1-0.447-1-1s0.448-1,1-1h9.621c0.553,0,1,0.447,1,1
				S21.647,18.919,21.095,18.919z"/>
		</g>
		<g>
			<path fill="#070606" d="M16.285,23.73c-0.552,0-1-0.447-1-1v-9.621c0-0.552,0.448-1,1-1s1,0.448,1,1v9.621
				C17.285,23.283,16.837,23.73,16.285,23.73z"/>
		</g>
	</g>
	<g>
		<g>
			<path fill="#070606" d="M16.474,2.321l12.171,9.466h-1.171v2v15.368c0,0.349-0.284,0.632-0.632,0.632H6.107
				c-0.349,0-0.632-0.284-0.632-0.632V13.787v-2H4.303L16.474,2.321 M16.474,0c-0.173,0-0.346,0.056-0.49,0.168L0.309,12.36
				c-0.599,0.466-0.27,1.427,0.49,1.427h2.675v15.368c0,1.454,1.179,2.632,2.632,2.632h20.735c1.454,0,2.632-1.179,2.632-2.632
				V13.787h2.675c0.76,0,1.089-0.961,0.49-1.427L16.964,0.168C16.82,0.056,16.647,0,16.474,0L16.474,0z"/>
		</g>
	</g>
</g>
</svg>
