<svg width="25" height="24" viewBox="0 0 25 24" fill="none" xmlns="http://www.w3.org/2000/svg">
<g clip-path="url(#clip0_1657_2554)">
<path d="M15.8942 14.285H8.63562C8.21916 14.285 7.88116 13.9475 7.88116 13.53C7.88116 13.1124 8.21916 12.7749 8.63562 12.7749H15.8942C16.3114 12.7749 16.6486 13.1124 16.6486 13.53C16.6486 13.9475 16.3107 14.285 15.8942 14.285Z" fill="#FE7968"/>
<path d="M12.2653 17.9177C11.8488 17.9177 11.5108 17.5802 11.5108 17.1626V9.89813C11.5108 9.48134 11.8488 9.14307 12.2653 9.14307C12.6817 9.14307 13.0197 9.48134 13.0197 9.89813V17.1626C13.0197 17.5802 12.6817 17.9177 12.2653 17.9177Z" fill="#FE7968"/>
<path d="M12.4078 1.75251L21.5903 8.89995H20.7068V10.4101V22.0139C20.7068 22.2774 20.4925 22.4911 20.23 22.4911H4.58644C4.32314 22.4911 4.10963 22.2767 4.10963 22.0139V10.4101V8.89995H3.22541L12.4078 1.75251ZM12.4078 0C12.2773 0 12.1468 0.0422836 12.0382 0.126851L0.21213 9.3326C-0.239787 9.68446 0.00842799 10.4101 0.581811 10.4101H2.59997V22.0139C2.59997 23.1118 3.48947 24.0012 4.58569 24.0012H20.2292C21.3262 24.0012 22.215 23.111 22.215 22.0139V10.4101H24.2331C24.8065 10.4101 25.0547 9.68446 24.6028 9.3326L12.7775 0.126851C12.6689 0.0422836 12.5384 0 12.4078 0Z" fill="#FE7968"/>
</g>
<defs>
<clipPath id="clip0_1657_2554">
<rect width="24.8571" height="24" fill="white"/>
</clipPath>
</defs>
</svg>
