<svg width="61" height="61" viewBox="0 0 61 61" fill="none" xmlns="http://www.w3.org/2000/svg">
<path d="M61 30.5C61 47.3447 47.3447 61 30.5 61C13.6553 61 0 47.3447 0 30.5C0 13.6553 13.6553 0 30.5 0C47.3447 0 61 13.6553 61 30.5Z" fill="#FE7968"/>
<path d="M34.0465 26.9415L33.8906 26.8035C32.8394 25.8763 31.6227 25.2805 30.3576 24.9989C30.2818 24.9819 30.2004 25.0103 30.1493 25.0729L28.9739 26.4878C28.676 26.8476 28.4649 27.2501 28.309 27.6681C29.6403 27.5814 31.0046 28.0009 32.0958 28.9651L32.2531 29.103C34.568 31.1465 34.8384 34.7372 32.856 37.1234L27.4716 43.6066C25.4892 45.9928 22.0059 46.2715 19.691 44.228C17.3748 42.1845 17.1044 38.5924 19.0868 36.2062L22.7784 31.7608C22.8212 31.7096 22.835 31.6414 22.8184 31.5774C22.4887 30.2634 22.4349 28.8883 22.6474 27.5444L16.9899 34.3561C14.017 37.9368 14.4212 43.3236 17.8948 46.3882C21.3672 49.4527 26.5929 49.0346 29.5658 45.4553L34.9501 38.9721C37.9244 35.3928 37.5188 30.006 34.0465 26.9415Z" fill="white"/>
<path d="M43.175 16.276L42.8618 16.0002C39.4751 13.011 34.379 13.4191 31.4792 16.9103L25.83 23.7134C22.9302 27.2046 23.3261 32.4577 26.7129 35.4469L27.0261 35.7227C28.1104 36.6798 29.3741 37.2827 30.6832 37.5529L31.9428 36.037C32.2407 35.6787 32.4518 35.2762 32.6077 34.8581C31.2764 34.9449 29.9121 34.5254 28.8209 33.5626L28.5077 33.2853C26.2784 31.3186 26.0176 27.8602 27.9269 25.5621L33.5775 18.759C35.4854 16.4609 38.8405 16.1936 41.0698 18.1603L41.383 18.4362C43.6109 20.4029 43.8717 23.8599 41.9637 26.1565L38.0707 30.8436C38.4238 32.1889 38.4859 33.601 38.268 34.979L44.0593 28.0052C46.9563 24.5155 46.5618 19.2638 43.175 16.276Z" fill="white"/>
</svg>
