<?xml version="1.0" encoding="utf-8"?>
<!-- Generator: Adobe Illustrator 25.2.1, SVG Export Plug-In . SVG Version: 6.00 Build 0)  -->
<svg version="1.1" id="레이어_1" xmlns="http://www.w3.org/2000/svg" xmlns:xlink="http://www.w3.org/1999/xlink" x="0px"
	 y="0px" viewBox="0 0 22.468 24.218" enable-background="new 0 0 22.468 24.218" xml:space="preserve">
<path d="M13.805,9.101l-0.113-0.097c-0.762-0.652-1.644-1.071-2.561-1.269c-0.055-0.012-0.114,0.008-0.151,0.052l-0.852,0.995
	c-0.216,0.253-0.369,0.536-0.482,0.83c0.965-0.061,1.954,0.234,2.745,0.912l0.114,0.097c1.678,1.437,1.874,3.962,0.437,5.64
	l-3.903,4.559c-1.437,1.678-3.962,1.874-5.64,0.437c-1.679-1.437-1.875-3.963-0.438-5.641l2.676-3.126
	c0.031-0.036,0.041-0.084,0.029-0.129c-0.239-0.924-0.278-1.891-0.124-2.836l-4.101,4.79c-2.155,2.518-1.862,6.306,0.656,8.461
	c2.517,2.155,6.305,1.861,8.46-0.656l3.903-4.559C16.616,15.044,16.322,11.256,13.805,9.101z"/>
<path d="M20.422,1.601l-0.227-0.194c-2.455-2.102-6.149-1.815-8.251,0.64L7.849,6.831c-2.102,2.455-1.815,6.149,0.64,8.251
	l0.227,0.194c0.786,0.673,1.702,1.097,2.651,1.287l0.913-1.066c0.216-0.252,0.369-0.535,0.482-0.829
	c-0.965,0.061-1.954-0.234-2.745-0.911L9.79,13.562c-1.616-1.383-1.805-3.815-0.421-5.431l4.096-4.784
	c1.383-1.616,3.815-1.804,5.431-0.421l0.227,0.194c1.615,1.383,1.804,3.814,0.421,5.429l-2.822,3.296
	c0.256,0.946,0.301,1.939,0.143,2.908l4.198-4.904C23.163,7.395,22.877,3.702,20.422,1.601z"/>
</svg>
