<svg width="61" height="61" viewBox="0 0 61 61" fill="none" xmlns="http://www.w3.org/2000/svg">
<circle cx="30.5" cy="30.5" r="30.5" fill="#A4B8FF"/>
<path d="M34.204 27.0254L34.0632 26.8972C33.1136 26.0357 32.0144 25.4821 30.8716 25.2205C30.8031 25.2046 30.7296 25.231 30.6834 25.2892L29.6217 26.6039C29.3525 26.9382 29.1618 27.3121 29.021 27.7006C30.2236 27.62 31.4561 28.0098 32.4419 28.9057L32.5839 29.0338C34.6751 30.9326 34.9193 34.269 33.1285 36.4861L28.2645 42.5101C26.4737 44.7273 23.327 44.9863 21.2359 43.0875C19.1435 41.1888 18.8992 37.8511 20.69 35.6339L24.0249 31.5034C24.0635 31.4558 24.076 31.3924 24.0611 31.333C23.7632 30.112 23.7146 28.8343 23.9065 27.5857L18.7958 33.9148C16.1102 37.2419 16.4753 42.2471 19.6133 45.0946C22.75 47.9421 27.4707 47.5536 30.1563 44.2278L35.0203 38.2039C37.7071 34.8781 37.3407 29.8729 34.204 27.0254Z" fill="white"/>
<path d="M42.4503 17.1154L42.1674 16.8591C39.1079 14.0817 34.5044 14.4609 31.8848 17.7047L26.7816 24.026C24.162 27.2699 24.5197 32.1509 27.5792 34.9283L27.8621 35.1846C28.8416 36.0739 29.9831 36.6341 31.1658 36.8852L32.3036 35.4766C32.5728 35.1437 32.7634 34.7697 32.9042 34.3813C31.7016 34.4619 30.4691 34.0721 29.4834 33.1775L29.2005 32.9199C27.1866 31.0925 26.9511 27.879 28.6758 25.7437L33.7803 19.4225C35.5039 17.2872 38.5347 17.0388 40.5485 18.8662L40.8314 19.1225C42.8441 20.9499 43.0796 24.1621 41.3561 26.296L37.8393 30.6511C38.1583 31.9011 38.2144 33.2132 38.0175 34.4936L43.2491 28.0138C45.8661 24.7712 45.5097 19.8915 42.4503 17.1154Z" fill="white"/>
</svg>
