<svg width="25" height="24" viewBox="0 0 25 24" fill="none" xmlns="http://www.w3.org/2000/svg">
<g clip-path="url(#clip0_1657_1729)">
<path d="M14.3893 24H3.16133C2.24251 24 1.46399 23.7017 0.909973 23.1387C-3.06196e-05 22.2126 -0.00243587 20.9242 -3.05768e-05 20.7795V3.21733C-3.05768e-05 0.874908 1.91459 0.0095968 3.20062 0H14.4326C15.454 0 16.263 0.307098 16.837 0.912496C17.6869 1.8098 17.646 2.991 17.6388 3.12296L17.6404 4.7984C17.6404 5.23985 17.282 5.59813 16.8387 5.59813C16.3961 5.59813 16.0369 5.24065 16.0369 4.7984L16.0361 3.07737C16.0369 3.03339 16.0545 2.4072 15.6641 2.00253C15.4043 1.73542 14.9906 1.59947 14.4326 1.59947H3.20703C2.83982 1.60826 1.6035 1.75062 1.6035 3.21733V20.7947C1.6035 20.8115 1.60591 21.5688 2.06051 22.0247C2.31306 22.2774 2.67306 22.4005 3.16133 22.4005H14.3869C14.7685 22.3941 16.0369 22.2582 16.0369 20.7955V19.196C16.0369 18.7545 16.3961 18.3963 16.8387 18.3963C17.2812 18.3963 17.6404 18.7545 17.6404 19.196V20.7955C17.6404 23.1411 15.6961 23.9968 14.3893 24Z" fill="#6B6462"/>
<path d="M24.0554 12.7965H9.62281C9.18024 12.7965 8.82104 12.4383 8.82104 11.9968C8.82104 11.5554 9.18024 11.1971 9.62281 11.1971H24.0554C24.498 11.1971 24.8572 11.5554 24.8572 11.9968C24.8572 12.4383 24.4988 12.7965 24.0554 12.7965Z" fill="#6B6462"/>
<path d="M20.0466 16.796C19.8413 16.796 19.6361 16.7177 19.4797 16.5617C19.1663 16.249 19.1663 15.7436 19.4797 15.4309L23.4886 11.4322C23.8021 11.1195 24.3088 11.1195 24.6223 11.4322C24.9358 11.7449 24.9358 12.2503 24.6223 12.563L20.6134 16.5617C20.4571 16.7177 20.2518 16.796 20.0466 16.796Z" fill="#6B6462"/>
<path d="M24.0554 12.7965C23.8502 12.7965 23.6449 12.7181 23.4886 12.5622L19.4797 8.56353C19.1663 8.25083 19.1663 7.7454 19.4797 7.4327C19.7932 7.12001 20.3 7.12001 20.6134 7.4327L24.6223 11.4314C24.9358 11.7441 24.9358 12.2495 24.6223 12.5622C24.4659 12.7189 24.2607 12.7965 24.0554 12.7965Z" fill="#6B6462"/>
</g>
<defs>
<clipPath id="clip0_1657_1729">
<rect width="24.8571" height="24" fill="white"/>
</clipPath>
</defs>
</svg>
