<?xml version="1.0" encoding="utf-8"?>
<!-- Generator: Adobe Illustrator 25.2.1, SVG Export Plug-In . SVG Version: 6.00 Build 0)  -->
<svg version="1.1" id="레이어_1" xmlns="http://www.w3.org/2000/svg" xmlns:xlink="http://www.w3.org/1999/xlink" x="0px"
	 y="0px" viewBox="0 0 31.003 30.01" enable-background="new 0 0 31.003 30.01" xml:space="preserve">
<g>
	<path d="M17.947,30.01H3.943c-1.146,0-2.117-0.373-2.808-1.077C0,27.775-0.003,26.164,0,25.983l0-21.96
		C0,1.094,2.388,0.012,3.992,0h14.009C19.275,0,20.284,0.384,21,1.141c1.06,1.122,1.009,2.599,1,2.764L22.002,6c0,0.552-0.447,1-1,1
		h0c-0.552,0-1-0.447-1-1l-0.001-2.152c0.001-0.055,0.023-0.838-0.464-1.344C19.213,2.17,18.697,2,18.001,2H4
		C3.542,2.011,2,2.189,2,4.023l0,21.979c0,0.021,0.003,0.968,0.57,1.538c0.315,0.316,0.764,0.47,1.373,0.47h14.001
		c0.476-0.008,2.058-0.178,2.058-2.007v-2c0-0.552,0.448-1,1-1s1,0.448,1,1v2C22.002,28.936,19.577,30.006,17.947,30.01z"/>
</g>
<g>
	<path d="M30.003,16.001L30.003,16.001l-18.001,0c-0.552,0-1-0.448-1-1s0.448-1,1-1l0,0l18.001,0c0.552,0,1,0.448,1,1
		S30.556,16.001,30.003,16.001z"/>
</g>
<g>
	<path d="M25.003,21.002c-0.256,0-0.512-0.098-0.707-0.293c-0.391-0.391-0.391-1.023,0-1.414l5-5c0.391-0.391,1.023-0.391,1.414,0
		s0.391,1.023,0,1.414l-5,5C25.515,20.904,25.259,21.002,25.003,21.002z"/>
</g>
<g>
	<path d="M30.003,16.001c-0.256,0-0.512-0.098-0.707-0.293l-5-5c-0.391-0.391-0.391-1.023,0-1.414s1.023-0.391,1.414,0l5,5
		c0.391,0.391,0.391,1.023,0,1.414C30.515,15.904,30.259,16.001,30.003,16.001z"/>
</g>
</svg>
