<svg width="11" height="11" viewBox="0 0 11 11" fill="none" xmlns="http://www.w3.org/2000/svg">
<g clip-path="url(#clip0_1871_2485)">
<path d="M5.5 11C8.53757 11 11 8.53757 11 5.5C11 2.46243 8.53757 0 5.5 0C2.46243 0 0 2.46243 0 5.5C0 8.53757 2.46243 11 5.5 11Z" fill="#A4B8FF"/>
<path d="M5.49902 11.0007C2.46632 11.0007 -0.000976562 8.5334 -0.000976562 5.5007C-0.000976562 2.468 2.46632 0.000701904 5.49902 0.000701904C8.53172 0.000701904 10.999 2.468 10.999 5.5007C10.999 8.5334 8.53209 11.0007 5.49902 11.0007ZM5.49902 0.734035C2.87076 0.734035 0.732357 2.87244 0.732357 5.5007C0.732357 8.12897 2.87076 10.2674 5.49902 10.2674C8.12729 10.2674 10.2657 8.12897 10.2657 5.5007C10.2657 2.87244 8.12729 0.734035 5.49902 0.734035Z" fill="#A4B8FF"/>
<path d="M6.28981 5.08312C6.19924 5.08312 6.10831 5.04865 6.03901 4.97935C5.90041 4.84075 5.90041 4.61635 6.03901 4.47775L8.06741 2.44935C8.20601 2.31075 8.43041 2.31075 8.56901 2.44935C8.70761 2.58795 8.70761 2.81235 8.56901 2.95095L6.54061 4.97935C6.47131 5.04865 6.38038 5.08312 6.28981 5.08312Z" fill="white"/>
<path d="M8.31821 5.08311C8.12204 5.08311 7.96364 4.92435 7.96364 4.72855V3.05471H6.28981C6.09364 3.05471 5.93524 2.89595 5.93524 2.70015C5.93524 2.50435 6.09401 2.34558 6.28981 2.34558H8.26027C8.48797 2.34558 8.67314 2.53075 8.67314 2.75845V4.72855C8.67277 4.92435 8.51437 5.08311 8.31821 5.08311ZM8.25991 3.05471H8.26321H8.25991Z" fill="white"/>
<path d="M4.68751 8.69325C3.38474 8.69325 2.32471 7.63358 2.32471 6.33045C2.32471 5.02768 3.38474 3.96765 4.68751 3.96765C5.99064 3.96765 7.05031 5.02768 7.05031 6.33045C7.05031 7.63358 5.99027 8.69325 4.68751 8.69325ZM4.68751 4.67715C3.77561 4.67715 3.03421 5.41892 3.03421 6.33045C3.03421 7.24198 3.77597 7.98375 4.68751 7.98375C5.59904 7.98375 6.34081 7.24198 6.34081 6.33045C6.34081 5.41892 5.59941 4.67715 4.68751 4.67715Z" fill="white"/>
</g>
<defs>
<clipPath id="clip0_1871_2485">
<rect width="11" height="11" fill="white"/>
</clipPath>
</defs>
</svg>
