<svg width="10" height="10" viewBox="0 0 10 10" fill="none" xmlns="http://www.w3.org/2000/svg">
<g clip-path="url(#clip0_1544_1062)">
<path d="M6.22428 4.39948C6.0634 4.39948 5.90253 4.33783 5.77999 4.21515C5.53428 3.96916 5.53428 3.57155 5.77999 3.32556L8.92207 0.179914C9.16778 -0.066075 9.56494 -0.066075 9.81065 0.179914C10.0564 0.425904 10.0564 0.823513 9.81065 1.0695L6.66857 4.21515C6.54603 4.33783 6.38515 4.39948 6.22428 4.39948Z" fill="#A4B8FF"/>
<path d="M9.3662 4.39951C9.01869 4.39951 8.73779 4.11766 8.73779 3.77038V1.25386H6.22412C5.87661 1.25386 5.5957 0.972013 5.5957 0.624734C5.5957 0.277455 5.87661 -0.00439453 6.22412 -0.00439453H9.27508C9.67162 -0.00439453 9.99462 0.318348 9.99462 0.715329V3.77038C9.99462 4.11766 9.71372 4.39951 9.3662 4.39951ZM9.27571 1.25386H9.282H9.27571Z" fill="#A4B8FF"/>
<path d="M3.74201 9.99871C1.68017 9.99871 0.00292969 8.31957 0.00292969 6.2554C0.00292969 4.19123 1.68017 2.51208 3.74201 2.51208C5.80385 2.51208 7.48109 4.19123 7.48109 6.2554C7.48109 8.31957 5.80385 9.99871 3.74201 9.99871ZM3.74201 3.77034C2.37332 3.77034 1.25976 4.88516 1.25976 6.2554C1.25976 7.62564 2.37332 8.74046 3.74201 8.74046C5.1107 8.74046 6.22426 7.62564 6.22426 6.2554C6.22426 4.88516 5.1107 3.77034 3.74201 3.77034Z" fill="#A4B8FF"/>
</g>
<defs>
<clipPath id="clip0_1544_1062">
<rect width="10" height="10" fill="white"/>
</clipPath>
</defs>
</svg>
