<svg width="12" height="12" viewBox="0 0 12 12" fill="none" xmlns="http://www.w3.org/2000/svg">
<path d="M5.90076 11.3986C8.95256 11.3986 11.4265 8.9306 11.4265 5.88623C11.4265 2.84185 8.95256 0.373901 5.90076 0.373901C2.84897 0.373901 0.375 2.84185 0.375 5.88623C0.375 8.9306 2.84897 11.3986 5.90076 11.3986Z" fill="#67BA60"/>
<path d="M5.9006 11.7725C2.64698 11.7725 0 9.13197 0 5.88625C0 2.64054 2.64698 0 5.9006 0C9.15453 0 11.8015 2.64054 11.8015 5.88625C11.8015 9.13197 9.15423 11.7725 5.9006 11.7725ZM5.9006 0.74786C3.0602 0.74786 0.749683 3.05276 0.749683 5.88625C0.749683 8.71975 3.0602 11.0246 5.9006 11.0246C8.741 11.0246 11.0518 8.71975 11.0518 5.88625C11.0518 3.05276 8.7407 0.74786 5.9006 0.74786Z" fill="black"/>
<path d="M3.42969 5.63409L5.20434 7.6919L8.371 4.08093" fill="#67BA60"/>
<path d="M5.20412 8.14059C5.20352 8.14059 5.20292 8.14059 5.20232 8.14059C5.07158 8.13999 4.94803 8.08316 4.86316 7.98474L3.08852 5.92693C2.92629 5.73907 2.94758 5.45578 3.1359 5.29424C3.32482 5.1321 3.6088 5.15394 3.77013 5.34151L5.20682 7.00714L8.03192 3.78536C8.19535 3.59899 8.47963 3.57955 8.66645 3.74288C8.85357 3.90592 8.87276 4.1895 8.70903 4.37587L5.54238 7.98683C5.45721 8.08495 5.33396 8.14059 5.20412 8.14059Z" fill="white"/>
</svg>
