<svg width="24" height="24" viewBox="0 0 24 24" fill="none" xmlns="http://www.w3.org/2000/svg">
<g clip-path="url(#clip0_1657_1724)">
<path d="M12.009 1.738C14.056 1.738 15.7221 3.42125 15.7221 5.4912C15.7221 7.56115 14.0568 9.2444 12.009 9.2444C9.96126 9.2444 8.29604 7.56029 8.29604 5.4912C8.29604 3.42212 9.96126 1.738 12.009 1.738ZM12.009 0C9.00873 0 6.57666 2.4584 6.57666 5.4912C6.57666 8.524 9.00873 10.9824 12.009 10.9824C15.0094 10.9824 17.4414 8.524 17.4414 5.4912C17.4414 2.4584 15.0085 0 12.009 0Z" fill="#6B6462"/>
<path d="M22.0408 24H1.98161C0.879487 24 0.0163574 23.0823 0.0163574 21.9109C0.0163574 19.3943 0.834783 17.32 2.45014 15.7454C5.9018 12.3797 11.7503 12.5553 11.9944 12.5596C11.9962 12.5596 11.9996 12.5596 12.0013 12.5596C22.8334 12.5596 23.9226 19.6281 23.9974 21.7953C24.0267 22.4306 23.8229 22.9911 23.4421 23.3952C23.0733 23.7853 22.5764 24 22.0408 24ZM11.7898 14.2959C10.8424 14.2959 6.26717 14.4323 3.6391 17.0011C2.37621 18.235 1.73574 19.887 1.73574 21.9109C1.73574 22.0465 1.8028 22.262 1.98161 22.262H22.0408C22.1044 22.262 22.1543 22.2411 22.1972 22.1951C22.2557 22.1334 22.2867 22.0395 22.2824 21.9387C22.1998 19.5837 21.0358 14.2976 11.9686 14.2976C11.96 14.2985 11.9282 14.2959 11.7898 14.2959Z" fill="#6B6462"/>
</g>
<defs>
<clipPath id="clip0_1657_1724">
<rect width="24" height="24" fill="white"/>
</clipPath>
</defs>
</svg>
