<?xml version="1.0" encoding="utf-8"?>
<!-- Generator: Adobe Illustrator 25.2.1, SVG Export Plug-In . SVG Version: 6.00 Build 0)  -->
<svg version="1.1" id="레이어_1" xmlns="http://www.w3.org/2000/svg" xmlns:xlink="http://www.w3.org/1999/xlink" x="0px"
	 y="0px" viewBox="0 0 27.917 27.618" enable-background="new 0 0 27.917 27.618" xml:space="preserve">
<g>
	<path fill="#040000" d="M13.969,2c2.381,0,4.319,1.937,4.319,4.319s-1.937,4.319-4.319,4.319S9.65,8.7,9.65,6.319
		S11.587,2,13.969,2 M13.969,0C10.479,0,7.65,2.829,7.65,6.319s2.829,6.319,6.319,6.319c3.49,0,6.319-2.829,6.319-6.319
		S17.458,0,13.969,0L13.969,0z"/>
</g>
<g>
	<path fill="#040000" d="M25.638,27.618H2.305c-1.282,0-2.286-1.056-2.286-2.404c0-2.896,0.952-5.283,2.831-7.095
		c4.015-3.873,10.818-3.671,11.102-3.666c0.002,0,0.006,0,0.008,0c12.6,0,13.867,8.134,13.954,10.628
		c0.034,0.731-0.203,1.376-0.646,1.841C26.839,27.371,26.261,27.618,25.638,27.618z M13.714,16.451
		c-1.102,0-6.424,0.157-9.481,3.113c-1.469,1.42-2.214,3.321-2.214,5.65c0,0.156,0.078,0.404,0.286,0.404h23.333
		c0.074,0,0.132-0.024,0.182-0.077c0.068-0.071,0.104-0.179,0.099-0.295c-0.096-2.71-1.45-8.793-11.997-8.793
		C13.912,16.454,13.875,16.451,13.714,16.451z"/>
</g>
</svg>
