<svg width="24" height="24" viewBox="0 0 24 24" fill="none" xmlns="http://www.w3.org/2000/svg">
<g clip-path="url(#clip0_1657_2508)">
<path d="M12.0086 1.738C14.0555 1.738 15.7216 3.42125 15.7216 5.4912C15.7216 7.56115 14.0563 9.2444 12.0086 9.2444C9.96078 9.2444 8.29555 7.56029 8.29555 5.4912C8.29555 3.42212 9.96078 1.738 12.0086 1.738ZM12.0086 0C9.00824 0 6.57617 2.4584 6.57617 5.4912C6.57617 8.524 9.00824 10.9824 12.0086 10.9824C15.0089 10.9824 17.441 8.524 17.441 5.4912C17.441 2.4584 15.008 0 12.0086 0Z" fill="#FE7968"/>
<path d="M22.041 24H1.98186C0.879732 24 0.0166016 23.0823 0.0166016 21.9109C0.0166016 19.3943 0.835027 17.32 2.45039 15.7454C5.90205 12.3797 11.7505 12.5553 11.9947 12.5596C11.9964 12.5596 11.9998 12.5596 12.0016 12.5596C22.8337 12.5596 23.9229 19.6281 23.9977 21.7953C24.0269 22.4306 23.8232 22.9911 23.4423 23.3952C23.0735 23.7853 22.5766 24 22.041 24ZM11.7901 14.2959C10.8427 14.2959 6.26742 14.4323 3.63934 17.0011C2.37645 18.235 1.73598 19.887 1.73598 21.9109C1.73598 22.0465 1.80304 22.262 1.98186 22.262H22.041C22.1046 22.262 22.1545 22.2411 22.1975 22.1951C22.256 22.1334 22.2869 22.0395 22.2826 21.9387C22.2001 19.5837 21.0361 14.2976 11.9689 14.2976C11.9603 14.2985 11.9285 14.2959 11.7901 14.2959Z" fill="#FE7968"/>
</g>
<defs>
<clipPath id="clip0_1657_2508">
<rect width="24" height="24" fill="white"/>
</clipPath>
</defs>
</svg>
