<svg width="36" height="36" viewBox="0 0 36 36" fill="none" xmlns="http://www.w3.org/2000/svg">
<path d="M18 36C27.9411 36 36 27.9411 36 18C36 8.05887 27.9411 0 18 0C8.05887 0 0 8.05887 0 18C0 27.9411 8.05887 36 18 36Z" fill="#FFF8F8"/>
<path d="M10.3785 18.8838C10.0897 18.9405 9.8109 19.04 9.55151 19.1793C7.69487 20.1805 7.26264 23.3273 7.61616 25.4059C8.33224 29.5785 12.5952 31.4364 12.7835 31.5151L10.3785 18.8838Z" fill="url(#paint0_linear_25_56)"/>
<path d="M28.4945 18.3794L27.274 25.593C26.8666 28.0003 25.5196 30.1472 23.5293 31.5614C21.539 32.9756 19.0685 33.5412 16.6612 33.1338C15.4692 32.9321 14.3286 32.4976 13.3046 31.855C12.2805 31.2125 11.393 30.3746 10.6928 29.3891C9.27865 27.3988 8.71304 24.9283 9.12042 22.521L12.195 4.35456C12.2306 4.09634 12.3177 3.84788 12.4511 3.62392C12.5844 3.39995 12.7614 3.20502 12.9714 3.05068C13.1815 2.89633 13.4204 2.78571 13.674 2.72536C13.9275 2.66501 14.1907 2.65616 14.4477 2.69933C14.7048 2.74251 14.9506 2.83683 15.1705 2.97671C15.3905 3.1166 15.5801 3.29919 15.7282 3.51369C15.8763 3.72819 15.9799 3.97023 16.0328 4.22548C16.0856 4.48073 16.0868 4.74399 16.0361 4.99967L14.1833 15.9524C14.1669 16.0766 14.1994 16.2023 14.2738 16.3031C14.3482 16.4038 14.4588 16.4718 14.5823 16.4927C14.7058 16.5136 14.8326 16.4857 14.936 16.4151C15.0394 16.3444 15.1114 16.2364 15.1368 16.1137V16.0892C15.2723 15.6341 15.5703 15.2447 15.9742 14.9951C16.3782 14.7455 16.8598 14.653 17.3274 14.7354C17.795 14.8178 18.2161 15.0692 18.5104 15.4418C18.8047 15.8144 18.9518 16.2823 18.9236 16.7562H18.9365C18.9247 16.8179 18.9253 16.8814 18.9385 16.9428C18.9517 17.0042 18.9771 17.0624 19.0132 17.1138C19.0493 17.1652 19.0954 17.2088 19.1487 17.242C19.2021 17.2752 19.2615 17.2974 19.3236 17.3072C19.386 17.3193 19.4503 17.3188 19.5126 17.3059C19.5749 17.2929 19.634 17.2677 19.6865 17.2317C19.739 17.1956 19.7838 17.1496 19.8182 17.0961C19.8527 17.0426 19.8762 16.9828 19.8874 16.9201C20.0073 16.449 20.3001 16.0403 20.7076 15.7753C21.115 15.5102 21.6073 15.4082 22.0865 15.4894C22.5658 15.5707 22.9969 15.8294 23.2942 16.214C23.5914 16.5986 23.7331 17.081 23.691 17.5652H23.7155C23.6941 17.6918 23.7239 17.8218 23.7983 17.9264C23.8727 18.0311 23.9856 18.1019 24.1122 18.1232C24.2389 18.1446 24.3688 18.1148 24.4734 18.0404C24.5781 17.966 24.6489 17.8531 24.6703 17.7265V17.7007C24.8058 17.2456 25.1038 16.8562 25.5077 16.6066C25.9117 16.357 26.3933 16.2645 26.8609 16.3469C27.3285 16.4293 27.7496 16.6807 28.0439 17.0533C28.3382 17.4259 28.4853 17.8937 28.4571 18.3677L28.4945 18.3794Z" fill="#FFDCDC"/>
<path d="M15.4207 4.15458L15.2853 4.95582C15.2513 5.16231 15.1621 5.35579 15.0272 5.51578C14.8894 5.68438 14.7093 5.81327 14.5052 5.88923C14.3011 5.96519 14.0805 5.98547 13.866 5.948C13.5505 5.8909 13.2699 5.71257 13.0842 5.45118C12.8986 5.18979 12.8226 4.8661 12.8725 4.54939L13.008 3.74816C13.0687 3.43575 13.2491 3.15944 13.5107 2.97824C13.7723 2.79704 14.0944 2.7253 14.4082 2.77836C14.722 2.83142 15.0026 3.00506 15.1901 3.2622C15.3776 3.51934 15.4571 3.8396 15.4117 4.15458H15.4207Z" fill="white"/>
<path d="M15.034 5.51573C14.8962 5.68433 14.716 5.81322 14.512 5.88918C14.3079 5.96514 14.0873 5.98543 13.8728 5.94796C13.6633 5.91272 13.4669 5.82248 13.3037 5.68647C13.1405 5.55045 13.0163 5.37355 12.9438 5.17382C13.1008 5.05185 13.2814 4.96385 13.4742 4.91543C13.667 4.86701 13.8678 4.85922 14.0638 4.89255C14.2586 4.92731 14.4446 5.00026 14.6111 5.10722C14.7777 5.21417 14.9214 5.35301 15.034 5.51573Z" fill="#FFC7C7"/>
<defs>
<linearGradient id="paint0_linear_25_56" x1="9.65542" y1="23.6784" x2="12.4498" y2="27.827" gradientUnits="userSpaceOnUse">
<stop stop-color="#FFC7C7"/>
<stop offset="1" stop-color="#FFDCDC"/>
</linearGradient>
</defs>
</svg>
