<svg width="36" height="36" viewBox="0 0 36 36" fill="none" xmlns="http://www.w3.org/2000/svg">
<path d="M18 36C27.9411 36 36 27.9411 36 18C36 8.05887 27.9411 0 18 0C8.05887 0 0 8.05887 0 18C0 27.9411 8.05887 36 18 36Z" fill="#FFDCDC"/>
<path d="M32.3408 25.1672C32.3408 29.7088 26.0574 33.386 18.316 33.386C10.5746 33.386 4.30408 29.7088 4.30408 25.1672C4.36223 24.1897 4.64511 23.2388 5.13071 22.3884C5.61631 21.5381 6.29154 20.8112 7.10388 20.2644C6.99574 19.5598 6.93968 18.8483 6.93615 18.1355C6.93615 11.0005 12.0326 5.22028 18.316 5.22028C20.1832 5.2576 22.0104 5.76847 23.6262 6.70501C25.242 7.64155 26.5935 8.97306 27.554 10.5747C28.9748 12.8396 29.7221 15.4619 29.7087 18.1355C29.7052 18.8483 29.6491 19.5598 29.541 20.2644C29.7215 20.4003 29.8938 20.5468 30.0571 20.703C30.7323 21.2429 31.285 21.9201 31.6787 22.6897C32.0724 23.4593 32.2981 24.3038 32.3408 25.1672Z" fill="white"/>
<path d="M14.1033 7.27428C14.5406 6.61369 12.386 3.23586 9.09587 2.69139C6.35026 2.23594 3.13759 3.81518 2.37893 6.27178C2.19392 6.8501 2.14856 7.46404 2.24656 8.06328C2.34457 8.66252 2.58315 9.23001 2.94276 9.71927C3.52514 10.2011 4.23348 10.5059 4.9838 10.5973C5.73411 10.6888 6.49492 10.5632 7.17601 10.2354C9.05071 9.41865 8.91395 7.78522 10.7087 7.1801C12.4453 6.59175 13.8052 7.73232 14.1033 7.27428Z" fill="white"/>
<path d="M21.8965 7.27429C21.4578 6.61369 23.6202 3.23586 26.9026 2.69139C29.6482 2.23594 32.8622 3.81518 33.6208 6.27178C33.8055 6.85015 33.8507 7.46402 33.7527 8.0632C33.6547 8.66239 33.4163 9.22988 33.057 9.71927C32.4743 10.2011 31.7658 10.5058 31.0153 10.5973C30.2648 10.6887 29.5038 10.5631 28.8225 10.2354C26.9477 9.42897 27.0858 7.78393 25.2963 7.18526C23.5544 6.59175 22.1997 7.73232 21.8965 7.27429Z" fill="#6B3003"/>
<path d="M30.0624 20.703C29.8071 21.0575 29.508 21.3783 29.1721 21.6578C26.0369 24.2253 20.3341 22.5093 18.7729 18.6774C18.2859 17.4337 18.1943 16.0701 18.5106 14.7724C18.827 13.4748 19.5358 12.3063 20.5405 11.4263C21.5081 10.6311 22.6825 10.1286 23.9258 9.97771C25.1692 9.82687 26.4297 10.034 27.5594 10.5747C28.9802 12.8396 29.7275 15.4619 29.714 18.1355C29.7105 18.8482 29.6545 19.5598 29.5463 20.2643C29.7268 20.4003 29.8991 20.5468 30.0624 20.703Z" fill="#6B3003"/>
<path d="M18.3225 24.5015C19.68 24.5015 20.7804 23.7829 20.7804 22.8964C20.7804 22.01 19.68 21.2914 18.3225 21.2914C16.9651 21.2914 15.8646 22.01 15.8646 22.8964C15.8646 23.7829 16.9651 24.5015 18.3225 24.5015Z" fill="#230E00"/>
<path d="M14.879 19.2296C15.4833 19.2296 15.9731 18.7398 15.9731 18.1355C15.9731 17.5312 15.4833 17.0414 14.879 17.0414C14.2748 17.0414 13.7849 17.5312 13.7849 18.1355C13.7849 18.7398 14.2748 19.2296 14.879 19.2296Z" fill="#230E00"/>
<path d="M22.5599 19.2296C23.1642 19.2296 23.6541 18.7398 23.6541 18.1355C23.6541 17.5312 23.1642 17.0414 22.5599 17.0414C21.9557 17.0414 21.4658 17.5312 21.4658 18.1355C21.4658 18.7398 21.9557 19.2296 22.5599 19.2296Z" fill="#230E00"/>
</svg>
