<?xml version="1.0" encoding="utf-8"?>
<!-- Generator: Adobe Illustrator 25.2.1, SVG Export Plug-In . SVG Version: 6.00 Build 0)  -->
<svg version="1.1" id="레이어_1" xmlns="http://www.w3.org/2000/svg" xmlns:xlink="http://www.w3.org/1999/xlink" x="0px"
	 y="0px" viewBox="0 0 28.001 28.001" enable-background="new 0 0 28.001 28.001" xml:space="preserve">
<g>
	<g>
		<path d="M11.5,23.001C5.159,23.001,0,17.842,0,11.5C0,5.159,5.159,0,11.5,0c6.342,0,11.501,5.159,11.501,11.5
			C23.001,17.842,17.842,23.001,11.5,23.001z M11.5,2C6.262,2,2,6.262,2,11.5s4.262,9.501,9.5,9.501s9.501-4.262,9.501-9.501
			S16.739,2,11.5,2z"/>
	</g>
	<g>
		<path d="M27.001,28.001c-0.256,0-0.512-0.098-0.707-0.293l-8-8c-0.391-0.391-0.391-1.023,0-1.414s1.023-0.391,1.414,0l8,8
			c0.391,0.391,0.391,1.023,0,1.414C27.513,27.904,27.257,28.001,27.001,28.001z"/>
	</g>
</g>
</svg>
