<?xml version="1.0" encoding="utf-8"?>
<!-- Generator: Adobe Illustrator 25.2.1, SVG Export Plug-In . SVG Version: 6.00 Build 0)  -->
<svg version="1.1" id="레이어_1" xmlns="http://www.w3.org/2000/svg" xmlns:xlink="http://www.w3.org/1999/xlink" x="0px"
	 y="0px" viewBox="0 0 15.7 3.7" enable-background="new 0 0 15.7 3.7" xml:space="preserve">
<g>
	<g>
		<circle fill="#040000" cx="1.85" cy="1.85" r="1"/>
		<path fill="#070606" d="M1.85,3.7C0.83,3.7,0,2.87,0,1.85S0.83,0,1.85,0S3.7,0.83,3.7,1.85S2.87,3.7,1.85,3.7z M1.85,1.7
			C1.768,1.7,1.7,1.768,1.7,1.85c0,0.165,0.3,0.165,0.3,0C2,1.768,1.933,1.7,1.85,1.7z"/>
	</g>
	<g>
		<circle fill="#080505" cx="7.85" cy="1.85" r="1"/>
		<path fill="#070606" d="M7.85,3.7C6.83,3.7,6,2.87,6,1.85S6.83,0,7.85,0S9.7,0.83,9.7,1.85S8.87,3.7,7.85,3.7z M7.85,1.7
			C7.768,1.7,7.7,1.768,7.7,1.85c0,0.165,0.3,0.165,0.3,0C8,1.768,7.933,1.7,7.85,1.7z"/>
	</g>
	<g>
		<circle fill="#070606" cx="13.85" cy="1.85" r="1"/>
		<path d="M13.85,3.7C12.83,3.7,12,2.87,12,1.85S12.83,0,13.85,0s1.85,0.83,1.85,1.85S14.87,3.7,13.85,3.7z M13.85,1.7
			c-0.083,0-0.15,0.067-0.15,0.15c0,0.165,0.3,0.165,0.3,0C14,1.768,13.933,1.7,13.85,1.7z"/>
	</g>
</g>
</svg>
