<svg width="36" height="36" viewBox="0 0 36 36" fill="none" xmlns="http://www.w3.org/2000/svg">
<path d="M18 36C27.9411 36 36 27.9411 36 18C36 8.05887 27.9411 0 18 0C8.05887 0 0 8.05887 0 18C0 27.9411 8.05887 36 18 36Z" fill="#FFF8F8"/>
<path d="M7.87034 30.163L25.5633 22.966L13.9086 11.3114L6.70914 29.0082C6.64256 29.1703 6.62555 29.3486 6.66024 29.5204C6.69494 29.6922 6.77979 29.8498 6.90407 29.9734C7.02834 30.097 7.18647 30.181 7.35846 30.2147C7.53045 30.2484 7.70858 30.2304 7.87034 30.163V30.163Z" fill="#FFDCDC"/>
<path d="M17.8944 9.17865C18.2718 9.43279 18.7017 9.59854 19.1521 9.66354C19.6024 9.72855 20.0616 9.69114 20.4955 9.55411C20.8567 9.35604 21.1738 9.08634 21.4272 8.76153C21.6806 8.43671 21.865 8.0636 21.9693 7.66504C22.0735 7.26647 22.0953 6.85083 22.0334 6.44355C21.9714 6.03626 21.827 5.6459 21.609 5.29635C21.4061 5.05987 21.1433 4.88245 20.8481 4.78277C20.5529 4.68309 20.2364 4.66484 19.9317 4.72994C19.609 4.81286 19.3199 4.99394 19.1045 5.24817C18.8891 5.50239 18.758 5.81723 18.7292 6.14919C18.7693 6.58702 18.9614 6.99697 19.2723 7.30786C19.5832 7.61875 19.9932 7.81092 20.431 7.851C20.8271 7.83241 21.2149 7.73077 21.5692 7.55267C21.9235 7.37457 22.2364 7.12399 22.4876 6.81717C22.7388 6.51036 22.9227 6.15417 23.0274 5.7717C23.1321 5.38923 23.1553 4.98903 23.0953 4.59704C22.9075 4.03305 22.5478 3.54201 22.0668 3.19283C21.5857 2.84365 21.0074 2.65386 20.4129 2.65009" stroke="#FF7878" stroke-width="0.75" stroke-linecap="round" stroke-linejoin="round"/>
<path d="M25.5068 23.0236C25.8787 22.6517 23.5709 19.741 20.3522 16.5223C17.1335 13.3036 14.2228 10.9958 13.8509 11.3677C13.4791 11.7395 15.7869 14.6502 19.0056 17.8689C22.2243 21.0876 25.135 23.3954 25.5068 23.0236Z" fill="#FF7878"/>
<path d="M27.3293 18.7497C27.1096 18.525 26.9733 18.2319 26.9431 17.9191C26.9128 17.6063 26.9904 17.2925 27.1629 17.0298C27.3122 16.8736 27.5026 16.7628 27.7122 16.7103C27.9218 16.6578 28.142 16.6657 28.3473 16.7331C29.1215 16.9911 28.9924 18.0104 29.773 18.3007C30.0048 18.3757 30.2525 18.3865 30.4899 18.332C30.7273 18.2774 30.9455 18.1596 31.1213 17.991C31.3832 17.6346 31.5086 17.196 31.4747 16.755C31.4409 16.314 31.25 15.8997 30.9368 15.5873" stroke="#FF7878" stroke-width="0.75" stroke-linecap="round" stroke-linejoin="round"/>
<path d="M23.3118 14.0635C23.9023 12.9901 24.8164 12.1304 25.924 11.6068C27.0316 11.0832 28.2761 10.9225 29.4804 11.1475C30.2483 11.3567 30.964 11.7241 31.5815 12.2263C32.199 12.7285 32.7046 13.3543 33.0659 14.0635" stroke="#FF7878" stroke-width="0.75" stroke-linecap="round" stroke-linejoin="round"/>
<path d="M19.8427 14.2107C20.4757 13.8204 20.9761 13.2482 21.2786 12.5689C21.5811 11.8895 21.6715 11.1347 21.538 10.4032C21.2479 9.45254 20.5974 8.65315 19.7255 8.17598C18.8536 7.69881 17.8296 7.58174 16.8726 7.84982" stroke="#FFDCDC" stroke-width="0.75" stroke-linecap="round" stroke-linejoin="round"/>
<path d="M25.7644 15.3901L25.5752 14.9944C25.5324 14.905 25.4254 14.8672 25.336 14.91L23.9939 15.5518C23.9046 15.5945 23.8668 15.7016 23.9095 15.7909L24.0988 16.1867C24.1415 16.276 24.2486 16.3138 24.3379 16.2711L25.68 15.6293C25.7694 15.5866 25.8072 15.4795 25.7644 15.3901Z" fill="#FFDCDC"/>
<path d="M31.6405 14.7688L31.4523 14.3754C31.4093 14.2854 31.3014 14.2473 31.2114 14.2903L29.8717 14.931C29.7817 14.9741 29.7436 15.0819 29.7867 15.1719L29.9748 15.5653C30.0178 15.6553 30.1257 15.6934 30.2157 15.6504L31.5554 15.0097C31.6454 14.9666 31.6835 14.8588 31.6405 14.7688Z" fill="#FFB3B3"/>
<path d="M24.8791 8.19342L24.4771 7.99928C24.3898 7.95714 24.2849 7.99372 24.2428 8.08098L23.5925 9.42756C23.5503 9.51483 23.5869 9.61974 23.6742 9.66188L24.0762 9.85601C24.1635 9.89816 24.2684 9.86158 24.3105 9.77431L24.9608 8.42773C25.0029 8.34047 24.9664 8.23556 24.8791 8.19342Z" fill="#FFB3B3"/>
<path d="M27.4136 8.269L27.1813 8.15678C27.1158 8.12517 27.0371 8.15261 27.0055 8.21806L26.5954 9.06736C26.5638 9.13281 26.5912 9.2115 26.6566 9.2431L26.889 9.35532C26.9545 9.38693 27.0331 9.35949 27.0647 9.29404L27.4749 8.44473C27.5065 8.37928 27.4791 8.3006 27.4136 8.269Z" fill="#FF7878"/>
<path d="M19.6576 11.6813L19.339 11.4394C19.2516 11.3731 19.127 11.3901 19.0606 11.4775L18.1845 12.6316C18.1182 12.719 18.1353 12.8436 18.2227 12.91L18.5412 13.1518C18.6286 13.2182 18.7533 13.2011 18.8196 13.1137L19.6957 11.9597C19.7621 11.8723 19.745 11.7476 19.6576 11.6813Z" fill="#FFDCDC"/>
</svg>
