<?xml version="1.0" encoding="utf-8"?>
<!-- Generator: Adobe Illustrator 25.2.1, SVG Export Plug-In . SVG Version: 6.00 Build 0)  -->
<svg version="1.1" id="레이어_1" xmlns="http://www.w3.org/2000/svg" xmlns:xlink="http://www.w3.org/1999/xlink" x="0px"
	 y="0px" viewBox="0 0 21.818 24.989" enable-background="new 0 0 21.818 24.989" xml:space="preserve">
<g>
	<g>
		<path fill="#070606" d="M10.909,24.989C4.894,24.989,0,20.095,0,14.08S4.894,3.171,10.909,3.171S21.818,8.065,21.818,14.08
			S16.924,24.989,10.909,24.989z M10.909,4.989c-5.013,0-9.091,4.078-9.091,9.091s4.078,9.091,9.091,9.091S20,19.093,20,14.08
			S15.922,4.989,10.909,4.989z"/>
	</g>
	<g>
		<path fill="#070606" d="M15.909,2.08h-10c-0.552,0-1-0.448-1-1s0.448-1,1-1h10c0.552,0,1,0.448,1,1S16.461,2.08,15.909,2.08z"/>
	</g>
	<g>
		<path d="M10.909,15.08c-0.552,0-1-0.448-1-1v-5c0-0.552,0.448-1,1-1s1,0.448,1,1v5C11.909,14.632,11.461,15.08,10.909,15.08z"/>
	</g>
	<g>
		<path d="M18.909,7.762c-0.246,0-0.493-0.09-0.686-0.272c-0.402-0.379-0.42-1.012-0.042-1.414l1.585-1.682
			c0.379-0.402,1.012-0.42,1.414-0.042s0.42,1.012,0.042,1.414l-1.585,1.682C19.44,7.656,19.175,7.762,18.909,7.762z"/>
	</g>
</g>
</svg>
