<svg width="18" height="18" viewBox="0 0 18 18" fill="none" xmlns="http://www.w3.org/2000/svg">
<path d="M13.2135 4.476L14.3033 3.38625L15.3638 4.44675L14.274 5.5365C15.3509 6.88438 15.8707 8.59341 15.7269 10.3126C15.583 12.0318 14.7863 13.6306 13.5004 14.7808C12.2145 15.9309 10.5371 16.5451 8.81253 16.4971C7.088 16.4491 5.4473 15.7425 4.2274 14.5226C3.0075 13.3027 2.30099 11.662 2.25298 9.93751C2.20497 8.21298 2.81911 6.53551 3.96925 5.24963C5.1194 3.96375 6.71825 3.16706 8.43745 3.02319C10.1566 2.87931 11.8657 3.39917 13.2135 4.476V4.476ZM9.00004 15C9.68948 15 10.3722 14.8642 11.0091 14.6004C11.6461 14.3365 12.2248 13.9498 12.7124 13.4623C13.1999 12.9748 13.5866 12.396 13.8504 11.7591C14.1143 11.1221 14.25 10.4394 14.25 9.75C14.25 9.06056 14.1143 8.37787 13.8504 7.74091C13.5866 7.10395 13.1999 6.5252 12.7124 6.03769C12.2248 5.55018 11.6461 5.16347 11.0091 4.89963C10.3722 4.6358 9.68948 4.5 9.00004 4.5C7.60766 4.5 6.2723 5.05312 5.28773 6.03769C4.30317 7.02226 3.75004 8.35761 3.75004 9.75C3.75004 11.1424 4.30317 12.4777 5.28773 13.4623C6.2723 14.4469 7.60766 15 9.00004 15V15ZM8.25004 6H9.75004V10.5H8.25004V6ZM6.00004 0.75H12V2.25H6.00004V0.75Z" fill="#A4B8FF"/>
</svg>
