<?xml version="1.0" encoding="utf-8"?>
<!-- Generator: Adobe Illustrator 25.2.1, SVG Export Plug-In . SVG Version: 6.00 Build 0)  -->
<svg version="1.1" id="레이어_1" xmlns="http://www.w3.org/2000/svg" xmlns:xlink="http://www.w3.org/1999/xlink" x="0px"
	 y="0px" viewBox="0 0 21.704 22.849" enable-background="new 0 0 21.704 22.849" xml:space="preserve">
<g>
	<path fill="#060001" stroke="#040000" stroke-width="1.7" stroke-miterlimit="10" d="M20.853,5.289h-20V4.078
		c0-0.596,0.483-1.08,1.08-1.08h17.837c0.599,0,1.084,0.485,1.084,1.084V5.289z"/>
	<path d="M4.853,3.998L4.853,3.998c-0.552,0-1-0.448-1-1v-2c0-0.552,0.448-1,1-1h0c0.552,0,1,0.448,1,1v2
		C5.853,3.55,5.406,3.998,4.853,3.998z"/>
	<path d="M16.853,3.998L16.853,3.998c-0.552,0-1-0.448-1-1v-2c0-0.552,0.448-1,1-1h0c0.552,0,1,0.448,1,1v2
		C17.853,3.55,17.406,3.998,16.853,3.998z"/>
	<path fill="none" stroke="#040000" stroke-width="1.7" stroke-linecap="round" stroke-linejoin="round" stroke-miterlimit="10" d="
		M19.769,21.998H1.937c-0.599,0-1.084-0.485-1.084-1.084V9.082c0-0.599,0.485-1.084,1.084-1.084h17.832
		c0.599,0,1.084,0.485,1.084,1.084v11.832C20.853,21.513,20.368,21.998,19.769,21.998z"/>
	<path fill="#070002" d="M17.44,15.998h-1.174c-0.228,0-0.413-0.185-0.413-0.413v-1.174c0-0.228,0.185-0.413,0.413-0.413h1.174
		c0.228,0,0.413,0.185,0.413,0.413v1.174C17.853,15.813,17.668,15.998,17.44,15.998z"/>
	<path fill="#060001" d="M9.44,11.998H8.266c-0.228,0-0.413-0.185-0.413-0.413v-1.174c0-0.228,0.185-0.413,0.413-0.413H9.44
		c0.228,0,0.413,0.185,0.413,0.413v1.174C9.853,11.813,9.668,11.998,9.44,11.998z"/>
	<path fill="#060001" d="M13.44,11.998h-1.174c-0.228,0-0.413-0.185-0.413-0.413v-1.174c0-0.228,0.185-0.413,0.413-0.413h1.174
		c0.228,0,0.413,0.185,0.413,0.413v1.174C13.853,11.813,13.668,11.998,13.44,11.998z"/>
	<path fill="#070002" d="M13.44,15.998h-1.174c-0.228,0-0.413-0.185-0.413-0.413v-1.174c0-0.228,0.185-0.413,0.413-0.413h1.174
		c0.228,0,0.413,0.185,0.413,0.413v1.174C13.853,15.813,13.668,15.998,13.44,15.998z"/>
	<path fill="#060001" d="M9.44,15.998H8.266c-0.228,0-0.413-0.185-0.413-0.413v-1.174c0-0.228,0.185-0.413,0.413-0.413H9.44
		c0.228,0,0.413,0.185,0.413,0.413v1.174C9.853,15.813,9.668,15.998,9.44,15.998z"/>
	<path fill="#070002" d="M9.44,19.998H8.266c-0.228,0-0.413-0.185-0.413-0.413v-1.174c0-0.228,0.185-0.413,0.413-0.413H9.44
		c0.228,0,0.413,0.185,0.413,0.413v1.174C9.853,19.813,9.668,19.998,9.44,19.998z"/>
	<path fill="#070002" d="M5.44,19.998H4.266c-0.228,0-0.413-0.185-0.413-0.413v-1.174c0-0.228,0.185-0.413,0.413-0.413H5.44
		c0.228,0,0.413,0.185,0.413,0.413v1.174C5.853,19.813,5.668,19.998,5.44,19.998z"/>
	<path fill="#060001" d="M5.44,15.998H4.266c-0.228,0-0.413-0.185-0.413-0.413v-1.174c0-0.228,0.185-0.413,0.413-0.413H5.44
		c0.228,0,0.413,0.185,0.413,0.413v1.174C5.853,15.813,5.668,15.998,5.44,15.998z"/>
	<path fill="#070002" d="M13.44,19.998h-1.174c-0.228,0-0.413-0.185-0.413-0.413v-1.174c0-0.228,0.185-0.413,0.413-0.413h1.174
		c0.228,0,0.413,0.185,0.413,0.413v1.174C13.853,19.813,13.668,19.998,13.44,19.998z"/>
	<path fill="#060001" d="M17.44,11.998h-1.174c-0.228,0-0.413-0.185-0.413-0.413v-1.174c0-0.228,0.185-0.413,0.413-0.413h1.174
		c0.228,0,0.413,0.185,0.413,0.413v1.174C17.853,11.813,17.668,11.998,17.44,11.998z"/>
</g>
</svg>
