<?xml version="1.0" encoding="utf-8"?>
<!-- Generator: Adobe Illustrator 25.2.1, SVG Export Plug-In . SVG Version: 6.00 Build 0)  -->
<svg version="1.1" id="레이어_1" xmlns="http://www.w3.org/2000/svg" xmlns:xlink="http://www.w3.org/1999/xlink" x="0px"
	 y="0px" viewBox="0 0 28.057 31" enable-background="new 0 0 28.057 31" xml:space="preserve">
<g>
	<g>
		<path fill="#040000" d="M25.487,2c0.314,0,0.57,0.256,0.57,0.57v14.365c0,0.152-0.059,0.295-0.167,0.403L14.395,28.833
			C14.287,28.941,14.144,29,13.992,29H2.628c-0.315,0-0.571-0.256-0.571-0.571V2.57C2.057,2.256,2.312,2,2.627,2H25.487 M25.487,0
			H2.627c-1.419,0-2.57,1.151-2.57,2.57v25.859c0,1.42,1.151,2.571,2.571,2.571h11.364c0.682,0,1.335-0.271,1.817-0.753
			l11.495-11.494c0.482-0.482,0.753-1.136,0.753-1.817V2.57C28.057,1.151,26.906,0,25.487,0L25.487,0z"/>
	</g>
	<g>
		<rect x="5.057" y="8" fill="#040000" width="18" height="2"/>
	</g>
	<g>
		<rect x="5.057" y="13" fill="#040000" width="18" height="2"/>
	</g>
	<g>
		<rect x="5.057" y="18" fill="#040000" width="11" height="2"/>
	</g>
	<g>
		<path fill="#040000" d="M23.228,20l-6.172,6.172V20H23.228 M25.291,18h-9.089c-0.633,0-1.145,0.513-1.145,1.145v9.089
			c0,0.691,0.565,1.148,1.154,1.148c0.281,0,0.568-0.104,0.802-0.338l9.089-9.089C26.823,19.234,26.312,18,25.291,18L25.291,18z"/>
	</g>
</g>
</svg>
