<?xml version="1.0" encoding="utf-8"?>
<!-- Generator: Adobe Illustrator 25.2.1, SVG Export Plug-In . SVG Version: 6.00 Build 0)  -->
<svg version="1.1" id="레이어_1" xmlns="http://www.w3.org/2000/svg" xmlns:xlink="http://www.w3.org/1999/xlink" x="0px"
	 y="0px" viewBox="0 0 11.892 18.979" enable-background="new 0 0 11.892 18.979" xml:space="preserve">
<g>
	<g>
		<path fill="#070606" d="M5.992,18.979c-0.552,0-1-0.447-1-1v-7.072c0-0.552,0.448-1,1-1s1,0.448,1,1v7.072
			C6.992,18.532,6.544,18.979,5.992,18.979z"/>
	</g>
	<g>
		<path fill="#070606" d="M5.941,11.908c-3.281,0-5.95-2.669-5.95-5.95s2.669-5.95,5.95-5.95s5.95,2.669,5.95,5.95
			S9.222,11.908,5.941,11.908z M5.941,2.008c-2.178,0-3.95,1.772-3.95,3.95s1.772,3.95,3.95,3.95c2.178,0,3.95-1.772,3.95-3.95
			S8.119,2.008,5.941,2.008z"/>
	</g>
	<g>
		<path d="M8.992,15.907h-6c-0.552,0-1-0.447-1-1s0.448-1,1-1h6c0.553,0,1,0.447,1,1S9.545,15.907,8.992,15.907z"/>
	</g>
</g>
</svg>
