<?xml version="1.0" encoding="utf-8"?>
<!-- Generator: Adobe Illustrator 25.2.1, SVG Export Plug-In . SVG Version: 6.00 Build 0)  -->
<svg version="1.1" id="레이어_1" xmlns="http://www.w3.org/2000/svg" xmlns:xlink="http://www.w3.org/1999/xlink" x="0px"
	 y="0px" viewBox="0 0 16.798 22.683" enable-background="new 0 0 16.798 22.683" xml:space="preserve">
<g>
	<g>
		<path fill="#070606" d="M8.444,12.512c-2.288,0-4.149-1.861-4.149-4.149s1.861-4.149,4.149-4.149s4.149,1.861,4.149,4.149
			S10.732,12.512,8.444,12.512z M8.444,5.893c-1.362,0-2.47,1.108-2.47,2.47s1.108,2.47,2.47,2.47s2.47-1.108,2.47-2.47
			S9.806,5.893,8.444,5.893z"/>
	</g>
	<g>
		<g>
			<g>
				<path fill="#040000" d="M16.796,8.412h-1.68c0-3.694-3.014-6.7-6.719-6.7v-1.68C13.028,0.032,16.796,3.792,16.796,8.412z"/>
			</g>
		</g>
		<g>
			<g>
				<path fill="#040000" d="M1.679,8.412h-1.68c0-4.621,3.768-8.38,8.398-8.38v1.68C4.693,1.712,1.679,4.718,1.679,8.412z"/>
			</g>
		</g>
		<g>
			<path fill="#040000" d="M8.398,22.69c-3.378,0-8.398-9.361-8.398-14.278h1.68c0,4.789,4.908,12.598,6.719,12.598V22.69z"/>
		</g>
		<g>
			<path fill="#040000" d="M8.398,22.69v-1.68c1.811,0,6.719-7.81,6.719-12.598h1.68C16.796,13.329,11.776,22.69,8.398,22.69z"/>
		</g>
	</g>
</g>
</svg>
