<?xml version="1.0" encoding="utf-8"?>
<!-- Generator: Adobe Illustrator 25.2.1, SVG Export Plug-In . SVG Version: 6.00 Build 0)  -->
<svg version="1.1" id="레이어_1" xmlns="http://www.w3.org/2000/svg" xmlns:xlink="http://www.w3.org/1999/xlink" x="0px"
	 y="0px" viewBox="0 0 15.913 15.895" enable-background="new 0 0 15.913 15.895" xml:space="preserve">
<g>
	<g>
		<path fill="#070606" d="M9.905,6.993c-0.256,0-0.512-0.098-0.707-0.293c-0.391-0.391-0.391-1.023,0-1.414l5-5
			c0.391-0.391,1.023-0.391,1.414,0s0.391,1.023,0,1.414l-5,5C10.417,6.895,10.161,6.993,9.905,6.993z"/>
	</g>
	<g>
		<path fill="#070606" d="M14.905,6.993c-0.553,0-1-0.448-1-1v-4h-4c-0.553,0-1-0.448-1-1s0.447-1,1-1h4.855
			c0.631,0,1.145,0.513,1.145,1.144v4.856C15.905,6.545,15.458,6.993,14.905,6.993z M14.761,1.993h0.01H14.761z"/>
	</g>
	<g>
		<path fill="#070606" d="M5.955,15.893c-3.281,0-5.95-2.669-5.95-5.95c0-3.281,2.669-5.95,5.95-5.95c3.281,0,5.95,2.669,5.95,5.95
			C11.905,13.224,9.236,15.893,5.955,15.893z M5.955,5.993c-2.178,0-3.95,1.772-3.95,3.95s1.772,3.95,3.95,3.95
			s3.95-1.772,3.95-3.95S8.133,5.993,5.955,5.993z"/>
	</g>
</g>
</svg>
