<?xml version="1.0" encoding="utf-8"?>
<!-- Generator: Adobe Illustrator 25.2.1, SVG Export Plug-In . SVG Version: 6.00 Build 0)  -->
<svg version="1.1" id="레이어_1" xmlns="http://www.w3.org/2000/svg" xmlns:xlink="http://www.w3.org/1999/xlink" x="0px"
	 y="0px" viewBox="0 0 3.71 15.684" enable-background="new 0 0 3.71 15.684" xml:space="preserve">
<g>
	<circle fill="#040000" cx="1.86" cy="1.834" r="1"/>
	<path fill="#070606" d="M1.859,3.684c-1.02,0-1.85-0.83-1.85-1.85s0.83-1.85,1.85-1.85s1.85,0.83,1.85,1.85S2.88,3.684,1.859,3.684
		z M1.859,1.684c-0.083,0-0.15,0.067-0.15,0.15c0,0.165,0.3,0.165,0.3,0C2.009,1.752,1.942,1.684,1.859,1.684z"/>
</g>
<g>
	<circle fill="#080505" cx="1.86" cy="7.834" r="1"/>
	<path fill="#070606" d="M1.859,9.684c-1.02,0-1.85-0.83-1.85-1.85s0.83-1.85,1.85-1.85s1.85,0.83,1.85,1.85S2.88,9.684,1.859,9.684
		z M1.859,7.684c-0.083,0-0.15,0.067-0.15,0.15c0,0.165,0.3,0.165,0.3,0C2.009,7.752,1.942,7.684,1.859,7.684z"/>
</g>
<g>
	<circle fill="#070606" cx="1.86" cy="13.834" r="1"/>
	<path d="M1.859,15.684c-1.02,0-1.85-0.83-1.85-1.85s0.83-1.85,1.85-1.85s1.85,0.83,1.85,1.85S2.88,15.684,1.859,15.684z
		 M1.859,13.684c-0.083,0-0.15,0.067-0.15,0.15c0,0.165,0.3,0.165,0.3,0C2.009,13.752,1.942,13.684,1.859,13.684z"/>
</g>
</svg>
