<?xml version="1.0" encoding="utf-8"?>
<!-- Generator: Adobe Illustrator 25.2.1, SVG Export Plug-In . SVG Version: 6.00 Build 0)  -->
<svg version="1.1" id="레이어_1" xmlns="http://www.w3.org/2000/svg" xmlns:xlink="http://www.w3.org/1999/xlink" x="0px"
	 y="0px" viewBox="0 0 26.182 29.091" enable-background="new 0 0 26.182 29.091" xml:space="preserve">
<g>
	<g>
		<path fill="#070606" d="M13.091,29.091C5.873,29.091,0,23.218,0,16S5.873,2.909,13.091,2.909S26.182,8.782,26.182,16
			S20.309,29.091,13.091,29.091z M13.091,5.091C7.076,5.091,2.182,9.985,2.182,16s4.894,10.909,10.909,10.909S24,22.015,24,16
			S19.106,5.091,13.091,5.091z"/>
	</g>
	<g>
		<path fill="#070606" d="M18.091,2h-10c-0.552,0-1-0.448-1-1s0.448-1,1-1h10c0.552,0,1,0.448,1,1S18.643,2,18.091,2z"/>
	</g>
	<g>
		<path d="M13.091,17.001c-0.552,0-1-0.448-1-1V9c0-0.552,0.448-1,1-1s1,0.448,1,1v7.001C14.091,16.553,13.643,17.001,13.091,17.001
			z"/>
	</g>
	<g>
		<path d="M22.091,8c-0.246,0-0.493-0.09-0.686-0.272c-0.402-0.379-0.42-1.012-0.042-1.414l1.585-1.681
			c0.379-0.402,1.011-0.42,1.414-0.042c0.402,0.379,0.42,1.012,0.042,1.414l-1.585,1.681C22.622,7.895,22.356,8,22.091,8z"/>
	</g>
</g>
</svg>
