<svg width="375" height="812" viewBox="0 0 375 812" fill="none" xmlns="http://www.w3.org/2000/svg">
<g clip-path="url(#clip0_104_11)">
<rect width="375" height="812" fill="white"/>
<path d="M66.874 466.04H71.842V467.858H59.638V466.04H64.588V464.474H66.874V466.04ZM65.74 473.618C64.96 473.618 64.252 473.57 63.616 473.474C62.992 473.366 62.458 473.216 62.014 473.024C61.582 472.832 61.246 472.592 61.006 472.304C60.766 472.016 60.646 471.68 60.646 471.296V470.72C60.646 470.348 60.766 470.018 61.006 469.73C61.246 469.43 61.582 469.184 62.014 468.992C62.458 468.8 62.992 468.656 63.616 468.56C64.252 468.452 64.96 468.398 65.74 468.398C66.52 468.398 67.222 468.452 67.846 468.56C68.482 468.656 69.016 468.8 69.448 468.992C69.892 469.184 70.234 469.43 70.474 469.73C70.714 470.018 70.834 470.348 70.834 470.72V471.296C70.834 471.68 70.714 472.016 70.474 472.304C70.234 472.592 69.892 472.832 69.448 473.024C69.016 473.216 68.482 473.366 67.846 473.474C67.222 473.57 66.52 473.618 65.74 473.618ZM65.74 470.126C64.78 470.126 64.066 470.204 63.598 470.36C63.13 470.516 62.896 470.708 62.896 470.936V471.08C62.896 471.308 63.13 471.5 63.598 471.656C64.066 471.812 64.78 471.89 65.74 471.89C66.7 471.89 67.414 471.812 67.882 471.656C68.35 471.5 68.584 471.308 68.584 471.08V470.936C68.584 470.708 68.35 470.516 67.882 470.36C67.414 470.204 66.7 470.126 65.74 470.126ZM73.408 474.266V476.102H67.126V478.172H64.858V476.102H58.072V474.266H73.408ZM62.5 479.594H71.59V481.448H60.232V477.11H62.5V479.594ZM77.5363 476.228V474.446H73.5583V472.574H88.8943V474.446H84.9163V476.228H86.8243V481.79H84.5563V478.1H75.5563V476.228H77.5363ZM81.2263 471.782C80.4223 471.782 79.6843 471.716 79.0123 471.584C78.3403 471.44 77.7583 471.236 77.2663 470.972C76.7863 470.696 76.4083 470.36 76.1323 469.964C75.8683 469.568 75.7363 469.112 75.7363 468.596V468.2C75.7363 467.684 75.8683 467.228 76.1323 466.832C76.4083 466.436 76.7863 466.106 77.2663 465.842C77.7583 465.566 78.3403 465.362 79.0123 465.23C79.6843 465.086 80.4223 465.014 81.2263 465.014C82.0303 465.014 82.7683 465.086 83.4403 465.23C84.1123 465.362 84.6883 465.566 85.1683 465.842C85.6603 466.106 86.0383 466.436 86.3023 466.832C86.5783 467.228 86.7163 467.684 86.7163 468.2V468.596C86.7163 469.112 86.5783 469.568 86.3023 469.964C86.0383 470.36 85.6603 470.696 85.1683 470.972C84.6883 471.236 84.1123 471.44 83.4403 471.584C82.7683 471.716 82.0303 471.782 81.2263 471.782ZM81.2263 466.85C80.2063 466.85 79.4083 466.976 78.8323 467.228C78.2683 467.48 77.9863 467.816 77.9863 468.236V468.56C77.9863 468.98 78.2683 469.316 78.8323 469.568C79.4083 469.82 80.2063 469.946 81.2263 469.946C82.2463 469.946 83.0383 469.82 83.6023 469.568C84.1783 469.316 84.4663 468.98 84.4663 468.56V468.236C84.4663 467.816 84.1783 467.48 83.6023 467.228C83.0383 466.976 82.2463 466.85 81.2263 466.85ZM79.7683 476.228H82.6843V474.446H79.7683V476.228ZM106.829 468.56H109.025V470.54H106.829V474.86H104.561V464.852H106.829V468.56ZM101.753 482.096C100.985 482.096 100.283 482.018 99.6467 481.862C99.0227 481.706 98.4827 481.484 98.0267 481.196C97.5827 480.92 97.2347 480.584 96.9827 480.188C96.7427 479.792 96.6227 479.354 96.6227 478.874V478.154C96.6227 477.674 96.7427 477.236 96.9827 476.84C97.2347 476.444 97.5827 476.108 98.0267 475.832C98.4827 475.544 99.0227 475.322 99.6467 475.166C100.283 475.01 100.985 474.932 101.753 474.932C102.521 474.932 103.217 475.01 103.841 475.166C104.477 475.322 105.017 475.544 105.461 475.832C105.917 476.108 106.265 476.444 106.505 476.84C106.757 477.236 106.883 477.674 106.883 478.154V478.874C106.883 479.354 106.757 479.792 106.505 480.188C106.265 480.584 105.917 480.92 105.461 481.196C105.017 481.484 104.477 481.706 103.841 481.862C103.217 482.018 102.521 482.096 101.753 482.096ZM101.753 476.786C101.297 476.786 100.889 476.834 100.529 476.93C100.169 477.014 99.8627 477.128 99.6107 477.272C99.3707 477.416 99.1847 477.578 99.0527 477.758C98.9207 477.938 98.8547 478.118 98.8547 478.298V478.73C98.8547 478.91 98.9207 479.09 99.0527 479.27C99.1847 479.45 99.3707 479.612 99.6107 479.756C99.8627 479.9 100.169 480.014 100.529 480.098C100.889 480.194 101.297 480.242 101.753 480.242C102.209 480.242 102.617 480.194 102.977 480.098C103.337 480.014 103.637 479.9 103.877 479.756C104.129 479.612 104.321 479.45 104.453 479.27C104.585 479.09 104.651 478.91 104.651 478.73V478.298C104.651 478.118 104.585 477.938 104.453 477.758C104.321 477.578 104.129 477.416 103.877 477.272C103.637 477.128 103.337 477.014 102.977 476.93C102.617 476.834 102.209 476.786 101.753 476.786ZM102.113 473.78H94.1927V465.626H96.4247V468.02H99.8807V465.626H102.113V473.78ZM96.4247 471.89H99.8807V469.91H96.4247V471.89ZM117.761 468.47H120.659V464.852H122.927V473.618H120.659V470.342H117.761V473.168H109.751V465.572H111.983V467.714H115.529V465.572H117.761V468.47ZM122.927 474.374V481.61H112.271V474.374H114.521V476.192H120.677V474.374H122.927ZM120.677 479.738V478.064H114.521V479.738H120.677ZM111.983 471.296H115.529V469.586H111.983V471.296Z" fill="black"/>
<path d="M26.562 520.3C26.562 519.964 26.6507 519.647 26.828 519.348C27.0053 519.049 27.262 518.788 27.598 518.564C27.934 518.34 28.34 518.163 28.816 518.032C29.3013 517.901 29.8473 517.836 30.454 517.836C31.0607 517.836 31.602 517.901 32.078 518.032C32.5633 518.163 32.974 518.34 33.31 518.564C33.646 518.788 33.9027 519.049 34.08 519.348C34.2573 519.647 34.346 519.964 34.346 520.3V520.86C34.346 521.196 34.2573 521.513 34.08 521.812C33.9027 522.111 33.646 522.372 33.31 522.596C32.974 522.82 32.5633 522.997 32.078 523.128C31.602 523.259 31.0607 523.324 30.454 523.324C29.8473 523.324 29.3013 523.259 28.816 523.128C28.34 522.997 27.934 522.82 27.598 522.596C27.262 522.372 27.0053 522.111 26.828 521.812C26.6507 521.513 26.562 521.196 26.562 520.86V520.3ZM28.998 512.026H24.882V510.85H30.356V512.88C30.356 513.421 30.2767 513.888 30.118 514.28C29.9593 514.672 29.6747 515.045 29.264 515.4C28.8533 515.745 28.2933 516.1 27.584 516.464C26.8747 516.819 25.9693 517.229 24.868 517.696L24.35 516.576C25.3393 516.165 26.1373 515.806 26.744 515.498C27.3507 515.181 27.822 514.882 28.158 514.602C28.494 514.322 28.718 514.042 28.83 513.762C28.942 513.473 28.998 513.146 28.998 512.782V512.026ZM32.988 520.384C32.988 520.216 32.9273 520.048 32.806 519.88C32.694 519.703 32.526 519.549 32.302 519.418C32.0873 519.287 31.8213 519.18 31.504 519.096C31.196 519.012 30.846 518.97 30.454 518.97C30.062 518.97 29.7073 519.012 29.39 519.096C29.082 519.18 28.816 519.287 28.592 519.418C28.3773 519.549 28.2093 519.703 28.088 519.88C27.976 520.048 27.92 520.216 27.92 520.384V520.776C27.92 520.944 27.976 521.112 28.088 521.28C28.2093 521.457 28.3773 521.611 28.592 521.742C28.816 521.873 29.082 521.98 29.39 522.064C29.7073 522.148 30.062 522.19 30.454 522.19C30.846 522.19 31.196 522.148 31.504 522.064C31.8213 521.98 32.0873 521.873 32.302 521.742C32.526 521.611 32.694 521.457 32.806 521.28C32.9273 521.112 32.988 520.944 32.988 520.776V520.384ZM36.124 514.196H34.29V517.668H32.918V510.052H34.29V512.992H36.124V514.196ZM39.7829 510.934C40.2589 510.934 40.6929 511.013 41.0849 511.172C41.4863 511.331 41.8269 511.569 42.1069 511.886C42.3963 512.194 42.6203 512.581 42.7789 513.048C42.9469 513.515 43.0309 514.056 43.0309 514.672V516.128C43.0309 516.744 42.9469 517.285 42.7789 517.752C42.6203 518.219 42.3963 518.606 42.1069 518.914C41.8269 519.222 41.4863 519.455 41.0849 519.614C40.6929 519.773 40.2589 519.852 39.7829 519.852C39.3069 519.852 38.8683 519.773 38.4669 519.614C38.0749 519.455 37.7343 519.222 37.4449 518.914C37.1649 518.606 36.9409 518.219 36.7729 517.752C36.6143 517.285 36.5349 516.744 36.5349 516.128V514.672C36.5349 514.056 36.6143 513.515 36.7729 513.048C36.9409 512.581 37.1649 512.194 37.4449 511.886C37.7343 511.569 38.0749 511.331 38.4669 511.172C38.8683 511.013 39.3069 510.934 39.7829 510.934ZM39.7829 518.606C40.0349 518.606 40.2776 518.559 40.5109 518.466C40.7443 518.373 40.9449 518.223 41.1129 518.018C41.2903 517.803 41.4303 517.528 41.5329 517.192C41.6449 516.847 41.7009 516.427 41.7009 515.932V514.868C41.7009 514.373 41.6449 513.958 41.5329 513.622C41.4303 513.277 41.2903 513.001 41.1129 512.796C40.9449 512.581 40.7443 512.427 40.5109 512.334C40.2776 512.241 40.0349 512.194 39.7829 512.194C39.5309 512.194 39.2883 512.241 39.0549 512.334C38.8216 512.427 38.6163 512.581 38.4389 512.796C38.2709 513.001 38.1309 513.277 38.0189 513.622C37.9163 513.958 37.8649 514.373 37.8649 514.868V515.932C37.8649 516.427 37.9163 516.847 38.0189 517.192C38.1309 517.528 38.2709 517.803 38.4389 518.018C38.6163 518.223 38.8216 518.373 39.0549 518.466C39.2883 518.559 39.5309 518.606 39.7829 518.606ZM48.2389 515.918H46.2509V522.96H44.8649V510.052H46.2509V514.714H48.2389V515.918ZM52.4858 516.604C52.4205 516.763 52.3225 516.926 52.1918 517.094C52.0612 517.262 51.8838 517.467 51.6598 517.71C51.3705 518.027 51.0485 518.368 50.6938 518.732C50.3392 519.087 49.9238 519.483 49.4478 519.922L48.5378 518.984C48.9578 518.601 49.3405 518.237 49.6858 517.892C50.0405 517.547 50.3765 517.197 50.6938 516.842C50.9272 516.59 51.1138 516.361 51.2538 516.156C51.3938 515.951 51.5012 515.75 51.5758 515.554C51.6505 515.358 51.7018 515.157 51.7298 514.952C51.7578 514.747 51.7718 514.513 51.7718 514.252V512.418H48.9998V511.214H55.8738V512.418H53.1718V514.252C53.1718 514.532 53.1858 514.775 53.2138 514.98C53.2418 515.185 53.2932 515.381 53.3678 515.568C53.4518 515.755 53.5685 515.951 53.7178 516.156C53.8672 516.352 54.0678 516.585 54.3198 516.856C54.6185 517.183 54.9218 517.495 55.2298 517.794C55.5472 518.093 55.9158 518.424 56.3358 518.788L55.4258 519.726C54.9498 519.287 54.5532 518.914 54.2358 518.606C53.9185 518.289 53.6245 517.985 53.3538 517.696C53.1578 517.481 52.9805 517.281 52.8218 517.094C52.6632 516.907 52.5558 516.744 52.4998 516.604H52.4858ZM57.6238 522.96V510.052H59.0098V522.96H57.6238ZM63.3828 511.018C64.3161 511.018 65.0208 511.326 65.4968 511.942C65.9821 512.558 66.2248 513.487 66.2248 514.728V514.77H67.5548V510.318H68.9128V522.33H67.5548V515.974H66.2248V516.1C66.2248 517.341 65.9821 518.27 65.4968 518.886C65.0208 519.502 64.3161 519.81 63.3828 519.81C62.4494 519.81 61.7401 519.502 61.2548 518.886C60.7788 518.27 60.5408 517.341 60.5408 516.1V514.728C60.5408 513.487 60.7788 512.558 61.2548 511.942C61.7401 511.326 62.4494 511.018 63.3828 511.018ZM71.4748 522.96H70.1168V510.052H71.4748V522.96ZM63.3828 518.592C63.9054 518.592 64.2881 518.391 64.5308 517.99C64.7828 517.579 64.9088 516.898 64.9088 515.946V514.882C64.9088 513.939 64.7828 513.267 64.5308 512.866C64.2788 512.455 63.8961 512.25 63.3828 512.25C62.8601 512.25 62.4728 512.455 62.2208 512.866C61.9781 513.267 61.8568 513.939 61.8568 514.882V515.946C61.8568 516.898 61.9781 517.579 62.2208 517.99C62.4728 518.391 62.8601 518.592 63.3828 518.592ZM76.3237 512.502H72.7397V511.312H77.6817V513.944C77.6817 514.103 77.677 514.252 77.6677 514.392C77.6677 514.532 77.663 514.667 77.6537 514.798H79.4457V510.318H80.8037V522.33H79.4457V516.002H77.4297C77.3177 516.329 77.159 516.646 76.9537 516.954C76.7577 517.253 76.4917 517.565 76.1557 517.892C75.8197 518.219 75.4044 518.573 74.9097 518.956C74.4244 519.329 73.8364 519.745 73.1457 520.202L72.3757 519.124C73.029 518.704 73.5797 518.321 74.0277 517.976C74.485 517.631 74.8584 517.313 75.1477 517.024C75.4464 516.725 75.675 516.445 75.8337 516.184C75.9924 515.913 76.1044 515.652 76.1697 515.4C76.2444 515.139 76.2864 514.873 76.2957 514.602C76.3144 514.322 76.3237 514.023 76.3237 513.706V512.502ZM83.4917 522.96H82.1337V510.052H83.4917V522.96ZM99.9046 515.918H97.9166V522.96H96.5306V510.052H97.9166V514.714H99.9046V515.918ZM91.6446 516.478C91.5793 516.637 91.4813 516.795 91.3506 516.954C91.2293 517.113 91.0566 517.313 90.8326 517.556C90.5433 517.873 90.2119 518.219 89.8386 518.592C89.4653 518.956 89.0406 519.357 88.5646 519.796L87.6546 518.858C88.5039 518.102 89.2413 517.379 89.8666 516.688C90.0813 516.445 90.2586 516.221 90.3986 516.016C90.5386 515.811 90.6459 515.61 90.7206 515.414C90.8046 515.209 90.8606 515.003 90.8886 514.798C90.9259 514.583 90.9446 514.35 90.9446 514.098V510.99H92.3446V514.098C92.3446 514.378 92.3633 514.63 92.4006 514.854C92.4379 515.069 92.4986 515.279 92.5826 515.484C92.6666 515.68 92.7786 515.881 92.9186 516.086C93.0679 516.282 93.2499 516.497 93.4646 516.73C93.7633 517.057 94.0759 517.379 94.4026 517.696C94.7293 518.004 95.1026 518.345 95.5226 518.718L94.6266 519.67C94.1413 519.222 93.7306 518.835 93.3946 518.508C93.0679 518.172 92.7693 517.859 92.4986 517.57C92.3026 517.355 92.1253 517.155 91.9666 516.968C91.8173 516.781 91.7146 516.618 91.6586 516.478H91.6446ZM110.06 518.34V522.946H102.192V518.34H110.06ZM100.47 517.01V513.244H104.838V511.816H100.47V510.64H106.21V514.392H101.842V515.834H103.018C103.4 515.834 103.774 515.834 104.138 515.834C104.502 515.825 104.866 515.811 105.23 515.792C105.594 515.773 105.967 515.75 106.35 515.722C106.732 515.685 107.143 515.638 107.582 515.582L107.708 516.73C107.316 516.777 106.938 516.819 106.574 516.856C106.21 516.893 105.836 516.926 105.454 516.954C105.08 516.973 104.684 516.987 104.264 516.996C103.853 517.005 103.391 517.01 102.878 517.01H100.47ZM108.688 517.71V510.052H110.06V513.202H111.894V514.406H110.06V517.71H108.688ZM103.564 521.77H108.688V519.516H103.564V521.77ZM116.28 517.136C115.748 517.136 115.272 517.057 114.852 516.898C114.432 516.739 114.073 516.529 113.774 516.268C113.476 516.007 113.247 515.708 113.088 515.372C112.93 515.036 112.85 514.686 112.85 514.322V513.678C112.85 513.314 112.93 512.964 113.088 512.628C113.247 512.292 113.476 511.993 113.774 511.732C114.073 511.471 114.432 511.261 114.852 511.102C115.272 510.943 115.748 510.864 116.28 510.864C116.812 510.864 117.288 510.943 117.708 511.102C118.128 511.261 118.488 511.471 118.786 511.732C119.085 511.993 119.314 512.292 119.472 512.628C119.631 512.964 119.71 513.314 119.71 513.678V514.322C119.71 514.686 119.631 515.036 119.472 515.372C119.314 515.708 119.085 516.007 118.786 516.268C118.488 516.529 118.128 516.739 117.708 516.898C117.288 517.057 116.812 517.136 116.28 517.136ZM116.28 515.932C116.57 515.932 116.84 515.885 117.092 515.792C117.354 515.699 117.578 515.577 117.764 515.428C117.96 515.269 118.11 515.087 118.212 514.882C118.324 514.677 118.38 514.462 118.38 514.238V513.762C118.38 513.529 118.324 513.309 118.212 513.104C118.11 512.889 117.96 512.707 117.764 512.558C117.578 512.409 117.354 512.292 117.092 512.208C116.84 512.115 116.57 512.068 116.28 512.068C115.982 512.068 115.706 512.115 115.454 512.208C115.202 512.292 114.978 512.409 114.782 512.558C114.596 512.707 114.446 512.889 114.334 513.104C114.232 513.309 114.18 513.529 114.18 513.762V514.238C114.18 514.462 114.232 514.677 114.334 514.882C114.446 515.087 114.596 515.269 114.782 515.428C114.978 515.577 115.202 515.699 115.454 515.792C115.706 515.885 115.982 515.932 116.28 515.932ZM120.718 519.936C120.13 519.992 119.528 520.043 118.912 520.09C118.296 520.127 117.643 520.16 116.952 520.188C116.271 520.216 115.538 520.239 114.754 520.258C113.98 520.267 113.135 520.272 112.22 520.272V519.068C113.144 519.068 113.989 519.063 114.754 519.054C115.529 519.045 116.252 519.031 116.924 519.012C117.596 518.984 118.231 518.951 118.828 518.914C119.426 518.877 120.014 518.83 120.592 518.774L120.718 519.936ZM121.39 522.96V510.052H122.762V522.96H121.39ZM128.003 519.04C128.75 518.601 129.38 518.214 129.893 517.878C130.416 517.533 130.85 517.22 131.195 516.94C131.541 516.651 131.811 516.385 132.007 516.142C132.203 515.89 132.348 515.643 132.441 515.4C132.544 515.148 132.605 514.887 132.623 514.616C132.651 514.345 132.665 514.042 132.665 513.706V512.432H128.255V511.242H134.037V513.72C134.037 514.14 134.023 514.523 133.995 514.868C133.977 515.204 133.911 515.526 133.799 515.834C133.687 516.133 133.519 516.431 133.295 516.73C133.081 517.019 132.773 517.332 132.371 517.668C131.979 518.004 131.485 518.373 130.887 518.774C130.299 519.175 129.581 519.633 128.731 520.146L128.003 519.04ZM136.767 522.96V510.052H138.153V522.96H136.767ZM145.41 513.692C145.373 513.767 145.294 513.851 145.172 513.944C145.051 514.028 144.906 514.117 144.738 514.21C144.57 514.303 144.398 514.392 144.22 514.476C144.043 514.56 143.88 514.635 143.73 514.7C143.254 514.896 142.802 515.073 142.372 515.232C141.943 515.391 141.49 515.549 141.014 515.708L140.496 514.588C141.075 514.401 141.57 514.233 141.98 514.084C142.391 513.935 142.788 513.781 143.17 513.622C143.637 513.426 144.01 513.207 144.29 512.964C144.58 512.721 144.724 512.451 144.724 512.152V511.746H141.042V510.598H149.806V511.746H146.11V512.152C146.11 512.451 146.25 512.717 146.53 512.95C146.81 513.174 147.188 513.393 147.664 513.608C148.038 513.776 148.434 513.935 148.854 514.084C149.274 514.233 149.769 514.401 150.338 514.588L149.834 515.708C149.349 515.549 148.892 515.391 148.462 515.232C148.033 515.064 147.594 514.887 147.146 514.7C146.997 514.635 146.829 514.56 146.642 514.476C146.456 514.392 146.278 514.303 146.11 514.21C145.942 514.117 145.793 514.028 145.662 513.944C145.541 513.851 145.462 513.767 145.424 513.692H145.41ZM144.892 520.118V517.598H139.502V516.422H151.346V517.598H146.292V520.118H144.892ZM142.596 521.616H149.89V522.82H141.21V518.956H142.596V521.616ZM153.241 523.044V519.81H160.325V518.858H153.171V517.724H161.683V520.916H154.599V521.91H162.061V523.044H153.241ZM163.391 515.68V516.828H151.547V515.68H163.391ZM157.469 510.122C158.113 510.122 158.687 510.178 159.191 510.29C159.705 510.393 160.139 510.542 160.493 510.738C160.848 510.934 161.119 511.172 161.305 511.452C161.501 511.723 161.599 512.021 161.599 512.348V512.684C161.599 513.011 161.501 513.314 161.305 513.594C161.119 513.865 160.848 514.098 160.493 514.294C160.139 514.49 159.705 514.644 159.191 514.756C158.687 514.859 158.113 514.91 157.469 514.91C156.825 514.91 156.247 514.859 155.733 514.756C155.229 514.644 154.8 514.49 154.445 514.294C154.091 514.098 153.815 513.865 153.619 513.594C153.433 513.314 153.339 513.011 153.339 512.684V512.348C153.339 512.021 153.433 511.723 153.619 511.452C153.815 511.172 154.091 510.934 154.445 510.738C154.8 510.542 155.229 510.393 155.733 510.29C156.247 510.178 156.825 510.122 157.469 510.122ZM157.469 513.762C158.356 513.762 159.037 513.655 159.513 513.44C159.999 513.216 160.241 512.955 160.241 512.656V512.376C160.241 512.077 159.999 511.821 159.513 511.606C159.037 511.382 158.356 511.27 157.469 511.27C156.583 511.27 155.897 511.382 155.411 511.606C154.935 511.821 154.697 512.077 154.697 512.376V512.656C154.697 512.955 154.935 513.216 155.411 513.44C155.897 513.655 156.583 513.762 157.469 513.762ZM169.556 520.3C169.556 519.964 169.645 519.647 169.822 519.348C169.999 519.049 170.256 518.788 170.592 518.564C170.928 518.34 171.334 518.163 171.81 518.032C172.295 517.901 172.841 517.836 173.448 517.836C174.055 517.836 174.596 517.901 175.072 518.032C175.557 518.163 175.968 518.34 176.304 518.564C176.64 518.788 176.897 519.049 177.074 519.348C177.251 519.647 177.34 519.964 177.34 520.3V520.86C177.34 521.196 177.251 521.513 177.074 521.812C176.897 522.111 176.64 522.372 176.304 522.596C175.968 522.82 175.557 522.997 175.072 523.128C174.596 523.259 174.055 523.324 173.448 523.324C172.841 523.324 172.295 523.259 171.81 523.128C171.334 522.997 170.928 522.82 170.592 522.596C170.256 522.372 169.999 522.111 169.822 521.812C169.645 521.513 169.556 521.196 169.556 520.86V520.3ZM171.992 512.026H167.876V510.85H173.35V512.88C173.35 513.421 173.271 513.888 173.112 514.28C172.953 514.672 172.669 515.045 172.258 515.4C171.847 515.745 171.287 516.1 170.578 516.464C169.869 516.819 168.963 517.229 167.862 517.696L167.344 516.576C168.333 516.165 169.131 515.806 169.738 515.498C170.345 515.181 170.816 514.882 171.152 514.602C171.488 514.322 171.712 514.042 171.824 513.762C171.936 513.473 171.992 513.146 171.992 512.782V512.026ZM175.982 520.384C175.982 520.216 175.921 520.048 175.8 519.88C175.688 519.703 175.52 519.549 175.296 519.418C175.081 519.287 174.815 519.18 174.498 519.096C174.19 519.012 173.84 518.97 173.448 518.97C173.056 518.97 172.701 519.012 172.384 519.096C172.076 519.18 171.81 519.287 171.586 519.418C171.371 519.549 171.203 519.703 171.082 519.88C170.97 520.048 170.914 520.216 170.914 520.384V520.776C170.914 520.944 170.97 521.112 171.082 521.28C171.203 521.457 171.371 521.611 171.586 521.742C171.81 521.873 172.076 521.98 172.384 522.064C172.701 522.148 173.056 522.19 173.448 522.19C173.84 522.19 174.19 522.148 174.498 522.064C174.815 521.98 175.081 521.873 175.296 521.742C175.52 521.611 175.688 521.457 175.8 521.28C175.921 521.112 175.982 520.944 175.982 520.776V520.384ZM179.118 514.196H177.284V517.668H175.912V510.052H177.284V512.992H179.118V514.196ZM190.981 520.062V521.238H179.137V520.062H182.091V516.94C181.671 516.669 181.335 516.338 181.083 515.946C180.84 515.545 180.719 515.087 180.719 514.574V513.902C180.719 513.417 180.831 512.983 181.055 512.6C181.288 512.208 181.601 511.877 181.993 511.606C182.394 511.326 182.856 511.116 183.379 510.976C183.911 510.827 184.471 510.752 185.059 510.752C185.647 510.752 186.202 510.827 186.725 510.976C187.257 511.116 187.719 511.326 188.111 511.606C188.512 511.877 188.825 512.208 189.049 512.6C189.282 512.983 189.399 513.417 189.399 513.902V514.574C189.399 515.087 189.273 515.545 189.021 515.946C188.778 516.338 188.447 516.669 188.027 516.94V520.062H190.981ZM185.059 511.956C184.658 511.956 184.275 512.003 183.911 512.096C183.556 512.189 183.239 512.325 182.959 512.502C182.688 512.67 182.474 512.88 182.315 513.132C182.156 513.384 182.077 513.664 182.077 513.972V514.504C182.077 514.812 182.156 515.092 182.315 515.344C182.474 515.596 182.688 515.811 182.959 515.988C183.239 516.156 183.556 516.287 183.911 516.38C184.275 516.473 184.658 516.52 185.059 516.52C185.46 516.52 185.838 516.473 186.193 516.38C186.557 516.287 186.874 516.156 187.145 515.988C187.425 515.811 187.644 515.596 187.803 515.344C187.962 515.092 188.041 514.812 188.041 514.504V513.972C188.041 513.664 187.962 513.384 187.803 513.132C187.644 512.88 187.425 512.67 187.145 512.502C186.874 512.325 186.557 512.189 186.193 512.096C185.838 512.003 185.46 511.956 185.059 511.956ZM185.059 517.71C184.499 517.71 183.967 517.645 183.463 517.514V520.062H186.655V517.514C186.132 517.645 185.6 517.71 185.059 517.71ZM195.004 520.076C194.509 520.076 194.071 520.001 193.688 519.852C193.305 519.693 192.979 519.488 192.708 519.236C192.437 518.984 192.232 518.695 192.092 518.368C191.952 518.041 191.882 517.71 191.882 517.374V516.562C191.882 516.226 191.952 515.895 192.092 515.568C192.232 515.241 192.437 514.952 192.708 514.7C192.979 514.439 193.305 514.233 193.688 514.084C194.071 513.925 194.509 513.846 195.004 513.846C195.489 513.846 195.923 513.925 196.306 514.084C196.698 514.233 197.029 514.439 197.3 514.7C197.571 514.952 197.776 515.241 197.916 515.568C198.056 515.895 198.126 516.226 198.126 516.562V517.374C198.126 517.71 198.056 518.041 197.916 518.368C197.776 518.695 197.571 518.984 197.3 519.236C197.029 519.488 196.698 519.693 196.306 519.852C195.923 520.001 195.489 520.076 195.004 520.076ZM203.278 516.38H201.29V522.96H199.904V510.052H201.29V515.176H203.278V516.38ZM195.004 515.008C194.444 515.008 194.001 515.167 193.674 515.484C193.347 515.792 193.184 516.203 193.184 516.716V517.22C193.184 517.733 193.347 518.144 193.674 518.452C194.001 518.76 194.444 518.914 195.004 518.914C195.564 518.914 196.007 518.76 196.334 518.452C196.661 518.144 196.824 517.733 196.824 517.22V516.716C196.824 516.203 196.661 515.792 196.334 515.484C196.007 515.167 195.564 515.008 195.004 515.008ZM194.318 511.956V510.136H195.704V511.956H198.7V513.132H191.238V511.956H194.318ZM215.071 516.576V517.752H203.227V516.576H215.071ZM206.321 521.616H213.615V522.82H204.935V518.928H206.321V521.616ZM206.391 510.556V513.916H213.377V515.092H205.019V510.556H206.391ZM228.18 518.34V514.532H224.988C224.857 514.831 224.666 515.115 224.414 515.386C224.162 515.647 223.83 515.913 223.42 516.184C223.009 516.455 222.5 516.739 221.894 517.038C221.296 517.327 220.582 517.649 219.752 518.004L219.206 516.884C220.186 516.455 220.979 516.081 221.586 515.764C222.202 515.447 222.678 515.148 223.014 514.868C223.35 514.579 223.578 514.294 223.7 514.014C223.821 513.725 223.882 513.398 223.882 513.034V512.04H219.738V510.864H225.24V513.104C225.24 513.151 225.235 513.193 225.226 513.23C225.226 513.267 225.226 513.305 225.226 513.342H228.18V510.052H229.552V518.34H228.18ZM224.736 517.654H226.108V518.942C226.108 519.138 226.122 519.311 226.15 519.46C226.178 519.6 226.234 519.735 226.318 519.866C226.411 519.987 226.532 520.104 226.682 520.216C226.84 520.328 227.046 520.454 227.298 520.594C227.606 520.762 227.993 520.953 228.46 521.168C228.926 521.383 229.51 521.635 230.21 521.924L229.65 523.03C229.034 522.769 228.497 522.521 228.04 522.288C227.592 522.064 227.209 521.873 226.892 521.714C226.444 521.481 226.108 521.285 225.884 521.126C225.669 520.967 225.52 520.823 225.436 520.692C225.352 520.841 225.202 520.995 224.988 521.154C224.782 521.322 224.437 521.527 223.952 521.77C223.644 521.929 223.266 522.115 222.818 522.33C222.37 522.545 221.838 522.783 221.222 523.044L220.634 521.924C221.324 521.644 221.908 521.397 222.384 521.182C222.86 520.967 223.252 520.771 223.56 520.594C223.802 520.454 223.998 520.323 224.148 520.202C224.306 520.081 224.428 519.959 224.512 519.838C224.596 519.707 224.652 519.572 224.68 519.432C224.717 519.292 224.736 519.129 224.736 518.942V517.654ZM242.661 516.688V517.864H230.817V516.688H242.661ZM233.911 521.616H241.205V522.82H232.525V518.984H233.911V521.616ZM236.739 510.206C237.383 510.206 237.961 510.276 238.475 510.416C238.988 510.547 239.422 510.729 239.777 510.962C240.141 511.195 240.416 511.471 240.603 511.788C240.789 512.096 240.883 512.427 240.883 512.782V513.202C240.883 513.557 240.789 513.893 240.603 514.21C240.416 514.518 240.141 514.789 239.777 515.022C239.422 515.255 238.988 515.442 238.475 515.582C237.961 515.713 237.383 515.778 236.739 515.778C236.095 515.778 235.516 515.713 235.003 515.582C234.489 515.442 234.051 515.255 233.687 515.022C233.332 514.789 233.061 514.518 232.875 514.21C232.688 513.893 232.595 513.557 232.595 513.202V512.782C232.595 512.427 232.688 512.096 232.875 511.788C233.061 511.471 233.332 511.195 233.687 510.962C234.051 510.729 234.489 510.547 235.003 510.416C235.516 510.276 236.095 510.206 236.739 510.206ZM236.739 514.63C237.168 514.63 237.555 514.588 237.901 514.504C238.246 514.42 238.535 514.313 238.769 514.182C239.011 514.042 239.198 513.883 239.329 513.706C239.459 513.529 239.525 513.342 239.525 513.146V512.838C239.525 512.642 239.459 512.455 239.329 512.278C239.198 512.101 239.011 511.947 238.769 511.816C238.535 511.676 238.246 511.564 237.901 511.48C237.555 511.396 237.168 511.354 236.739 511.354C236.309 511.354 235.922 511.396 235.577 511.48C235.231 511.564 234.937 511.676 234.695 511.816C234.461 511.947 234.279 512.101 234.149 512.278C234.018 512.455 233.953 512.642 233.953 512.838V513.146C233.953 513.342 234.018 513.529 234.149 513.706C234.279 513.883 234.461 514.042 234.695 514.182C234.937 514.313 235.231 514.42 235.577 514.504C235.922 514.588 236.309 514.63 236.739 514.63ZM252.102 519.502H246.894V511.284H252.102V519.502ZM257.604 522.96H256.246V515.848H254.776V522.33H253.418V510.318H254.776V514.644H256.246V510.052H257.604V522.96ZM248.252 518.326H250.744V512.46H248.252V518.326ZM264.329 510.304C264.982 510.304 265.575 510.374 266.107 510.514C266.648 510.645 267.105 510.831 267.479 511.074C267.861 511.317 268.155 511.611 268.361 511.956C268.566 512.292 268.669 512.665 268.669 513.076V513.58C268.669 513.991 268.566 514.369 268.361 514.714C268.155 515.05 267.861 515.339 267.479 515.582C267.105 515.825 266.648 516.016 266.107 516.156C265.575 516.287 264.982 516.352 264.329 516.352C263.666 516.352 263.069 516.287 262.537 516.156C262.005 516.016 261.547 515.825 261.165 515.582C260.791 515.339 260.502 515.05 260.297 514.714C260.091 514.369 259.989 513.991 259.989 513.58V513.076C259.989 512.665 260.091 512.292 260.297 511.956C260.502 511.611 260.791 511.317 261.165 511.074C261.547 510.831 262.005 510.645 262.537 510.514C263.069 510.374 263.666 510.304 264.329 510.304ZM263.629 522.96V518.718H258.407V517.542H270.251V518.718H265.029V522.96H263.629ZM264.329 515.148C264.777 515.148 265.183 515.111 265.547 515.036C265.92 514.952 266.233 514.84 266.485 514.7C266.746 514.56 266.947 514.392 267.087 514.196C267.236 514 267.311 513.785 267.311 513.552V513.104C267.311 512.871 267.236 512.656 267.087 512.46C266.947 512.264 266.746 512.096 266.485 511.956C266.233 511.816 265.92 511.709 265.547 511.634C265.183 511.55 264.777 511.508 264.329 511.508C263.881 511.508 263.47 511.55 263.097 511.634C262.733 511.709 262.42 511.816 262.159 511.956C261.907 512.096 261.706 512.264 261.557 512.46C261.417 512.656 261.347 512.871 261.347 513.104V513.552C261.347 513.785 261.417 514 261.557 514.196C261.706 514.392 261.907 514.56 262.159 514.7C262.42 514.84 262.733 514.952 263.097 515.036C263.47 515.111 263.881 515.148 264.329 515.148ZM283.36 522.96V515.806H280.868V516.128C280.868 516.744 280.784 517.285 280.616 517.752C280.457 518.219 280.233 518.606 279.944 518.914C279.664 519.222 279.323 519.455 278.922 519.614C278.53 519.773 278.096 519.852 277.62 519.852C277.144 519.852 276.705 519.773 276.304 519.614C275.912 519.455 275.571 519.222 275.282 518.914C275.002 518.606 274.778 518.219 274.61 517.752C274.451 517.285 274.372 516.744 274.372 516.128V514.672C274.372 514.056 274.451 513.515 274.61 513.048C274.778 512.581 275.002 512.194 275.282 511.886C275.571 511.569 275.912 511.331 276.304 511.172C276.705 511.013 277.144 510.934 277.62 510.934C278.086 510.934 278.516 511.013 278.908 511.172C279.3 511.321 279.64 511.55 279.93 511.858C280.219 512.166 280.443 512.549 280.602 513.006C280.77 513.463 280.858 513.991 280.868 514.588H283.36V510.052H284.746V522.96H283.36ZM277.62 518.606C277.872 518.606 278.114 518.559 278.348 518.466C278.581 518.373 278.782 518.223 278.95 518.018C279.127 517.803 279.267 517.528 279.37 517.192C279.482 516.847 279.538 516.427 279.538 515.932V514.868C279.538 514.373 279.482 513.958 279.37 513.622C279.267 513.277 279.127 513.001 278.95 512.796C278.782 512.581 278.581 512.427 278.348 512.334C278.114 512.241 277.872 512.194 277.62 512.194C277.368 512.194 277.125 512.241 276.892 512.334C276.658 512.427 276.453 512.581 276.276 512.796C276.108 513.001 275.968 513.277 275.856 513.622C275.753 513.958 275.702 514.373 275.702 514.868V515.932C275.702 516.427 275.753 516.847 275.856 517.192C275.968 517.528 276.108 517.803 276.276 518.018C276.453 518.223 276.658 518.373 276.892 518.466C277.125 518.559 277.368 518.606 277.62 518.606ZM288.208 515.904V518.62H289.384C289.851 518.62 290.276 518.615 290.658 518.606C291.041 518.597 291.4 518.583 291.736 518.564C292.082 518.536 292.418 518.508 292.744 518.48C293.08 518.443 293.43 518.396 293.794 518.34L293.948 519.516C293.622 519.563 293.29 519.605 292.954 519.642C292.628 519.679 292.268 519.712 291.876 519.74C291.494 519.759 291.069 519.777 290.602 519.796C290.145 519.805 289.627 519.81 289.048 519.81H286.836V514.742H290.742V512.278H286.794V511.088H292.114V515.904H288.208ZM295.46 522.96V517.122H293.094V515.904H295.46V514.014H293.094V512.796H295.46V510.052H296.846V522.96H295.46ZM302.381 515.82C301.868 515.82 301.406 515.755 300.995 515.624C300.585 515.484 300.235 515.297 299.945 515.064C299.656 514.831 299.432 514.569 299.273 514.28C299.124 513.981 299.049 513.669 299.049 513.342V512.782C299.049 512.465 299.124 512.157 299.273 511.858C299.432 511.559 299.651 511.293 299.931 511.06C300.221 510.827 300.571 510.645 300.981 510.514C301.392 510.374 301.859 510.304 302.381 510.304C302.895 510.304 303.357 510.374 303.767 510.514C304.187 510.645 304.537 510.827 304.817 511.06C305.107 511.293 305.326 511.559 305.475 511.858C305.634 512.157 305.713 512.465 305.713 512.782V513.342C305.713 513.669 305.634 513.981 305.475 514.28C305.326 514.569 305.107 514.831 304.817 515.064C304.528 515.297 304.178 515.484 303.767 515.624C303.357 515.755 302.895 515.82 302.381 515.82ZM307.519 522.96V520.132H304.691V518.942H307.519V510.052H308.891V522.96H307.519ZM301.597 522.568V518.018C301.093 518.037 300.571 518.046 300.029 518.046C299.497 518.046 298.928 518.046 298.321 518.046V516.842C299.245 516.842 300.09 516.837 300.855 516.828C301.63 516.819 302.353 516.805 303.025 516.786C303.697 516.758 304.332 516.725 304.929 516.688C305.536 516.651 306.129 516.604 306.707 516.548L306.819 517.71C306.213 517.775 305.597 517.831 304.971 517.878C304.355 517.915 303.697 517.948 302.997 517.976V522.568H301.597ZM302.381 514.616C302.671 514.616 302.937 514.583 303.179 514.518C303.422 514.443 303.632 514.345 303.809 514.224C303.987 514.103 304.127 513.958 304.229 513.79C304.332 513.622 304.383 513.44 304.383 513.244V512.88C304.383 512.46 304.192 512.129 303.809 511.886C303.436 511.634 302.96 511.508 302.381 511.508C301.803 511.508 301.322 511.634 300.939 511.886C300.566 512.129 300.379 512.46 300.379 512.88V513.244C300.379 513.44 300.431 513.622 300.533 513.79C300.636 513.958 300.776 514.103 300.953 514.224C301.131 514.345 301.341 514.443 301.583 514.518C301.826 514.583 302.092 514.616 302.381 514.616ZM321.93 520.062V521.238H310.086V520.062H313.04V516.94C312.62 516.669 312.284 516.338 312.032 515.946C311.79 515.545 311.668 515.087 311.668 514.574V513.902C311.668 513.417 311.78 512.983 312.004 512.6C312.238 512.208 312.55 511.877 312.942 511.606C313.344 511.326 313.806 511.116 314.328 510.976C314.86 510.827 315.42 510.752 316.008 510.752C316.596 510.752 317.152 510.827 317.674 510.976C318.206 511.116 318.668 511.326 319.06 511.606C319.462 511.877 319.774 512.208 319.998 512.6C320.232 512.983 320.348 513.417 320.348 513.902V514.574C320.348 515.087 320.222 515.545 319.97 515.946C319.728 516.338 319.396 516.669 318.976 516.94V520.062H321.93ZM316.008 511.956C315.607 511.956 315.224 512.003 314.86 512.096C314.506 512.189 314.188 512.325 313.908 512.502C313.638 512.67 313.423 512.88 313.264 513.132C313.106 513.384 313.026 513.664 313.026 513.972V514.504C313.026 514.812 313.106 515.092 313.264 515.344C313.423 515.596 313.638 515.811 313.908 515.988C314.188 516.156 314.506 516.287 314.86 516.38C315.224 516.473 315.607 516.52 316.008 516.52C316.41 516.52 316.788 516.473 317.142 516.38C317.506 516.287 317.824 516.156 318.094 515.988C318.374 515.811 318.594 515.596 318.752 515.344C318.911 515.092 318.99 514.812 318.99 514.504V513.972C318.99 513.664 318.911 513.384 318.752 513.132C318.594 512.88 318.374 512.67 318.094 512.502C317.824 512.325 317.506 512.189 317.142 512.096C316.788 512.003 316.41 511.956 316.008 511.956ZM316.008 517.71C315.448 517.71 314.916 517.645 314.412 517.514V520.062H317.604V517.514C317.082 517.645 316.55 517.71 316.008 517.71ZM323.335 520.328H324.931V521.938H323.335V520.328ZM323.545 518.886L323.349 510.724H324.917L324.721 518.886H323.545ZM26.884 545.044V541.558H33.52V540.354H26.814V539.206H34.878V542.678H28.242V543.896H35.242V545.044H26.884ZM29.166 533.774H25.05V532.612H30.524V534.32C30.524 534.871 30.44 535.347 30.272 535.748C30.1133 536.14 29.824 536.504 29.404 536.84C28.984 537.176 28.4147 537.507 27.696 537.834C26.9867 538.151 26.086 538.515 24.994 538.926L24.518 537.806C25.1807 537.554 25.7547 537.325 26.24 537.12C26.7253 536.915 27.1407 536.723 27.486 536.546C27.8313 536.359 28.1113 536.182 28.326 536.014C28.55 535.846 28.7227 535.673 28.844 535.496C28.9653 535.309 29.0493 535.118 29.096 534.922C29.1427 534.717 29.166 534.493 29.166 534.25V533.774ZM33.52 538.562V537.134H31.028V535.972H33.52V534.698H31.238V533.536H33.52V532.052H34.878V538.562H33.52ZM37.6689 540.564H41.3229V538.324H36.1429V537.148H44.4729C44.5943 536.625 44.6783 536.121 44.7249 535.636C44.7716 535.141 44.7949 534.684 44.7949 534.264V533.746H37.6969V532.57H46.1949V534.32C46.1949 534.712 46.1716 535.16 46.1249 535.664C46.0783 536.159 46.0083 536.653 45.9149 537.148H47.9869V538.324H42.7229V540.564H46.3349V545.086H44.9489V541.74H37.6689V540.564ZM57.6098 532.304C58.2632 532.304 58.8558 532.374 59.3878 532.514C59.9292 532.645 60.3865 532.831 60.7598 533.074C61.1425 533.317 61.4365 533.611 61.6418 533.956C61.8472 534.292 61.9498 534.665 61.9498 535.076V535.58C61.9498 535.991 61.8472 536.369 61.6418 536.714C61.4365 537.05 61.1425 537.339 60.7598 537.582C60.3865 537.825 59.9292 538.016 59.3878 538.156C58.8558 538.287 58.2632 538.352 57.6098 538.352C56.9472 538.352 56.3498 538.287 55.8178 538.156C55.2858 538.016 54.8285 537.825 54.4458 537.582C54.0725 537.339 53.7832 537.05 53.5778 536.714C53.3725 536.369 53.2698 535.991 53.2698 535.58V535.076C53.2698 534.665 53.3725 534.292 53.5778 533.956C53.7832 533.611 54.0725 533.317 54.4458 533.074C54.8285 532.831 55.2858 532.645 55.8178 532.514C56.3498 532.374 56.9472 532.304 57.6098 532.304ZM56.9098 544.96V540.718H51.6878V539.542H63.5318V540.718H58.3098V544.96H56.9098ZM57.6098 537.148C58.0578 537.148 58.4638 537.111 58.8278 537.036C59.2012 536.952 59.5138 536.84 59.7658 536.7C60.0272 536.56 60.2278 536.392 60.3678 536.196C60.5172 536 60.5918 535.785 60.5918 535.552V535.104C60.5918 534.871 60.5172 534.656 60.3678 534.46C60.2278 534.264 60.0272 534.096 59.7658 533.956C59.5138 533.816 59.2012 533.709 58.8278 533.634C58.4638 533.55 58.0578 533.508 57.6098 533.508C57.1618 533.508 56.7512 533.55 56.3778 533.634C56.0138 533.709 55.7012 533.816 55.4398 533.956C55.1878 534.096 54.9872 534.264 54.8378 534.46C54.6978 534.656 54.6278 534.871 54.6278 535.104V535.552C54.6278 535.785 54.6978 536 54.8378 536.196C54.9872 536.392 55.1878 536.56 55.4398 536.7C55.7012 536.84 56.0138 536.952 56.3778 537.036C56.7512 537.111 57.1618 537.148 57.6098 537.148ZM73.0288 544.96V532.052H74.4148V544.96H73.0288ZM66.0428 537.904V540.648H67.3588C67.8254 540.648 68.2501 540.643 68.6328 540.634C69.0154 540.625 69.3794 540.611 69.7248 540.592C70.0794 540.564 70.4201 540.536 70.7468 540.508C71.0828 540.471 71.4328 540.424 71.7968 540.368L71.9228 541.53C71.5961 541.577 71.2648 541.619 70.9288 541.656C70.6021 541.693 70.2428 541.726 69.8508 541.754C69.4681 541.782 69.0434 541.805 68.5768 541.824C68.1194 541.833 67.6014 541.838 67.0228 541.838H64.6708V536.742H69.0668V534.264H64.6288V533.074H70.4388V537.904H66.0428ZM87.8737 538.03H85.8857V544.96H84.4997V532.052H85.8857V536.826H87.8737V538.03ZM76.0437 541.012C76.7904 540.573 77.4204 540.186 77.9337 539.85C78.4564 539.505 78.8857 539.192 79.2217 538.912C79.567 538.632 79.8377 538.371 80.0337 538.128C80.2297 537.876 80.3744 537.624 80.4677 537.372C80.561 537.12 80.617 536.863 80.6357 536.602C80.6637 536.331 80.6777 536.028 80.6777 535.692V534.446H76.2957V533.256H82.0497V535.706C82.0497 536.135 82.0357 536.518 82.0077 536.854C81.989 537.19 81.9237 537.512 81.8117 537.82C81.709 538.119 81.5457 538.417 81.3217 538.716C81.107 539.005 80.8037 539.318 80.4117 539.654C80.0197 539.981 79.525 540.345 78.9277 540.746C78.3397 541.147 77.621 541.605 76.7717 542.118L76.0437 541.012ZM95.5086 537.302C95.4619 537.423 95.3499 537.591 95.1726 537.806C94.9953 538.011 94.7946 538.207 94.5706 538.394C94.2719 538.655 93.9359 538.931 93.5626 539.22C93.1986 539.509 92.8206 539.789 92.4286 540.06L91.6166 539.066C92.0646 538.749 92.4846 538.441 92.8766 538.142C93.2686 537.834 93.5906 537.559 93.8426 537.316C94.0106 537.148 94.1553 536.985 94.2766 536.826C94.3979 536.667 94.4913 536.504 94.5566 536.336C94.6313 536.168 94.6826 535.986 94.7106 535.79C94.7479 535.594 94.7666 535.37 94.7666 535.118V534.698H91.9806V533.508H94.7666V531.968H96.1666V533.508H98.7706V534.698H96.1666V535.062C96.1666 535.277 96.1759 535.473 96.1946 535.65C96.2133 535.818 96.2459 535.977 96.2926 536.126C96.3486 536.275 96.4233 536.42 96.5166 536.56C96.6099 536.691 96.7359 536.826 96.8946 536.966C97.2213 537.265 97.5666 537.554 97.9306 537.834C98.2946 538.105 98.6866 538.375 99.1066 538.646L98.3226 539.654C97.9586 539.402 97.6179 539.155 97.3006 538.912C96.9833 538.669 96.6566 538.408 96.3206 538.128C96.1059 537.951 95.9286 537.797 95.7886 537.666C95.6579 537.526 95.5693 537.405 95.5226 537.302H95.5086ZM100.731 541.25V536.896H98.4066V535.706H100.731V532.052H102.103V541.25H100.731ZM95.4246 543.616H102.369V544.82H94.0386V540.676H95.4246V543.616ZM107.554 537.302C107.507 537.423 107.395 537.591 107.218 537.806C107.04 538.011 106.84 538.207 106.616 538.394C106.317 538.655 105.981 538.931 105.608 539.22C105.244 539.509 104.866 539.789 104.474 540.06L103.662 539.066C104.11 538.749 104.53 538.441 104.922 538.142C105.314 537.834 105.636 537.559 105.888 537.316C106.056 537.148 106.2 536.985 106.322 536.826C106.443 536.667 106.536 536.504 106.602 536.336C106.676 536.168 106.728 535.986 106.756 535.79C106.793 535.594 106.812 535.37 106.812 535.118V534.698H104.026V533.508H106.812V531.968H108.212V533.508H110.816V534.698H108.212V535.062C108.212 535.277 108.221 535.473 108.24 535.65C108.258 535.818 108.291 535.977 108.338 536.126C108.394 536.275 108.468 536.42 108.562 536.56C108.655 536.691 108.781 536.826 108.94 536.966C109.266 537.265 109.612 537.554 109.976 537.834C110.34 538.105 110.732 538.375 111.152 538.646L110.368 539.654C110.004 539.402 109.663 539.155 109.346 538.912C109.028 538.669 108.702 538.408 108.366 538.128C108.151 537.951 107.974 537.797 107.834 537.666C107.703 537.526 107.614 537.405 107.568 537.302H107.554ZM112.776 541.25V536.896H110.452V535.706H112.776V532.052H114.148V541.25H112.776ZM107.47 543.616H114.414V544.82H106.084V540.676H107.47V543.616ZM119.5 542.076C119.006 542.076 118.562 542.001 118.17 541.852C117.788 541.693 117.461 541.488 117.19 541.236C116.929 540.984 116.724 540.695 116.574 540.368C116.434 540.041 116.364 539.71 116.364 539.374V538.562C116.364 538.226 116.434 537.895 116.574 537.568C116.724 537.241 116.929 536.952 117.19 536.7C117.461 536.439 117.788 536.233 118.17 536.084C118.562 535.925 119.006 535.846 119.5 535.846C119.986 535.846 120.424 535.925 120.816 536.084C121.208 536.233 121.535 536.439 121.796 536.7C122.067 536.952 122.272 537.241 122.412 537.568C122.562 537.895 122.636 538.226 122.636 538.562V539.374C122.636 539.71 122.562 540.041 122.412 540.368C122.272 540.695 122.067 540.984 121.796 541.236C121.535 541.488 121.208 541.693 120.816 541.852C120.424 542.001 119.986 542.076 119.5 542.076ZM124.722 544.96V532.052H126.108V544.96H124.722ZM119.5 537.008C118.94 537.008 118.492 537.167 118.156 537.484C117.83 537.792 117.666 538.203 117.666 538.716V539.22C117.666 539.733 117.83 540.144 118.156 540.452C118.492 540.76 118.94 540.914 119.5 540.914C120.06 540.914 120.504 540.76 120.83 540.452C121.166 540.144 121.334 539.733 121.334 539.22V538.716C121.334 538.203 121.166 537.792 120.83 537.484C120.504 537.167 120.06 537.008 119.5 537.008ZM118.814 533.956V532.136H120.2V533.956H123.21V535.132H115.72V533.956H118.814ZM134.975 543.616H141.919V544.82H133.589V540.536H134.975V543.616ZM140.281 541.264V532.052H141.653V541.264H140.281ZM136.641 535.58C136.641 535.365 136.604 535.151 136.529 534.936C136.455 534.721 136.338 534.53 136.179 534.362C136.03 534.185 135.834 534.045 135.591 533.942C135.358 533.83 135.073 533.774 134.737 533.774C134.401 533.774 134.112 533.83 133.869 533.942C133.627 534.045 133.426 534.185 133.267 534.362C133.118 534.53 133.006 534.721 132.931 534.936C132.866 535.151 132.833 535.365 132.833 535.58V536.196C132.833 536.411 132.871 536.625 132.945 536.84C133.02 537.055 133.132 537.251 133.281 537.428C133.44 537.596 133.636 537.736 133.869 537.848C134.112 537.951 134.401 538.002 134.737 538.002C135.073 538.002 135.358 537.951 135.591 537.848C135.834 537.736 136.03 537.596 136.179 537.428C136.338 537.251 136.455 537.055 136.529 536.84C136.604 536.625 136.641 536.411 136.641 536.196V535.58ZM131.503 535.524C131.503 535.207 131.569 534.875 131.699 534.53C131.83 534.175 132.031 533.853 132.301 533.564C132.572 533.275 132.908 533.037 133.309 532.85C133.711 532.663 134.187 532.57 134.737 532.57C135.279 532.57 135.75 532.663 136.151 532.85C136.562 533.037 136.903 533.275 137.173 533.564C137.444 533.853 137.645 534.175 137.775 534.53C137.906 534.875 137.971 535.207 137.971 535.524V536.252C137.971 536.569 137.906 536.905 137.775 537.26C137.645 537.605 137.444 537.923 137.173 538.212C136.903 538.501 136.562 538.739 136.151 538.926C135.75 539.113 135.279 539.206 134.737 539.206C134.187 539.206 133.711 539.113 133.309 538.926C132.908 538.739 132.572 538.501 132.301 538.212C132.031 537.923 131.83 537.605 131.699 537.26C131.569 536.905 131.503 536.569 131.503 536.252V535.524ZM154.174 544.96H152.816V537.456H151.178V544.33H149.82V532.318H151.178V536.252H152.816V532.052H154.174V544.96ZM144.99 533.27V540.2H145.55C146.082 540.2 146.619 540.186 147.16 540.158C147.702 540.121 148.266 540.051 148.854 539.948L149.008 541.152C148.439 541.255 147.818 541.325 147.146 541.362C146.484 541.399 145.751 541.418 144.948 541.418H143.604V533.27H144.99ZM164.329 539.304V532.052H165.701V539.304H164.329ZM165.701 539.934V544.946H157.651V539.934H165.701ZM159.023 543.77H164.329V541.11H159.023V543.77ZM159.079 536.224C159.042 536.345 158.93 536.513 158.743 536.728C158.557 536.943 158.356 537.148 158.141 537.344C157.852 537.615 157.511 537.913 157.119 538.24C156.727 538.567 156.345 538.879 155.971 539.178L155.145 538.198C155.369 538.03 155.589 537.857 155.803 537.68C156.027 537.503 156.237 537.33 156.433 537.162C156.639 536.994 156.825 536.835 156.993 536.686C157.161 536.527 157.306 536.387 157.427 536.266C157.605 536.089 157.749 535.921 157.861 535.762C157.983 535.594 158.076 535.426 158.141 535.258C158.216 535.081 158.267 534.894 158.295 534.698C158.323 534.502 158.337 534.283 158.337 534.04V532.584H159.737V533.984C159.737 534.199 159.742 534.395 159.751 534.572C159.77 534.74 159.803 534.899 159.849 535.048C159.896 535.197 159.966 535.347 160.059 535.496C160.162 535.636 160.297 535.781 160.465 535.93C160.792 536.229 161.151 536.541 161.543 536.868C161.945 537.185 162.355 537.493 162.775 537.792L161.963 538.758C161.599 538.487 161.245 538.212 160.899 537.932C160.563 537.652 160.227 537.372 159.891 537.092C159.677 536.915 159.499 536.751 159.359 536.602C159.229 536.453 159.14 536.327 159.093 536.224H159.079ZM168.786 545.044V541.81H175.87V540.858H168.716V539.724H177.228V542.916H170.144V543.91H177.606V545.044H168.786ZM178.936 537.68V538.828H167.092V537.68H178.936ZM173.014 532.122C173.658 532.122 174.232 532.178 174.736 532.29C175.249 532.393 175.683 532.542 176.038 532.738C176.393 532.934 176.663 533.172 176.85 533.452C177.046 533.723 177.144 534.021 177.144 534.348V534.684C177.144 535.011 177.046 535.314 176.85 535.594C176.663 535.865 176.393 536.098 176.038 536.294C175.683 536.49 175.249 536.644 174.736 536.756C174.232 536.859 173.658 536.91 173.014 536.91C172.37 536.91 171.791 536.859 171.278 536.756C170.774 536.644 170.345 536.49 169.99 536.294C169.635 536.098 169.36 535.865 169.164 535.594C168.977 535.314 168.884 535.011 168.884 534.684V534.348C168.884 534.021 168.977 533.723 169.164 533.452C169.36 533.172 169.635 532.934 169.99 532.738C170.345 532.542 170.774 532.393 171.278 532.29C171.791 532.178 172.37 532.122 173.014 532.122ZM173.014 535.762C173.901 535.762 174.582 535.655 175.058 535.44C175.543 535.216 175.786 534.955 175.786 534.656V534.376C175.786 534.077 175.543 533.821 175.058 533.606C174.582 533.382 173.901 533.27 173.014 533.27C172.127 533.27 171.441 533.382 170.956 533.606C170.48 533.821 170.242 534.077 170.242 534.376V534.656C170.242 534.955 170.48 535.216 170.956 535.44C171.441 535.655 172.127 535.762 173.014 535.762ZM194.733 538.03H192.745V544.96H191.359V532.052H192.745V536.826H194.733V538.03ZM182.903 541.012C183.65 540.573 184.28 540.186 184.793 539.85C185.316 539.505 185.745 539.192 186.081 538.912C186.426 538.632 186.697 538.371 186.893 538.128C187.089 537.876 187.234 537.624 187.327 537.372C187.42 537.12 187.476 536.863 187.495 536.602C187.523 536.331 187.537 536.028 187.537 535.692V534.446H183.155V533.256H188.909V535.706C188.909 536.135 188.895 536.518 188.867 536.854C188.848 537.19 188.783 537.512 188.671 537.82C188.568 538.119 188.405 538.417 188.181 538.716C187.966 539.005 187.663 539.318 187.271 539.654C186.879 539.981 186.384 540.345 185.787 540.746C185.199 541.147 184.48 541.605 183.631 542.118L182.903 541.012ZM198.98 538.604C198.915 538.763 198.817 538.926 198.686 539.094C198.555 539.262 198.378 539.467 198.154 539.71C197.865 540.027 197.543 540.368 197.188 540.732C196.833 541.087 196.418 541.483 195.942 541.922L195.032 540.984C195.452 540.601 195.835 540.237 196.18 539.892C196.535 539.547 196.871 539.197 197.188 538.842C197.421 538.59 197.608 538.361 197.748 538.156C197.888 537.951 197.995 537.75 198.07 537.554C198.145 537.358 198.196 537.157 198.224 536.952C198.252 536.747 198.266 536.513 198.266 536.252V534.418H195.494V533.214H202.368V534.418H199.666V536.252C199.666 536.532 199.68 536.775 199.708 536.98C199.736 537.185 199.787 537.381 199.862 537.568C199.946 537.755 200.063 537.951 200.212 538.156C200.361 538.352 200.562 538.585 200.814 538.856C201.113 539.183 201.416 539.495 201.724 539.794C202.041 540.093 202.41 540.424 202.83 540.788L201.92 541.726C201.444 541.287 201.047 540.914 200.73 540.606C200.413 540.289 200.119 539.985 199.848 539.696C199.652 539.481 199.475 539.281 199.316 539.094C199.157 538.907 199.05 538.744 198.994 538.604H198.98ZM204.118 544.96V532.052H205.504V544.96H204.118ZM218.571 542.062V543.238H206.727V542.062H211.011V537.372H212.397V542.062H218.571ZM216.835 533.214V534.908C216.835 535.533 216.826 536.098 216.807 536.602C216.788 537.106 216.756 537.582 216.709 538.03C216.672 538.469 216.625 538.893 216.569 539.304C216.513 539.705 216.443 540.125 216.359 540.564L214.973 540.396C215.141 539.519 215.262 538.683 215.337 537.89C215.412 537.097 215.449 536.266 215.449 535.398V534.418H208.183V533.214H216.835ZM234.368 538.03H232.38V544.96H230.994V532.052H232.38V536.826H234.368V538.03ZM222.538 541.012C223.284 540.573 223.914 540.186 224.428 539.85C224.95 539.505 225.38 539.192 225.716 538.912C226.061 538.632 226.332 538.371 226.528 538.128C226.724 537.876 226.868 537.624 226.962 537.372C227.055 537.12 227.111 536.863 227.13 536.602C227.158 536.331 227.172 536.028 227.172 535.692V534.446H222.79V533.256H228.544V535.706C228.544 536.135 228.53 536.518 228.502 536.854C228.483 537.19 228.418 537.512 228.306 537.82C228.203 538.119 228.04 538.417 227.816 538.716C227.601 539.005 227.298 539.318 226.906 539.654C226.514 539.981 226.019 540.345 225.422 540.746C224.834 541.147 224.115 541.605 223.266 542.118L222.538 541.012ZM246.161 542.062V543.238H234.317V542.062H246.161ZM235.983 540.074V535.972H243.067V534.278H235.927V533.102H244.439V537.148H237.355V538.898H244.747V540.074H235.983ZM250.674 538.814C250.608 538.973 250.51 539.136 250.38 539.304C250.249 539.472 250.072 539.677 249.848 539.92C249.558 540.237 249.236 540.578 248.882 540.942C248.527 541.297 248.112 541.693 247.636 542.132L246.726 541.194C247.146 540.811 247.528 540.447 247.874 540.102C248.228 539.757 248.564 539.407 248.882 539.052C249.115 538.8 249.302 538.571 249.442 538.366C249.582 538.161 249.689 537.96 249.764 537.764C249.838 537.568 249.89 537.367 249.918 537.162C249.946 536.957 249.96 536.723 249.96 536.462V535.132H247.076V533.928H249.96V532.094H251.36V533.928H254.132V535.132H251.36V536.462C251.36 536.742 251.374 536.985 251.402 537.19C251.43 537.395 251.481 537.591 251.556 537.778C251.64 537.965 251.756 538.161 251.906 538.366C252.055 538.562 252.256 538.795 252.508 539.066C252.806 539.393 253.11 539.705 253.418 540.004C253.735 540.303 254.104 540.634 254.524 540.998L253.614 541.936C253.138 541.497 252.741 541.124 252.424 540.816C252.106 540.499 251.812 540.195 251.542 539.906C251.346 539.691 251.168 539.491 251.01 539.304C250.851 539.117 250.744 538.954 250.688 538.814H250.674ZM255.798 544.96V532.052H257.184V544.96H255.798ZM270.251 538.576V539.752H258.407V538.576H270.251ZM261.501 543.616H268.795V544.82H260.115V540.928H261.501V543.616ZM261.571 532.556V535.916H268.557V537.092H260.199V532.556H261.571ZM274.498 534.502H270.914V533.312H275.856V535.944C275.856 536.103 275.851 536.252 275.842 536.392C275.842 536.532 275.837 536.667 275.828 536.798H277.62V532.318H278.978V544.33H277.62V538.002H275.604C275.492 538.329 275.333 538.646 275.128 538.954C274.932 539.253 274.666 539.565 274.33 539.892C273.994 540.219 273.578 540.573 273.084 540.956C272.598 541.329 272.01 541.745 271.32 542.202L270.55 541.124C271.203 540.704 271.754 540.321 272.202 539.976C272.659 539.631 273.032 539.313 273.322 539.024C273.62 538.725 273.849 538.445 274.008 538.184C274.166 537.913 274.278 537.652 274.344 537.4C274.418 537.139 274.46 536.873 274.47 536.602C274.488 536.322 274.498 536.023 274.498 535.706V534.502ZM281.666 544.96H280.308V532.052H281.666V544.96ZM288.908 542.314C288.908 541.978 288.997 541.661 289.174 541.362C289.361 541.063 289.622 540.802 289.958 540.578C290.304 540.354 290.719 540.181 291.204 540.06C291.699 539.929 292.254 539.864 292.87 539.864C293.486 539.864 294.037 539.929 294.522 540.06C295.017 540.181 295.432 540.354 295.768 540.578C296.114 540.802 296.375 541.063 296.552 541.362C296.739 541.661 296.832 541.978 296.832 542.314V542.874C296.832 543.21 296.739 543.527 296.552 543.826C296.375 544.125 296.114 544.386 295.768 544.61C295.432 544.834 295.017 545.007 294.522 545.128C294.037 545.259 293.486 545.324 292.87 545.324C292.254 545.324 291.699 545.259 291.204 545.128C290.719 545.007 290.304 544.834 289.958 544.61C289.622 544.386 289.361 544.125 289.174 543.826C288.997 543.527 288.908 543.21 288.908 542.874V542.314ZM290.154 536.826C290.108 536.947 289.996 537.115 289.818 537.33C289.641 537.535 289.44 537.731 289.216 537.918C288.918 538.179 288.582 538.455 288.208 538.744C287.844 539.033 287.466 539.313 287.074 539.584L286.262 538.59C286.71 538.273 287.13 537.965 287.522 537.666C287.914 537.358 288.236 537.083 288.488 536.84C288.656 536.672 288.801 536.509 288.922 536.35C289.044 536.191 289.137 536.028 289.202 535.86C289.277 535.683 289.328 535.496 289.356 535.3C289.394 535.095 289.412 534.866 289.412 534.614V534.04H286.696V532.85H293.36V534.04H290.812V534.558C290.812 534.782 290.822 534.983 290.84 535.16C290.859 535.337 290.892 535.501 290.938 535.65C290.994 535.799 291.069 535.944 291.162 536.084C291.256 536.215 291.382 536.35 291.54 536.49C291.867 536.789 292.212 537.078 292.576 537.358C292.94 537.629 293.332 537.899 293.752 538.17L292.968 539.178C292.604 538.926 292.264 538.679 291.946 538.436C291.629 538.193 291.302 537.932 290.966 537.652C290.752 537.475 290.574 537.321 290.434 537.19C290.304 537.05 290.215 536.929 290.168 536.826H290.154ZM295.474 542.398C295.474 542.23 295.414 542.062 295.292 541.894C295.171 541.726 294.998 541.577 294.774 541.446C294.55 541.306 294.275 541.199 293.948 541.124C293.631 541.04 293.272 540.998 292.87 540.998C292.469 540.998 292.105 541.04 291.778 541.124C291.461 541.199 291.19 541.306 290.966 541.446C290.742 541.577 290.57 541.726 290.448 541.894C290.327 542.062 290.266 542.23 290.266 542.398V542.79C290.266 542.958 290.327 543.126 290.448 543.294C290.57 543.462 290.742 543.611 290.966 543.742C291.19 543.882 291.461 543.989 291.778 544.064C292.105 544.148 292.469 544.19 292.87 544.19C293.272 544.19 293.631 544.148 293.948 544.064C294.275 543.989 294.55 543.882 294.774 543.742C294.998 543.611 295.171 543.462 295.292 543.294C295.414 543.126 295.474 542.958 295.474 542.79V542.398ZM295.404 539.682V536.406H293.024V535.216H295.404V532.052H296.776V539.682H295.404ZM304.495 537.904H298.643V532.556H304.495V537.904ZM300.309 545.044V541.502H306.875V540.242H300.239V539.094H308.233V542.622H301.667V543.896H308.597V545.044H300.309ZM310.067 535.762H308.233V538.45H306.861V532.052H308.233V534.558H310.067V535.762ZM299.987 536.742H303.151V533.718H299.987V536.742ZM24.098 561.15V559.974H35.942V561.15H30.72V562.284C31.2333 562.331 31.6953 562.419 32.106 562.55C32.5167 562.671 32.8667 562.835 33.156 563.04C33.4453 563.236 33.6647 563.465 33.814 563.726C33.9727 563.978 34.052 564.253 34.052 564.552V565.028C34.052 565.355 33.9587 565.658 33.772 565.938C33.5853 566.218 33.3147 566.461 32.96 566.666C32.6147 566.871 32.19 567.03 31.686 567.142C31.1913 567.263 30.636 567.324 30.02 567.324C29.404 567.324 28.844 567.263 28.34 567.142C27.8453 567.03 27.4207 566.871 27.066 566.666C26.7207 566.461 26.4547 566.218 26.268 565.938C26.0813 565.658 25.988 565.355 25.988 565.028V564.552C25.988 563.945 26.282 563.437 26.87 563.026C27.4673 562.615 28.284 562.368 29.32 562.284V561.15H24.098ZM30.006 557.412C29.9687 557.487 29.8893 557.571 29.768 557.664C29.6467 557.748 29.502 557.837 29.334 557.93C29.166 558.023 28.9933 558.112 28.816 558.196C28.6387 558.28 28.4753 558.355 28.326 558.42C27.85 558.607 27.388 558.784 26.94 558.952C26.5013 559.111 26.058 559.269 25.61 559.428L25.092 558.308C25.652 558.131 26.142 557.967 26.562 557.818C26.982 557.659 27.3833 557.501 27.766 557.342C28.242 557.146 28.62 556.927 28.9 556.684C29.18 556.441 29.32 556.171 29.32 555.872V555.676H25.638V554.528H34.402V555.676H30.706V555.872C30.706 556.171 30.8413 556.437 31.112 556.67C31.392 556.894 31.7747 557.113 32.26 557.328C32.6333 557.487 33.0347 557.645 33.464 557.804C33.8933 557.963 34.3833 558.131 34.934 558.308L34.43 559.428C33.9633 559.269 33.5107 559.111 33.072 558.952C32.6333 558.784 32.19 558.607 31.742 558.42C31.5927 558.355 31.4247 558.28 31.238 558.196C31.0513 558.112 30.874 558.023 30.706 557.93C30.538 557.837 30.3887 557.748 30.258 557.664C30.1367 557.571 30.0573 557.487 30.02 557.412H30.006ZM30.02 563.39C29.628 563.39 29.2687 563.423 28.942 563.488C28.6153 563.553 28.3353 563.647 28.102 563.768C27.8687 563.88 27.6867 564.011 27.556 564.16C27.4253 564.309 27.36 564.468 27.36 564.636V564.944C27.36 565.112 27.4253 565.271 27.556 565.42C27.6867 565.569 27.8687 565.7 28.102 565.812C28.3353 565.933 28.6153 566.027 28.942 566.092C29.2687 566.157 29.628 566.19 30.02 566.19C30.412 566.19 30.7713 566.157 31.098 566.092C31.4247 566.027 31.7047 565.933 31.938 565.812C32.1713 565.7 32.3533 565.569 32.484 565.42C32.6147 565.271 32.68 565.112 32.68 564.944V564.636C32.68 564.468 32.6147 564.309 32.484 564.16C32.3533 564.011 32.1713 563.88 31.938 563.768C31.7047 563.647 31.4247 563.553 31.098 563.488C30.7713 563.423 30.412 563.39 30.02 563.39ZM47.9869 564.062V565.238H36.1429V564.062H39.0969V560.94C38.6769 560.669 38.3409 560.338 38.0889 559.946C37.8463 559.545 37.7249 559.087 37.7249 558.574V557.902C37.7249 557.417 37.8369 556.983 38.0609 556.6C38.2943 556.208 38.6069 555.877 38.9989 555.606C39.4003 555.326 39.8623 555.116 40.3849 554.976C40.9169 554.827 41.4769 554.752 42.0649 554.752C42.6529 554.752 43.2083 554.827 43.7309 554.976C44.2629 555.116 44.7249 555.326 45.1169 555.606C45.5183 555.877 45.8309 556.208 46.0549 556.6C46.2883 556.983 46.4049 557.417 46.4049 557.902V558.574C46.4049 559.087 46.2789 559.545 46.0269 559.946C45.7843 560.338 45.4529 560.669 45.0329 560.94V564.062H47.9869ZM42.0649 555.956C41.6636 555.956 41.2809 556.003 40.9169 556.096C40.5623 556.189 40.2449 556.325 39.9649 556.502C39.6943 556.67 39.4796 556.88 39.3209 557.132C39.1623 557.384 39.0829 557.664 39.0829 557.972V558.504C39.0829 558.812 39.1623 559.092 39.3209 559.344C39.4796 559.596 39.6943 559.811 39.9649 559.988C40.2449 560.156 40.5623 560.287 40.9169 560.38C41.2809 560.473 41.6636 560.52 42.0649 560.52C42.4663 560.52 42.8443 560.473 43.1989 560.38C43.5629 560.287 43.8803 560.156 44.1509 559.988C44.4309 559.811 44.6503 559.596 44.8089 559.344C44.9676 559.092 45.0469 558.812 45.0469 558.504V557.972C45.0469 557.664 44.9676 557.384 44.8089 557.132C44.6503 556.88 44.4309 556.67 44.1509 556.502C43.8803 556.325 43.5629 556.189 43.1989 556.096C42.8443 556.003 42.4663 555.956 42.0649 555.956ZM42.0649 561.71C41.5049 561.71 40.9729 561.645 40.4689 561.514V564.062H43.6609V561.514C43.1383 561.645 42.6063 561.71 42.0649 561.71ZM58.3798 561.99V566.96H50.5118V561.99H51.8838V563.306H57.0078V561.99H58.3798ZM52.0518 561.444C51.4918 561.444 51.0158 561.379 50.6238 561.248C50.2412 561.117 49.9332 560.954 49.6998 560.758C49.4665 560.562 49.2985 560.343 49.1958 560.1C49.0932 559.857 49.0418 559.624 49.0418 559.4V559.036C49.0418 558.812 49.0932 558.579 49.1958 558.336C49.2985 558.093 49.4665 557.874 49.6998 557.678C49.9332 557.473 50.2412 557.309 50.6238 557.188C51.0158 557.057 51.4918 556.992 52.0518 556.992C52.6118 556.992 53.0832 557.057 53.4658 557.188C53.8578 557.319 54.1705 557.482 54.4038 557.678C54.6372 557.874 54.8052 558.093 54.9078 558.336C55.0105 558.579 55.0618 558.812 55.0618 559.036V559.4C55.0618 559.624 55.0105 559.857 54.9078 560.1C54.8052 560.343 54.6372 560.562 54.4038 560.758C54.1705 560.954 53.8578 561.117 53.4658 561.248C53.0832 561.379 52.6118 561.444 52.0518 561.444ZM60.2138 558.322H58.3798V561.36H57.0078V554.052H58.3798V557.118H60.2138V558.322ZM55.7478 556.558H48.3418V555.396H51.3658V553.884H52.7378V555.396H55.7478V556.558ZM57.0078 565.784V564.468H51.8838V565.784H57.0078ZM52.0518 560.338C52.3785 560.338 52.6492 560.305 52.8638 560.24C53.0785 560.165 53.2512 560.077 53.3818 559.974C53.5125 559.871 53.6058 559.764 53.6618 559.652C53.7178 559.531 53.7458 559.419 53.7458 559.316V559.12C53.7458 559.027 53.7178 558.919 53.6618 558.798C53.6152 558.677 53.5265 558.565 53.3958 558.462C53.2652 558.359 53.0878 558.275 52.8638 558.21C52.6492 558.135 52.3785 558.098 52.0518 558.098C51.7252 558.098 51.4498 558.135 51.2258 558.21C51.0112 558.275 50.8385 558.359 50.7078 558.462C50.5772 558.565 50.4838 558.677 50.4278 558.798C50.3812 558.919 50.3578 559.027 50.3578 559.12V559.316C50.3578 559.419 50.3858 559.531 50.4418 559.652C50.4978 559.764 50.5912 559.871 50.7218 559.974C50.8525 560.077 51.0252 560.165 51.2398 560.24C51.4545 560.305 51.7252 560.338 52.0518 560.338ZM69.6128 566.96V554.052H70.9988V566.96H69.6128ZM62.6688 555.116V562.284H63.9148C64.6894 562.284 65.4361 562.261 66.1548 562.214C66.8828 562.158 67.6061 562.065 68.3248 561.934L68.4788 563.138C68.0681 563.213 67.6808 563.273 67.3168 563.32C66.9528 563.367 66.5748 563.404 66.1828 563.432C65.8001 563.46 65.3941 563.479 64.9648 563.488C64.5354 563.497 64.0548 563.502 63.5228 563.502H61.2688V555.116H62.6688ZM78.8577 556.418H74.3077V562.354H75.0497C75.9644 562.354 76.8184 562.326 77.6117 562.27C78.4144 562.205 79.2124 562.111 80.0057 561.99L80.1877 563.152C79.357 563.301 78.503 563.409 77.6257 563.474C76.7577 563.53 75.801 563.558 74.7557 563.558H72.9217V555.214H78.8577V556.418ZM84.3737 559.918H82.3857V566.96H80.9997V554.052H82.3857V558.714H84.3737V559.918ZM85.5266 564.328H87.1226V565.938H85.5266V564.328ZM85.7366 562.886L85.5406 554.724H87.1086L86.9126 562.886H85.7366Z" fill="black"/>
<rect x="24" y="462" width="24" height="24" fill="#C4C4C4"/>
<path d="M119.654 159.374C131.233 159.379 132.394 164.929 147.235 167.175C172.476 170.994 186.23 157.529 206.315 152.57C238.033 144.74 284.812 158.302 304.666 192.793C323.889 226.184 315.18 274.507 289.683 293.48C273.251 305.707 246.956 307.895 240.775 308.409C220.531 310.094 215.653 305.209 203.827 310.1C186.865 317.115 187.987 330.847 170.043 347.426C153.481 362.727 125.238 376.24 112.457 367.415C101.072 359.556 113.289 341.799 101.925 311.769C93.2996 288.974 82.8565 290.208 71.684 264.177C66.1275 251.231 58.3546 233.122 62.9189 212.127C68.9987 184.152 95.1739 159.362 119.654 159.374Z" fill="#FFBE5B" fill-opacity="0.5"/>
<circle cx="262.5" cy="386.5" r="61.5" fill="#FFBE5B" fill-opacity="0.5"/>
<circle cx="307.5" cy="318.5" r="12.5" fill="#FFBE5B" fill-opacity="0.5"/>
<circle cx="317.5" cy="291.5" r="6.5" fill="#FFBE5B" fill-opacity="0.5"/>
<path d="M172.021 221.27C176.201 216.516 178.446 216.065 179.717 216.499C182.445 217.427 181.136 222.572 185.103 227.792C188.734 232.569 194.166 233.963 195.543 234.317C197.542 234.83 204.027 236.196 209.775 232.832C213.315 230.76 213.221 228.86 215.959 227.395C217.285 226.703 218.759 226.341 220.255 226.338C227.285 226.198 232.828 232.327 232.261 239.337L220.99 378.707L132.173 374.226L172.021 221.27Z" fill="#FF8F8F"/>
<path d="M217.721 201.016L213.158 237.791C207.472 240.674 201.054 241.789 194.729 240.993C183.325 239.502 176.552 232.187 174.852 230.233L191.871 198.868L217.721 201.016Z" fill="#FFCDCF"/>
<path d="M233.781 184.238C233.723 184.67 233.653 185.098 233.575 185.53C233.132 187.961 232.379 190.325 231.335 192.565C228.64 198.314 224.118 203.011 218.475 205.922C212.831 208.833 206.383 209.795 200.136 208.658C196.42 207.986 192.872 206.588 189.697 204.543C186.522 202.498 183.782 199.846 181.633 196.74C179.485 193.634 177.97 190.135 177.176 186.442C176.383 182.75 176.325 178.937 177.008 175.223C177.035 175.064 177.065 174.905 177.099 174.75C177.413 173.161 177.862 171.601 178.442 170.087C179.803 166.545 181.851 163.307 184.468 160.56C187.085 157.812 190.22 155.609 193.692 154.078C197.164 152.547 200.905 151.717 204.698 151.637C208.492 151.558 212.264 152.229 215.798 153.613C218.26 154.573 220.576 155.873 222.677 157.476C224.291 158.701 225.771 160.095 227.09 161.632C228.409 163.169 229.563 164.839 230.535 166.616C233.475 171.991 234.613 178.168 233.781 184.238Z" fill="#FFCDCF"/>
<path d="M204.856 150.163C205.873 142.922 200.242 136.145 192.278 135.026C184.314 133.907 177.033 138.87 176.016 146.111C174.998 153.352 180.63 160.129 188.594 161.248C196.557 162.367 203.838 157.404 204.856 150.163Z" fill="#2D0301"/>
<g opacity="0.3">
<path opacity="0.3" d="M189.392 204.607C189.689 204.134 194.571 208.245 201.745 209.25C207.765 210.093 213.115 208.427 217.026 206.622C216.78 209.043 216.534 211.464 216.288 213.885C212.422 214.402 206.562 214.587 200.311 212.166C193.702 209.606 189.096 205.078 189.392 204.607Z" fill="#FF8F8F"/>
</g>
<path d="M212.884 184.253C212.768 184.253 212.686 184.248 212.651 184.245C212.539 184.237 212.43 184.208 212.331 184.159C212.231 184.109 212.142 184.04 212.069 183.956C211.995 183.871 211.94 183.773 211.905 183.667C211.87 183.562 211.856 183.45 211.865 183.338C211.873 183.227 211.904 183.119 211.955 183.019C212.005 182.92 212.075 182.832 212.16 182.76C212.245 182.688 212.344 182.633 212.45 182.599C212.557 182.565 212.669 182.553 212.78 182.563C212.791 182.565 214.001 182.647 214.588 181.846C215.13 181.106 214.909 179.962 214.371 179.397C214.086 179.141 213.725 178.985 213.343 178.955C212.653 178.874 212.016 178.549 211.545 178.039C210.839 177.21 210.697 175.979 211.123 174.38C211.181 174.164 211.322 173.979 211.516 173.867C211.709 173.755 211.94 173.724 212.156 173.782C212.372 173.84 212.556 173.981 212.669 174.174C212.781 174.368 212.811 174.598 212.754 174.814C212.484 175.832 212.509 176.569 212.829 176.946C213.005 177.152 213.245 177.21 213.69 177.304C214.408 177.4 215.075 177.726 215.592 178.233C216.608 179.299 217.033 181.364 215.949 182.843C215.014 184.119 213.486 184.253 212.884 184.253Z" fill="#FF8F8F"/>
<path d="M211.559 191.233C210.581 191.226 209.616 190.997 208.739 190.562C207.862 190.126 207.096 189.497 206.499 188.722C206.431 188.634 206.38 188.534 206.351 188.427C206.322 188.321 206.314 188.209 206.327 188.099C206.341 187.989 206.376 187.883 206.431 187.787C206.486 187.69 206.559 187.606 206.646 187.538C206.734 187.47 206.834 187.42 206.941 187.39C207.047 187.361 207.159 187.353 207.269 187.366C207.379 187.38 207.485 187.415 207.581 187.47C207.678 187.525 207.762 187.598 207.83 187.686C208.336 188.347 209.007 188.864 209.777 189.182C210.546 189.501 211.386 189.61 212.211 189.498C212.904 189.377 213.562 189.107 214.14 188.706C214.718 188.305 215.202 187.782 215.557 187.175C215.612 187.079 215.686 186.995 215.774 186.927C215.861 186.86 215.962 186.81 216.069 186.781C216.175 186.752 216.287 186.745 216.397 186.759C216.507 186.773 216.613 186.809 216.709 186.864C216.805 186.919 216.889 186.993 216.957 187.08C217.024 187.168 217.074 187.268 217.103 187.375C217.132 187.482 217.139 187.594 217.125 187.704C217.111 187.813 217.075 187.919 217.02 188.016C216.761 188.468 215.321 190.744 212.459 191.167C212.161 191.211 211.86 191.233 211.559 191.233Z" fill="#FF8F8F"/>
<path d="M200.797 181.195C199.727 181.192 198.69 180.824 197.858 180.153C197.771 180.083 197.699 179.998 197.646 179.901C197.593 179.804 197.559 179.697 197.547 179.587C197.535 179.477 197.545 179.365 197.576 179.259C197.607 179.152 197.659 179.053 197.728 178.967C197.797 178.88 197.883 178.808 197.98 178.755C198.077 178.702 198.184 178.668 198.294 178.656C198.404 178.644 198.516 178.654 198.622 178.685C198.729 178.716 198.828 178.768 198.914 178.837C199.316 179.167 199.799 179.385 200.312 179.468C200.826 179.551 201.352 179.496 201.837 179.309C202.239 179.132 202.597 178.872 202.89 178.545C203.182 178.218 203.402 177.833 203.533 177.415C203.564 177.307 203.615 177.206 203.684 177.119C203.754 177.031 203.84 176.958 203.938 176.904C204.036 176.85 204.143 176.816 204.255 176.804C204.366 176.792 204.478 176.803 204.585 176.834C204.692 176.866 204.792 176.919 204.879 176.99C204.965 177.06 205.037 177.147 205.09 177.246C205.142 177.345 205.175 177.453 205.185 177.564C205.196 177.675 205.184 177.788 205.151 177.894C204.946 178.557 204.6 179.167 204.136 179.682C203.672 180.197 203.101 180.604 202.463 180.876C201.933 181.087 201.368 181.195 200.797 181.195Z" fill="#2D0301"/>
<path d="M218.153 176.435C217.083 176.432 216.046 176.065 215.214 175.393C215.127 175.324 215.056 175.238 215.002 175.141C214.949 175.044 214.915 174.937 214.903 174.827C214.891 174.717 214.901 174.605 214.932 174.499C214.963 174.392 215.015 174.293 215.084 174.207C215.153 174.12 215.239 174.049 215.336 173.995C215.433 173.942 215.54 173.908 215.65 173.896C215.76 173.884 215.872 173.894 215.978 173.925C216.085 173.956 216.184 174.008 216.27 174.077C216.672 174.407 217.155 174.625 217.668 174.708C218.182 174.791 218.708 174.736 219.193 174.549C219.595 174.372 219.953 174.112 220.246 173.785C220.538 173.458 220.758 173.073 220.889 172.654C220.955 172.443 221.102 172.266 221.297 172.161C221.493 172.057 221.722 172.034 221.934 172.097C222.147 172.16 222.326 172.304 222.433 172.498C222.54 172.692 222.566 172.921 222.506 173.134C222.302 173.797 221.956 174.407 221.492 174.922C221.028 175.437 220.457 175.844 219.819 176.116C219.289 176.327 218.724 176.436 218.153 176.435Z" fill="#2D0301"/>
<g opacity="0.3">
<path opacity="0.3" d="M199.87 193.459C199.873 195.963 199.381 198.443 198.423 200.757C197.465 203.071 196.059 205.172 194.286 206.941C188.209 204.432 183.177 199.913 180.033 194.14C176.888 188.367 175.82 181.689 177.008 175.223C177.035 175.064 177.065 174.905 177.099 174.75C179.863 174.205 182.714 174.278 185.447 174.966C188.179 175.653 190.726 176.937 192.903 178.726C195.08 180.515 196.834 182.764 198.039 185.311C199.243 187.858 199.868 190.641 199.87 193.459Z" fill="#FF8F8F"/>
</g>
<g opacity="0.3">
<path opacity="0.3" d="M233.781 184.238C233.723 184.67 233.653 185.098 233.575 185.53C233.132 187.961 232.379 190.325 231.335 192.565C228.611 191.163 226.265 189.127 224.495 186.627C222.725 184.127 221.584 181.237 221.167 178.202C220.751 175.168 221.072 172.078 222.103 169.193C223.134 166.309 224.845 163.715 227.09 161.632C228.409 163.169 229.563 164.839 230.535 166.616C233.475 171.991 234.613 178.168 233.781 184.238Z" fill="#FF8F8F"/>
</g>
<path d="M204.077 157.928C203.857 159.214 203.5 160.473 203.01 161.683C198.803 172.237 185.307 179.727 176.535 180.334C176.55 172.913 179.431 165.785 184.577 160.438C189.723 155.091 196.736 151.94 204.151 151.642C204.43 153.73 204.405 155.847 204.077 157.928Z" fill="#2D0301"/>
<path d="M230.535 166.616C222.809 168.589 210.811 167.371 203.01 161.683C201.11 160.324 199.47 158.635 198.165 156.696C197.419 155.553 196.79 154.338 196.286 153.069C198.828 152.227 201.475 151.746 204.151 151.642C206.26 151.563 208.371 151.714 210.447 152.094C212.275 152.425 214.068 152.934 215.798 153.612C218.26 154.573 220.576 155.873 222.677 157.476C225.91 159.936 228.587 163.051 230.535 166.616Z" fill="#2D0301"/>
<path d="M186.354 232.74C186.808 224.277 182.6 216.377 175.616 212.637C166.923 207.981 155.313 210.514 148.591 219.156C134.225 249.532 119.86 279.909 105.495 310.286C104.842 311.654 104.438 313.128 104.303 314.638C103.78 320.484 104.818 326.363 107.311 331.677C109.803 336.99 113.661 341.547 118.49 344.882C123.319 348.217 128.947 350.211 134.798 350.66C140.65 351.11 146.516 349.998 151.798 347.439L227.518 292.096L199.871 262.224L163.251 292.096C170.951 272.31 178.653 252.525 186.354 232.74Z" fill="#FF8F8F"/>
<path d="M263.535 362.368C258.373 370.465 248.886 374.996 239.03 374.119C238.896 374.109 238.761 374.092 238.626 374.069C204.811 368.936 174.415 350.596 154.109 323.075C149.281 316.536 145.765 308.874 144.115 298.479C143.083 291.977 143.258 285.469 140.532 275.034C140.532 275.034 138.619 267.702 132.755 261.764C131.976 260.9 130.985 260.253 129.88 259.888C126.692 258.926 123.996 261.197 121.088 262.452C115.059 265.047 108.689 263.012 106.219 262.223C106.219 262.223 98.1183 259.632 92.2881 250.141C91.9113 249.515 91.6903 248.808 91.6437 248.079C91.4142 244.591 94.5554 241.787 98.0171 242.273C104.627 243.197 108.466 241.706 110.804 240.053C115.811 236.507 114.377 232.151 120.616 227.623C125.042 224.411 130.026 224.107 133.335 223.905C135.819 223.753 140.512 223.524 145.724 225.892C147.998 226.942 150.093 228.34 151.936 230.035C155.478 233.18 156.892 236.955 161.17 243.649C163.674 247.566 166.005 251.403 168.164 255.158C168.515 255.765 168.974 256.301 169.521 256.74C179.794 264.942 190.165 273.403 200.632 282.122C208.183 288.415 215.775 294.845 223.409 301.414C229.061 306.276 234.631 311.129 240.12 315.973C248.447 323.308 256.594 330.612 264.561 337.886C265.313 338.573 265.865 339.451 266.157 340.427C267.277 344.152 269.177 353.518 263.535 362.368Z" fill="#FFFDFD"/>
<path d="M240.121 315.973C232.56 324.333 219.263 326.253 208.298 319.924C195.824 312.72 191.091 297.568 197.724 286.076C198.544 284.655 199.519 283.329 200.632 282.122C208.183 288.414 215.775 294.845 223.409 301.414C229.061 306.276 234.631 311.129 240.121 315.973Z" fill="#2D0301"/>
<path d="M148.41 278.872C137.85 285.087 134.417 291.635 133.119 295.963C126.825 316.944 151.854 348.63 198.183 371.522L204.342 350.72L148.41 278.872Z" fill="#FFFDFD"/>
<path d="M227.518 292.095C202.278 310.54 177.038 328.987 151.797 347.438C138.487 353.56 124.442 351.883 116.978 343.771C113.13 339.587 111.809 334.538 111.35 330.947L166.622 289.347L199.872 262.224L227.518 292.095Z" fill="#FF8F8F"/>
<path d="M225.919 227.688C234.047 233.496 243.294 240.555 253.176 248.972C272.877 265.753 276.081 271.726 277.689 275.77C278.582 278.016 284.965 294.779 277.346 308.357C276.688 309.531 275.941 310.654 275.113 311.716C267.733 321.258 244.677 351.689 212.396 394.39L174.407 368.004L238.748 287.428L202.887 255.606L225.919 227.688Z" fill="#FF8F8F"/>
<path d="M94.1092 248.662C97.4832 248.662 100.218 246.74 100.218 244.37C100.218 241.999 97.4832 240.078 94.1092 240.078C90.7352 240.078 88 241.999 88 244.37C88 246.74 90.7352 248.662 94.1092 248.662Z" fill="#2D0301"/>
<path d="M122.068 239.847C123.203 239.847 124.123 238.927 124.123 237.792C124.123 236.658 123.203 235.738 122.068 235.738C120.933 235.738 120.013 236.658 120.013 237.792C120.013 238.927 120.933 239.847 122.068 239.847Z" fill="#2D0301"/>
<path d="M142.747 226.7C145.259 224.113 153.068 227.98 162.371 232.587C170.044 236.388 170.216 237.817 170.22 238.279C170.254 242.059 159.649 248.038 151.381 244.558C143.232 241.129 139.933 229.597 142.747 226.7Z" fill="#2D0301"/>
<path d="M283.661 406.539C279.663 416.283 271.238 426.462 260.539 432.029C259.49 432.576 258.35 433.122 257.118 433.629C253.905 434.984 250.477 435.76 246.993 435.923C242.762 436.095 236.166 436.368 233.123 431.928C231.956 430.224 231.47 428.062 231.564 425.885C231.663 423.291 232.597 420.798 234.226 418.776C238.44 413.8 244.486 417.093 252.186 413.958C263.043 409.535 271.147 394.791 269.308 382.635C268.222 375.455 263.141 365.718 255.219 359.763C252.678 357.853 250.448 356.784 249.679 354.122C247.941 348.103 254.935 338.21 261.039 337.886C273.735 337.212 295.692 377.233 283.661 406.539Z" fill="#FFFDFD"/>
<path d="M257.118 433.628C253.905 434.984 250.477 435.76 246.993 435.923C242.762 436.095 236.166 436.368 233.123 431.928C231.956 430.224 231.47 428.061 231.564 425.885C233.323 423.572 235.748 421.852 238.513 420.957C241.278 420.062 244.251 420.034 247.032 420.876C249.813 421.719 252.27 423.393 254.073 425.672C255.876 427.951 256.939 430.728 257.118 433.628Z" fill="#2D0301"/>
<path d="M158.281 295.553C158.052 295.553 157.828 295.487 157.637 295.362C157.445 295.238 157.294 295.06 157.201 294.851C156.372 293.017 156.21 290.951 156.744 289.011C157.609 286.027 160.18 283.706 163.452 282.955C163.603 282.92 163.759 282.915 163.912 282.941C164.065 282.967 164.211 283.022 164.343 283.105C164.474 283.187 164.588 283.295 164.678 283.421C164.768 283.547 164.832 283.69 164.867 283.841C164.902 283.993 164.906 284.149 164.88 284.302C164.854 284.455 164.799 284.601 164.717 284.733C164.634 284.864 164.527 284.978 164.4 285.068C164.274 285.158 164.131 285.222 163.98 285.257C161.543 285.816 159.639 287.507 159.012 289.668C158.633 291.074 158.756 292.568 159.36 293.893C159.44 294.073 159.474 294.27 159.458 294.466C159.443 294.662 159.378 294.851 159.271 295.016C159.164 295.181 159.017 295.316 158.844 295.41C158.671 295.504 158.477 295.553 158.28 295.553H158.281Z" fill="#2D0301"/>
<path d="M160.661 390.611C160.661 391.932 161.143 393.208 162.017 394.199C162.891 395.189 164.096 395.827 165.407 395.991H165.412C165.574 397.303 166.21 398.51 167.202 399.384C168.194 400.258 169.471 400.739 170.793 400.734C170.904 400.733 171.013 400.754 171.116 400.796C171.218 400.838 171.311 400.9 171.39 400.978C171.468 401.057 171.53 401.15 171.572 401.252C171.614 401.355 171.635 401.464 171.634 401.575C171.632 402.389 171.813 403.194 172.165 403.928C172.517 404.662 173.03 405.308 173.666 405.816C174.302 406.325 175.045 406.683 175.839 406.865C176.633 407.046 177.457 407.046 178.251 406.865V406.869C178.049 407.766 178.078 408.7 178.335 409.583C178.593 410.466 179.07 411.269 179.722 411.917C181.864 414.041 185.367 413.911 187.499 411.778L199.37 399.907L199.374 399.903L202.235 395.928V395.923L212.355 381.854C212.358 381.85 212.36 381.844 212.361 381.839C212.362 381.834 212.361 381.828 212.359 381.823C210.819 377.449 208.318 373.477 205.039 370.198C201.76 366.919 197.787 364.417 193.413 362.878C193.408 362.876 193.403 362.875 193.398 362.876C193.393 362.877 193.388 362.878 193.384 362.881L179.066 371.783H179.062L174.249 374.776L174.243 374.781L162.248 386.776C161.744 387.279 161.344 387.877 161.071 388.535C160.799 389.193 160.66 389.899 160.661 390.611Z" fill="#FFCDCF"/>
<path d="M247.442 263.997C247.443 262.681 246.963 261.41 246.092 260.424C245.222 259.437 244.021 258.803 242.715 258.639H242.711C242.55 257.332 241.915 256.13 240.928 255.26C239.94 254.39 238.668 253.911 237.352 253.915C237.241 253.916 237.132 253.895 237.03 253.854C236.928 253.812 236.835 253.75 236.757 253.672C236.679 253.594 236.618 253.502 236.576 253.4C236.534 253.298 236.514 253.188 236.515 253.078C236.517 252.267 236.336 251.466 235.985 250.735C235.635 250.003 235.124 249.36 234.49 248.854C233.857 248.348 233.117 247.991 232.327 247.81C231.536 247.629 230.715 247.629 229.924 247.81V247.805C230.125 246.912 230.096 245.982 229.84 245.103C229.584 244.224 229.109 243.424 228.459 242.778C226.327 240.664 222.837 240.793 220.714 242.917L208.891 254.74L208.887 254.744L206.038 258.703V258.708C202.678 263.378 199.318 268.048 195.959 272.719C195.955 272.723 195.953 272.728 195.953 272.734C195.952 272.739 195.952 272.744 195.954 272.749C197.488 277.106 199.979 281.062 203.245 284.328C206.511 287.593 210.467 290.085 214.824 291.618C214.828 291.62 214.833 291.621 214.838 291.62C214.844 291.619 214.848 291.618 214.853 291.615L229.112 282.749H229.117L233.91 279.768L233.916 279.763L245.862 267.817C246.365 267.316 246.763 266.721 247.034 266.065C247.305 265.409 247.444 264.706 247.442 263.997Z" fill="#FFCDCF"/>
</g>
<defs>
<clipPath id="clip0_104_11">
<rect width="375" height="812" fill="white"/>
</clipPath>
</defs>
</svg>
