<svg width="375" height="812" viewBox="0 0 375 812" fill="none" xmlns="http://www.w3.org/2000/svg">
<g clip-path="url(#clip0_2_11)">
<rect width="375" height="812" fill="white"/>
<rect x="24" y="168" width="327" height="300" rx="15" fill="#A4B8FF" fill-opacity="0.5"/>
<path d="M64.64 132.32H56.72V123.662H58.952V126.29H62.408V123.662H64.64V132.32ZM58.952 130.412H62.408V128.198H58.952V130.412ZM69.356 127.388H71.552V129.368H69.356V134.768H67.088V122.852H69.356V127.388ZM61.22 137.468H69.752V139.412H58.934V133.94H61.22V137.468ZM74.7623 133.706H76.2563C77.0843 133.706 77.9423 133.682 78.8303 133.634C79.7183 133.574 80.5823 133.49 81.4223 133.382L81.6743 135.29C80.8223 135.422 79.8923 135.512 78.8843 135.56C77.8763 135.608 76.8203 135.632 75.7163 135.632H72.5123V128.828H77.2643V126.074H72.5123V124.148H79.5143V130.682H74.7623V133.706ZM80.6303 126.272H83.4203V122.852H85.6883V139.592H83.4203V132.212H80.6303V130.268H83.4203V128.216H80.6303V126.272ZM92.5707 137.468H101.211V139.412H90.2847V133.886H92.5707V137.468ZM87.2607 131.69C88.5327 131.138 89.5467 130.67 90.3027 130.286C91.0707 129.89 91.6587 129.518 92.0667 129.17C92.4747 128.822 92.7387 128.468 92.8587 128.108C92.9907 127.748 93.0567 127.322 93.0567 126.83V125.822H87.9807V123.878H95.3247V127.064C95.3247 127.772 95.2347 128.39 95.0547 128.918C94.8747 129.434 94.5267 129.926 94.0107 130.394C93.4947 130.862 92.7687 131.342 91.8327 131.834C90.9087 132.326 89.6967 132.896 88.1967 133.544L87.2607 131.69ZM98.6907 125.246V122.852H100.941V134.768H98.6907V130.97H95.8827V129.044H98.6907V127.172H96.1707V125.246H98.6907ZM107.697 135.65C106.929 135.65 106.269 135.53 105.717 135.29C105.177 135.05 104.733 134.714 104.385 134.282C104.037 133.85 103.779 133.34 103.611 132.752C103.455 132.164 103.377 131.516 103.377 130.808V128.81C103.377 128.114 103.455 127.472 103.611 126.884C103.779 126.284 104.037 125.768 104.385 125.336C104.733 124.904 105.177 124.568 105.717 124.328C106.269 124.088 106.929 123.968 107.697 123.968C108.465 123.968 109.119 124.088 109.659 124.328C110.211 124.568 110.661 124.904 111.009 125.336C111.357 125.768 111.609 126.284 111.765 126.884C111.933 127.472 112.017 128.114 112.017 128.81V130.808C112.017 131.516 111.933 132.164 111.765 132.752C111.609 133.34 111.357 133.85 111.009 134.282C110.661 134.714 110.211 135.05 109.659 135.29C109.119 135.53 108.465 135.65 107.697 135.65ZM107.697 125.966C106.929 125.966 106.377 126.23 106.041 126.758C105.717 127.286 105.555 128.06 105.555 129.08V130.538C105.555 131.558 105.717 132.332 106.041 132.86C106.377 133.388 106.929 133.652 107.697 133.652C108.465 133.652 109.011 133.388 109.335 132.86C109.671 132.332 109.839 131.558 109.839 130.538V129.08C109.839 128.06 109.671 127.286 109.335 126.758C109.011 126.23 108.465 125.966 107.697 125.966ZM116.625 139.592H114.339V122.852H116.625V139.592ZM136.431 132.266V139.61H125.775V132.266H128.025V134.138H134.181V132.266H136.431ZM136.431 131.51H134.163V122.852H136.431V131.51ZM134.181 137.738V136.01H128.025V137.738H134.181ZM123.525 123.77H132.201V125.696H129.069V126.47C129.069 126.674 129.087 126.86 129.123 127.028C129.159 127.196 129.219 127.358 129.303 127.514C129.399 127.658 129.531 127.808 129.699 127.964C129.867 128.108 130.083 128.27 130.347 128.45C130.695 128.69 131.085 128.948 131.517 129.224C131.961 129.5 132.393 129.758 132.813 129.998L131.661 131.636C131.277 131.396 130.893 131.156 130.509 130.916C130.125 130.676 129.747 130.436 129.375 130.196C128.619 129.704 128.187 129.356 128.079 129.152H128.061C127.977 129.356 127.533 129.752 126.729 130.34C126.357 130.616 125.961 130.898 125.541 131.186C125.121 131.474 124.629 131.798 124.065 132.158L122.823 130.448C123.975 129.728 124.965 129.044 125.793 128.396C126.177 128.084 126.441 127.79 126.585 127.514C126.729 127.238 126.801 126.89 126.801 126.47V125.696H123.525V123.77ZM142 135.524C140.728 135.524 139.786 135.116 139.174 134.3C138.574 133.484 138.274 132.314 138.274 130.79V128.846C138.274 127.322 138.574 126.152 139.174 125.336C139.786 124.52 140.728 124.112 142 124.112C143.272 124.112 144.208 124.52 144.808 125.336C145.408 126.152 145.714 127.316 145.726 128.828H147.058V123.194H149.218V138.782H147.058V130.79H145.726C145.726 132.314 145.42 133.484 144.808 134.3C144.208 135.116 143.272 135.524 142 135.524ZM152.602 139.592H150.442V122.852H152.602V139.592ZM142 126.092C141.376 126.092 140.944 126.35 140.704 126.866C140.476 127.37 140.362 128.114 140.362 129.098V130.538C140.362 131.522 140.476 132.272 140.704 132.788C140.944 133.292 141.376 133.544 142 133.544C142.624 133.544 143.05 133.292 143.278 132.788C143.518 132.272 143.638 131.522 143.638 130.538V129.098C143.638 128.114 143.518 127.37 143.278 126.866C143.05 126.35 142.624 126.092 142 126.092ZM164.524 135.56V132.896C163.852 132.812 163.234 132.65 162.67 132.41C162.106 132.17 161.62 131.87 161.212 131.51C160.804 131.15 160.486 130.736 160.258 130.268C160.03 129.8 159.916 129.284 159.916 128.72V127.892C159.916 127.256 160.06 126.68 160.348 126.164C160.636 125.636 161.038 125.186 161.554 124.814C162.07 124.442 162.676 124.154 163.372 123.95C164.08 123.746 164.842 123.644 165.658 123.644C166.474 123.644 167.23 123.746 167.926 123.95C168.634 124.154 169.24 124.442 169.744 124.814C170.26 125.186 170.662 125.636 170.95 126.164C171.25 126.68 171.4 127.256 171.4 127.892V128.72C171.4 129.284 171.286 129.8 171.058 130.268C170.83 130.736 170.512 131.15 170.104 131.51C169.696 131.87 169.21 132.17 168.646 132.41C168.082 132.65 167.464 132.812 166.792 132.896V135.56H173.326V137.486H157.99V135.56H164.524ZM165.658 125.606C165.178 125.606 164.722 125.666 164.29 125.786C163.87 125.894 163.498 126.056 163.174 126.272C162.862 126.476 162.61 126.728 162.418 127.028C162.238 127.328 162.148 127.658 162.148 128.018V128.594C162.148 128.954 162.238 129.284 162.418 129.584C162.61 129.884 162.862 130.142 163.174 130.358C163.498 130.562 163.87 130.724 164.29 130.844C164.722 130.952 165.178 131.006 165.658 131.006C166.138 131.006 166.588 130.952 167.008 130.844C167.44 130.724 167.812 130.562 168.124 130.358C168.448 130.142 168.7 129.884 168.88 129.584C169.072 129.284 169.168 128.954 169.168 128.594V128.018C169.168 127.658 169.072 127.328 168.88 127.028C168.7 126.728 168.448 126.476 168.124 126.272C167.812 126.056 167.44 125.894 167.008 125.786C166.588 125.666 166.138 125.606 165.658 125.606ZM187.57 139.592H185.284V122.852H187.57V139.592ZM174.214 134.354C175.114 133.814 175.882 133.334 176.518 132.914C177.154 132.494 177.682 132.11 178.102 131.762C178.534 131.402 178.87 131.066 179.11 130.754C179.362 130.43 179.548 130.106 179.668 129.782C179.8 129.458 179.884 129.116 179.92 128.756C179.956 128.396 179.974 127.994 179.974 127.55V126.308H174.52V124.346H182.26V127.658C182.26 128.258 182.23 128.804 182.17 129.296C182.11 129.788 181.99 130.25 181.81 130.682C181.642 131.102 181.396 131.51 181.072 131.906C180.76 132.302 180.352 132.716 179.848 133.148C179.344 133.568 178.726 134.024 177.994 134.516C177.274 134.996 176.416 135.542 175.42 136.154L174.214 134.354ZM205.091 129.044H202.409V127.1H205.091V122.852H207.359V134.768H205.091V129.044ZM198.989 137.468H207.629V139.412H196.703V133.796H198.989V137.468ZM194.255 123.896H202.895V125.84H199.781V127.244C199.781 127.46 199.793 127.664 199.817 127.856C199.853 128.036 199.913 128.21 199.997 128.378C200.093 128.534 200.213 128.696 200.357 128.864C200.513 129.032 200.711 129.206 200.951 129.386C201.335 129.674 201.743 129.968 202.175 130.268C202.607 130.568 203.051 130.862 203.507 131.15L202.283 132.77C201.899 132.518 201.515 132.26 201.131 131.996C200.759 131.732 200.405 131.48 200.069 131.24C199.685 130.964 199.379 130.73 199.151 130.538C198.935 130.334 198.809 130.184 198.773 130.088H198.755C198.719 130.196 198.581 130.37 198.341 130.61C198.101 130.838 197.771 131.114 197.351 131.438C196.967 131.75 196.571 132.062 196.163 132.374C195.767 132.674 195.341 132.98 194.885 133.292L193.553 131.618C194.129 131.234 194.669 130.844 195.173 130.448C195.689 130.052 196.139 129.686 196.523 129.35C196.835 129.074 197.075 128.768 197.243 128.432C197.423 128.084 197.513 127.688 197.513 127.244V125.84H194.255V123.896ZM215.429 123.5H226.805V125.408H222.251V125.534C222.251 125.882 222.353 126.182 222.557 126.434C222.761 126.674 223.115 126.896 223.619 127.1C224.267 127.376 224.909 127.634 225.545 127.874C226.193 128.102 226.853 128.33 227.525 128.558L226.769 130.34C226.013 130.076 225.329 129.824 224.717 129.584C224.117 129.344 223.511 129.104 222.899 128.864C222.419 128.672 222.023 128.498 221.711 128.342C221.411 128.174 221.225 128.018 221.153 127.874H221.135C221.063 128.018 220.871 128.174 220.559 128.342C220.259 128.51 219.851 128.696 219.335 128.9C218.759 129.14 218.153 129.38 217.517 129.62C216.893 129.848 216.215 130.1 215.483 130.376L214.709 128.558C215.381 128.33 216.035 128.102 216.671 127.874C217.319 127.634 217.967 127.376 218.615 127.1C219.119 126.896 219.473 126.674 219.677 126.434C219.881 126.182 219.983 125.882 219.983 125.534V125.408H215.429V123.5ZM228.785 131.024V132.95H222.503V135.92H220.235V132.95H213.449V131.024H228.785ZM217.877 137.486H226.967V139.412H215.609V134.48H217.877V137.486ZM243.029 139.592H240.743V122.852H243.029V139.592ZM238.133 135.272H230.051V124.184H232.301V127.946H235.883V124.184H238.133V135.272ZM232.301 133.364H235.883V129.89H232.301V133.364ZM262.206 128.756H264.51V130.736H262.206V139.592H259.92V122.852H262.206V128.756ZM256.338 131.276C256.722 131.696 257.142 132.134 257.598 132.59C258.054 133.034 258.516 133.466 258.984 133.886L257.526 135.416C257.118 135.032 256.722 134.654 256.338 134.282C255.954 133.898 255.594 133.532 255.258 133.184C254.91 132.836 254.616 132.524 254.376 132.248C254.136 131.96 253.986 131.738 253.926 131.582H253.89C253.83 131.75 253.662 131.996 253.386 132.32C253.122 132.632 252.84 132.944 252.54 133.256C252.204 133.604 251.85 133.964 251.478 134.336C251.106 134.696 250.662 135.116 250.146 135.596L248.652 134.048C249.672 133.136 250.572 132.254 251.352 131.402C251.616 131.114 251.832 130.838 252 130.574C252.18 130.31 252.324 130.04 252.432 129.764C252.54 129.488 252.618 129.2 252.666 128.9C252.714 128.6 252.738 128.264 252.738 127.892V124.04H255.06V127.892C255.06 128.252 255.072 128.576 255.096 128.864C255.132 129.152 255.198 129.428 255.294 129.692C255.39 129.944 255.516 130.202 255.672 130.466C255.84 130.718 256.062 130.988 256.338 131.276ZM277.692 127.19H279.888V129.17H277.692V133.4H275.424V122.852H277.692V127.19ZM270.546 124.472H274.164V126.38H264.588V124.472H268.278V122.672H270.546V124.472ZM269.412 133.184C268.776 133.184 268.212 133.112 267.72 132.968C267.228 132.812 266.814 132.608 266.478 132.356C266.142 132.092 265.884 131.792 265.704 131.456C265.524 131.108 265.434 130.736 265.434 130.34V129.764C265.434 129.368 265.524 129.002 265.704 128.666C265.884 128.318 266.142 128.018 266.478 127.766C266.814 127.502 267.228 127.298 267.72 127.154C268.212 126.998 268.776 126.92 269.412 126.92C270.036 126.92 270.594 126.998 271.086 127.154C271.59 127.298 272.01 127.502 272.346 127.766C272.682 128.018 272.94 128.318 273.12 128.666C273.3 129.002 273.39 129.368 273.39 129.764V130.34C273.39 130.736 273.3 131.108 273.12 131.456C272.94 131.792 272.682 132.092 272.346 132.356C272.01 132.608 271.59 132.812 271.086 132.968C270.594 133.112 270.036 133.184 269.412 133.184ZM269.412 128.702C268.8 128.702 268.338 128.828 268.026 129.08C267.726 129.332 267.576 129.596 267.576 129.872V130.232C267.576 130.508 267.726 130.772 268.026 131.024C268.338 131.276 268.8 131.402 269.412 131.402C270.024 131.402 270.48 131.276 270.78 131.024C271.092 130.772 271.248 130.508 271.248 130.232V129.872C271.248 129.596 271.092 129.332 270.78 129.08C270.48 128.828 270.024 128.702 269.412 128.702ZM272.598 140.114C271.83 140.114 271.128 140.042 270.492 139.898C269.868 139.766 269.328 139.574 268.872 139.322C268.428 139.07 268.08 138.764 267.828 138.404C267.576 138.056 267.45 137.66 267.45 137.216V136.568C267.45 136.124 267.576 135.728 267.828 135.38C268.08 135.02 268.428 134.714 268.872 134.462C269.328 134.21 269.868 134.018 270.492 133.886C271.128 133.742 271.83 133.67 272.598 133.67C273.366 133.67 274.062 133.742 274.686 133.886C275.322 134.018 275.862 134.21 276.306 134.462C276.762 134.714 277.116 135.02 277.368 135.38C277.62 135.728 277.746 136.124 277.746 136.568V137.216C277.746 137.66 277.62 138.056 277.368 138.404C277.116 138.764 276.762 139.07 276.306 139.322C275.862 139.574 275.322 139.766 274.686 139.898C274.062 140.042 273.366 140.114 272.598 140.114ZM272.598 135.524C272.166 135.524 271.77 135.56 271.41 135.632C271.062 135.692 270.756 135.776 270.492 135.884C270.228 135.992 270.024 136.124 269.88 136.28C269.736 136.424 269.664 136.58 269.664 136.748V137.036C269.664 137.204 269.736 137.36 269.88 137.504C270.024 137.66 270.228 137.792 270.492 137.9C270.756 138.008 271.062 138.092 271.41 138.152C271.77 138.224 272.166 138.26 272.598 138.26C273.03 138.26 273.42 138.224 273.768 138.152C274.128 138.092 274.44 138.008 274.704 137.9C274.968 137.792 275.172 137.66 275.316 137.504C275.46 137.36 275.532 137.204 275.532 137.036V136.748C275.532 136.58 275.46 136.424 275.316 136.28C275.172 136.124 274.968 135.992 274.704 135.884C274.44 135.776 274.128 135.692 273.768 135.632C273.42 135.56 273.03 135.524 272.598 135.524Z" fill="black"/>
<rect x="32" y="198" width="16" height="16" rx="2" fill="white"/>
<rect x="32" y="226" width="16" height="16" rx="2" fill="white"/>
<rect x="32" y="254" width="16" height="16" rx="2" fill="white"/>
<rect x="32" y="282" width="16" height="16" rx="2" fill="white"/>
<rect x="32" y="310" width="16" height="16" rx="2" fill="white"/>
<rect x="32" y="338" width="16" height="16" rx="2" fill="white"/>
<rect x="32" y="366" width="16" height="16" rx="2" fill="white"/>
<rect x="32" y="394" width="16" height="16" rx="2" fill="white"/>
<rect x="32" y="422" width="16" height="16" rx="2" fill="white"/>
<path d="M56.644 208.53V200.172H57.988V203.168H60.48V200.172H61.824V208.53H56.644ZM67.34 211.96H65.982V204.974H64.512V211.33H63.154V199.318H64.512V203.77H65.982V199.052H67.34V211.96ZM57.988 207.354H60.48V204.344H57.988V207.354ZM68.9129 206.206V199.654H70.2709V201.936H73.5889V199.654H74.9469V206.206H68.9129ZM77.5649 208.264V205.072H75.5489V203.882H77.5649V202.3H75.5489V201.11H77.5649V199.052H78.9229V208.264H77.5649ZM72.2449 210.616H79.1889V211.82H70.8589V207.634H72.2449V210.616ZM70.2709 205.03H73.5889V203.098H70.2709V205.03ZM80.2578 208.46V207.326H81.4758V201.46H80.2718V200.326H86.7118V201.46H85.5918V207.27C85.8158 207.251 86.0398 207.233 86.2638 207.214C86.4878 207.195 86.7118 207.167 86.9358 207.13L87.0478 208.236C86.4598 208.311 85.8485 208.367 85.2138 208.404C84.5885 208.441 83.9305 208.46 83.2398 208.46H80.2578ZM91.5418 211.96H90.1838V204.848H88.8678V211.33H87.5098V199.318H88.8678V203.644H90.1838V199.052H91.5418V211.96ZM82.8198 207.326H84.2478V201.46H82.8198V207.326ZM104.077 209.062V210.238H92.2328V209.062H104.077ZM102.565 206.332H93.8288V200.158H102.411V201.348H95.2148V205.142H102.565V206.332ZM59.92 237.076C59.4253 237.076 58.9867 237.001 58.604 236.852C58.2213 236.693 57.8947 236.488 57.624 236.236C57.3533 235.984 57.148 235.695 57.008 235.368C56.868 235.041 56.798 234.71 56.798 234.374V233.562C56.798 233.226 56.868 232.895 57.008 232.568C57.148 232.241 57.3533 231.952 57.624 231.7C57.8947 231.439 58.2213 231.233 58.604 231.084C58.9867 230.925 59.4253 230.846 59.92 230.846C60.4053 230.846 60.8393 230.925 61.222 231.084C61.614 231.233 61.9453 231.439 62.216 231.7C62.4867 231.952 62.692 232.241 62.832 232.568C62.972 232.895 63.042 233.226 63.042 233.562V234.374C63.042 234.71 62.972 235.041 62.832 235.368C62.692 235.695 62.4867 235.984 62.216 236.236C61.9453 236.488 61.614 236.693 61.222 236.852C60.8393 237.001 60.4053 237.076 59.92 237.076ZM68.194 233.38H66.206V239.96H64.82V227.052H66.206V232.176H68.194V233.38ZM59.92 232.008C59.36 232.008 58.9167 232.167 58.59 232.484C58.2633 232.792 58.1 233.203 58.1 233.716V234.22C58.1 234.733 58.2633 235.144 58.59 235.452C58.9167 235.76 59.36 235.914 59.92 235.914C60.48 235.914 60.9233 235.76 61.25 235.452C61.5767 235.144 61.74 234.733 61.74 234.22V233.716C61.74 233.203 61.5767 232.792 61.25 232.484C60.9233 232.167 60.48 232.008 59.92 232.008ZM59.234 228.956V227.136H60.62V228.956H63.616V230.132H56.154V228.956H59.234ZM74.0649 227.304C74.7183 227.304 75.3109 227.374 75.8429 227.514C76.3843 227.645 76.8416 227.831 77.2149 228.074C77.5976 228.317 77.8916 228.611 78.0969 228.956C78.3023 229.292 78.4049 229.665 78.4049 230.076V230.58C78.4049 230.991 78.3023 231.369 78.0969 231.714C77.8916 232.05 77.5976 232.339 77.2149 232.582C76.8416 232.825 76.3843 233.016 75.8429 233.156C75.3109 233.287 74.7183 233.352 74.0649 233.352C73.4023 233.352 72.8049 233.287 72.2729 233.156C71.7409 233.016 71.2836 232.825 70.9009 232.582C70.5276 232.339 70.2383 232.05 70.0329 231.714C69.8276 231.369 69.7249 230.991 69.7249 230.58V230.076C69.7249 229.665 69.8276 229.292 70.0329 228.956C70.2383 228.611 70.5276 228.317 70.9009 228.074C71.2836 227.831 71.7409 227.645 72.2729 227.514C72.8049 227.374 73.4023 227.304 74.0649 227.304ZM73.3649 239.96V235.718H68.1429V234.542H79.9869V235.718H74.7649V239.96H73.3649ZM74.0649 232.148C74.5129 232.148 74.9189 232.111 75.2829 232.036C75.6563 231.952 75.9689 231.84 76.2209 231.7C76.4823 231.56 76.6829 231.392 76.8229 231.196C76.9723 231 77.0469 230.785 77.0469 230.552V230.104C77.0469 229.871 76.9723 229.656 76.8229 229.46C76.6829 229.264 76.4823 229.096 76.2209 228.956C75.9689 228.816 75.6563 228.709 75.2829 228.634C74.9189 228.55 74.5129 228.508 74.0649 228.508C73.6169 228.508 73.2063 228.55 72.8329 228.634C72.4689 228.709 72.1563 228.816 71.8949 228.956C71.6429 229.096 71.4423 229.264 71.2929 229.46C71.1529 229.656 71.0829 229.871 71.0829 230.104V230.552C71.0829 230.785 71.1529 231 71.2929 231.196C71.4423 231.392 71.6429 231.56 71.8949 231.7C72.1563 231.84 72.4689 231.952 72.8329 232.036C73.2063 232.111 73.6169 232.148 74.0649 232.148ZM92.0318 237.062V238.238H80.1878V237.062H92.0318ZM86.1098 231.938C86.0352 232.097 85.8578 232.297 85.5778 232.54C85.3072 232.783 84.9338 233.053 84.4578 233.352C84.0472 233.613 83.6132 233.884 83.1558 234.164C82.6985 234.435 82.1758 234.733 81.5878 235.06L80.9018 233.968C81.4618 233.66 81.9752 233.371 82.4418 233.1C82.9085 232.829 83.3752 232.535 83.8418 232.218C84.1592 232.003 84.4205 231.798 84.6258 231.602C84.8312 231.406 84.9898 231.201 85.1018 230.986C85.2232 230.771 85.3025 230.538 85.3398 230.286C85.3865 230.025 85.4098 229.721 85.4098 229.376V227.962H86.8098V229.376C86.8098 229.721 86.8285 230.025 86.8658 230.286C86.9032 230.538 86.9825 230.776 87.1038 231C87.2252 231.215 87.3978 231.425 87.6218 231.63C87.8458 231.835 88.1492 232.064 88.5318 232.316C88.9705 232.605 89.4092 232.876 89.8478 233.128C90.2865 233.38 90.7812 233.655 91.3318 233.954L90.6598 235.032C90.1372 234.733 89.6285 234.444 89.1338 234.164C88.6392 233.875 88.1818 233.595 87.7618 233.324C87.3045 233.035 86.9358 232.773 86.6558 232.54C86.3758 232.297 86.1985 232.097 86.1238 231.938H86.1098ZM98.0008 227.248L93.7168 239.792H92.3868L96.6568 227.248H98.0008ZM112.54 235.102V239.946H104.49V235.102H112.54ZM106.114 231.826C106.067 231.947 105.955 232.115 105.778 232.33C105.601 232.535 105.4 232.731 105.176 232.918C104.877 233.179 104.537 233.459 104.154 233.758C103.781 234.047 103.398 234.327 103.006 234.598L102.194 233.604C102.642 233.287 103.067 232.974 103.468 232.666C103.869 232.358 104.196 232.083 104.448 231.84C104.616 231.672 104.761 231.509 104.882 231.35C105.003 231.191 105.097 231.028 105.162 230.86C105.237 230.692 105.288 230.51 105.316 230.314C105.353 230.118 105.372 229.894 105.372 229.642V229.558H102.558V228.368H105.372V226.898H106.772V228.368H109.418V229.558H106.772V229.586C106.772 229.801 106.781 229.997 106.8 230.174C106.819 230.342 106.851 230.501 106.898 230.65C106.954 230.799 107.029 230.944 107.122 231.084C107.215 231.215 107.341 231.35 107.5 231.49C107.827 231.789 108.177 232.078 108.55 232.358C108.923 232.638 109.32 232.913 109.74 233.184L108.956 234.192C108.592 233.94 108.247 233.693 107.92 233.45C107.593 233.198 107.262 232.932 106.926 232.652C106.711 232.475 106.534 232.321 106.394 232.19C106.263 232.05 106.175 231.929 106.128 231.826H106.114ZM105.862 238.77H111.168V236.278H105.862V238.77ZM111.168 234.472V227.052H112.54V234.472H111.168ZM125.145 239.96H123.787V232.75H122.261V239.33H120.903V227.318H122.261V231.546H123.787V227.052H125.145V239.96ZM119.391 229.488H115.821V235.298H116.535C116.852 235.298 117.151 235.293 117.431 235.284C117.711 235.275 117.986 235.261 118.257 235.242C118.528 235.223 118.808 235.2 119.097 235.172C119.386 235.135 119.694 235.088 120.021 235.032L120.161 236.194C119.797 236.25 119.456 236.301 119.139 236.348C118.822 236.385 118.509 236.418 118.201 236.446C117.893 236.465 117.58 236.479 117.263 236.488C116.955 236.497 116.619 236.502 116.255 236.502H114.421V228.284H119.391V229.488ZM141.278 233.94V235.116H136.056V239.96H134.656V235.116H129.434V233.94H137.848C137.923 233.52 137.983 233.142 138.03 232.806C138.086 232.47 138.123 232.148 138.142 231.84L130.89 231.98L130.862 230.804L138.184 230.706V229.026H130.988V227.808H139.528V229.964C139.528 230.459 139.505 231.051 139.458 231.742C139.411 232.423 139.323 233.156 139.192 233.94H141.278ZM150.845 236.25V232.358H148.367V231.182H150.845V229.992H148.367V228.816H150.845V227.052H152.203V236.25H150.845ZM145.385 232.106C145.348 232.227 145.236 232.395 145.049 232.61C144.862 232.825 144.662 233.03 144.447 233.226C144.158 233.497 143.822 233.795 143.439 234.122C143.056 234.439 142.678 234.747 142.305 235.046L141.479 234.066C141.927 233.721 142.352 233.375 142.753 233.03C143.164 232.685 143.49 232.391 143.733 232.148C143.91 231.971 144.055 231.803 144.167 231.644C144.288 231.476 144.382 231.308 144.447 231.14C144.522 230.963 144.573 230.776 144.601 230.58C144.629 230.384 144.643 230.165 144.643 229.922V227.64H146.043V229.866C146.043 230.081 146.048 230.277 146.057 230.454C146.076 230.622 146.108 230.781 146.155 230.93C146.202 231.079 146.272 231.229 146.365 231.378C146.468 231.518 146.603 231.663 146.771 231.812C147.098 232.111 147.452 232.419 147.835 232.736C148.227 233.044 148.633 233.347 149.053 233.646L148.241 234.612C147.877 234.341 147.527 234.071 147.191 233.8C146.864 233.529 146.533 233.254 146.197 232.974C145.982 232.797 145.805 232.633 145.665 232.484C145.534 232.335 145.446 232.209 145.399 232.106H145.385ZM145.525 238.616H152.511V239.82H144.139V235.536H145.525V238.616ZM66.29 262.416V267.96H58.422V262.416H59.794V263.998H64.918V262.416H66.29ZM56.728 261.352V255.64H58.086V257.488H61.404V255.64H62.762V261.352H56.728ZM68.124 258.972H66.29V261.786H64.918V255.052H66.29V257.768H68.124V258.972ZM64.918 266.784V265.16H59.794V266.784H64.918ZM58.086 260.176H61.404V258.65H58.086V260.176ZM79.9869 265.062V266.238H68.1429V265.062H79.9869ZM78.1669 256.27V258.174C78.1669 258.799 78.1529 259.373 78.1249 259.896C78.1063 260.409 78.0736 260.899 78.0269 261.366C77.9896 261.823 77.9383 262.267 77.8729 262.696C77.8169 263.125 77.7469 263.559 77.6629 263.998L76.2769 263.83C76.4543 262.915 76.5803 262.047 76.6549 261.226C76.7389 260.395 76.7809 259.541 76.7809 258.664V257.474H69.5989V256.27H78.1669ZM81.8958 260.932V257.67H88.8958V256.62H81.8258V255.486H90.2538V258.762H83.2538V259.798H90.5058V260.932H81.8958ZM92.0318 261.898V263.046H80.1878V261.898H92.0318ZM86.7958 263.62V264.194C86.7958 264.343 86.8052 264.479 86.8238 264.6C86.8518 264.721 86.9125 264.843 87.0058 264.964C87.0992 265.085 87.2345 265.211 87.4118 265.342C87.5892 265.463 87.8272 265.603 88.1258 265.762C88.4618 265.939 88.8678 266.126 89.3438 266.322C89.8198 266.527 90.3938 266.761 91.0658 267.022L90.5058 268.128C89.9085 267.904 89.3765 267.689 88.9098 267.484C88.4525 267.279 88.0465 267.092 87.6918 266.924C87.1598 266.672 86.7772 266.462 86.5438 266.294C86.3198 266.135 86.1752 266.005 86.1098 265.902C86.0352 266.014 85.8812 266.149 85.6478 266.308C85.4238 266.467 85.0505 266.677 84.5278 266.938C83.8558 267.265 82.9132 267.671 81.6998 268.156L81.1398 267.036C81.8212 266.765 82.3952 266.532 82.8618 266.336C83.3285 266.14 83.7345 265.949 84.0798 265.762C84.3785 265.603 84.6165 265.459 84.7938 265.328C84.9712 265.197 85.1018 265.076 85.1858 264.964C85.2792 264.843 85.3398 264.721 85.3678 264.6C85.3958 264.479 85.4098 264.343 85.4098 264.194V263.62H86.7958ZM101.193 267.96V255.052H102.565V259.812H104.497V261.016H102.565V267.96H101.193ZM100.479 264.768C99.9001 264.824 99.3541 264.871 98.8408 264.908C98.3274 264.945 97.7674 264.978 97.1608 265.006C96.5634 265.025 95.8728 265.039 95.0888 265.048C94.3141 265.057 93.3761 265.062 92.2748 265.062V263.858C92.7508 263.858 93.1988 263.858 93.6188 263.858C94.0388 263.858 94.4308 263.853 94.7948 263.844V259.98H96.1668V263.816C96.5868 263.807 96.9788 263.797 97.3428 263.788C97.7068 263.769 98.0521 263.751 98.3788 263.732C98.7148 263.704 99.0414 263.676 99.3588 263.648C99.6854 263.62 100.021 263.592 100.367 263.564L100.479 264.768ZM92.9048 256.27H99.4288V258.202C99.4288 258.435 99.4241 258.715 99.4148 259.042C99.4054 259.369 99.3868 259.709 99.3588 260.064C99.3308 260.419 99.2934 260.769 99.2468 261.114C99.2094 261.459 99.1628 261.772 99.1068 262.052L97.7488 261.884C97.8141 261.548 97.8654 261.212 97.9028 260.876C97.9494 260.54 97.9821 260.218 98.0008 259.91C98.0288 259.602 98.0428 259.322 98.0428 259.07C98.0521 258.809 98.0568 258.594 98.0568 258.426V257.474H92.9048V256.27ZM109.472 268.044V264.838H116.556V263.886H109.402V262.752H113V261.534H107.778V260.386H119.622V261.534H114.4V262.752H117.914V265.944H110.83V266.91H118.292V268.044H109.472ZM117.9 259.504H109.5V255.346H117.9V259.504ZM116.542 256.494H110.858V258.356H116.542V256.494ZM131.667 265.062V266.238H119.823V265.062H131.667ZM129.847 256.27V258.174C129.847 258.799 129.833 259.373 129.805 259.896C129.786 260.409 129.753 260.899 129.707 261.366C129.669 261.823 129.618 262.267 129.553 262.696C129.497 263.125 129.427 263.559 129.343 263.998L127.957 263.83C128.134 262.915 128.26 262.047 128.335 261.226C128.419 260.395 128.461 259.541 128.461 258.664V257.474H121.279V256.27H129.847ZM133.576 260.932V257.67H140.576V256.62H133.506V255.486H141.934V258.762H134.934V259.798H142.186V260.932H133.576ZM143.712 261.898V263.046H131.868V261.898H143.712ZM138.476 263.62V264.194C138.476 264.343 138.485 264.479 138.504 264.6C138.532 264.721 138.592 264.843 138.686 264.964C138.779 265.085 138.914 265.211 139.092 265.342C139.269 265.463 139.507 265.603 139.806 265.762C140.142 265.939 140.548 266.126 141.024 266.322C141.5 266.527 142.074 266.761 142.746 267.022L142.186 268.128C141.588 267.904 141.056 267.689 140.59 267.484C140.132 267.279 139.726 267.092 139.372 266.924C138.84 266.672 138.457 266.462 138.224 266.294C138 266.135 137.855 266.005 137.79 265.902C137.715 266.014 137.561 266.149 137.328 266.308C137.104 266.467 136.73 266.677 136.208 266.938C135.536 267.265 134.593 267.671 133.38 268.156L132.82 267.036C133.501 266.765 134.075 266.532 134.542 266.336C135.008 266.14 135.414 265.949 135.76 265.762C136.058 265.603 136.296 265.459 136.474 265.328C136.651 265.197 136.782 265.076 136.866 264.964C136.959 264.843 137.02 264.721 137.048 264.6C137.076 264.479 137.09 264.343 137.09 264.194V263.62H138.476ZM59.738 283.934C60.214 283.934 60.648 284.013 61.04 284.172C61.4413 284.331 61.782 284.569 62.062 284.886C62.3513 285.194 62.5753 285.581 62.734 286.048C62.902 286.515 62.986 287.056 62.986 287.672V289.128C62.986 289.744 62.902 290.285 62.734 290.752C62.5753 291.219 62.3513 291.606 62.062 291.914C61.782 292.222 61.4413 292.455 61.04 292.614C60.648 292.773 60.214 292.852 59.738 292.852C59.262 292.852 58.8233 292.773 58.422 292.614C58.03 292.455 57.6893 292.222 57.4 291.914C57.12 291.606 56.896 291.219 56.728 290.752C56.5693 290.285 56.49 289.744 56.49 289.128V287.672C56.49 287.056 56.5693 286.515 56.728 286.048C56.896 285.581 57.12 285.194 57.4 284.886C57.6893 284.569 58.03 284.331 58.422 284.172C58.8233 284.013 59.262 283.934 59.738 283.934ZM59.738 291.606C59.99 291.606 60.2327 291.559 60.466 291.466C60.6993 291.373 60.9 291.223 61.068 291.018C61.2453 290.803 61.3853 290.528 61.488 290.192C61.6 289.847 61.656 289.427 61.656 288.932V287.868C61.656 287.373 61.6 286.958 61.488 286.622C61.3853 286.277 61.2453 286.001 61.068 285.796C60.9 285.581 60.6993 285.427 60.466 285.334C60.2327 285.241 59.99 285.194 59.738 285.194C59.486 285.194 59.2433 285.241 59.01 285.334C58.7767 285.427 58.5713 285.581 58.394 285.796C58.226 286.001 58.086 286.277 57.974 286.622C57.8713 286.958 57.82 287.373 57.82 287.868V288.932C57.82 289.427 57.8713 289.847 57.974 290.192C58.086 290.528 58.226 290.803 58.394 291.018C58.5713 291.223 58.7767 291.373 59.01 291.466C59.2433 291.559 59.486 291.606 59.738 291.606ZM68.194 288.918H66.206V295.96H64.82V283.052H66.206V287.714H68.194V288.918ZM77.4529 295.96V283.052H78.8389V295.96H77.4529ZM72.0489 283.92C72.5249 283.92 72.9589 283.999 73.3509 284.158C73.7523 284.317 74.0976 284.555 74.3869 284.872C74.6763 285.189 74.9003 285.581 75.0589 286.048C75.2269 286.515 75.3109 287.056 75.3109 287.672V289.128C75.3109 289.744 75.2269 290.285 75.0589 290.752C74.9003 291.219 74.6763 291.611 74.3869 291.928C74.0976 292.236 73.7523 292.469 73.3509 292.628C72.9589 292.787 72.5249 292.866 72.0489 292.866C71.5729 292.866 71.1343 292.787 70.7329 292.628C70.3409 292.469 70.0003 292.236 69.7109 291.928C69.4216 291.611 69.1929 291.219 69.0249 290.752C68.8663 290.285 68.7869 289.744 68.7869 289.128V287.672C68.7869 287.056 68.8663 286.515 69.0249 286.048C69.1929 285.572 69.4216 285.18 69.7109 284.872C70.0003 284.555 70.3409 284.317 70.7329 284.158C71.1343 283.999 71.5729 283.92 72.0489 283.92ZM72.0489 291.62C72.3009 291.62 72.5436 291.573 72.7769 291.48C73.0103 291.387 73.2156 291.233 73.3929 291.018C73.5703 290.803 73.7103 290.528 73.8129 290.192C73.9249 289.847 73.9809 289.427 73.9809 288.932V287.868C73.9809 287.373 73.9249 286.958 73.8129 286.622C73.7103 286.277 73.5656 285.997 73.3789 285.782C73.2016 285.567 72.9963 285.413 72.7629 285.32C72.5389 285.227 72.3009 285.18 72.0489 285.18C71.7969 285.18 71.5543 285.227 71.3209 285.32C71.0876 285.413 70.8823 285.567 70.7049 285.782C70.5276 285.997 70.3829 286.277 70.2709 286.622C70.1683 286.958 70.1169 287.373 70.1169 287.868V288.932C70.1169 289.427 70.1683 289.847 70.2709 290.192C70.3829 290.528 70.5276 290.803 70.7049 291.018C70.8823 291.233 71.0876 291.387 71.3209 291.48C71.5543 291.573 71.7969 291.62 72.0489 291.62ZM92.2838 289.03H90.2958V295.96H88.9098V283.052H90.2958V287.826H92.2838V289.03ZM80.4538 292.012C81.2005 291.573 81.8305 291.186 82.3438 290.85C82.8665 290.505 83.2958 290.192 83.6318 289.912C83.9772 289.632 84.2478 289.371 84.4438 289.128C84.6398 288.876 84.7845 288.624 84.8778 288.372C84.9712 288.12 85.0272 287.863 85.0458 287.602C85.0738 287.331 85.0878 287.028 85.0878 286.692V285.446H80.7058V284.256H86.4598V286.706C86.4598 287.135 86.4458 287.518 86.4178 287.854C86.3992 288.19 86.3338 288.512 86.2218 288.82C86.1192 289.119 85.9558 289.417 85.7318 289.716C85.5172 290.005 85.2138 290.318 84.8218 290.654C84.4298 290.981 83.9352 291.345 83.3378 291.746C82.7498 292.147 82.0312 292.605 81.1818 293.118L80.4538 292.012ZM105.043 295.96V283.052H106.429V295.96H105.043ZM99.6388 283.92C100.115 283.92 100.549 283.999 100.941 284.158C101.342 284.317 101.687 284.555 101.977 284.872C102.266 285.189 102.49 285.581 102.649 286.048C102.817 286.515 102.901 287.056 102.901 287.672V289.128C102.901 289.744 102.817 290.285 102.649 290.752C102.49 291.219 102.266 291.611 101.977 291.928C101.687 292.236 101.342 292.469 100.941 292.628C100.549 292.787 100.115 292.866 99.6388 292.866C99.1628 292.866 98.7241 292.787 98.3228 292.628C97.9308 292.469 97.5901 292.236 97.3008 291.928C97.0114 291.611 96.7828 291.219 96.6148 290.752C96.4561 290.285 96.3768 289.744 96.3768 289.128V287.672C96.3768 287.056 96.4561 286.515 96.6148 286.048C96.7828 285.572 97.0114 285.18 97.3008 284.872C97.5901 284.555 97.9308 284.317 98.3228 284.158C98.7241 283.999 99.1628 283.92 99.6388 283.92ZM99.6388 291.62C99.8908 291.62 100.133 291.573 100.367 291.48C100.6 291.387 100.805 291.233 100.983 291.018C101.16 290.803 101.3 290.528 101.403 290.192C101.515 289.847 101.571 289.427 101.571 288.932V287.868C101.571 287.373 101.515 286.958 101.403 286.622C101.3 286.277 101.155 285.997 100.969 285.782C100.791 285.567 100.586 285.413 100.353 285.32C100.129 285.227 99.8908 285.18 99.6388 285.18C99.3868 285.18 99.1441 285.227 98.9108 285.32C98.6774 285.413 98.4721 285.567 98.2948 285.782C98.1174 285.997 97.9728 286.277 97.8608 286.622C97.7581 286.958 97.7068 287.373 97.7068 287.868V288.932C97.7068 289.427 97.7581 289.847 97.8608 290.192C97.9728 290.528 98.1174 290.803 98.2948 291.018C98.4721 291.233 98.6774 291.387 98.9108 291.48C99.1441 291.573 99.3868 291.62 99.6388 291.62ZM111.936 288.134C111.889 288.255 111.772 288.419 111.586 288.624C111.408 288.829 111.212 289.03 110.998 289.226C110.699 289.497 110.363 289.777 109.99 290.066C109.626 290.346 109.248 290.621 108.856 290.892L108.044 289.898C108.492 289.581 108.916 289.268 109.318 288.96C109.719 288.652 110.041 288.381 110.284 288.148C110.452 287.989 110.592 287.831 110.704 287.672C110.825 287.513 110.918 287.35 110.984 287.182C111.058 287.005 111.11 286.813 111.138 286.608C111.175 286.403 111.194 286.174 111.194 285.922V285.068H108.478V283.878H115.142V285.068H112.594V285.866C112.594 286.314 112.64 286.687 112.734 286.986C112.827 287.275 113.023 287.551 113.322 287.812C113.658 288.111 114.008 288.395 114.372 288.666C114.736 288.937 115.123 289.207 115.534 289.478L114.75 290.486C114.386 290.234 114.045 289.987 113.728 289.744C113.41 289.501 113.084 289.24 112.748 288.96C112.533 288.783 112.356 288.629 112.216 288.498C112.085 288.358 111.996 288.237 111.95 288.134H111.936ZM117.186 292.25V287.532H114.806V286.342H117.186V283.052H118.558V292.25H117.186ZM111.88 294.616H118.824V295.82H110.494V291.508H111.88V294.616ZM122.973 284.018C123.906 284.018 124.611 284.326 125.087 284.942C125.572 285.558 125.815 286.487 125.815 287.728V287.77H127.145V283.318H128.503V295.33H127.145V288.974H125.815V289.1C125.815 290.341 125.572 291.27 125.087 291.886C124.611 292.502 123.906 292.81 122.973 292.81C122.039 292.81 121.33 292.502 120.845 291.886C120.369 291.27 120.131 290.341 120.131 289.1V287.728C120.131 286.487 120.369 285.558 120.845 284.942C121.33 284.326 122.039 284.018 122.973 284.018ZM131.065 295.96H129.707V283.052H131.065V295.96ZM122.973 291.592C123.495 291.592 123.878 291.391 124.121 290.99C124.373 290.579 124.499 289.898 124.499 288.946V287.882C124.499 286.939 124.373 286.267 124.121 285.866C123.869 285.455 123.486 285.25 122.973 285.25C122.45 285.25 122.063 285.455 121.811 285.866C121.568 286.267 121.447 286.939 121.447 287.882V288.946C121.447 289.898 121.568 290.579 121.811 290.99C122.063 291.391 122.45 291.592 122.973 291.592ZM144.776 290.542V287.252H142.06V289.632H136.166V283.766H142.06V286.062H144.776V283.052H146.148V290.542H144.776ZM137.65 291.214H146.148V296.086H144.762V292.404H137.65V291.214ZM137.524 288.456H140.702V284.942H137.524V288.456ZM155.392 290.038C154.898 290.103 154.436 290.155 154.006 290.192C153.577 290.229 153.101 290.262 152.578 290.29C152.056 290.309 151.449 290.323 150.758 290.332C150.068 290.341 149.218 290.346 148.21 290.346V283.892H154.188V285.082H149.568V289.156C150.287 289.156 150.894 289.151 151.388 289.142C151.892 289.133 152.35 289.119 152.76 289.1C153.171 289.081 153.568 289.058 153.95 289.03C154.333 288.993 154.767 288.946 155.252 288.89L155.392 290.038ZM156.82 292.32V287.532H153.418V286.342H156.82V283.052H158.192V292.32H156.82ZM151.514 294.616H158.458V295.82H150.128V291.648H151.514V294.616ZM175.039 288.918H173.051V295.96H171.665V283.052H173.051V287.714H175.039V288.918ZM166.779 289.478C166.714 289.637 166.616 289.795 166.485 289.954C166.364 290.113 166.191 290.313 165.967 290.556C165.678 290.873 165.347 291.219 164.973 291.592C164.6 291.956 164.175 292.357 163.699 292.796L162.789 291.858C163.639 291.102 164.376 290.379 165.001 289.688C165.216 289.445 165.393 289.221 165.533 289.016C165.673 288.811 165.781 288.61 165.855 288.414C165.939 288.209 165.995 288.003 166.023 287.798C166.061 287.583 166.079 287.35 166.079 287.098V283.99H167.479V287.098C167.479 287.378 167.498 287.63 167.535 287.854C167.573 288.069 167.633 288.279 167.717 288.484C167.801 288.68 167.913 288.881 168.053 289.086C168.203 289.282 168.385 289.497 168.599 289.73C168.898 290.057 169.211 290.379 169.537 290.696C169.864 291.004 170.237 291.345 170.657 291.718L169.761 292.67C169.276 292.222 168.865 291.835 168.529 291.508C168.203 291.172 167.904 290.859 167.633 290.57C167.437 290.355 167.26 290.155 167.101 289.968C166.952 289.781 166.849 289.618 166.793 289.478H166.779ZM176.668 290.85V286.86H183.752V285.25H176.612V284.074H185.124V288.036H178.04V289.674H185.432V290.85H183.584V293.062H186.846V294.238H175.002V293.062H178.376V290.85H176.668ZM179.734 293.062H182.226V290.85H179.734V293.062ZM192.927 290.164C192.927 291.228 193.067 292.283 193.347 293.328C193.627 294.373 194.127 295.391 194.845 296.38H193.557C192.857 295.549 192.339 294.607 192.003 293.552C191.667 292.497 191.499 291.345 191.499 290.094V289.534C191.499 288.283 191.667 287.135 192.003 286.09C192.339 285.045 192.857 284.107 193.557 283.276H194.845C194.155 284.209 193.66 285.194 193.361 286.23C193.072 287.257 192.927 288.335 192.927 289.464V290.164ZM205.456 290.304V295.96H197.588V290.304H198.96V291.942H204.084V290.304H205.456ZM200.164 284.984H196.048V283.808H201.522V285.516C201.522 286.067 201.438 286.543 201.27 286.944C201.111 287.336 200.822 287.7 200.402 288.036C199.982 288.372 199.413 288.703 198.694 289.03C197.985 289.357 197.084 289.725 195.992 290.136L195.516 289.016C196.505 288.643 197.303 288.316 197.91 288.036C198.517 287.747 198.988 287.471 199.324 287.21C199.66 286.949 199.884 286.683 199.996 286.412C200.108 286.132 200.164 285.81 200.164 285.446V284.984ZM207.29 287.042H205.456V289.674H204.084V283.052H205.456V285.838H207.29V287.042ZM204.084 294.784V293.104H198.96V294.784H204.084ZM211.173 289.576C211.108 289.735 211.01 289.898 210.879 290.066C210.748 290.234 210.571 290.439 210.347 290.682C210.058 290.999 209.736 291.34 209.381 291.704C209.026 292.059 208.611 292.455 208.135 292.894L207.225 291.956C207.645 291.573 208.028 291.209 208.373 290.864C208.728 290.519 209.064 290.169 209.381 289.814C209.614 289.562 209.801 289.333 209.941 289.128C210.081 288.923 210.188 288.722 210.263 288.526C210.338 288.33 210.389 288.129 210.417 287.924C210.445 287.719 210.459 287.485 210.459 287.224V285.432H207.687V284.228H214.561V285.432H211.859V287.224C211.859 287.504 211.873 287.747 211.901 287.952C211.929 288.157 211.98 288.353 212.055 288.54C212.139 288.727 212.256 288.923 212.405 289.128C212.554 289.324 212.755 289.557 213.007 289.828C213.306 290.155 213.609 290.467 213.917 290.766C214.234 291.065 214.603 291.396 215.023 291.76L214.113 292.698C213.637 292.259 213.24 291.886 212.923 291.578C212.606 291.261 212.312 290.957 212.041 290.668C211.845 290.453 211.668 290.253 211.509 290.066C211.35 289.879 211.243 289.716 211.187 289.576H211.173ZM219.391 289.03H217.403V295.96H216.017V283.052H217.403V287.826H219.391V289.03ZM219.9 292.04C220.647 291.601 221.277 291.214 221.79 290.878C222.313 290.533 222.747 290.22 223.092 289.94C223.437 289.651 223.708 289.385 223.904 289.142C224.1 288.89 224.245 288.643 224.338 288.4C224.441 288.148 224.501 287.887 224.52 287.616C224.548 287.345 224.562 287.042 224.562 286.706V285.432H220.152V284.242H225.934V286.72C225.934 287.14 225.92 287.523 225.892 287.868C225.873 288.204 225.808 288.526 225.696 288.834C225.584 289.133 225.416 289.431 225.192 289.73C224.977 290.019 224.669 290.332 224.268 290.668C223.876 291.004 223.381 291.373 222.784 291.774C222.196 292.175 221.477 292.633 220.628 293.146L219.9 292.04ZM228.664 295.96V283.052H230.05V295.96H228.664ZM235.571 292.558V284.116H236.929V287.14H240.275V284.116H241.633V292.558H235.571ZM246.995 288.904H245.007V295.96H243.621V283.052H245.007V287.7H246.995V288.904ZM236.929 291.368H240.275V288.33H236.929V291.368ZM255.82 289.996C255.25 290.052 254.667 290.103 254.07 290.15C253.482 290.187 252.856 290.22 252.194 290.248V295.568H250.794V290.304C250.252 290.323 249.688 290.332 249.1 290.332C248.512 290.332 247.886 290.332 247.224 290.332V289.128C247.588 289.128 247.938 289.133 248.274 289.142C248.619 289.142 248.955 289.137 249.282 289.128C249.356 288.82 249.422 288.512 249.478 288.204C249.534 287.896 249.58 287.602 249.618 287.322C249.655 287.033 249.683 286.767 249.702 286.524C249.72 286.281 249.73 286.071 249.73 285.894V285.068H247.798V283.878H251.06V285.656C251.06 286.804 250.924 287.957 250.654 289.114C251.12 289.095 251.559 289.081 251.97 289.072C252.39 289.063 252.796 289.049 253.188 289.03C253.318 288.451 253.407 287.901 253.454 287.378C253.5 286.855 253.524 286.421 253.524 286.076V285.068H251.62V283.878H254.826V285.838C254.826 286.351 254.802 286.874 254.756 287.406C254.709 287.938 254.644 288.447 254.56 288.932C254.746 288.913 254.933 288.899 255.12 288.89C255.316 288.871 255.507 288.853 255.694 288.834L255.82 289.996ZM256.604 295.96V283.052H257.948V295.96H256.604ZM265.611 290.038H259.787V283.836H265.611V290.038ZM268.411 292.264V288.946H266.367V287.756H268.411V286.174H266.367V284.984H268.411V283.052H269.769V292.264H268.411ZM263.091 294.616H270.035V295.82H261.705V291.536H263.091V294.616ZM261.145 288.862H264.253V285.012H261.145V288.862ZM277.264 296.044V292.53H283.9V291.298H277.194V290.15H285.258V293.65H278.622V294.896H285.622V296.044H277.264ZM278.482 287C278.444 287.121 278.337 287.275 278.16 287.462C277.982 287.649 277.786 287.84 277.572 288.036C277.282 288.307 276.937 288.601 276.536 288.918C276.134 289.226 275.738 289.525 275.346 289.814L274.548 288.834C275.024 288.498 275.467 288.167 275.878 287.84C276.288 287.513 276.615 287.229 276.858 286.986C277.035 286.809 277.18 286.641 277.292 286.482C277.413 286.323 277.506 286.16 277.572 285.992C277.637 285.815 277.679 285.628 277.698 285.432C277.726 285.227 277.74 284.998 277.74 284.746V283.374H279.14V284.69C279.14 284.914 279.144 285.115 279.154 285.292C279.172 285.469 279.205 285.637 279.252 285.796C279.298 285.955 279.368 286.109 279.462 286.258C279.564 286.398 279.7 286.543 279.868 286.692C280.194 286.991 280.54 287.28 280.904 287.56C281.277 287.831 281.674 288.106 282.094 288.386L281.324 289.366C280.941 289.095 280.591 288.843 280.274 288.61C279.956 288.367 279.63 288.106 279.294 287.826C279.079 287.649 278.902 287.495 278.762 287.364C278.631 287.224 278.542 287.103 278.496 287H278.482ZM283.886 289.506V286.622H281.31V285.404H283.886V283.052H285.258V289.506H283.886ZM298.66 288.918H296.672V295.96H295.286V283.052H296.672V287.714H298.66V288.918ZM290.4 289.478C290.335 289.637 290.237 289.795 290.106 289.954C289.985 290.113 289.812 290.313 289.588 290.556C289.299 290.873 288.968 291.219 288.594 291.592C288.221 291.956 287.796 292.357 287.32 292.796L286.41 291.858C287.26 291.102 287.997 290.379 288.622 289.688C288.837 289.445 289.014 289.221 289.154 289.016C289.294 288.811 289.402 288.61 289.476 288.414C289.56 288.209 289.616 288.003 289.644 287.798C289.682 287.583 289.7 287.35 289.7 287.098V283.99H291.1V287.098C291.1 287.378 291.119 287.63 291.156 287.854C291.194 288.069 291.254 288.279 291.338 288.484C291.422 288.68 291.534 288.881 291.674 289.086C291.824 289.282 292.006 289.497 292.22 289.73C292.519 290.057 292.832 290.379 293.158 290.696C293.485 291.004 293.858 291.345 294.278 291.718L293.382 292.67C292.897 292.222 292.486 291.835 292.15 291.508C291.824 291.172 291.525 290.859 291.254 290.57C291.058 290.355 290.881 290.155 290.722 289.968C290.573 289.781 290.47 289.618 290.414 289.478H290.4ZM314.219 289.03H312.231V295.96H310.845V283.052H312.231V287.826H314.219V289.03ZM302.389 292.012C303.136 291.573 303.766 291.186 304.279 290.85C304.802 290.505 305.231 290.192 305.567 289.912C305.913 289.632 306.183 289.371 306.379 289.128C306.575 288.876 306.72 288.624 306.813 288.372C306.907 288.12 306.963 287.863 306.981 287.602C307.009 287.331 307.023 287.028 307.023 286.692V285.446H302.641V284.256H308.395V286.706C308.395 287.135 308.381 287.518 308.353 287.854C308.335 288.19 308.269 288.512 308.157 288.82C308.055 289.119 307.891 289.417 307.667 289.716C307.453 290.005 307.149 290.318 306.757 290.654C306.365 290.981 305.871 291.345 305.273 291.746C304.685 292.147 303.967 292.605 303.117 293.118L302.389 292.012ZM320.09 296.324C319.474 296.324 318.914 296.263 318.41 296.142C317.916 296.03 317.491 295.867 317.136 295.652C316.791 295.447 316.525 295.199 316.338 294.91C316.152 294.63 316.058 294.327 316.058 294V293.524C316.058 293.188 316.152 292.88 316.338 292.6C316.525 292.311 316.791 292.063 317.136 291.858C317.491 291.653 317.916 291.494 318.41 291.382C318.914 291.261 319.474 291.2 320.09 291.2C320.706 291.2 321.262 291.261 321.756 291.382C322.251 291.494 322.671 291.657 323.016 291.872C323.371 292.077 323.642 292.32 323.828 292.6C324.024 292.88 324.122 293.188 324.122 293.524V294C324.122 294.327 324.029 294.63 323.842 294.91C323.656 295.19 323.385 295.433 323.03 295.638C322.685 295.853 322.26 296.021 321.756 296.142C321.262 296.263 320.706 296.324 320.09 296.324ZM320.09 292.334C319.698 292.334 319.339 292.371 319.012 292.446C318.686 292.511 318.406 292.605 318.172 292.726C317.939 292.838 317.757 292.973 317.626 293.132C317.496 293.281 317.43 293.44 317.43 293.608V293.916C317.43 294.084 317.496 294.243 317.626 294.392C317.757 294.551 317.939 294.686 318.172 294.798C318.406 294.919 318.686 295.013 319.012 295.078C319.339 295.153 319.698 295.19 320.09 295.19C320.482 295.19 320.842 295.153 321.168 295.078C321.495 295.013 321.775 294.919 322.008 294.798C322.242 294.686 322.424 294.551 322.554 294.392C322.685 294.243 322.75 294.084 322.75 293.916V293.608C322.75 293.44 322.685 293.281 322.554 293.132C322.424 292.973 322.242 292.838 322.008 292.726C321.775 292.605 321.495 292.511 321.168 292.446C320.842 292.371 320.482 292.334 320.09 292.334ZM326.012 289.1V290.276H314.168V289.1H326.012ZM317.332 283.5V286.608H324.318V287.784H315.96V283.5H317.332ZM328.355 289.464C328.355 288.335 328.206 287.257 327.907 286.23C327.618 285.194 327.128 284.209 326.437 283.276H327.725C328.425 284.107 328.943 285.045 329.279 286.09C329.615 287.135 329.783 288.283 329.783 289.534V290.094C329.783 291.345 329.615 292.497 329.279 293.552C328.943 294.607 328.425 295.549 327.725 296.38H326.437C327.156 295.391 327.655 294.373 327.935 293.328C328.215 292.283 328.355 291.228 328.355 290.164V289.464ZM62.678 315.056C62.678 315.364 62.6127 315.686 62.482 316.022C62.3607 316.358 62.1647 316.666 61.894 316.946C61.6327 317.217 61.3013 317.441 60.9 317.618C60.4987 317.795 60.0227 317.884 59.472 317.884C58.9213 317.884 58.4453 317.795 58.044 317.618C57.6427 317.441 57.3067 317.217 57.036 316.946C56.7747 316.666 56.5787 316.358 56.448 316.022C56.3267 315.686 56.266 315.364 56.266 315.056V314.342C56.266 314.034 56.3267 313.712 56.448 313.376C56.5787 313.04 56.7747 312.737 57.036 312.466C57.3067 312.186 57.6427 311.957 58.044 311.78C58.4453 311.603 58.9213 311.514 59.472 311.514C60.0227 311.514 60.4987 311.603 60.9 311.78C61.3013 311.957 61.6327 312.186 61.894 312.466C62.1647 312.737 62.3607 313.04 62.482 313.376C62.6127 313.712 62.678 314.034 62.678 314.342V315.056ZM57.988 319.214H66.15V324.086H64.764V320.404H57.988V319.214ZM67.97 313.992H66.15V315.448H67.97V316.638H66.15V318.542H64.792V311.052H66.15V312.802H67.97V313.992ZM61.348 314.412C61.348 314.207 61.3107 314.006 61.236 313.81C61.1613 313.605 61.0447 313.423 60.886 313.264C60.7367 313.096 60.5407 312.965 60.298 312.872C60.0647 312.769 59.7893 312.718 59.472 312.718C59.1453 312.718 58.8653 312.769 58.632 312.872C58.3987 312.965 58.2027 313.096 58.044 313.264C57.8947 313.423 57.7827 313.605 57.708 313.81C57.6333 314.006 57.596 314.207 57.596 314.412V314.986C57.596 315.191 57.6333 315.397 57.708 315.602C57.7827 315.798 57.8947 315.98 58.044 316.148C58.2027 316.307 58.3987 316.437 58.632 316.54C58.8653 316.633 59.1453 316.68 59.472 316.68C59.7893 316.68 60.0647 316.633 60.298 316.54C60.5407 316.437 60.7367 316.307 60.886 316.148C61.0447 315.98 61.1613 315.798 61.236 315.602C61.3107 315.397 61.348 315.191 61.348 314.986V314.412ZM73.0429 313.054H68.9269V311.878H74.4009V314.146C74.4009 314.669 74.3263 315.126 74.1769 315.518C74.0276 315.91 73.7523 316.288 73.3509 316.652C72.9496 317.007 72.3943 317.371 71.6849 317.744C70.9756 318.117 70.0609 318.547 68.9409 319.032L68.3949 317.912C69.3936 317.473 70.1963 317.095 70.8029 316.778C71.4189 316.451 71.8903 316.148 72.2169 315.868C72.5529 315.588 72.7723 315.308 72.8749 315.028C72.9869 314.748 73.0429 314.431 73.0429 314.076V313.054ZM80.1689 315.882H78.3349V320.264H76.9629V311.052H78.3349V314.678H80.1689V315.882ZM71.8389 322.616H78.6849V323.82H70.4529V319.578H71.8389V322.616ZM84.5558 318.136C84.0238 318.136 83.5478 318.057 83.1278 317.898C82.7078 317.739 82.3485 317.529 82.0498 317.268C81.7512 317.007 81.5225 316.708 81.3638 316.372C81.2052 316.036 81.1258 315.686 81.1258 315.322V314.678C81.1258 314.314 81.2052 313.964 81.3638 313.628C81.5225 313.292 81.7512 312.993 82.0498 312.732C82.3485 312.471 82.7078 312.261 83.1278 312.102C83.5478 311.943 84.0238 311.864 84.5558 311.864C85.0878 311.864 85.5638 311.943 85.9838 312.102C86.4038 312.261 86.7632 312.471 87.0618 312.732C87.3605 312.993 87.5892 313.292 87.7478 313.628C87.9065 313.964 87.9858 314.314 87.9858 314.678V315.322C87.9858 315.686 87.9065 316.036 87.7478 316.372C87.5892 316.708 87.3605 317.007 87.0618 317.268C86.7632 317.529 86.4038 317.739 85.9838 317.898C85.5638 318.057 85.0878 318.136 84.5558 318.136ZM84.5558 316.932C84.8452 316.932 85.1158 316.885 85.3678 316.792C85.6292 316.699 85.8532 316.577 86.0398 316.428C86.2358 316.269 86.3852 316.087 86.4878 315.882C86.5998 315.677 86.6558 315.462 86.6558 315.238V314.762C86.6558 314.529 86.5998 314.309 86.4878 314.104C86.3852 313.889 86.2358 313.707 86.0398 313.558C85.8532 313.409 85.6292 313.292 85.3678 313.208C85.1158 313.115 84.8452 313.068 84.5558 313.068C84.2572 313.068 83.9818 313.115 83.7298 313.208C83.4778 313.292 83.2538 313.409 83.0578 313.558C82.8712 313.707 82.7218 313.889 82.6098 314.104C82.5072 314.309 82.4558 314.529 82.4558 314.762V315.238C82.4558 315.462 82.5072 315.677 82.6098 315.882C82.7218 316.087 82.8712 316.269 83.0578 316.428C83.2538 316.577 83.4778 316.699 83.7298 316.792C83.9818 316.885 84.2572 316.932 84.5558 316.932ZM88.9938 320.936C88.4058 320.992 87.8038 321.043 87.1878 321.09C86.5718 321.127 85.9185 321.16 85.2278 321.188C84.5465 321.216 83.8138 321.239 83.0298 321.258C82.2552 321.267 81.4105 321.272 80.4958 321.272V320.068C81.4198 320.068 82.2645 320.063 83.0298 320.054C83.8045 320.045 84.5278 320.031 85.1998 320.012C85.8718 319.984 86.5065 319.951 87.1038 319.914C87.7012 319.877 88.2892 319.83 88.8678 319.774L88.9938 320.936ZM89.6658 323.96V311.052H91.0378V323.96H89.6658ZM100.633 313.054H96.5168V311.878H101.991V314.146C101.991 314.669 101.916 315.126 101.767 315.518C101.617 315.91 101.342 316.288 100.941 316.652C100.539 317.007 99.9841 317.371 99.2748 317.744C98.5654 318.117 97.6508 318.547 96.5308 319.032L95.9848 317.912C96.9834 317.473 97.7861 317.095 98.3928 316.778C99.0088 316.451 99.4801 316.148 99.8068 315.868C100.143 315.588 100.362 315.308 100.465 315.028C100.577 314.748 100.633 314.431 100.633 314.076V313.054ZM107.759 315.882H105.925V320.264H104.553V311.052H105.925V314.678H107.759V315.882ZM99.4288 322.616H106.275V323.82H98.0428V319.578H99.4288V322.616ZM117.06 311.052H118.432V318.556H117.06V311.052ZM109.934 319.228H118.432V324.086H117.046V320.418H109.934V319.228ZM111.81 315.462C111.772 315.583 111.66 315.751 111.474 315.966C111.287 316.181 111.086 316.386 110.872 316.582C110.582 316.853 110.242 317.151 109.85 317.478C109.458 317.805 109.075 318.117 108.702 318.416L107.876 317.436C108.1 317.268 108.319 317.095 108.534 316.918C108.758 316.741 108.968 316.568 109.164 316.4C109.369 316.232 109.556 316.073 109.724 315.924C109.892 315.765 110.036 315.625 110.158 315.504C110.335 315.327 110.48 315.159 110.592 315C110.713 314.832 110.806 314.664 110.872 314.496C110.946 314.319 110.998 314.132 111.026 313.936C111.054 313.74 111.068 313.521 111.068 313.278V311.584H112.468V313.222C112.468 313.437 112.472 313.633 112.482 313.81C112.5 313.978 112.533 314.137 112.58 314.286C112.626 314.435 112.696 314.585 112.79 314.734C112.892 314.874 113.028 315.019 113.196 315.168C113.522 315.467 113.882 315.779 114.274 316.106C114.675 316.423 115.086 316.731 115.506 317.03L114.694 317.996C114.33 317.725 113.975 317.45 113.63 317.17C113.294 316.89 112.958 316.61 112.622 316.33C112.407 316.153 112.23 315.989 112.09 315.84C111.959 315.691 111.87 315.565 111.824 315.462H111.81ZM59.738 339.934C60.214 339.934 60.648 340.013 61.04 340.172C61.4413 340.331 61.782 340.569 62.062 340.886C62.3513 341.194 62.5753 341.581 62.734 342.048C62.902 342.515 62.986 343.056 62.986 343.672V345.128C62.986 345.744 62.902 346.285 62.734 346.752C62.5753 347.219 62.3513 347.606 62.062 347.914C61.782 348.222 61.4413 348.455 61.04 348.614C60.648 348.773 60.214 348.852 59.738 348.852C59.262 348.852 58.8233 348.773 58.422 348.614C58.03 348.455 57.6893 348.222 57.4 347.914C57.12 347.606 56.896 347.219 56.728 346.752C56.5693 346.285 56.49 345.744 56.49 345.128V343.672C56.49 343.056 56.5693 342.515 56.728 342.048C56.896 341.581 57.12 341.194 57.4 340.886C57.6893 340.569 58.03 340.331 58.422 340.172C58.8233 340.013 59.262 339.934 59.738 339.934ZM59.738 347.606C59.99 347.606 60.2327 347.559 60.466 347.466C60.6993 347.373 60.9 347.223 61.068 347.018C61.2453 346.803 61.3853 346.528 61.488 346.192C61.6 345.847 61.656 345.427 61.656 344.932V343.868C61.656 343.373 61.6 342.958 61.488 342.622C61.3853 342.277 61.2453 342.001 61.068 341.796C60.9 341.581 60.6993 341.427 60.466 341.334C60.2327 341.241 59.99 341.194 59.738 341.194C59.486 341.194 59.2433 341.241 59.01 341.334C58.7767 341.427 58.5713 341.581 58.394 341.796C58.226 342.001 58.086 342.277 57.974 342.622C57.8713 342.958 57.82 343.373 57.82 343.868V344.932C57.82 345.427 57.8713 345.847 57.974 346.192C58.086 346.528 58.226 346.803 58.394 347.018C58.5713 347.223 58.7767 347.373 59.01 347.466C59.2433 347.559 59.486 347.606 59.738 347.606ZM68.194 344.918H66.206V351.96H64.82V339.052H66.206V343.714H68.194V344.918ZM77.4529 351.96V339.052H78.8389V351.96H77.4529ZM72.0489 339.92C72.5249 339.92 72.9589 339.999 73.3509 340.158C73.7523 340.317 74.0976 340.555 74.3869 340.872C74.6763 341.189 74.9003 341.581 75.0589 342.048C75.2269 342.515 75.3109 343.056 75.3109 343.672V345.128C75.3109 345.744 75.2269 346.285 75.0589 346.752C74.9003 347.219 74.6763 347.611 74.3869 347.928C74.0976 348.236 73.7523 348.469 73.3509 348.628C72.9589 348.787 72.5249 348.866 72.0489 348.866C71.5729 348.866 71.1343 348.787 70.7329 348.628C70.3409 348.469 70.0003 348.236 69.7109 347.928C69.4216 347.611 69.1929 347.219 69.0249 346.752C68.8663 346.285 68.7869 345.744 68.7869 345.128V343.672C68.7869 343.056 68.8663 342.515 69.0249 342.048C69.1929 341.572 69.4216 341.18 69.7109 340.872C70.0003 340.555 70.3409 340.317 70.7329 340.158C71.1343 339.999 71.5729 339.92 72.0489 339.92ZM72.0489 347.62C72.3009 347.62 72.5436 347.573 72.7769 347.48C73.0103 347.387 73.2156 347.233 73.3929 347.018C73.5703 346.803 73.7103 346.528 73.8129 346.192C73.9249 345.847 73.9809 345.427 73.9809 344.932V343.868C73.9809 343.373 73.9249 342.958 73.8129 342.622C73.7103 342.277 73.5656 341.997 73.3789 341.782C73.2016 341.567 72.9963 341.413 72.7629 341.32C72.5389 341.227 72.3009 341.18 72.0489 341.18C71.7969 341.18 71.5543 341.227 71.3209 341.32C71.0876 341.413 70.8823 341.567 70.7049 341.782C70.5276 341.997 70.3829 342.277 70.2709 342.622C70.1683 342.958 70.1169 343.373 70.1169 343.868V344.932C70.1169 345.427 70.1683 345.847 70.2709 346.192C70.3829 346.528 70.5276 346.803 70.7049 347.018C70.8823 347.233 71.0876 347.387 71.3209 347.48C71.5543 347.573 71.7969 347.62 72.0489 347.62ZM92.2838 345.03H90.2958V351.96H88.9098V339.052H90.2958V343.826H92.2838V345.03ZM80.4538 348.012C81.2005 347.573 81.8305 347.186 82.3438 346.85C82.8665 346.505 83.2958 346.192 83.6318 345.912C83.9772 345.632 84.2478 345.371 84.4438 345.128C84.6398 344.876 84.7845 344.624 84.8778 344.372C84.9712 344.12 85.0272 343.863 85.0458 343.602C85.0738 343.331 85.0878 343.028 85.0878 342.692V341.446H80.7058V340.256H86.4598V342.706C86.4598 343.135 86.4458 343.518 86.4178 343.854C86.3992 344.19 86.3338 344.512 86.2218 344.82C86.1192 345.119 85.9558 345.417 85.7318 345.716C85.5172 346.005 85.2138 346.318 84.8218 346.654C84.4298 346.981 83.9352 347.345 83.3378 347.746C82.7498 348.147 82.0312 348.605 81.1818 349.118L80.4538 348.012ZM105.043 351.96V339.052H106.429V351.96H105.043ZM99.6388 339.92C100.115 339.92 100.549 339.999 100.941 340.158C101.342 340.317 101.687 340.555 101.977 340.872C102.266 341.189 102.49 341.581 102.649 342.048C102.817 342.515 102.901 343.056 102.901 343.672V345.128C102.901 345.744 102.817 346.285 102.649 346.752C102.49 347.219 102.266 347.611 101.977 347.928C101.687 348.236 101.342 348.469 100.941 348.628C100.549 348.787 100.115 348.866 99.6388 348.866C99.1628 348.866 98.7241 348.787 98.3228 348.628C97.9308 348.469 97.5901 348.236 97.3008 347.928C97.0114 347.611 96.7828 347.219 96.6148 346.752C96.4561 346.285 96.3768 345.744 96.3768 345.128V343.672C96.3768 343.056 96.4561 342.515 96.6148 342.048C96.7828 341.572 97.0114 341.18 97.3008 340.872C97.5901 340.555 97.9308 340.317 98.3228 340.158C98.7241 339.999 99.1628 339.92 99.6388 339.92ZM99.6388 347.62C99.8908 347.62 100.133 347.573 100.367 347.48C100.6 347.387 100.805 347.233 100.983 347.018C101.16 346.803 101.3 346.528 101.403 346.192C101.515 345.847 101.571 345.427 101.571 344.932V343.868C101.571 343.373 101.515 342.958 101.403 342.622C101.3 342.277 101.155 341.997 100.969 341.782C100.791 341.567 100.586 341.413 100.353 341.32C100.129 341.227 99.8908 341.18 99.6388 341.18C99.3868 341.18 99.1441 341.227 98.9108 341.32C98.6774 341.413 98.4721 341.567 98.2948 341.782C98.1174 341.997 97.9728 342.277 97.8608 342.622C97.7581 342.958 97.7068 343.373 97.7068 343.868V344.932C97.7068 345.427 97.7581 345.847 97.8608 346.192C97.9728 346.528 98.1174 346.803 98.2948 347.018C98.4721 347.233 98.6774 347.387 98.9108 347.48C99.1441 347.573 99.3868 347.62 99.6388 347.62ZM119.622 345.086V346.262H107.778V345.086H112.286V342.524H113.686V345.086H119.622ZM113.686 349.804C113.648 349.869 113.592 349.935 113.518 350C113.452 350.065 113.359 350.135 113.238 350.21C113.126 350.285 112.976 350.373 112.79 350.476C112.612 350.579 112.393 350.695 112.132 350.826C111.786 351.003 111.38 351.199 110.914 351.414C110.447 351.638 109.906 351.881 109.29 352.142L108.716 351.022C109.397 350.723 109.971 350.467 110.438 350.252C110.904 350.047 111.31 349.851 111.656 349.664C111.945 349.515 112.178 349.379 112.356 349.258C112.533 349.127 112.668 349.006 112.762 348.894C112.864 348.773 112.93 348.656 112.958 348.544C112.986 348.423 113 348.287 113 348.138V347.186H114.386V348.138C114.386 348.287 114.4 348.423 114.428 348.544C114.456 348.665 114.516 348.787 114.61 348.908C114.712 349.02 114.848 349.137 115.016 349.258C115.193 349.379 115.431 349.515 115.73 349.664C116.066 349.841 116.472 350.037 116.948 350.252C117.424 350.467 117.998 350.719 118.67 351.008L118.096 352.114C117.508 351.871 116.976 351.638 116.5 351.414C116.024 351.199 115.608 350.999 115.254 350.812C114.992 350.681 114.768 350.565 114.582 350.462C114.404 350.359 114.255 350.271 114.134 350.196C114.012 350.121 113.919 350.051 113.854 349.986C113.788 349.921 113.742 349.86 113.714 349.804H113.686ZM109.332 339.57H117.858V341.264C117.858 341.413 117.853 341.6 117.844 341.824C117.834 342.048 117.816 342.295 117.788 342.566C117.76 342.827 117.722 343.103 117.676 343.392C117.629 343.681 117.573 343.971 117.508 344.26L116.136 344.106C116.266 343.518 116.35 342.995 116.388 342.538C116.434 342.081 116.458 341.675 116.458 341.32V340.746H109.332V339.57ZM122.973 340.018C123.906 340.018 124.611 340.326 125.087 340.942C125.572 341.558 125.815 342.487 125.815 343.728V343.77H127.145V339.318H128.503V351.33H127.145V344.974H125.815V345.1C125.815 346.341 125.572 347.27 125.087 347.886C124.611 348.502 123.906 348.81 122.973 348.81C122.039 348.81 121.33 348.502 120.845 347.886C120.369 347.27 120.131 346.341 120.131 345.1V343.728C120.131 342.487 120.369 341.558 120.845 340.942C121.33 340.326 122.039 340.018 122.973 340.018ZM131.065 351.96H129.707V339.052H131.065V351.96ZM122.973 347.592C123.495 347.592 123.878 347.391 124.121 346.99C124.373 346.579 124.499 345.898 124.499 344.946V343.882C124.499 342.939 124.373 342.267 124.121 341.866C123.869 341.455 123.486 341.25 122.973 341.25C122.45 341.25 122.063 341.455 121.811 341.866C121.568 342.267 121.447 342.939 121.447 343.882V344.946C121.447 345.898 121.568 346.579 121.811 346.99C122.063 347.391 122.45 347.592 122.973 347.592ZM147.212 349.062V350.238H135.368V349.062H140.59V346.71C140.076 346.654 139.596 346.547 139.148 346.388C138.709 346.22 138.326 346.005 138 345.744C137.673 345.473 137.416 345.156 137.23 344.792C137.043 344.428 136.95 344.027 136.95 343.588V342.916C136.95 342.431 137.062 341.992 137.286 341.6C137.519 341.208 137.832 340.877 138.224 340.606C138.625 340.335 139.087 340.125 139.61 339.976C140.142 339.827 140.702 339.752 141.29 339.752C141.878 339.752 142.433 339.827 142.956 339.976C143.488 340.125 143.95 340.335 144.342 340.606C144.743 340.877 145.056 341.208 145.28 341.6C145.513 341.992 145.63 342.431 145.63 342.916V343.588C145.63 344.027 145.532 344.428 145.336 344.792C145.149 345.156 144.892 345.473 144.566 345.744C144.239 346.005 143.852 346.22 143.404 346.388C142.965 346.547 142.489 346.654 141.976 346.71V349.062H147.212ZM141.29 340.956C140.888 340.956 140.506 341.003 140.142 341.096C139.787 341.189 139.47 341.325 139.19 341.502C138.919 341.679 138.704 341.894 138.546 342.146C138.387 342.398 138.308 342.678 138.308 342.986V343.518C138.308 343.826 138.387 344.106 138.546 344.358C138.704 344.61 138.919 344.825 139.19 345.002C139.47 345.179 139.787 345.315 140.142 345.408C140.506 345.501 140.888 345.548 141.29 345.548C141.691 345.548 142.069 345.501 142.424 345.408C142.788 345.315 143.105 345.179 143.376 345.002C143.656 344.825 143.875 344.61 144.034 344.358C144.192 344.106 144.272 343.826 144.272 343.518V342.986C144.272 342.678 144.192 342.398 144.034 342.146C143.875 341.894 143.656 341.679 143.376 341.502C143.105 341.325 142.788 341.189 142.424 341.096C142.069 341.003 141.691 340.956 141.29 340.956ZM147.958 348.04C148.705 347.601 149.335 347.214 149.848 346.878C150.371 346.533 150.805 346.22 151.15 345.94C151.496 345.651 151.766 345.385 151.962 345.142C152.158 344.89 152.303 344.643 152.396 344.4C152.499 344.148 152.56 343.887 152.578 343.616C152.606 343.345 152.62 343.042 152.62 342.706V341.432H148.21V340.242H153.992V342.72C153.992 343.14 153.978 343.523 153.95 343.868C153.932 344.204 153.866 344.526 153.754 344.834C153.642 345.133 153.474 345.431 153.25 345.73C153.036 346.019 152.728 346.332 152.326 346.668C151.934 347.004 151.44 347.373 150.842 347.774C150.254 348.175 149.536 348.633 148.686 349.146L147.958 348.04ZM156.722 351.96V339.052H158.108V351.96H156.722ZM167.115 344.134C167.069 344.255 166.952 344.419 166.765 344.624C166.588 344.829 166.392 345.03 166.177 345.226C165.879 345.497 165.543 345.777 165.169 346.066C164.805 346.346 164.427 346.621 164.035 346.892L163.223 345.898C163.671 345.581 164.096 345.268 164.497 344.96C164.899 344.652 165.221 344.381 165.463 344.148C165.631 343.989 165.771 343.831 165.883 343.672C166.005 343.513 166.098 343.35 166.163 343.182C166.238 343.005 166.289 342.813 166.317 342.608C166.355 342.403 166.373 342.174 166.373 341.922V341.068H163.657V339.878H170.321V341.068H167.773V341.866C167.773 342.314 167.82 342.687 167.913 342.986C168.007 343.275 168.203 343.551 168.501 343.812C168.837 344.111 169.187 344.395 169.551 344.666C169.915 344.937 170.303 345.207 170.713 345.478L169.929 346.486C169.565 346.234 169.225 345.987 168.907 345.744C168.59 345.501 168.263 345.24 167.927 344.96C167.713 344.783 167.535 344.629 167.395 344.498C167.265 344.358 167.176 344.237 167.129 344.134H167.115ZM172.365 348.25V343.532H169.985V342.342H172.365V339.052H173.737V348.25H172.365ZM167.059 350.616H174.003V351.82H165.673V347.508H167.059V350.616ZM187.462 339.99V341.95C187.462 342.221 187.476 342.459 187.504 342.664C187.532 342.86 187.579 343.042 187.644 343.21C187.71 343.378 187.794 343.537 187.896 343.686C188.008 343.835 188.144 343.994 188.302 344.162C188.489 344.367 188.736 344.605 189.044 344.876C189.352 345.137 189.656 345.38 189.954 345.604L189.128 346.542C188.774 346.253 188.461 345.991 188.19 345.758C187.92 345.515 187.663 345.273 187.42 345.03C187.056 344.675 186.851 344.419 186.804 344.26H186.79C186.762 344.344 186.678 344.465 186.538 344.624C186.398 344.783 186.24 344.946 186.062 345.114C185.838 345.329 185.596 345.553 185.334 345.786C185.082 346.01 184.784 346.257 184.438 346.528H184.41C184.065 346.257 183.762 346.01 183.5 345.786C183.248 345.553 183.01 345.329 182.786 345.114C182.609 344.946 182.45 344.783 182.31 344.624C182.17 344.465 182.086 344.344 182.058 344.26H182.044C181.988 344.419 181.783 344.675 181.428 345.03C181.186 345.273 180.924 345.52 180.644 345.772C180.364 346.024 180.033 346.299 179.65 346.598L178.824 345.66C179.198 345.38 179.529 345.114 179.818 344.862C180.117 344.601 180.36 344.367 180.546 344.162C180.705 343.994 180.836 343.835 180.938 343.686C181.05 343.537 181.139 343.378 181.204 343.21C181.27 343.042 181.316 342.86 181.344 342.664C181.372 342.459 181.386 342.221 181.386 341.95V339.99H182.716V341.95C182.716 342.221 182.726 342.449 182.744 342.636C182.772 342.823 182.814 342.995 182.87 343.154C182.926 343.303 183.006 343.453 183.108 343.602C183.211 343.751 183.346 343.924 183.514 344.12C183.645 344.269 183.785 344.414 183.934 344.554C184.084 344.685 184.247 344.82 184.424 344.96C184.602 344.82 184.765 344.685 184.914 344.554C185.064 344.414 185.204 344.269 185.334 344.12C185.502 343.924 185.638 343.751 185.74 343.602C185.843 343.453 185.922 343.303 185.978 343.154C186.034 342.995 186.072 342.823 186.09 342.636C186.118 342.449 186.132 342.221 186.132 341.95V339.99H187.462ZM190.346 349.062V350.238H178.502V349.062H190.346ZM198.527 346.038C198.033 346.103 197.571 346.155 197.141 346.192C196.712 346.229 196.236 346.262 195.713 346.29C195.191 346.309 194.584 346.323 193.893 346.332C193.203 346.341 192.353 346.346 191.345 346.346V339.892H197.323V341.082H192.703V345.156C193.422 345.156 194.029 345.151 194.523 345.142C195.027 345.133 195.485 345.119 195.895 345.1C196.306 345.081 196.703 345.058 197.085 345.03C197.468 344.993 197.902 344.946 198.387 344.89L198.527 346.038ZM199.955 348.32V343.532H196.553V342.342H199.955V339.052H201.327V348.32H199.955ZM194.649 350.616H201.593V351.82H193.263V347.648H194.649V350.616ZM207.786 352.044V348.838H214.87V347.886H207.716V346.752H211.314V345.534H206.092V344.386H217.936V345.534H212.714V346.752H216.228V349.944H209.144V350.91H216.606V352.044H207.786ZM216.214 343.504H207.814V339.346H216.214V343.504ZM214.856 340.494H209.172V342.356H214.856V340.494ZM229.981 344.974V346.15H224.759V347.578H228.287V351.946H219.831V347.578H223.359V346.15H218.137V344.974H229.981ZM219.481 342.916H221.217V340.69H219.551V339.556H228.567V340.69H226.901V342.916H228.637V344.05H219.481V342.916ZM226.915 348.74H221.203V350.784H226.915V348.74ZM222.575 342.916H225.543V340.69H222.575V342.916ZM236.062 346.164C236.062 347.228 236.202 348.283 236.482 349.328C236.762 350.373 237.261 351.391 237.98 352.38H236.692C235.992 351.549 235.474 350.607 235.138 349.552C234.802 348.497 234.634 347.345 234.634 346.094V345.534C234.634 344.283 234.802 343.135 235.138 342.09C235.474 341.045 235.992 340.107 236.692 339.276H237.98C237.289 340.209 236.795 341.194 236.496 342.23C236.207 343.257 236.062 344.335 236.062 345.464V346.164ZM248.591 346.934V351.946H240.723V346.934H248.591ZM246.183 345.086C245.688 345.151 245.226 345.203 244.797 345.24C244.367 345.277 243.891 345.31 243.369 345.338C242.846 345.357 242.239 345.371 241.549 345.38C240.858 345.389 240.009 345.394 239.001 345.394V339.808H244.979V340.998H240.359V344.204C241.077 344.204 241.684 344.199 242.179 344.19C242.683 344.181 243.14 344.167 243.551 344.148C243.961 344.129 244.358 344.106 244.741 344.078C245.123 344.041 245.557 343.994 246.043 343.938L246.183 345.086ZM242.095 350.77H247.219V348.11H242.095V350.77ZM250.425 343.154H248.591V346.304H247.219V339.052H248.591V341.95H250.425V343.154ZM262.288 349.062V350.238H250.444V349.062H253.398V345.94C252.978 345.669 252.642 345.338 252.39 344.946C252.147 344.545 252.026 344.087 252.026 343.574V342.902C252.026 342.417 252.138 341.983 252.362 341.6C252.595 341.208 252.908 340.877 253.3 340.606C253.701 340.326 254.163 340.116 254.686 339.976C255.218 339.827 255.778 339.752 256.366 339.752C256.954 339.752 257.509 339.827 258.032 339.976C258.564 340.116 259.026 340.326 259.418 340.606C259.819 340.877 260.132 341.208 260.356 341.6C260.589 341.983 260.706 342.417 260.706 342.902V343.574C260.706 344.087 260.58 344.545 260.328 344.946C260.085 345.338 259.754 345.669 259.334 345.94V349.062H262.288ZM256.366 340.956C255.964 340.956 255.582 341.003 255.218 341.096C254.863 341.189 254.546 341.325 254.266 341.502C253.995 341.67 253.78 341.88 253.622 342.132C253.463 342.384 253.384 342.664 253.384 342.972V343.504C253.384 343.812 253.463 344.092 253.622 344.344C253.78 344.596 253.995 344.811 254.266 344.988C254.546 345.156 254.863 345.287 255.218 345.38C255.582 345.473 255.964 345.52 256.366 345.52C256.767 345.52 257.145 345.473 257.5 345.38C257.864 345.287 258.181 345.156 258.452 344.988C258.732 344.811 258.951 344.596 259.11 344.344C259.268 344.092 259.348 343.812 259.348 343.504V342.972C259.348 342.664 259.268 342.384 259.11 342.132C258.951 341.88 258.732 341.67 258.452 341.502C258.181 341.325 257.864 341.189 257.5 341.096C257.145 341.003 256.767 340.956 256.366 340.956ZM256.366 346.71C255.806 346.71 255.274 346.645 254.77 346.514V349.062H257.962V346.514C257.439 346.645 256.907 346.71 256.366 346.71ZM263.791 349.258H265.401L264.323 352.45H263.203L263.791 349.258ZM272.568 349.3C272.568 348.964 272.657 348.647 272.834 348.348C273.011 348.049 273.268 347.788 273.604 347.564C273.94 347.34 274.346 347.163 274.822 347.032C275.307 346.901 275.853 346.836 276.46 346.836C277.067 346.836 277.608 346.901 278.084 347.032C278.569 347.163 278.98 347.34 279.316 347.564C279.652 347.788 279.909 348.049 280.086 348.348C280.263 348.647 280.352 348.964 280.352 349.3V349.86C280.352 350.196 280.263 350.513 280.086 350.812C279.909 351.111 279.652 351.372 279.316 351.596C278.98 351.82 278.569 351.997 278.084 352.128C277.608 352.259 277.067 352.324 276.46 352.324C275.853 352.324 275.307 352.259 274.822 352.128C274.346 351.997 273.94 351.82 273.604 351.596C273.268 351.372 273.011 351.111 272.834 350.812C272.657 350.513 272.568 350.196 272.568 349.86V349.3ZM274.094 343.742C274.047 343.863 273.935 344.031 273.758 344.246C273.581 344.451 273.38 344.647 273.156 344.834C272.857 345.095 272.521 345.371 272.148 345.66C271.784 345.949 271.406 346.229 271.014 346.5L270.202 345.506C270.65 345.189 271.07 344.881 271.462 344.582C271.854 344.274 272.176 343.999 272.428 343.756C272.596 343.588 272.741 343.425 272.862 343.266C272.983 343.107 273.077 342.944 273.142 342.776C273.217 342.599 273.268 342.412 273.296 342.216C273.333 342.011 273.352 341.782 273.352 341.53V341.04H270.636V339.85H277.314V341.04H274.752V341.474C274.752 341.698 274.761 341.899 274.78 342.076C274.799 342.253 274.831 342.417 274.878 342.566C274.934 342.715 275.009 342.86 275.102 343C275.195 343.131 275.321 343.266 275.48 343.406C275.807 343.705 276.152 343.994 276.516 344.274C276.88 344.545 277.272 344.815 277.692 345.086L276.908 346.094C276.544 345.842 276.203 345.595 275.886 345.352C275.569 345.109 275.242 344.848 274.906 344.568C274.691 344.391 274.514 344.237 274.374 344.106C274.243 343.966 274.155 343.845 274.108 343.742H274.094ZM278.994 349.384C278.994 349.216 278.933 349.048 278.812 348.88C278.7 348.703 278.532 348.549 278.308 348.418C278.093 348.287 277.827 348.18 277.51 348.096C277.202 348.012 276.852 347.97 276.46 347.97C276.068 347.97 275.713 348.012 275.396 348.096C275.088 348.18 274.822 348.287 274.598 348.418C274.383 348.549 274.215 348.703 274.094 348.88C273.982 349.048 273.926 349.216 273.926 349.384V349.776C273.926 349.944 273.982 350.112 274.094 350.28C274.215 350.457 274.383 350.611 274.598 350.742C274.822 350.873 275.088 350.98 275.396 351.064C275.713 351.148 276.068 351.19 276.46 351.19C276.852 351.19 277.202 351.148 277.51 351.064C277.827 350.98 278.093 350.873 278.308 350.742C278.532 350.611 278.7 350.457 278.812 350.28C278.933 350.112 278.994 349.944 278.994 349.776V349.384ZM278.924 346.668V339.052H280.296V342.174H282.13V343.378H280.296V346.668H278.924ZM284.221 339.822V344.75C284.799 344.75 285.322 344.745 285.789 344.736C286.255 344.727 286.703 344.713 287.133 344.694C287.571 344.675 288.01 344.647 288.449 344.61C288.887 344.563 289.368 344.507 289.891 344.442L290.031 345.604C289.527 345.669 289.046 345.725 288.589 345.772C288.131 345.819 287.632 345.856 287.091 345.884C286.559 345.912 285.952 345.931 285.271 345.94C284.589 345.949 283.782 345.954 282.849 345.954V339.822H284.221ZM294.175 343.7H292.341V348.25H290.969V339.052H292.341V342.496H294.175V343.7ZM285.845 350.616H292.691V351.82H284.459V347.396H285.845V350.616ZM304.386 346.934V351.946H296.518V346.934H304.386ZM299.094 340.984H294.978V339.808H300.452V341.768C300.452 342.309 300.372 342.776 300.214 343.168C300.055 343.56 299.77 343.933 299.36 344.288C298.949 344.633 298.389 344.988 297.68 345.352C296.97 345.707 296.065 346.117 294.964 346.584L294.446 345.464C295.435 345.053 296.233 344.694 296.84 344.386C297.446 344.069 297.918 343.77 298.254 343.49C298.59 343.21 298.814 342.93 298.926 342.65C299.038 342.361 299.094 342.034 299.094 341.67V340.984ZM297.89 350.77H303.014V348.11H297.89V350.77ZM306.22 343.252H304.386V346.304H303.014V339.052H304.386V342.048H306.22V343.252ZM321.583 345.044V346.22H309.739V345.044H321.583ZM319.763 339.528V340.704H312.861V342.762H319.847V343.938H311.489V339.528H319.763ZM315.661 352.324C315.045 352.324 314.485 352.263 313.981 352.142C313.486 352.03 313.061 351.867 312.707 351.652C312.361 351.447 312.095 351.199 311.909 350.91C311.722 350.63 311.629 350.327 311.629 350V349.524C311.629 349.188 311.722 348.88 311.909 348.6C312.095 348.311 312.361 348.063 312.707 347.858C313.061 347.653 313.486 347.494 313.981 347.382C314.485 347.261 315.045 347.2 315.661 347.2C316.277 347.2 316.832 347.261 317.327 347.382C317.821 347.494 318.241 347.657 318.587 347.872C318.941 348.077 319.212 348.32 319.399 348.6C319.595 348.88 319.693 349.188 319.693 349.524V350C319.693 350.327 319.599 350.63 319.413 350.91C319.226 351.19 318.955 351.433 318.601 351.638C318.255 351.853 317.831 352.021 317.327 352.142C316.832 352.263 316.277 352.324 315.661 352.324ZM315.661 348.334C315.269 348.334 314.909 348.371 314.583 348.446C314.256 348.511 313.976 348.605 313.743 348.726C313.509 348.838 313.327 348.973 313.197 349.132C313.066 349.281 313.001 349.44 313.001 349.608V349.916C313.001 350.084 313.066 350.243 313.197 350.392C313.327 350.551 313.509 350.686 313.743 350.798C313.976 350.919 314.256 351.013 314.583 351.078C314.909 351.153 315.269 351.19 315.661 351.19C316.053 351.19 316.412 351.153 316.739 351.078C317.065 351.013 317.345 350.919 317.579 350.798C317.812 350.686 317.994 350.551 318.125 350.392C318.255 350.243 318.321 350.084 318.321 349.916V349.608C318.321 349.44 318.255 349.281 318.125 349.132C317.994 348.973 317.812 348.838 317.579 348.726C317.345 348.605 317.065 348.511 316.739 348.446C316.412 348.371 316.053 348.334 315.661 348.334ZM323.926 345.464C323.926 344.335 323.776 343.257 323.478 342.23C323.188 341.194 322.698 340.209 322.008 339.276H323.296C323.996 340.107 324.514 341.045 324.85 342.09C325.186 343.135 325.354 344.283 325.354 345.534V346.094C325.354 347.345 325.186 348.497 324.85 349.552C324.514 350.607 323.996 351.549 323.296 352.38H322.008C322.726 351.391 323.226 350.373 323.506 349.328C323.786 348.283 323.926 347.228 323.926 346.164V345.464ZM65.394 379.96V367.052H66.78V379.96H65.394ZM58.408 372.904V375.648H59.724C60.1907 375.648 60.6153 375.643 60.998 375.634C61.3807 375.625 61.7447 375.611 62.09 375.592C62.4447 375.564 62.7853 375.536 63.112 375.508C63.448 375.471 63.798 375.424 64.162 375.368L64.288 376.53C63.9613 376.577 63.63 376.619 63.294 376.656C62.9673 376.693 62.608 376.726 62.216 376.754C61.8333 376.782 61.4087 376.805 60.942 376.824C60.4847 376.833 59.9667 376.838 59.388 376.838H57.036V371.742H61.432V369.264H56.994V368.074H62.804V372.904H58.408ZM79.9869 377.062V378.238H68.1429V377.062H79.9869ZM78.4749 374.332H69.7389V368.158H78.3209V369.348H71.1249V373.142H78.4749V374.332ZM92.0318 372.428V373.576H86.8098V374.78H90.3238V377.958H83.2398V378.91H90.7018V380.044H81.8818V376.852H88.9658V375.914H81.8118V374.78H85.4098V373.576H80.1878V372.428H92.0318ZM86.0958 370.062C86.0585 370.137 85.9792 370.216 85.8578 370.3C85.7365 370.384 85.5918 370.473 85.4238 370.566C85.2558 370.659 85.0832 370.748 84.9058 370.832C84.7285 370.907 84.5652 370.972 84.4158 371.028C83.9398 371.215 83.4778 371.383 83.0298 371.532C82.5912 371.672 82.1338 371.817 81.6578 371.966L81.1818 370.832C81.7418 370.673 82.2318 370.524 82.6518 370.384C83.0812 370.244 83.4825 370.099 83.8558 369.95C84.3132 369.763 84.6865 369.558 84.9758 369.334C85.2652 369.101 85.4098 368.835 85.4098 368.536H81.7278V367.388H90.4918V368.536H86.7958C86.7958 368.835 86.9358 369.091 87.2158 369.306C87.4958 369.521 87.8738 369.731 88.3498 369.936C88.7138 370.095 89.1105 370.244 89.5398 370.384C89.9785 370.524 90.4732 370.673 91.0238 370.832L90.5618 371.966C90.0672 371.807 89.6005 371.658 89.1618 371.518C88.7232 371.369 88.2798 371.205 87.8318 371.028C87.6825 370.972 87.5145 370.902 87.3278 370.818C87.1412 370.734 86.9638 370.65 86.7958 370.566C86.6278 370.473 86.4785 370.384 86.3478 370.3C86.2265 370.216 86.1472 370.137 86.1098 370.062H86.0958ZM98.0008 367.248L93.7168 379.792H92.3868L96.6568 367.248H98.0008ZM113.94 373.03H111.952V379.96H110.566V367.052H111.952V371.826H113.94V373.03ZM102.11 376.012C102.857 375.573 103.487 375.186 104 374.85C104.523 374.505 104.952 374.192 105.288 373.912C105.633 373.632 105.904 373.371 106.1 373.128C106.296 372.876 106.441 372.624 106.534 372.372C106.627 372.12 106.683 371.863 106.702 371.602C106.73 371.331 106.744 371.028 106.744 370.692V369.446H102.362V368.256H108.116V370.706C108.116 371.135 108.102 371.518 108.074 371.854C108.055 372.19 107.99 372.512 107.878 372.82C107.775 373.119 107.612 373.417 107.388 373.716C107.173 374.005 106.87 374.318 106.478 374.654C106.086 374.981 105.591 375.345 104.994 375.746C104.406 376.147 103.687 376.605 102.838 377.118L102.11 376.012ZM125.733 373.016V374.192H113.889V373.016H125.733ZM124.039 379.946H115.583V375.466H124.039V379.946ZM122.667 376.628H116.955V378.784H122.667V376.628ZM124.319 372.33C123.824 372.143 123.334 371.947 122.849 371.742C122.373 371.537 121.958 371.35 121.603 371.182C120.987 370.883 120.548 370.645 120.287 370.468C120.026 370.281 119.872 370.123 119.825 369.992H119.811C119.764 370.132 119.61 370.291 119.349 370.468C119.088 370.645 118.649 370.883 118.033 371.182C117.678 371.35 117.263 371.537 116.787 371.742C116.311 371.947 115.821 372.143 115.317 372.33L114.785 371.196C115.448 370.953 116.036 370.725 116.549 370.51C117.062 370.286 117.487 370.081 117.823 369.894C118.075 369.763 118.28 369.637 118.439 369.516C118.607 369.395 118.742 369.269 118.845 369.138C118.948 368.998 119.018 368.844 119.055 368.676C119.102 368.508 119.125 368.303 119.125 368.06V367.248H120.497V368.06C120.497 368.303 120.516 368.508 120.553 368.676C120.6 368.844 120.67 368.998 120.763 369.138C120.866 369.278 121.001 369.409 121.169 369.53C121.337 369.642 121.547 369.763 121.799 369.894C122.154 370.071 122.588 370.277 123.101 370.51C123.624 370.734 124.207 370.963 124.851 371.196L124.319 372.33ZM137.778 372.428V373.576H132.556V374.78H136.07V377.958H128.986V378.91H136.448V380.044H127.628V376.852H134.712V375.914H127.558V374.78H131.156V373.576H125.934V372.428H137.778ZM131.842 370.062C131.805 370.137 131.725 370.216 131.604 370.3C131.483 370.384 131.338 370.473 131.17 370.566C131.002 370.659 130.829 370.748 130.652 370.832C130.475 370.907 130.311 370.972 130.162 371.028C129.686 371.215 129.224 371.383 128.776 371.532C128.337 371.672 127.88 371.817 127.404 371.966L126.928 370.832C127.488 370.673 127.978 370.524 128.398 370.384C128.827 370.244 129.229 370.099 129.602 369.95C130.059 369.763 130.433 369.558 130.722 369.334C131.011 369.101 131.156 368.835 131.156 368.536H127.474V367.388H136.238V368.536H132.542C132.542 368.835 132.682 369.091 132.962 369.306C133.242 369.521 133.62 369.731 134.096 369.936C134.46 370.095 134.857 370.244 135.286 370.384C135.725 370.524 136.219 370.673 136.77 370.832L136.308 371.966C135.813 371.807 135.347 371.658 134.908 371.518C134.469 371.369 134.026 371.205 133.578 371.028C133.429 370.972 133.261 370.902 133.074 370.818C132.887 370.734 132.71 370.65 132.542 370.566C132.374 370.473 132.225 370.384 132.094 370.3C131.973 370.216 131.893 370.137 131.856 370.062H131.842ZM66.22 400.12H62.72V401.436H67.942V402.612H56.098V401.436H61.32V400.12H57.82V395.5H66.22V400.12ZM57.624 403.844H66.29V408.086H64.904V405.02H57.624V403.844ZM64.848 396.662H59.192V398.958H64.848V396.662ZM74.0649 395.22C74.6903 395.22 75.2549 395.276 75.7589 395.388C76.2723 395.5 76.7109 395.659 77.0749 395.864C77.4389 396.06 77.7189 396.307 77.9149 396.606C78.1109 396.895 78.2089 397.222 78.2089 397.586V398.006C78.2089 398.398 78.0969 398.743 77.8729 399.042C77.6583 399.341 77.3503 399.597 76.9489 399.812V401.562H79.9869V402.738H68.1429V401.562H71.1949V399.812C70.7843 399.607 70.4669 399.355 70.2429 399.056C70.0283 398.748 69.9209 398.398 69.9209 398.006V397.586C69.9209 397.222 70.0189 396.895 70.2149 396.606C70.4109 396.307 70.6909 396.06 71.0549 395.864C71.4189 395.659 71.8529 395.5 72.3569 395.388C72.8703 395.276 73.4396 395.22 74.0649 395.22ZM69.6689 403.858H78.3349V408.086H76.9489V405.034H69.6689V403.858ZM74.0649 399.224C74.4756 399.224 74.8489 399.196 75.1849 399.14C75.5303 399.075 75.8243 398.986 76.0669 398.874C76.3189 398.762 76.5103 398.627 76.6409 398.468C76.7809 398.309 76.8509 398.137 76.8509 397.95V397.642C76.8509 397.455 76.7809 397.283 76.6409 397.124C76.5103 396.965 76.3189 396.83 76.0669 396.718C75.8243 396.606 75.5303 396.522 75.1849 396.466C74.8489 396.401 74.4756 396.368 74.0649 396.368C73.6543 396.368 73.2763 396.401 72.9309 396.466C72.5856 396.522 72.2916 396.606 72.0489 396.718C71.8063 396.83 71.6149 396.965 71.4749 397.124C71.3443 397.283 71.2789 397.455 71.2789 397.642V397.95C71.2789 398.137 71.3443 398.309 71.4749 398.468C71.6149 398.627 71.8063 398.762 72.0489 398.874C72.2916 398.986 72.5856 399.075 72.9309 399.14C73.2763 399.196 73.6543 399.224 74.0649 399.224ZM74.0649 400.372C73.5143 400.372 73.0149 400.33 72.5669 400.246V401.562H75.5769V400.246C75.1103 400.33 74.6063 400.372 74.0649 400.372ZM89.6098 395.22C90.2258 395.22 90.7858 395.276 91.2898 395.388C91.8032 395.491 92.2418 395.645 92.6058 395.85C92.9698 396.046 93.2498 396.289 93.4458 396.578C93.6512 396.867 93.7538 397.194 93.7538 397.558V397.95C93.7538 398.342 93.6418 398.687 93.4178 398.986C93.2032 399.285 92.8952 399.532 92.4938 399.728V401.436H95.5318V402.612H83.6878V401.436H86.7398V399.742C86.3292 399.537 86.0118 399.285 85.7878 398.986C85.5732 398.687 85.4658 398.342 85.4658 397.95V397.558C85.4658 397.194 85.5638 396.867 85.7598 396.578C85.9652 396.289 86.2498 396.046 86.6138 395.85C86.9778 395.645 87.4118 395.491 87.9158 395.388C88.4292 395.276 88.9938 395.22 89.6098 395.22ZM89.6098 408.324C88.9472 408.324 88.3592 408.259 87.8458 408.128C87.3418 407.997 86.9172 407.82 86.5718 407.596C86.2265 407.381 85.9652 407.134 85.7878 406.854C85.6198 406.583 85.5358 406.303 85.5358 406.014V405.538C85.5358 405.258 85.6198 404.978 85.7878 404.698C85.9652 404.418 86.2265 404.171 86.5718 403.956C86.9172 403.741 87.3418 403.569 87.8458 403.438C88.3592 403.298 88.9472 403.228 89.6098 403.228C90.2725 403.228 90.8558 403.298 91.3598 403.438C91.8732 403.569 92.2978 403.741 92.6338 403.956C92.9792 404.171 93.2405 404.418 93.4178 404.698C93.5952 404.978 93.6838 405.258 93.6838 405.538V406.014C93.6838 406.294 93.5952 406.574 93.4178 406.854C93.2405 407.134 92.9792 407.381 92.6338 407.596C92.2978 407.811 91.8732 407.983 91.3598 408.114C90.8558 408.254 90.2725 408.324 89.6098 408.324ZM89.6098 399.14C90.0112 399.14 90.3845 399.112 90.7298 399.056C91.0752 398.991 91.3692 398.907 91.6118 398.804C91.8545 398.692 92.0458 398.561 92.1858 398.412C92.3258 398.253 92.3958 398.081 92.3958 397.894V397.614C92.3958 397.427 92.3258 397.259 92.1858 397.11C92.0458 396.951 91.8545 396.821 91.6118 396.718C91.3692 396.606 91.0752 396.522 90.7298 396.466C90.3845 396.401 90.0112 396.368 89.6098 396.368C89.1992 396.368 88.8212 396.401 88.4758 396.466C88.1398 396.522 87.8505 396.606 87.6078 396.718C87.3652 396.821 87.1738 396.951 87.0338 397.11C86.8938 397.259 86.8238 397.427 86.8238 397.614V397.894C86.8238 398.081 86.8938 398.253 87.0338 398.412C87.1738 398.561 87.3652 398.692 87.6078 398.804C87.8505 398.907 88.1398 398.991 88.4758 399.056C88.8212 399.112 89.1992 399.14 89.6098 399.14ZM89.6098 404.362C89.1898 404.362 88.8118 404.404 88.4758 404.488C88.1398 404.563 87.8552 404.661 87.6218 404.782C87.3978 404.903 87.2205 405.043 87.0898 405.202C86.9685 405.351 86.9078 405.501 86.9078 405.65V405.902C86.9078 406.051 86.9685 406.201 87.0898 406.35C87.2205 406.509 87.3978 406.649 87.6218 406.77C87.8552 406.891 88.1398 406.989 88.4758 407.064C88.8118 407.148 89.1898 407.19 89.6098 407.19C90.0298 407.19 90.4078 407.148 90.7438 407.064C91.0798 406.989 91.3598 406.891 91.5838 406.77C91.8172 406.649 91.9945 406.509 92.1158 406.35C92.2465 406.201 92.3118 406.051 92.3118 405.902V405.65C92.3118 405.501 92.2465 405.351 92.1158 405.202C91.9945 405.043 91.8172 404.903 91.5838 404.782C91.3598 404.661 91.0798 404.563 90.7438 404.488C90.4078 404.404 90.0298 404.362 89.6098 404.362ZM89.6098 400.288C89.3392 400.288 89.0778 400.283 88.8258 400.274C88.5738 400.255 88.3358 400.223 88.1118 400.176V401.436H91.1218V400.162C90.6552 400.246 90.1512 400.288 89.6098 400.288ZM107.577 400.974V402.15H102.355V403.578H105.883V407.946H97.4268V403.578H100.955V402.15H95.7328V400.974H107.577ZM97.0768 398.916H98.8128V396.69H97.1468V395.556H106.163V396.69H104.497V398.916H106.233V400.05H97.0768V398.916ZM104.511 404.74H98.7988V406.784H104.511V404.74ZM100.171 398.916H103.139V396.69H100.171V398.916ZM116.738 407.96V395.052H118.11V399.812H120.042V401.016H118.11V407.96H116.738ZM116.024 404.768C115.445 404.824 114.899 404.871 114.386 404.908C113.872 404.945 113.312 404.978 112.706 405.006C112.108 405.025 111.418 405.039 110.634 405.048C109.859 405.057 108.921 405.062 107.82 405.062V403.858C108.296 403.858 108.744 403.858 109.164 403.858C109.584 403.858 109.976 403.853 110.34 403.844V399.98H111.712V403.816C112.132 403.807 112.524 403.797 112.888 403.788C113.252 403.769 113.597 403.751 113.924 403.732C114.26 403.704 114.586 403.676 114.904 403.648C115.23 403.62 115.566 403.592 115.912 403.564L116.024 404.768ZM108.45 396.27H114.974V398.202C114.974 398.435 114.969 398.715 114.96 399.042C114.95 399.369 114.932 399.709 114.904 400.064C114.876 400.419 114.838 400.769 114.792 401.114C114.754 401.459 114.708 401.772 114.652 402.052L113.294 401.884C113.359 401.548 113.41 401.212 113.448 400.876C113.494 400.54 113.527 400.218 113.546 399.91C113.574 399.602 113.588 399.322 113.588 399.07C113.597 398.809 113.602 398.594 113.602 398.426V397.474H108.45V396.27ZM124.163 401.772V395.71H125.521V397.74H128.839V395.71H130.197V401.772H124.163ZM129.203 402.78H130.575V403.942C130.575 404.138 130.589 404.311 130.617 404.46C130.645 404.6 130.701 404.735 130.785 404.866C130.878 404.987 130.999 405.104 131.149 405.216C131.307 405.328 131.513 405.454 131.765 405.594C132.073 405.762 132.46 405.953 132.927 406.168C133.393 406.383 133.977 406.635 134.677 406.924L134.117 408.03C133.501 407.769 132.964 407.521 132.507 407.288C132.059 407.064 131.676 406.873 131.359 406.714C130.911 406.481 130.575 406.285 130.351 406.126C130.136 405.967 129.987 405.823 129.903 405.692C129.819 405.841 129.669 405.995 129.455 406.154C129.249 406.322 128.904 406.527 128.419 406.77C128.111 406.929 127.733 407.115 127.285 407.33C126.837 407.545 126.305 407.783 125.689 408.044L125.101 406.924C125.791 406.644 126.375 406.397 126.851 406.182C127.327 405.967 127.719 405.771 128.027 405.594C128.269 405.454 128.465 405.323 128.615 405.202C128.773 405.081 128.895 404.959 128.979 404.838C129.063 404.707 129.119 404.572 129.147 404.432C129.184 404.292 129.203 404.129 129.203 403.942V402.78ZM132.647 403.368V395.052H134.019V403.368H132.647ZM125.521 400.596H128.839V398.902H125.521V400.596ZM65.408 435.96V423.052H66.794V435.96H65.408ZM60.004 423.92C60.48 423.92 60.914 423.999 61.306 424.158C61.7073 424.317 62.0527 424.555 62.342 424.872C62.6313 425.189 62.8553 425.581 63.014 426.048C63.182 426.515 63.266 427.056 63.266 427.672V429.128C63.266 429.744 63.182 430.285 63.014 430.752C62.8553 431.219 62.6313 431.611 62.342 431.928C62.0527 432.236 61.7073 432.469 61.306 432.628C60.914 432.787 60.48 432.866 60.004 432.866C59.528 432.866 59.0893 432.787 58.688 432.628C58.296 432.469 57.9553 432.236 57.666 431.928C57.3767 431.611 57.148 431.219 56.98 430.752C56.8213 430.285 56.742 429.744 56.742 429.128V427.672C56.742 427.056 56.8213 426.515 56.98 426.048C57.148 425.572 57.3767 425.18 57.666 424.872C57.9553 424.555 58.296 424.317 58.688 424.158C59.0893 423.999 59.528 423.92 60.004 423.92ZM60.004 431.62C60.256 431.62 60.4987 431.573 60.732 431.48C60.9653 431.387 61.1707 431.233 61.348 431.018C61.5253 430.803 61.6653 430.528 61.768 430.192C61.88 429.847 61.936 429.427 61.936 428.932V427.868C61.936 427.373 61.88 426.958 61.768 426.622C61.6653 426.277 61.5207 425.997 61.334 425.782C61.1567 425.567 60.9513 425.413 60.718 425.32C60.494 425.227 60.256 425.18 60.004 425.18C59.752 425.18 59.5093 425.227 59.276 425.32C59.0427 425.413 58.8373 425.567 58.66 425.782C58.4827 425.997 58.338 426.277 58.226 426.622C58.1233 426.958 58.072 427.373 58.072 427.868V428.932C58.072 429.427 58.1233 429.847 58.226 430.192C58.338 430.528 58.4827 430.803 58.66 431.018C58.8373 431.233 59.0427 431.387 59.276 431.48C59.5093 431.573 59.752 431.62 60.004 431.62ZM78.1669 423.528V424.704H71.2649V426.762H78.2509V427.938H74.7649V429.268H79.9869V430.444H68.1429V429.268H73.3649V427.938H69.8929V423.528H78.1669ZM74.0649 436.324C73.4489 436.324 72.8889 436.263 72.3849 436.142C71.8903 436.03 71.4656 435.867 71.1109 435.652C70.7656 435.447 70.4996 435.199 70.3129 434.91C70.1263 434.63 70.0329 434.327 70.0329 434V433.524C70.0329 433.188 70.1263 432.88 70.3129 432.6C70.4996 432.311 70.7656 432.063 71.1109 431.858C71.4656 431.653 71.8903 431.494 72.3849 431.382C72.8889 431.261 73.4489 431.2 74.0649 431.2C74.6809 431.2 75.2363 431.261 75.7309 431.382C76.2256 431.494 76.6456 431.657 76.9909 431.872C77.3456 432.077 77.6163 432.32 77.8029 432.6C77.9989 432.88 78.0969 433.188 78.0969 433.524V434C78.0969 434.327 78.0036 434.63 77.8169 434.91C77.6303 435.19 77.3596 435.433 77.0049 435.638C76.6596 435.853 76.2349 436.021 75.7309 436.142C75.2363 436.263 74.6809 436.324 74.0649 436.324ZM74.0649 432.334C73.6729 432.334 73.3136 432.371 72.9869 432.446C72.6603 432.511 72.3803 432.605 72.1469 432.726C71.9136 432.838 71.7316 432.973 71.6009 433.132C71.4703 433.281 71.4049 433.44 71.4049 433.608V433.916C71.4049 434.084 71.4703 434.243 71.6009 434.392C71.7316 434.551 71.9136 434.686 72.1469 434.798C72.3803 434.919 72.6603 435.013 72.9869 435.078C73.3136 435.153 73.6729 435.19 74.0649 435.19C74.4569 435.19 74.8163 435.153 75.1429 435.078C75.4696 435.013 75.7496 434.919 75.9829 434.798C76.2163 434.686 76.3983 434.551 76.5289 434.392C76.6596 434.243 76.7249 434.084 76.7249 433.916V433.608C76.7249 433.44 76.6596 433.281 76.5289 433.132C76.3983 432.973 76.2163 432.838 75.9829 432.726C75.7496 432.605 75.4696 432.511 75.1429 432.446C74.8163 432.371 74.4569 432.334 74.0649 432.334ZM92.2838 429.03H90.2958V435.96H88.9098V423.052H90.2958V427.826H92.2838V429.03ZM80.4538 432.012C81.2005 431.573 81.8305 431.186 82.3438 430.85C82.8665 430.505 83.2958 430.192 83.6318 429.912C83.9772 429.632 84.2478 429.371 84.4438 429.128C84.6398 428.876 84.7845 428.624 84.8778 428.372C84.9712 428.12 85.0272 427.863 85.0458 427.602C85.0738 427.331 85.0878 427.028 85.0878 426.692V425.446H80.7058V424.256H86.4598V426.706C86.4598 427.135 86.4458 427.518 86.4178 427.854C86.3992 428.19 86.3338 428.512 86.2218 428.82C86.1192 429.119 85.9558 429.417 85.7318 429.716C85.5172 430.005 85.2138 430.318 84.8218 430.654C84.4298 430.981 83.9352 431.345 83.3378 431.746C82.7498 432.147 82.0312 432.605 81.1818 433.118L80.4538 432.012ZM94.6968 433.342C94.6968 433.006 94.7854 432.689 94.9628 432.39C95.1401 432.091 95.3968 431.835 95.7328 431.62C96.0688 431.405 96.4748 431.237 96.9508 431.116C97.4361 430.985 97.9821 430.92 98.5888 430.92C99.1954 430.92 99.7368 430.985 100.213 431.116C100.698 431.237 101.109 431.405 101.445 431.62C101.781 431.835 102.037 432.091 102.215 432.39C102.392 432.689 102.481 433.006 102.481 433.342V433.902C102.481 434.238 102.392 434.555 102.215 434.854C102.037 435.153 101.781 435.409 101.445 435.624C101.109 435.839 100.698 436.007 100.213 436.128C99.7368 436.259 99.1954 436.324 98.5888 436.324C97.9821 436.324 97.4361 436.259 96.9508 436.128C96.4748 436.007 96.0688 435.839 95.7328 435.624C95.3968 435.409 95.1401 435.153 94.9628 434.854C94.7854 434.555 94.6968 434.238 94.6968 433.902V433.342ZM92.8628 429.856V423.682H94.2208V425.768H97.5388V423.682H98.8968V429.856H92.8628ZM101.123 433.426C101.123 433.258 101.062 433.09 100.941 432.922C100.829 432.754 100.661 432.609 100.437 432.488C100.222 432.357 99.9561 432.255 99.6388 432.18C99.3308 432.096 98.9808 432.054 98.5888 432.054C98.1968 432.054 97.8421 432.096 97.5248 432.18C97.2168 432.255 96.9508 432.357 96.7268 432.488C96.5121 432.609 96.3441 432.754 96.2228 432.922C96.1108 433.09 96.0548 433.258 96.0548 433.426V433.818C96.0548 433.986 96.1108 434.154 96.2228 434.322C96.3441 434.49 96.5121 434.635 96.7268 434.756C96.9508 434.887 97.2168 434.989 97.5248 435.064C97.8421 435.148 98.1968 435.19 98.5888 435.19C98.9808 435.19 99.3308 435.148 99.6388 435.064C99.9561 434.989 100.222 434.887 100.437 434.756C100.661 434.635 100.829 434.49 100.941 434.322C101.062 434.154 101.123 433.986 101.123 433.818V433.426ZM104.259 427.252H102.425V430.752H101.053V423.052H102.425V426.048H104.259V427.252ZM94.2208 428.68H97.5388V426.93H94.2208V428.68ZM110.158 430.164C110.158 431.228 110.298 432.283 110.578 433.328C110.858 434.373 111.357 435.391 112.076 436.38H110.788C110.088 435.549 109.57 434.607 109.234 433.552C108.898 432.497 108.73 431.345 108.73 430.094V429.534C108.73 428.283 108.898 427.135 109.234 426.09C109.57 425.045 110.088 424.107 110.788 423.276H112.076C111.385 424.209 110.89 425.194 110.592 426.23C110.302 427.257 110.158 428.335 110.158 429.464V430.164ZM112.718 429.968C113.297 429.688 113.792 429.436 114.202 429.212C114.613 428.988 114.954 428.778 115.224 428.582C115.504 428.386 115.728 428.204 115.896 428.036C116.064 427.859 116.19 427.681 116.274 427.504L112.844 427.644L112.802 426.496L116.498 426.412V425.096H113.166V423.92H117.8V426.468H119.62V423.22H120.936V431.914H119.62V427.644H117.632C117.548 427.924 117.413 428.195 117.226 428.456C117.049 428.708 116.792 428.969 116.456 429.24C116.12 429.501 115.696 429.777 115.182 430.066C114.669 430.355 114.044 430.673 113.306 431.018L112.718 429.968ZM116.568 434.616H123.708V435.82H115.182V431.62H116.568V434.616ZM122.14 423.052H123.47V432.222H122.14V423.052ZM127.213 436.044V432.488H134.101V431.228H127.143V430.08H135.445V433.608H128.557V434.896H135.767V436.044H127.213ZM126.401 423.654V427.896C126.812 427.896 127.19 427.891 127.535 427.882C127.89 427.873 128.221 427.859 128.529 427.84C128.847 427.812 129.15 427.779 129.439 427.742C129.738 427.705 130.032 427.663 130.321 427.616L130.475 428.792C130.195 428.848 129.892 428.895 129.565 428.932C129.239 428.969 128.861 429.002 128.431 429.03C128.011 429.049 127.526 429.067 126.975 429.086C126.425 429.095 125.781 429.1 125.043 429.1V423.654H126.401ZM132.911 429.394H131.581V426.482H128.907V425.306H131.581V423.22H132.911V429.394ZM134.115 423.052H135.445V429.422H134.115V423.052ZM151.928 429.044V430.22H140.084V429.044H151.928ZM150.108 423.528V424.704H143.206V426.762H150.192V427.938H141.834V423.528H150.108ZM146.006 436.324C145.39 436.324 144.83 436.263 144.326 436.142C143.832 436.03 143.407 435.867 143.052 435.652C142.707 435.447 142.441 435.199 142.254 434.91C142.068 434.63 141.974 434.327 141.974 434V433.524C141.974 433.188 142.068 432.88 142.254 432.6C142.441 432.311 142.707 432.063 143.052 431.858C143.407 431.653 143.832 431.494 144.326 431.382C144.83 431.261 145.39 431.2 146.006 431.2C146.622 431.2 147.178 431.261 147.672 431.382C148.167 431.494 148.587 431.657 148.932 431.872C149.287 432.077 149.558 432.32 149.744 432.6C149.94 432.88 150.038 433.188 150.038 433.524V434C150.038 434.327 149.945 434.63 149.758 434.91C149.572 435.19 149.301 435.433 148.946 435.638C148.601 435.853 148.176 436.021 147.672 436.142C147.178 436.263 146.622 436.324 146.006 436.324ZM146.006 432.334C145.614 432.334 145.255 432.371 144.928 432.446C144.602 432.511 144.322 432.605 144.088 432.726C143.855 432.838 143.673 432.973 143.542 433.132C143.412 433.281 143.346 433.44 143.346 433.608V433.916C143.346 434.084 143.412 434.243 143.542 434.392C143.673 434.551 143.855 434.686 144.088 434.798C144.322 434.919 144.602 435.013 144.928 435.078C145.255 435.153 145.614 435.19 146.006 435.19C146.398 435.19 146.758 435.153 147.084 435.078C147.411 435.013 147.691 434.919 147.924 434.798C148.158 434.686 148.34 434.551 148.47 434.392C148.601 434.243 148.666 434.084 148.666 433.916V433.608C148.666 433.44 148.601 433.281 148.47 433.132C148.34 432.973 148.158 432.838 147.924 432.726C147.691 432.605 147.411 432.511 147.084 432.446C146.758 432.371 146.398 432.334 146.006 432.334ZM154.271 429.464C154.271 428.335 154.122 427.257 153.823 426.23C153.534 425.194 153.044 424.209 152.353 423.276H153.641C154.341 424.107 154.859 425.045 155.195 426.09C155.531 427.135 155.699 428.283 155.699 429.534V430.094C155.699 431.345 155.531 432.497 155.195 433.552C154.859 434.607 154.341 435.549 153.641 436.38H152.353C153.072 435.391 153.571 434.373 153.851 433.328C154.131 432.283 154.271 431.228 154.271 430.164V429.464Z" fill="black"/>
<path d="M36 144C42.6274 144 48 138.627 48 132C48 125.373 42.6274 120 36 120C29.3726 120 24 125.373 24 132C24 138.627 29.3726 144 36 144Z" fill="#FFB7B0"/>
<path d="M29.6805 125H41.5621V139H32.6509L29.6805 136.2V125Z" fill="#FDEDEB"/>
<path d="M32.6509 139L29.6805 136.2H32.6509V139Z" fill="#F39C91"/>
<path d="M40.0769 127.541H33.3935V128.066H40.0769V127.541Z" fill="#F39C91"/>
<path d="M40.0769 128.941H33.3935V129.466H40.0769V128.941Z" fill="#F39C91"/>
<path d="M40.0769 130.341H33.3935V130.866H40.0769V130.341Z" fill="#F39C91"/>
<path d="M40.0769 131.741H33.3935V132.266H40.0769V131.741Z" fill="#F39C91"/>
<path d="M40.0769 133.141H33.3935V133.666H40.0769V133.141Z" fill="#F39C91"/>
<path d="M40.0769 134.541H33.3935V135.066H40.0769V134.541Z" fill="#F39C91"/>
<path d="M31.9083 128.85H31.1656V129.55H31.9083V128.85Z" fill="#F39C91"/>
<path d="M31.9083 130.25H31.1656V130.95H31.9083V130.25Z" fill="#F39C91"/>
<path d="M31.9083 127.45H31.1656V128.15H31.9083V127.45Z" fill="#F39C91"/>
<path d="M31.9083 131.65H31.1656V132.35H31.9083V131.65Z" fill="#F39C91"/>
<path d="M31.8934 133.085H31.1508V133.785H31.8934V133.085Z" fill="#F39C91"/>
<path d="M31.9083 134.45H31.1656V135.15H31.9083V134.45Z" fill="#F39C91"/>
<path d="M43.0968 129L36.0083 135.682L37.0228 136.638L44.1113 129.956L43.0968 129Z" fill="#909091"/>
<path d="M35 137.588L37.0195 136.632L36.0052 135.684L35 137.588Z" fill="#616160"/>
</g>
<defs>
<clipPath id="clip0_2_11">
<rect width="375" height="812" fill="white"/>
</clipPath>
</defs>
</svg>
