<?xml version="1.0" encoding="utf-8"?>
<!-- Generator: Adobe Illustrator 25.2.1, SVG Export Plug-In . SVG Version: 6.00 Build 0)  -->
<svg version="1.1" id="레이어_1" xmlns="http://www.w3.org/2000/svg" xmlns:xlink="http://www.w3.org/1999/xlink" x="0px"
	 y="0px" viewBox="0 0 109.607 50.349" enable-background="new 0 0 109.607 50.349" xml:space="preserve">
<path fill="#E17162" d="M1.211,41.975l0-6.473c0-0.982,0.554-1.877,1.432-2.317c2.855-1.43,4.688-4.769,4.688-12.174v-4.04
	c0-1.62-2.465-1.847-4.06-1.562l0,0c-1.595,0.285-3.06-0.942-3.06-2.562V6.238c0-3.306,2.68-5.986,5.986-5.986h9.487
	c3.306,0,5.986,2.68,5.986,5.986V25.27c0,11.006-4.684,18.588-11.823,22.082C5.864,49.302,1.211,46.41,1.211,41.975z M31.803,49.51
	h-1.767c-3.306,0-5.986-2.68-5.986-5.986V6.238c0-3.306,2.68-5.986,5.986-5.986h1.767c3.306,0,5.986,2.68,5.986,5.986V16.73
	c0,0.707,0.573,1.28,1.28,1.28h0c0.707,0,1.28-0.573,1.28-1.28V6.238c0-3.306,2.68-5.986,5.986-5.986h1.767
	c3.306,0,5.986,2.68,5.986,5.986v37.285c0,3.306-2.68,5.986-5.986,5.986h-1.767c-3.306,0-5.986-2.68-5.986-5.986V32.61
	c0-0.707-0.573-1.28-1.28-1.28h0c-0.707,0-1.28,0.573-1.28,1.28v10.913C37.789,46.829,35.109,49.51,31.803,49.51z"/>
<g>
	<g>
		<path fill="#E17162" d="M83.686,27.942c-17.128,0-25.9,4.445-25.9,11.617s8.772,10.728,25.9,10.728
			c17.129,0,25.9-3.912,25.9-11.083S100.815,27.942,83.686,27.942z M83.834,42.617c-4.903,0-7.414-1.018-7.414-3.071
			c0-2.053,2.511-3.325,7.414-3.325c4.903,0,7.414,1.171,7.414,3.223S88.737,42.617,83.834,42.617z"/>
	</g>
	<g>
		<path fill="#E17162" d="M100.304,27.004h2.355c3.306,0,5.986-2.68,5.986-5.986V6.049c0-3.306-2.68-5.986-5.986-5.986h-2.355
			c-3.306,0-5.986,2.68-5.986,5.986v9.83v5.139C94.317,24.324,96.998,27.004,100.304,27.004z"/>
		<path fill="#E17162" d="M69.316,27.001c6.716,0.05,14.838-0.51,20.258-1.413c1.877-0.313,3.241-1.951,3.241-3.853v0
			c0-2.282-1.944-4.092-4.217-3.896c-4.519,0.389-11.517,0.493-15.177,0.47c-0.448-0.003-0.805-0.367-0.805-0.815l0,0
			c0-0.448,0.357-0.813,0.806-0.814c3.423-0.012,10.032-0.108,14.034-0.534c1.751-0.187,3.08-1.656,3.08-3.417v0
			c0-1.988-1.674-3.56-3.657-3.426c-3.9,0.264-10.236,0.406-13.358,0.464c-0.495,0.009-0.89-0.399-0.874-0.893v0
			c0.016-0.464,0.391-0.831,0.856-0.834c3.737-0.022,9.835-0.184,13.562-0.468c1.96-0.149,3.471-1.783,3.471-3.749v0
			c0-2.077-1.683-3.76-3.76-3.76l-22.513,0c-3.306,0-5.986,2.68-5.986,5.986v10.633C58.277,23.221,60.916,27.001,69.316,27.001z"/>
	</g>
</g>
</svg>
