<?xml version="1.0" encoding="utf-8"?>
<!-- Generator: Adobe Illustrator 25.2.1, SVG Export Plug-In . SVG Version: 6.00 Build 0)  -->
<svg version="1.1" id="레이어_1" xmlns="http://www.w3.org/2000/svg" xmlns:xlink="http://www.w3.org/1999/xlink" x="0px"
	 y="0px" viewBox="0 0 111.837 52.599" enable-background="new 0 0 111.837 52.599" xml:space="preserve">
<g>
	<g>
		<g>
			<path fill="#CE4A37" d="M3.418,44.288v-6.473c0-0.982,0.554-1.877,1.432-2.317c2.855-1.43,4.688-4.769,4.688-12.174v-4.04
				c0-1.62-2.465-1.847-4.06-1.562l0,0c-1.595,0.285-3.06-0.942-3.06-2.562V8.551c0-3.306,2.68-5.986,5.986-5.986h9.487
				c3.306,0,5.986,2.68,5.986,5.986v19.032c0,11.006-4.684,18.588-11.823,22.082C8.071,51.614,3.418,48.723,3.418,44.288z
				 M34.011,51.822h-1.767c-3.306,0-5.986-2.68-5.986-5.986V8.551c0-3.306,2.68-5.986,5.986-5.986h1.767
				c3.306,0,5.986,2.68,5.986,5.986v10.492c0,0.707,0.573,1.28,1.28,1.28l0,0c0.707,0,1.28-0.573,1.28-1.28V8.551
				c0-3.306,2.68-5.986,5.986-5.986h1.767c3.306,0,5.986,2.68,5.986,5.986v37.285c0,3.306-2.68,5.986-5.986,5.986h-1.767
				c-3.306,0-5.986-2.68-5.986-5.986V34.923c0-0.707-0.573-1.28-1.28-1.28l0,0c-0.707,0-1.28,0.573-1.28,1.28v10.913
				C39.997,49.142,37.317,51.822,34.011,51.822z"/>
		</g>
		<g>
			<g>
				<g>
					<path fill="#CE4A37" d="M85.893,30.255c-17.128,0-25.9,4.445-25.9,11.617S68.765,52.6,85.893,52.6
						c17.129,0,25.9-3.912,25.9-11.083S103.022,30.255,85.893,30.255z M86.042,44.93c-4.903,0-7.414-1.018-7.414-3.071
						c0-2.053,2.511-3.325,7.414-3.325s7.414,1.171,7.414,3.223S90.945,44.93,86.042,44.93z"/>
				</g>
			</g>
			<g>
				<g>
					<path fill="#CE4A37" d="M102.511,29.317h2.355c3.306,0,5.986-2.68,5.986-5.986V8.361c0-3.306-2.68-5.986-5.986-5.986h-2.355
						c-3.306,0-5.986,2.68-5.986,5.986v9.83v5.139C96.525,26.636,99.205,29.317,102.511,29.317z"/>
				</g>
				<g>
					<path fill="#CE4A37" d="M71.523,29.314c6.716,0.05,14.838-0.51,20.258-1.413c1.877-0.313,3.241-1.951,3.241-3.853l0,0
						c0-2.282-1.944-4.092-4.217-3.896c-4.519,0.389-11.517,0.493-15.177,0.47c-0.448-0.003-0.805-0.367-0.805-0.815l0,0
						c0-0.448,0.357-0.813,0.806-0.814c3.423-0.012,10.032-0.108,14.034-0.534c1.751-0.187,3.08-1.656,3.08-3.417l0,0
						c0-1.988-1.674-3.56-3.657-3.426c-3.9,0.264-10.236,0.406-13.358,0.464c-0.495,0.009-0.89-0.399-0.874-0.893l0,0
						c0.016-0.464,0.391-0.831,0.856-0.834c3.737-0.022,9.835-0.184,13.562-0.468c1.96-0.149,3.471-1.783,3.471-3.749l0,0
						c0-2.077-1.683-3.76-3.76-3.76H66.47c-3.306,0-5.986,2.68-5.986,5.986v10.633C60.484,25.534,63.124,29.314,71.523,29.314z"/>
				</g>
			</g>
		</g>
	</g>
	<g>
		<g>
			<path fill="#E27162" d="M1.418,42.288v-6.473c0-0.982,0.554-1.877,1.432-2.317c2.855-1.43,4.688-4.769,4.688-12.174v-4.04
				c0-1.62-2.465-1.847-4.06-1.562l0,0c-1.595,0.285-3.06-0.942-3.06-2.562V6.551c0-3.306,2.68-5.986,5.986-5.986h9.487
				c3.306,0,5.986,2.68,5.986,5.986v19.032c0,11.006-4.684,18.588-11.823,22.082C6.071,49.614,1.418,46.722,1.418,42.288z
				 M32.01,49.822h-1.767c-3.306,0-5.986-2.68-5.986-5.986V6.551c0-3.306,2.68-5.986,5.986-5.986h1.767
				c3.306,0,5.986,2.68,5.986,5.986v10.492c0,0.707,0.573,1.28,1.28,1.28l0,0c0.707,0,1.28-0.573,1.28-1.28V6.551
				c0-3.306,2.68-5.986,5.986-5.986h1.767c3.306,0,5.986,2.68,5.986,5.986v37.285c0,3.306-2.68,5.986-5.986,5.986h-1.767
				c-3.306,0-5.986-2.68-5.986-5.986V32.923c0-0.707-0.573-1.28-1.28-1.28l0,0c-0.707,0-1.28,0.573-1.28,1.28v10.913
				C37.997,47.142,35.317,49.822,32.01,49.822z"/>
			<path fill="#FFFFFF" d="M48.31,50.197h-1.767c-3.508,0-6.361-2.854-6.361-6.361V32.922c0-0.499-0.406-0.905-0.905-0.905
				s-0.905,0.406-0.905,0.905v10.914c0,3.508-2.854,6.361-6.361,6.361h-1.767c-3.508,0-6.361-2.854-6.361-6.361V6.551
				c0-3.508,2.854-6.361,6.361-6.361h1.767c3.508,0,6.361,2.854,6.361,6.361v10.493c0,0.499,0.406,0.905,0.905,0.905
				s0.905-0.406,0.905-0.905V6.55c0-3.507,2.854-6.361,6.361-6.361h1.767c3.508,0,6.361,2.854,6.361,6.361v37.286
				C54.671,47.344,51.818,50.197,48.31,50.197z M39.277,31.268c0.913,0,1.655,0.742,1.655,1.655v10.914
				c0,3.094,2.517,5.611,5.611,5.611h1.767c3.094,0,5.611-2.517,5.611-5.611V6.55c0-3.094-2.517-5.611-5.611-5.611h-1.767
				c-3.094,0-5.611,2.517-5.611,5.611v10.493c0,0.913-0.743,1.655-1.655,1.655s-1.655-0.743-1.655-1.655V6.55
				c0-3.094-2.517-5.611-5.611-5.611h-1.767c-3.094,0-5.611,2.517-5.611,5.611v37.285c0,3.094,2.517,5.611,5.611,5.611h1.767
				c3.094,0,5.611-2.517,5.611-5.611V32.922C37.622,32.01,38.364,31.268,39.277,31.268z M7.41,48.657
				c-1.171,0-2.337-0.326-3.372-0.972c-1.875-1.17-2.995-3.188-2.995-5.397v-6.473c0-1.13,0.628-2.146,1.639-2.652
				c3.058-1.532,4.481-5.293,4.481-11.839v-4.04c0-0.305-0.116-0.551-0.354-0.75c-0.664-0.555-2.146-0.643-3.266-0.443
				c-0.87,0.156-1.757-0.081-2.435-0.648c-0.677-0.567-1.066-1.399-1.066-2.283V6.551c0-3.508,2.854-6.361,6.361-6.361h9.487
				c3.508,0,6.361,2.854,6.361,6.361v19.032c0,10.505-4.386,18.676-12.034,22.419C9.324,48.44,8.365,48.657,7.41,48.657z
				 M4.682,15.241c0.991,0,1.996,0.204,2.609,0.717c0.407,0.34,0.622,0.799,0.622,1.325v4.04c0,6.861-1.556,10.836-4.896,12.51
				c-0.755,0.378-1.225,1.138-1.225,1.981v6.473c0,1.949,0.987,3.729,2.642,4.761c1.658,1.034,3.698,1.139,5.454,0.28
				c7.489-3.665,11.614-11.388,11.614-21.745V6.551c0-3.094-2.517-5.611-5.611-5.611H6.404c-3.094,0-5.611,2.517-5.611,5.611v6.608
				c0,0.661,0.291,1.283,0.797,1.708s1.17,0.603,1.822,0.485C3.809,15.281,4.244,15.241,4.682,15.241z"/>
		</g>
		<g>
			<g>
				<g>
					<path fill="#E27162" d="M83.893,28.255c-17.128,0-25.9,4.445-25.9,11.617S66.765,50.6,83.893,50.6
						c17.129,0,25.9-3.912,25.9-11.083S101.022,28.255,83.893,28.255z M84.042,42.93c-4.903,0-7.414-1.018-7.414-3.071
						c0-2.053,2.511-3.325,7.414-3.325s7.414,1.171,7.414,3.223S88.944,42.93,84.042,42.93z"/>
					<path fill="#FFFFFF" d="M83.893,50.974c-17.435,0-26.275-3.735-26.275-11.103c0-4.479,3.414-11.992,26.275-11.992
						c21.717,0,26.275,6.328,26.275,11.636C110.168,47.012,101.082,50.974,83.893,50.974z M83.893,28.63
						c-16.222,0-25.525,4.098-25.525,11.242c0,6.87,8.588,10.353,25.525,10.353c16.699,0,25.525-3.703,25.525-10.708
						C109.418,32.496,100.353,28.63,83.893,28.63z M84.042,43.305c-5.168,0-7.789-1.159-7.789-3.445c0-1.382,1.012-3.7,7.789-3.7
						c6.438,0,7.789,1.957,7.789,3.598C91.83,41.376,90.479,43.305,84.042,43.305z M84.042,36.909c-4.473,0-7.039,1.075-7.039,2.95
						c0,1.789,2.368,2.695,7.039,2.695c2.629,0,7.039-0.363,7.039-2.797C91.08,37.921,88.581,36.909,84.042,36.909z"/>
				</g>
			</g>
			<g>
				<g>
					<path fill="#E27162" d="M100.511,27.316h2.355c3.306,0,5.986-2.68,5.986-5.986V6.361c0-3.306-2.68-5.986-5.986-5.986h-2.355
						c-3.306,0-5.986,2.68-5.986,5.986v9.83v5.139C94.525,24.636,97.205,27.316,100.511,27.316z"/>
					<path fill="#FFFFFF" d="M102.866,27.692h-2.355c-3.508,0-6.361-2.854-6.361-6.361V6.361C94.15,2.854,97.003,0,100.511,0h2.355
						c3.508,0,6.361,2.854,6.361,6.361V21.33C109.227,24.838,106.374,27.692,102.866,27.692z M100.511,0.75
						c-3.094,0-5.611,2.517-5.611,5.611V21.33c0,3.094,2.517,5.611,5.611,5.611h2.355c3.094,0,5.611-2.517,5.611-5.611V6.361
						c0-3.094-2.517-5.611-5.611-5.611H100.511z"/>
				</g>
				<g>
					<path fill="#E27162" d="M69.523,27.313c6.716,0.05,14.838-0.51,20.258-1.413c1.877-0.313,3.241-1.951,3.241-3.853l0,0
						c0-2.282-1.944-4.092-4.217-3.896c-4.519,0.389-11.517,0.493-15.177,0.47c-0.448-0.003-0.805-0.367-0.805-0.815l0,0
						c0-0.448,0.357-0.813,0.806-0.814c3.423-0.012,10.032-0.108,14.034-0.534c1.751-0.187,3.08-1.656,3.08-3.417l0,0
						c0-1.988-1.674-3.56-3.657-3.426c-3.9,0.264-10.236,0.406-13.358,0.464c-0.495,0.009-0.89-0.399-0.874-0.893l0,0
						c0.016-0.464,0.391-0.831,0.856-0.834c3.737-0.022,9.835-0.184,13.562-0.468c1.96-0.149,3.471-1.783,3.471-3.749l0,0
						c0-2.077-1.683-3.76-3.76-3.76H64.47c-3.306,0-5.986,2.68-5.986,5.986v10.633C58.484,23.534,61.124,27.313,69.523,27.313z"/>
					<path fill="#FFFFFF" d="M70.355,27.692c-0.28,0-0.558-0.001-0.833-0.003c-7.893,0-11.413-3.299-11.413-10.694V6.361
						C58.109,2.854,60.963,0,64.47,0h22.513c2.28,0,4.135,1.855,4.135,4.135c0,2.149-1.677,3.96-3.817,4.123
						c-3.633,0.277-9.586,0.446-13.588,0.469c-0.262,0.001-0.474,0.208-0.483,0.471c-0.005,0.138,0.045,0.267,0.14,0.363
						c0.094,0.095,0.222,0.142,0.352,0.143c3.344-0.062,9.525-0.205,13.339-0.463c1.058-0.075,2.073,0.288,2.849,1.013
						c0.768,0.718,1.208,1.733,1.208,2.787c0,1.953-1.468,3.582-3.416,3.79c-4.26,0.454-11.26,0.526-14.072,0.537
						c-0.238,0.001-0.432,0.198-0.432,0.439c0,0.245,0.19,0.438,0.433,0.44c3.641,0.027,10.67-0.084,15.142-0.469
						c1.177-0.102,2.358,0.301,3.233,1.104c0.884,0.812,1.391,1.965,1.391,3.167c0,2.104-1.495,3.88-3.554,4.223
						C84.669,27.132,76.944,27.692,70.355,27.692z M64.47,0.75c-3.094,0-5.611,2.517-5.611,5.611v10.633
						c0,6.97,3.189,9.944,10.664,9.944h0.003c6.725,0.05,14.838-0.516,20.194-1.408c1.696-0.282,2.927-1.747,2.927-3.483
						c0-0.991-0.418-1.944-1.148-2.614c-0.731-0.671-1.676-0.993-2.661-0.909c-4.497,0.388-11.557,0.496-15.211,0.472
						c-0.649-0.004-1.178-0.538-1.178-1.19c0-0.653,0.529-1.187,1.179-1.189c2.8-0.01,9.77-0.082,13.996-0.533
						c1.564-0.167,2.745-1.475,2.745-3.043c0-0.859-0.345-1.654-0.97-2.239c-0.623-0.583-1.438-0.872-2.286-0.813
						c-3.831,0.259-10.025,0.402-13.376,0.465c-0.313,0.007-0.661-0.124-0.9-0.367c-0.238-0.241-0.367-0.575-0.355-0.915
						c0.022-0.667,0.562-1.192,1.229-1.195c3.891-0.023,9.958-0.194,13.536-0.467c1.751-0.133,3.124-1.616,3.124-3.375
						c0-1.866-1.519-3.385-3.385-3.385C86.986,0.75,64.47,0.75,64.47,0.75z"/>
				</g>
			</g>
		</g>
	</g>
</g>
</svg>
