<?xml version="1.0" encoding="utf-8"?>
<!-- Generator: Adobe Illustrator 25.2.1, SVG Export Plug-In . SVG Version: 6.00 Build 0)  -->
<svg version="1.1" id="레이어_1" xmlns="http://www.w3.org/2000/svg" xmlns:xlink="http://www.w3.org/1999/xlink" x="0px"
	 y="0px" viewBox="0 0 24.005 30.003" enable-background="new 0 0 24.005 30.003" xml:space="preserve">
<g>
	<g>
		<path fill="#040000" d="M21.072,23.073H2.931V6.931h18.141V23.073z M3.073,22.932h17.859V7.073H3.073V22.932z"/>
	</g>
	<g>
		<path fill="none" d="M13.283,16.008"/>
	</g>
	<g>
		<path fill="none" d="M13.282,16.008"/>
	</g>
	<g>
		<path fill="none" d="M8.562,14.435"/>
	</g>
	<g>
		<path fill="#FFFFFF" stroke="#040000" stroke-width="0.5" stroke-miterlimit="10" d="M8.286,24.887"/>
	</g>
	<g>
		<path fill="#FFFFFF" stroke="#040000" stroke-width="0.5" stroke-miterlimit="10" d="M4.283,29.008"/>
	</g>
	<g>
		
			<path fill="none" stroke="#562312" stroke-width="0.5" stroke-linecap="round" stroke-linejoin="bevel" stroke-miterlimit="10" d="
			M8.198,20.324"/>
	</g>
	<g>
		<g>
			<path fill="#FFFFFF" d="M2.158,29.501c-0.914,0-1.658-0.744-1.658-1.658V2.158C0.5,1.244,1.244,0.5,2.158,0.5h19.686
				c0.915,0,1.658,0.744,1.658,1.658v19.844c0,0.133-0.053,0.26-0.146,0.354l-7.001,6.999c-0.094,0.094-0.221,0.146-0.354,0.146
				H2.158z"/>
		</g>
		<g>
			<path fill="#542211" d="M21.844,1c0.64,0,1.158,0.518,1.158,1.158v18.844v1l-7.001,6.999H2.157C1.518,29.001,1,28.482,1,27.843
				V2.158C1,1.518,1.518,1,2.158,1H21.844 M21.844,0H2.158C0.968,0,0,0.968,0,2.158v25.685c0,1.19,0.968,2.158,2.158,2.158h13.844
				c0.265,0,0.519-0.105,0.707-0.293l7.001-6.999c0.188-0.188,0.293-0.442,0.293-0.707v-1V2.158C24.002,0.968,23.034,0,21.844,0
				L21.844,0z"/>
		</g>
	</g>
	<g>
		<g>
			<path fill="#F9F3EF" d="M15.779,9.757c-0.295-0.786-0.506-1.609-0.425-2.445c0.005-0.05-0.042-0.368-0.042-0.419
				c0-1.254-1.47-1.892-3.279-1.892S8.759,5.639,8.759,6.893c0,0.104,0.059,0.473,0.079,0.572C8.979,8.183,8.84,8.908,8.513,9.561
				c-0.132,0.264-0.204,0.547-0.204,0.841c0,1.435,1.699,2.599,3.795,2.599s3.794-1.163,3.794-2.599
				C15.897,10.179,15.856,9.963,15.779,9.757z"/>
		</g>
		<g>
			<path fill="#040000" d="M12.903,9.727c0,0.313-0.385,0.629-0.86,0.629c-0.475,0-0.86-0.316-0.86-0.629s0.385-0.506,0.86-0.506
				C12.518,9.222,12.903,9.414,12.903,9.727z"/>
		</g>
		<g>
			<path fill="#A13C23" d="M15.236,7.359c0.005-0.052,0.205-0.502,0.205-0.555c0-1.133-1.368-1.659-2.858-1.804
				c-0.374,0.543-0.597,1.211-0.597,1.937c0,1.807,1.535,3.151,3.221,3.151c0.238,0,0.468-0.032,0.69-0.087
				c-0.018-0.079-0.208-0.037-0.236-0.114C15.366,9.075,15.156,8.224,15.236,7.359z"/>
		</g>
		<g>
			<circle fill="#040000" cx="10.551" cy="8.508" r="0.404"/>
		</g>
		<g>
			<circle fill="#040000" cx="13.478" cy="8.508" r="0.404"/>
		</g>
		<g>
			<path fill="#A13C23" d="M9.682,5.663c0.338,0.209,0.329,0.752,0.235,1.106c-0.078,0.295-0.304,0.79-0.518,1.318
				C9.228,8.513,8.926,9.363,8.593,9.779c-0.527,0.659-1.483,0.901-2.088,0.607C5.783,10.035,5.488,9.262,5.581,8.76
				c0.102-0.549,0.322-0.876,0.716-1.286c0.546-0.567,1.076-1.009,1.459-1.288C8.647,5.539,9.342,5.453,9.682,5.663z"/>
		</g>
		<g>
			<path fill="#A13C23" d="M14.487,5.663c-0.338,0.209-0.329,0.752-0.235,1.106c0.078,0.295,0.304,0.79,0.518,1.318
				c0.172,0.426,0.473,1.276,0.807,1.692c0.527,0.659,1.483,0.901,2.088,0.607c0.722-0.352,1.017-1.124,0.923-1.626
				c-0.102-0.549-0.322-0.876-0.716-1.286c-0.546-0.567-1.076-1.009-1.459-1.288C15.522,5.539,14.827,5.453,14.487,5.663z"/>
		</g>
		<g>
			<g>
				<path fill="#562312" d="M12.033,5c1.035,0,1.957,0.21,2.558,0.623c0.092-0.031,0.199-0.049,0.321-0.049
					c0.375,0,0.887,0.166,1.5,0.612c0.383,0.279,0.914,0.72,1.459,1.288c0.393,0.409,0.614,0.736,0.716,1.286
					c0.093,0.502-0.201,1.274-0.923,1.626c-0.17,0.083-0.367,0.123-0.575,0.123c-0.412,0-0.866-0.157-1.226-0.448
					c0.022,0.112,0.034,0.226,0.034,0.342c0,1.435-1.699,2.599-3.794,2.599c-2.096,0-3.795-1.163-3.795-2.599
					c0-0.128,0.016-0.253,0.042-0.376c-0.366,0.314-0.839,0.483-1.268,0.483c-0.209,0-0.407-0.04-0.578-0.123
					C5.783,10.035,5.488,9.262,5.581,8.76c0.102-0.549,0.322-0.876,0.716-1.286c0.546-0.567,1.076-1.009,1.459-1.288
					C8.37,5.74,8.883,5.574,9.259,5.574c0.091,0,0.174,0.01,0.249,0.028C10.107,5.202,11.015,5,12.033,5 M12.033,4.25
					c-0.767,0-1.825,0.104-2.69,0.576C9.315,4.825,9.287,4.824,9.259,4.824c-0.591,0-1.263,0.261-1.944,0.756
					C7.021,5.794,6.427,6.258,5.756,6.955c-0.46,0.479-0.774,0.926-0.912,1.668c-0.148,0.795,0.269,1.919,1.332,2.437
					c0.271,0.132,0.576,0.199,0.906,0.199c0.199,0,0.4-0.025,0.596-0.072c0.468,1.487,2.244,2.564,4.424,2.564
					c2.177,0,3.951-1.074,4.422-2.557c0.187,0.043,0.377,0.065,0.564,0.065c0.329,0,0.633-0.067,0.903-0.198
					c1.064-0.518,1.48-1.642,1.332-2.437c-0.138-0.743-0.452-1.189-0.912-1.668c-0.67-0.697-1.264-1.161-1.559-1.375
					c-0.68-0.494-1.351-0.756-1.942-0.756c-0.06,0-0.119,0.003-0.177,0.008C13.868,4.356,12.806,4.25,12.033,4.25L12.033,4.25z"/>
			</g>
		</g>
		<g>
			<path fill="#562312" d="M8.333,10.885c-0.128,0-0.253-0.066-0.324-0.185c-0.105-0.178-0.045-0.408,0.133-0.514
				c0.343-0.202,0.729-1.091,0.893-1.658l0.482-1.346c0.242-0.637,0.295-0.93,0.295-0.932c0.1-0.501-0.288-0.633-0.332-0.647
				c-0.198-0.06-0.311-0.269-0.25-0.467c0.06-0.198,0.268-0.311,0.467-0.25c0.376,0.114,1.039,0.573,0.853,1.5
				c-0.003,0.022-0.062,0.354-0.329,1.057L9.749,8.76c-0.072,0.252-0.506,1.649-1.226,2.073C8.464,10.869,8.398,10.885,8.333,10.885
				z"/>
		</g>
		<g>
			<path fill="#562312" d="M16.27,11.107c-0.049,0-0.099-0.009-0.146-0.03c-1.064-0.449-1.635-2.239-1.641-2.257l-0.588-1.403
				c-0.307-0.643-0.33-0.945-0.317-1.066c-0.091-0.867,0.518-1.34,0.853-1.459c0.192-0.068,0.409,0.032,0.479,0.228
				c0.068,0.194-0.031,0.406-0.223,0.477c-0.072,0.029-0.416,0.197-0.362,0.759c0.002,0.047,0.013,0.244,0.256,0.755l0.607,1.453
				c0.168,0.514,0.672,1.588,1.228,1.823c0.191,0.081,0.28,0.3,0.2,0.491C16.555,11.021,16.416,11.107,16.27,11.107z"/>
		</g>
	</g>
	<g>
		<path fill="#522111" d="M20.002,16.501H4c-0.276,0-0.5-0.224-0.5-0.5c0-0.276,0.224-0.5,0.5-0.5h16.002c0.276,0,0.5,0.224,0.5,0.5
			C20.502,16.278,20.278,16.501,20.002,16.501z"/>
	</g>
	<g>
		<path fill="#522111" d="M20.002,19.502H4c-0.276,0-0.5-0.224-0.5-0.5s0.224-0.5,0.5-0.5h16.002c0.276,0,0.5,0.224,0.5,0.5
			S20.278,19.502,20.002,19.502z"/>
	</g>
	<g>
		<path fill="#522111" d="M20.002,22.502H4c-0.276,0-0.5-0.224-0.5-0.5s0.224-0.5,0.5-0.5h16.002c0.276,0,0.5,0.224,0.5,0.5
			S20.278,22.502,20.002,22.502z"/>
	</g>
	<g>
		<path fill="#522111" d="M20.002,25.502H4c-0.276,0-0.5-0.224-0.5-0.5s0.224-0.5,0.5-0.5h16.002c0.276,0,0.5,0.224,0.5,0.5
			S20.278,25.502,20.002,25.502z"/>
	</g>
	<g>
		<g>
			<path fill="#FFFFFF" d="M16.001,29.503c-0.064,0-0.129-0.012-0.191-0.038c-0.187-0.077-0.309-0.26-0.309-0.462v-7
				c0-0.276,0.224-0.5,0.5-0.5h7.001c0.202,0,0.385,0.122,0.462,0.309c0.078,0.187,0.035,0.402-0.108,0.545l-7.001,7
				C16.259,29.452,16.131,29.503,16.001,29.503z"/>
		</g>
		<g>
			<path fill="#522111" d="M23.002,22.002h0.005 M23.002,22.002l-7.001,7.001v-7.001H23.002 M23.007,21.002h-0.005h-7.001
				c-0.552,0-1,0.448-1,1v7.001c0,0.404,0.244,0.769,0.617,0.924c0.124,0.051,0.254,0.076,0.382,0.076
				c0.26,0,0.516-0.102,0.707-0.293l6.973-6.973c0.199-0.183,0.323-0.444,0.323-0.735C24.005,21.45,23.559,21.002,23.007,21.002
				L23.007,21.002z M23.002,23.002h0.005H23.002L23.002,23.002z"/>
		</g>
	</g>
	<g>
		<g>
			<path fill="#ED7565" d="M19.294,5.524c-0.041,0-0.092-0.012-0.129-0.029c-0.222-0.104-1.326-0.673-1.335-1.65
				c0-0.507,0.423-0.983,0.871-0.983c0.223,0,0.437,0.09,0.598,0.239c0.158-0.149,0.367-0.236,0.591-0.236
				c0.458,0,0.875,0.466,0.875,0.978c-0.001,0.974-1.119,1.547-1.343,1.652C19.386,5.512,19.335,5.524,19.294,5.524z"/>
		</g>
		<g>
			<path fill="#542211" d="M18.702,3.141c0.261,0,0.493,0.177,0.575,0.42c0.004,0.013,0.015,0.02,0.026,0.02s0.021-0.007,0.026-0.02
				c0.08-0.242,0.3-0.417,0.563-0.417c0.3,0,0.597,0.349,0.597,0.7c-0.001,0.828-1.066,1.345-1.183,1.399
				c-0.004,0.002-0.007,0.003-0.01,0.003s-0.007-0.001-0.01-0.003c-0.116-0.055-1.166-0.57-1.175-1.399
				C18.109,3.492,18.403,3.141,18.702,3.141 M18.702,2.583c-0.602,0-1.15,0.601-1.15,1.26c0.011,1.15,1.248,1.788,1.495,1.904
				c0.074,0.035,0.166,0.055,0.248,0.055c0.082,0,0.173-0.021,0.247-0.055c0.25-0.117,1.503-0.758,1.504-1.904
				c0-0.659-0.55-1.258-1.155-1.258c-0.213,0-0.416,0.059-0.59,0.165C19.123,2.643,18.918,2.583,18.702,2.583L18.702,2.583z"/>
		</g>
	</g>
</g>
</svg>
