<?xml version="1.0" encoding="utf-8"?>
<!-- Generator: Adobe Illustrator 25.2.1, SVG Export Plug-In . SVG Version: 6.00 Build 0)  -->
<svg version="1.1" id="레이어_1" xmlns="http://www.w3.org/2000/svg" xmlns:xlink="http://www.w3.org/1999/xlink" x="0px"
	 y="0px" viewBox="0 0 54.733 54.815" enable-background="new 0 0 54.733 54.815" xml:space="preserve">
<g>
	<path fill="none" d="M25.834,54.688c0.057,0.487,0.456,0.87,0.958,0.87h6.884c0.542,0,0.98-0.439,0.98-0.98v-0.834
		c-2.322,0.64-4.765,0.99-7.29,0.99C26.852,54.733,26.341,54.716,25.834,54.688z"/>
	<path fill="#2B6BB5" d="M42.961,14.454c-0.048-0.105-0.103-0.206-0.164-0.303C42.858,14.248,42.912,14.349,42.961,14.454z"/>
	<path fill="#2B6BB5" d="M43.148,15.024c0.029,0.152,0.047,0.308,0.047,0.469v-0.001C43.196,15.332,43.177,15.177,43.148,15.024z"/>
	<path fill="#2B6BB5" d="M39.568,37.469c0.477,0,0.885-0.344,0.966-0.814l0.938-5.45c0.103-0.599-0.358-1.147-0.966-1.147h-5.849
		v-6.541c0-0.88,0.71-1.594,1.59-1.6l0.459-0.003l3.976-0.021c0.003,0,0.005,0,0.008,0c0.541,0,0.98-0.439,0.98-0.98V15.5
		c0-0.541-0.439-0.98-0.98-0.98h-6.386c-0.962,0-1.918,0.143-2.825,0.462c-1.818,0.64-4.464,2.11-5.348,5.373
		c-0.186,0.686-0.239,1.402-0.239,2.113l0.001,7.591h-5.554c-0.541,0-0.98,0.439-0.98,0.98v5.609c0,0.541,0.439,0.98,0.98,0.98
		h5.474v16.949c0,0.039,0.018,0.073,0.022,0.111c0.508,0.028,1.018,0.045,1.533,0.045c2.526,0,4.968-0.349,7.29-0.99V37.469H39.568z
		"/>
	<path fill="#2B6BB5" d="M43.116,14.902c-0.027-0.112-0.06-0.222-0.102-0.328C43.057,14.68,43.089,14.79,43.116,14.902z"/>
	<path fill="#2B6BB5" d="M42.977,31.464l-0.938,5.45c-0.208,1.207-1.247,2.082-2.471,2.082h-3.384v0.006h3.383
		c1.224,0,2.277-0.879,2.485-2.085l0.938-5.45c0.093-0.539-0.002-1.081-0.248-1.557C42.982,30.385,43.069,30.927,42.977,31.464z"/>
	<path fill="#2B6BB5" d="M54.733,27.366C54.733,12.252,42.481,0,27.366,0S0,12.252,0,27.366c0,14.071,10.622,25.657,24.284,27.189
		v-15.4h-3.947c-1.383,0-2.508-1.125-2.508-2.508v-5.609c0-1.383,1.125-2.508,2.508-2.508h4.026l-0.001-6.064
		c0-0.978,0.093-1.776,0.292-2.513c0.81-2.989,3.052-5.267,6.315-6.414c1.034-0.364,2.155-0.548,3.331-0.548h6.386
		c0.847,0,1.594,0.425,2.048,1.069c-0.026-0.037-0.047-0.077-0.074-0.112c0.965,0.349,1.653,1.274,1.653,2.358v5.413
		c0,1.383-1.125,2.508-2.507,2.508l-3.974,0.021l-0.459,0.003c-0.04,0-0.072,0.033-0.072,0.073v4.199h-1.119v0.007h4.322
		c0.741,0,1.44,0.325,1.918,0.892c0.08,0.095,0.141,0.202,0.206,0.306c-0.045-0.072-0.082-0.148-0.134-0.216
		c0.406,0.148,0.775,0.388,1.061,0.726c0.478,0.567,0.679,1.311,0.554,2.041l-0.938,5.45c-0.208,1.207-1.247,2.082-2.471,2.082
		h-3.384l-0.012,13.05C47.503,48.885,54.733,38.973,54.733,27.366z"/>
	<path fill="#FDFDFE" d="M25.812,54.577V37.628h-5.474c-0.541,0-0.98-0.439-0.98-0.98v-5.609c0-0.541,0.439-0.98,0.98-0.98h5.554
		l-0.001-7.591c0-0.711,0.053-1.427,0.239-2.113c0.884-3.262,3.529-4.733,5.348-5.373c0.907-0.319,1.863-0.462,2.825-0.462h6.386
		c0.541,0,0.98,0.439,0.98,0.98v5.413c0,0.542-0.439,0.98-0.98,0.98c-0.003,0-0.005,0-0.008,0l-3.976,0.021l-0.459,0.003
		c-0.88,0.006-1.59,0.72-1.59,1.6v6.541h5.849c0.608,0,1.069,0.548,0.966,1.147l-0.938,5.45c-0.081,0.47-0.489,0.814-0.966,0.814
		h-4.911v16.274c0.515-0.142,1.023-0.299,1.526-0.47V39.002h0.001v-0.006h3.384c1.224,0,2.264-0.876,2.471-2.082l0.938-5.45
		c0.092-0.536,0.005-1.079-0.236-1.555c-0.032-0.063-0.075-0.12-0.112-0.18c-0.064-0.104-0.125-0.211-0.206-0.306
		c-0.478-0.567-1.177-0.892-1.918-0.892h-4.322v-0.007h-0.001V23.51c0-0.04,0.032-0.072,0.072-0.073l0.459-0.003l3.974-0.021
		c1.382,0,2.507-1.125,2.507-2.508v-5.412c0-0.16-0.018-0.317-0.047-0.469c-0.008-0.042-0.022-0.081-0.032-0.122
		c-0.028-0.112-0.06-0.223-0.102-0.328c-0.016-0.041-0.035-0.08-0.054-0.12c-0.048-0.105-0.103-0.206-0.164-0.303
		c-0.019-0.03-0.039-0.061-0.059-0.09c-0.454-0.645-1.201-1.069-2.048-1.069h-6.386c-1.177,0-2.297,0.184-3.331,0.548
		c-3.263,1.148-5.505,3.426-6.315,6.414c-0.2,0.737-0.292,1.535-0.292,2.513l0.001,6.064h-4.026c-1.383,0-2.508,1.125-2.508,2.508
		v5.609c0,1.383,1.125,2.508,2.508,2.508h3.947v15.4c0.513,0.057,1.029,0.104,1.55,0.132C25.829,54.65,25.812,54.616,25.812,54.577z
		"/>
	<path fill="#245B97" d="M40.7,39.813c1.224,0,2.264-0.876,2.471-2.082l0.938-5.45c0.126-0.73-0.076-1.474-0.554-2.041
		c-0.286-0.339-0.655-0.578-1.061-0.726c0.052,0.068,0.089,0.144,0.134,0.216c0.037,0.06,0.08,0.117,0.112,0.18
		c0.246,0.476,0.341,1.018,0.248,1.557l-0.938,5.45c-0.208,1.207-1.261,2.085-2.485,2.085h-3.383v14.271
		c0.377-0.128,0.751-0.265,1.121-0.409l0.012-13.05H40.7z"/>
	<path fill="#23578F" d="M42.629,29.729c0.038,0.06,0.08,0.118,0.112,0.18C42.709,29.846,42.666,29.789,42.629,29.729z"/>
	<polygon fill="#23578F" points="36.183,53.273 36.184,53.273 36.184,39.002 36.183,39.002 	"/>
	<path fill="#245B97" d="M42.961,14.454c0.018,0.04,0.037,0.079,0.054,0.12c0.042,0.106,0.075,0.216,0.102,0.328
		c0.01,0.041,0.024,0.08,0.032,0.122c0.029,0.152,0.047,0.308,0.047,0.468v0.001c0,0.002,0.001,0.004,0.001,0.007v5.413
		c0,1.383-1.125,2.508-2.507,2.508l-3.974,0.021l-0.459,0.003c-0.04,0-0.072,0.033-0.072,0.073v5.007h1.119v-4.199
		c0-0.04,0.032-0.072,0.072-0.073l0.459-0.003l3.974-0.021c1.382,0,2.507-1.125,2.507-2.508v-5.413c0-1.084-0.688-2.008-1.653-2.358
		c0.028,0.035,0.048,0.076,0.074,0.112c0.021,0.03,0.04,0.06,0.059,0.09C42.858,14.248,42.912,14.349,42.961,14.454z"/>
	<path fill="#23578F" d="M43.148,15.024c-0.008-0.042-0.022-0.081-0.032-0.122C43.126,14.943,43.14,14.983,43.148,15.024z"/>
	<path fill="#23578F" d="M43.014,14.574c-0.016-0.041-0.035-0.08-0.054-0.12C42.979,14.494,42.998,14.533,43.014,14.574z"/>
	<path fill="#23578F" d="M42.737,14.062c0.021,0.029,0.04,0.06,0.059,0.09C42.777,14.121,42.758,14.091,42.737,14.062z"/>
	<path fill="#23578F" d="M36.256,23.444l0.459-0.003l3.974-0.021c1.382,0,2.507-1.125,2.507-2.508V15.5
		c0-0.002-0.001-0.004-0.001-0.007v5.412c0,1.383-1.125,2.508-2.507,2.508l-3.974,0.021l-0.459,0.003
		c-0.04,0-0.072,0.033-0.072,0.073v5.014h0.001v-5.007C36.184,23.477,36.216,23.445,36.256,23.444z"/>
</g>
</svg>
