<?xml version="1.0" encoding="utf-8"?>
<!-- Generator: Adobe Illustrator 25.2.1, SVG Export Plug-In . SVG Version: 6.00 Build 0)  -->
<svg version="1.1" id="레이어_1" xmlns="http://www.w3.org/2000/svg" xmlns:xlink="http://www.w3.org/1999/xlink" x="0px"
	 y="0px" viewBox="0 0 31.097 25.552" enable-background="new 0 0 31.097 25.552" xml:space="preserve">
<g>
	<g>
		<g>
			<polygon fill="#FFFFFF" points="30.309,0.799 0.76,7.729 15.595,24.78 			"/>
		</g>
	</g>
	<g>
		<g>
			<polygon fill="#D5DCF0" points="30.309,0.799 5.919,13.659 5.882,22.091 9.13,17.363 			"/>
		</g>
	</g>
	<g>
		<g>
			<polygon fill="#6F89BE" points="10.51,18.923 5.882,22.091 9.133,17.347 			"/>
		</g>
	</g>
	<g>
		<g>
			<path fill="#562312" d="M30.316,0.794h0.005 M30.316,0.794L15.602,24.776l-5.092-5.852l-4.62,3.163l0.037-8.433L0.768,7.725
				L30.316,0.794 M30.316,0.044c-0.017,0-0.033,0.001-0.05,0.002c-0.047,0.003-0.093,0.011-0.138,0.022L0.596,6.995
				c-0.256,0.06-0.462,0.25-0.542,0.5c-0.081,0.25-0.025,0.524,0.148,0.723l4.973,5.716l-0.035,8.15
				c-0.001,0.279,0.152,0.535,0.399,0.666c0.11,0.058,0.231,0.087,0.351,0.087c0.149,0,0.297-0.044,0.424-0.131l4.07-2.786
				l4.653,5.349c0.143,0.164,0.35,0.258,0.566,0.258c0.021,0,0.041-0.001,0.062-0.003c0.238-0.02,0.452-0.152,0.577-0.355
				l14.69-23.942c0.086-0.122,0.137-0.271,0.137-0.432c0-0.413-0.332-0.749-0.745-0.75C30.321,0.044,30.319,0.044,30.316,0.044
				L30.316,0.044z M30.316,1.544h0.005H30.316L30.316,1.544z"/>
		</g>
	</g>
	<g>
		<path fill="#562312" d="M10.398,19.805c-0.104,0-0.209-0.044-0.283-0.129l-1.583-1.822c-0.067-0.078-0.1-0.18-0.09-0.282
			c0.01-0.103,0.061-0.196,0.142-0.259L26.785,3.079L5.927,14.075c-0.184,0.098-0.41,0.026-0.506-0.156
			c-0.097-0.184-0.026-0.411,0.157-0.507L30.142,0.462c0.17-0.09,0.384-0.036,0.489,0.128c0.105,0.163,0.069,0.379-0.083,0.499
			L9.357,17.66l1.324,1.524c0.136,0.156,0.119,0.394-0.037,0.529C10.573,19.775,10.485,19.805,10.398,19.805z"/>
	</g>
	<g>
		<path fill="#562312" d="M5.881,22.466c-0.07,0-0.142-0.02-0.205-0.062c-0.173-0.113-0.222-0.346-0.109-0.519l2.933-4.483
			c0.113-0.174,0.346-0.224,0.519-0.108c0.173,0.113,0.222,0.346,0.109,0.519l-2.933,4.483C6.124,22.407,6.004,22.466,5.881,22.466z
			"/>
	</g>
	<g>
		<g>
			<path fill="#ED7565" d="M15.443,20.677c-0.73,0-1.314-0.224-1.69-0.647c-0.207-0.238-0.328-0.563-0.333-0.895
				c-0.005-0.356,0.122-0.674,0.35-0.872c0.212-0.185,0.488-0.287,0.777-0.287c0.013,0,0.026,0,0.039,0
				c0.029-0.289,0.164-0.562,0.391-0.76c0.181-0.158,0.432-0.245,0.707-0.245c0.395,0,0.795,0.178,1.045,0.465
				c0.863,0.995,0.23,2.559,0.094,2.862c-0.046,0.103-0.156,0.197-0.265,0.227C16.472,20.549,15.995,20.677,15.443,20.677z"/>
		</g>
		<g>
			<path fill="#542211" d="M15.683,17.347c0.274,0,0.573,0.119,0.762,0.336c0.73,0.841,0.106,2.304,0.035,2.462
				c-0.004,0.01-0.011,0.015-0.021,0.018c-0.084,0.024-0.514,0.139-1.015,0.139c-0.489,0-1.045-0.11-1.41-0.522
				c-0.31-0.356-0.321-0.971-0.019-1.235c0.15-0.13,0.34-0.195,0.531-0.195c0.146,0,0.293,0.038,0.422,0.113
				c0.007,0.004,0.014,0.006,0.02,0.006c0.024,0,0.043-0.024,0.031-0.051c-0.133-0.316-0.063-0.688,0.203-0.92
				C15.342,17.396,15.507,17.347,15.683,17.347 M15.683,16.597c-0.365,0-0.703,0.12-0.953,0.337c-0.217,0.189-0.37,0.428-0.453,0.69
				c-0.28,0.048-0.541,0.17-0.754,0.356c-0.311,0.271-0.485,0.694-0.478,1.16c0.007,0.418,0.161,0.831,0.423,1.132
				c0.454,0.512,1.136,0.779,1.976,0.779c0.586,0,1.082-0.128,1.22-0.168c0.214-0.061,0.411-0.232,0.501-0.434
				c0.152-0.341,0.855-2.096-0.154-3.259C16.687,16.819,16.191,16.597,15.683,16.597L15.683,16.597z"/>
		</g>
	</g>
</g>
</svg>
