<?xml version="1.0" encoding="utf-8"?>
<!-- Generator: Adobe Illustrator 25.2.1, SVG Export Plug-In . SVG Version: 6.00 Build 0)  -->
<svg version="1.1" id="레이어_1" xmlns="http://www.w3.org/2000/svg" xmlns:xlink="http://www.w3.org/1999/xlink" x="0px"
	 y="0px" viewBox="0 0 56.076 83.148" enable-background="new 0 0 56.076 83.148" xml:space="preserve">
<g>
	<g>
		<g>
			<path fill="#E94744" d="M28.038,82.648c-1.185,0-2.389-0.076-3.578-0.226C12.244,80.882,2.26,70.898,0.72,58.682
				c-0.999-7.921,1.426-15.863,6.652-21.789c5.23-5.931,12.763-9.333,20.666-9.333c1.185,0,2.388,0.076,3.578,0.226
				c12.216,1.54,22.2,11.523,23.739,23.74c0.999,7.921-1.426,15.864-6.653,21.79c-5.23,5.93-12.762,9.332-20.664,9.332
				C28.038,82.648,28.039,82.648,28.038,82.648z M12.446,46.671c-0.424,0-0.798,0.232-0.976,0.605
				c-1.666,3.499-2.167,7.397-1.451,11.274c1.36,7.356,7.217,13.212,14.573,14.572c1.146,0.211,2.304,0.319,3.445,0.319
				c2.728,0,5.362-0.595,7.829-1.77c0.314-0.149,0.529-0.435,0.589-0.784c0.062-0.362-0.05-0.717-0.308-0.975L13.23,46.995
				C13.021,46.786,12.742,46.671,12.446,46.671z M28.038,36.767c-2.728,0-5.361,0.595-7.828,1.77
				c-0.312,0.148-0.526,0.434-0.586,0.782c-0.062,0.359,0.054,0.726,0.309,0.981l22.909,22.909c0.21,0.21,0.49,0.326,0.788,0.326
				c0.425,0,0.799-0.231,0.976-0.603c1.666-3.498,2.167-7.396,1.451-11.272c-1.359-7.356-7.214-13.213-14.571-14.574
				C30.34,36.874,29.179,36.767,28.038,36.767z"/>
			<path fill="#542211" d="M28.039,83.148h-0.001c-1.205,0-2.43-0.077-3.641-0.23C11.958,81.35,1.792,71.184,0.224,58.745
				c-1.017-8.063,1.453-16.148,6.773-22.182c6.122-6.943,15.375-10.445,24.681-9.272c12.439,1.568,22.605,11.734,24.173,24.173
				c1.017,8.064-1.453,16.149-6.774,22.183C43.753,79.685,36.084,83.148,28.039,83.148z M28.038,28.06
				c-7.759,0-15.155,3.34-20.291,9.164C2.616,43.043,0.236,50.841,1.217,58.62C2.728,70.612,12.53,80.414,24.522,81.925
				c8.973,1.129,17.9-2.245,23.806-8.94c5.132-5.818,7.512-13.617,6.532-21.396c-1.511-11.993-11.313-21.795-23.306-23.306
				C30.384,28.135,29.201,28.06,28.038,28.06z M28.038,73.942c-1.17,0-2.359-0.11-3.536-0.327
				C16.944,72.217,10.926,66.2,9.528,58.641c-0.736-3.981-0.221-7.986,1.491-11.58c0.261-0.549,0.808-0.89,1.427-0.89
				c0.43,0,0.833,0.167,1.137,0.471l22.917,22.917c0.374,0.374,0.537,0.889,0.447,1.413c-0.088,0.511-0.404,0.931-0.867,1.151
				C33.548,73.33,30.842,73.942,28.038,73.942z M12.446,47.171c-0.229,0-0.43,0.123-0.524,0.319
				c-1.621,3.403-2.108,7.196-1.411,10.969c1.323,7.154,7.019,12.849,14.172,14.171c3.787,0.698,7.567,0.209,10.968-1.411
				c0.168-0.08,0.278-0.228,0.311-0.417c0.035-0.202-0.025-0.393-0.169-0.537L12.876,47.349
				C12.761,47.234,12.609,47.171,12.446,47.171z M43.631,64.034c-0.432,0-0.837-0.167-1.142-0.472L19.58,40.653
				c-0.371-0.37-0.538-0.901-0.448-1.42c0.088-0.511,0.403-0.93,0.864-1.149c3.592-1.71,7.591-2.227,11.581-1.49
				c7.559,1.398,13.575,7.416,14.972,14.975c0.735,3.981,0.22,7.984-1.491,11.578C44.797,63.694,44.25,64.034,43.631,64.034z
				 M28.038,37.267c-2.653,0-5.214,0.579-7.613,1.721c-0.166,0.079-0.275,0.226-0.308,0.416c-0.034,0.199,0.029,0.402,0.17,0.543
				l22.909,22.909c0.278,0.277,0.8,0.198,0.958-0.138c1.62-3.402,2.108-7.194,1.411-10.966c-1.322-7.154-7.016-12.85-14.17-14.173
				C30.279,37.371,29.149,37.267,28.038,37.267z"/>
		</g>
	</g>
	<g>
		<g>
			<path fill="#F9F3EF" d="M36.064,31.656c0,1.84-0.889,3.02-0.285,4.357c0.57,1.262,1.466,2.104,3.584,2.104
				c1.155,0,3.396-0.079,4.222-1.412c0.826-1.333,0.054-3.146,0.054-5.05c0-3.809-1.689-5.223-3.998-5.223
				C37.331,26.433,36.064,27.848,36.064,31.656z"/>
			<path fill="#542211" d="M39.362,38.617c-2.045,0-3.291-0.74-4.039-2.398c-0.429-0.949-0.233-1.804-0.026-2.71
				c0.131-0.572,0.267-1.165,0.267-1.853c0-3.851,1.333-5.723,4.076-5.723c1.68,0,4.499,0.744,4.499,5.723
				c0,0.61,0.086,1.225,0.169,1.82c0.176,1.265,0.343,2.459-0.299,3.494C43.094,38.446,40.919,38.617,39.362,38.617z M39.64,26.933
				c-1.521,0-3.076,0.561-3.076,4.723c0,0.802-0.155,1.479-0.292,2.076c-0.183,0.801-0.328,1.433-0.038,2.076
				c0.49,1.086,1.21,1.81,3.128,1.81c0.759,0,3.069,0,3.796-1.175c0.451-0.728,0.315-1.701,0.158-2.829
				c-0.087-0.628-0.178-1.278-0.178-1.958C43.138,28.522,41.961,26.933,39.64,26.933z"/>
		</g>
	</g>
	<g>
		<g>
			<path fill="#9A3B23" d="M12.606,31.656c0,1.84-0.889,3.02-0.285,4.357c0.57,1.262,1.466,2.104,3.584,2.104
				c1.155,0,3.396-0.079,4.222-1.412c0.826-1.333,0.054-3.146,0.054-5.05c0-3.809-1.689-5.223-3.998-5.223
				S12.606,27.848,12.606,31.656z"/>
			<path fill="#542211" d="M15.905,38.617c-2.045,0-3.291-0.74-4.039-2.398c-0.429-0.949-0.233-1.804-0.026-2.71
				c0.131-0.573,0.267-1.165,0.267-1.853c0-3.851,1.333-5.723,4.076-5.723c1.68,0,4.499,0.744,4.499,5.723
				c0,0.61,0.086,1.225,0.169,1.82c0.176,1.265,0.343,2.459-0.299,3.494C19.636,38.446,17.461,38.617,15.905,38.617z M16.182,26.933
				c-1.521,0-3.076,0.561-3.076,4.723c0,0.802-0.155,1.479-0.292,2.076c-0.183,0.8-0.328,1.433-0.038,2.075
				c0.49,1.086,1.21,1.81,3.128,1.81c0.759,0,3.069,0,3.796-1.175c0.451-0.728,0.315-1.701,0.158-2.829
				c-0.087-0.628-0.178-1.278-0.178-1.958C19.681,28.522,18.504,26.933,16.182,26.933z"/>
		</g>
	</g>
	<g>
		<g>
			<path fill="#F9F3EF" d="M42.513,19.778c-1.166-3.104-1.998-6.353-1.679-9.653c0.019-0.198-0.164-1.452-0.164-1.654
				C40.669,3.521,34.867,1,27.723,1S14.799,3.521,14.799,8.471c0,0.409,0.233,1.866,0.31,2.26c0.556,2.833,0.01,5.696-1.284,8.276
				c-0.522,1.041-0.806,2.158-0.806,3.321c0,5.666,6.707,10.26,14.982,10.26c8.274,0,14.981-4.594,14.981-10.26
				C42.982,21.448,42.819,20.593,42.513,19.778z"/>
		</g>
	</g>
	<g>
		<g>
			<path fill="#040000" d="M31.433,19.847c0,1.238-1.52,2.485-3.394,2.485s-3.394-1.248-3.394-2.485c0-1.238,1.52-1.997,3.394-1.997
				S31.433,18.609,31.433,19.847z"/>
		</g>
	</g>
	<g>
		<g>
			<path fill="#A13C23" d="M40.372,10.004c0.019-0.198,0.808-1.916,0.808-2.117c0-4.324-5.401-6.331-11.283-6.887
				c-1.475,2.072-2.357,4.624-2.357,7.396c0,6.897,6.061,12.027,12.718,12.027c0.939,0,1.848-0.122,2.725-0.332
				c-0.072-0.303-0.821-0.141-0.931-0.434C40.885,16.553,40.053,13.304,40.372,10.004z"/>
		</g>
	</g>
	<g>
		<g>
			<circle fill="#040000" cx="21.81" cy="14.268" r="1.597"/>
		</g>
	</g>
	<g>
		<g>
			<circle fill="#FFFFFF" cx="21.81" cy="14.867" r="0.395"/>
		</g>
	</g>
	<g>
		<g>
			<path fill="#FFFFFF" d="M30.639,19.537c0.026,0.099,0.081,0.368-0.18,0.712c-0.282,0.371-0.827,0.722-0.976,0.754
				c-0.181,0.039,0.289-0.335,0.52-0.675c0.123-0.18,0.231-0.328,0.166-0.558c-0.061-0.216-0.28-0.323-0.188-0.489
				C30.113,19.042,30.561,19.245,30.639,19.537z"/>
		</g>
	</g>
	<g>
		<g>
			<circle fill="#040000" cx="34.037" cy="14.268" r="1.597"/>
		</g>
	</g>
	<g>
		<g>
			<path fill="#A13C23" d="M18.44,3.618c1.333,0.824,1.299,2.967,0.93,4.367c-0.308,1.165-1.202,3.118-2.044,5.202
				c-0.679,1.68-1.869,5.038-3.185,6.682c-2.082,2.6-5.857,3.558-8.243,2.396c-2.851-1.388-4.014-4.439-3.646-6.419
				c0.404-2.169,1.273-3.46,2.826-5.076c2.154-2.241,4.248-3.985,5.761-5.085C14.356,3.127,17.098,2.788,18.44,3.618z"/>
		</g>
	</g>
	<g>
		<g>
			<path fill="#A13C23" d="M37.414,3.618c-1.333,0.824-1.299,2.967-0.93,4.367c0.308,1.165,1.202,3.118,2.044,5.202
				c0.679,1.68,1.869,5.038,3.185,6.682c2.082,2.6,5.857,3.558,8.243,2.396c2.851-1.388,4.014-4.439,3.646-6.419
				c-0.404-2.169-1.273-3.46-2.826-5.076c-2.154-2.241-4.248-3.985-5.761-5.085C41.499,3.127,38.756,2.788,37.414,3.618z"/>
		</g>
	</g>
	<g>
		<g>
			<path fill="#562312" d="M27.723,1c4.085,0,7.726,0.828,10.1,2.46c0.363-0.123,0.787-0.192,1.269-0.192
				c1.481,0,3.502,0.655,5.924,2.417c1.512,1.1,3.607,2.844,5.761,5.085c1.553,1.615,2.422,2.907,2.826,5.076
				c0.368,1.98-0.795,5.031-3.646,6.419c-0.67,0.326-1.449,0.484-2.269,0.484c-1.628,0-3.418-0.621-4.84-1.77
				c0.085,0.442,0.134,0.893,0.134,1.351c0,5.666-6.707,10.26-14.981,10.26c-8.274,0-14.982-4.594-14.982-10.26
				c0-0.506,0.063-1.001,0.167-1.486c-1.444,1.24-3.312,1.908-5.007,1.908c-0.824,0-1.608-0.158-2.281-0.486
				c-2.851-1.388-4.014-4.439-3.646-6.419c0.404-2.169,1.273-3.46,2.826-5.076c2.154-2.241,4.248-3.985,5.761-5.085
				c2.424-1.763,4.449-2.419,5.932-2.419c0.359,0,0.687,0.039,0.981,0.109C20.121,1.797,23.706,1,27.723,1 M27.723,0
				c-4.124,0-7.715,0.821-10.174,2.319c-0.25-0.036-0.51-0.054-0.777-0.054c-1.337,0-3.553,0.453-6.52,2.611
				c-1.11,0.807-3.352,2.557-5.893,5.201c-1.609,1.674-2.63,3.124-3.088,5.586c-0.458,2.461,0.985,5.94,4.191,7.501
				c0.8,0.39,1.715,0.587,2.719,0.587c1.309,0,2.643-0.334,3.854-0.946C12.387,28.793,19.414,33.589,28,33.589
				c8.559,0,15.568-4.764,15.964-10.727c1.181,0.573,2.471,0.886,3.724,0.886c0.999,0,1.91-0.197,2.706-0.585
				c3.206-1.561,4.649-5.04,4.191-7.501c-0.458-2.462-1.479-3.912-3.088-5.586c-2.542-2.644-4.783-4.393-5.893-5.201
				c-2.964-2.156-5.177-2.608-6.512-2.608c-0.385,0-0.752,0.037-1.097,0.11C35.522,0.842,31.9,0,27.723,0L27.723,0z"/>
		</g>
	</g>
	<g>
		<g>
			<path fill="#562312" d="M12.461,22.424c-0.187,0-0.365-0.104-0.451-0.284c-0.12-0.249-0.015-0.547,0.234-0.667
				c1.644-0.79,3.395-4.604,3.93-6.008l2.349-5.407c0.939-2.47,0.957-3.204,0.957-3.234c0.315-2.923-1.774-3.392-2.014-3.436
				c-0.271-0.05-0.452-0.309-0.403-0.58c0.048-0.271,0.305-0.451,0.576-0.405c0.033,0.005,3.26,0.607,2.838,4.467
				c0.009,0.061-0.01,0.889-1.028,3.565L17.1,15.843c-0.076,0.2-2.085,5.409-4.423,6.532C12.607,22.408,12.533,22.424,12.461,22.424
				z"/>
		</g>
	</g>
	<g>
		<g>
			<path fill="#562312" d="M43.471,22.424c-0.072,0-0.146-0.016-0.216-0.049c-2.338-1.123-4.348-6.332-4.432-6.553l-2.332-5.365
				c-1.027-2.697-1.045-3.525-1.039-3.665c-0.419-3.782,2.808-4.383,2.841-4.389c0.28-0.047,0.531,0.137,0.578,0.408
				c0.047,0.271-0.135,0.529-0.405,0.577c-0.24,0.044-2.329,0.514-2.017,3.374c0.003,0.093,0.021,0.827,0.968,3.318l2.332,5.365
				c0.544,1.424,2.295,5.239,3.939,6.029c0.249,0.12,0.354,0.418,0.234,0.667C43.836,22.319,43.658,22.424,43.471,22.424z"/>
		</g>
	</g>
	<g>
		<g>
			<circle fill="#FFFFFF" cx="34.037" cy="14.867" r="0.395"/>
		</g>
	</g>
</g>
</svg>
