<svg width="78" height="35" viewBox="0 0 78 35" fill="none" xmlns="http://www.w3.org/2000/svg">
<path d="M0.851462 29.4394V24.8995C0.851462 24.2108 1.24094 23.583 1.85819 23.2745C3.86533 22.2715 5.15398 19.9297 5.15398 14.7362V11.9027C5.15398 10.7665 3.42102 10.6073 2.29969 10.8072C1.17837 11.0071 0.148438 10.1465 0.148438 9.0103V4.37505C0.148438 2.05637 2.03254 0.176744 4.35674 0.176744H11.0263C13.3505 0.176744 15.2346 2.05637 15.2346 4.37505V17.7232C15.2346 25.4423 11.9417 30.76 6.92279 33.2105C4.12264 34.5782 0.851462 32.5499 0.851462 29.4394ZM22.3584 34.7241H21.1162C18.792 34.7241 16.9078 32.8444 16.9078 30.5258V4.37505C16.9078 2.05637 18.792 0.176744 21.1162 0.176744H22.3584C24.6826 0.176744 26.5667 2.05637 26.5667 4.37505V11.7337C26.5667 12.2295 26.9695 12.6314 27.4666 12.6314C27.9636 12.6314 28.3665 12.2295 28.3665 11.7337V4.37505C28.3665 2.05637 30.2506 0.176744 32.5748 0.176744H33.817C36.1412 0.176744 38.0253 2.05637 38.0253 4.37505V30.5251C38.0253 32.8437 36.1412 34.7234 33.817 34.7234H32.5748C30.2506 34.7234 28.3665 32.8437 28.3665 30.5251V22.8712C28.3665 22.3753 27.9636 21.9734 27.4666 21.9734C26.9695 21.9734 26.5667 22.3753 26.5667 22.8712V30.5251C26.5667 32.8437 24.6826 34.7241 22.3584 34.7241Z" fill="#FE7968"/>
<path d="M59.4884 19.0144C47.447 19.0144 41.28 22.1319 41.28 27.1621C41.28 32.1922 47.447 34.6862 59.4884 34.6862C71.5305 34.6862 77.6967 31.9425 77.6967 26.9131C77.6967 21.8837 71.5305 19.0144 59.4884 19.0144ZM59.5924 29.3068C56.1455 29.3068 54.3802 28.5928 54.3802 27.1529C54.3802 25.7131 56.1455 24.8209 59.5924 24.8209C63.0393 24.8209 64.8046 25.6422 64.8046 27.0814C64.8046 28.5206 63.0393 29.3068 59.5924 29.3068Z" fill="#FE7968"/>
<path d="M70.5159 18.9394H72.1715C74.4957 18.9394 76.3799 17.0597 76.3799 14.7411V4.24249C76.3799 1.92382 74.4957 0.0441856 72.1715 0.0441856H70.5159C68.1917 0.0441856 66.3076 1.92382 66.3076 4.24249V11.1368V14.7411C66.3069 17.0597 68.1917 18.9394 70.5159 18.9394Z" fill="#FE7968"/>
<path d="M48.7307 18.9373C53.4522 18.9723 59.1621 18.5796 62.9725 17.9463C64.2921 17.7267 65.2511 16.5779 65.2511 15.2439C65.2511 13.6434 63.8844 12.374 62.2864 12.5115C59.1094 12.7843 54.1897 12.8572 51.6166 12.8411C51.3016 12.839 51.0506 12.5837 51.0506 12.2695C51.0506 11.9553 51.3016 11.6993 51.6173 11.6986C54.0237 11.6902 58.67 11.6228 61.4835 11.3241C62.7145 11.1929 63.6489 10.1626 63.6489 8.92754C63.6489 7.53325 62.472 6.43072 61.0779 6.5247C58.3361 6.70986 53.8817 6.80945 51.6869 6.85013C51.3389 6.85644 51.0612 6.57029 51.0724 6.22382C51.0837 5.89839 51.3473 5.64099 51.6742 5.63889C54.3014 5.62346 58.5885 5.50984 61.2087 5.31066C62.5866 5.20615 63.6489 4.06014 63.6489 2.68128C63.6489 1.22457 62.4657 0.0441856 61.0055 0.0441856H45.1783C42.8541 0.0441856 40.97 1.92382 40.97 4.24249V11.7C40.97 16.2862 42.8253 18.9373 48.7307 18.9373Z" fill="#FE7968"/>
</svg>
