<?xml version="1.0" encoding="utf-8"?>
<!-- Generator: Adobe Illustrator 25.2.1, SVG Export Plug-In . SVG Version: 6.00 Build 0)  -->
<svg version="1.1" id="레이어_1" xmlns="http://www.w3.org/2000/svg" xmlns:xlink="http://www.w3.org/1999/xlink" x="0px"
	 y="0px" viewBox="0 0 111.837 52.599" enable-background="new 0 0 111.837 52.599" xml:space="preserve">
<g>
	<g>
		<g>
			<path fill="#E27162" d="M3.461,44.288l0-6.473c0-0.982,0.554-1.877,1.432-2.317c2.855-1.43,4.688-4.769,4.688-12.174v-4.04
				c0-1.62-2.465-1.847-4.06-1.562l0,0c-1.595,0.285-3.06-0.942-3.06-2.562V8.551c0-3.306,2.68-5.986,5.986-5.986h9.487
				c3.306,0,5.986,2.68,5.986,5.986v19.032c0,11.006-4.684,18.588-11.823,22.082C8.114,51.615,3.461,48.723,3.461,44.288z
				 M34.054,51.822h-1.767c-3.306,0-5.986-2.68-5.986-5.986V8.551c0-3.306,2.68-5.986,5.986-5.986h1.767
				c3.306,0,5.986,2.68,5.986,5.986v10.492c0,0.707,0.573,1.28,1.28,1.28h0c0.707,0,1.28-0.573,1.28-1.28V8.551
				c0-3.306,2.68-5.986,5.986-5.986h1.767c3.306,0,5.986,2.68,5.986,5.986v37.285c0,3.306-2.68,5.986-5.986,5.986h-1.767
				c-3.306,0-5.986-2.68-5.986-5.986V34.923c0-0.707-0.573-1.28-1.28-1.28h0c-0.707,0-1.28,0.573-1.28,1.28v10.913
				C40.04,49.142,37.36,51.822,34.054,51.822z"/>
		</g>
		<g>
			<g>
				<g>
					<path fill="#E27162" d="M85.936,30.255c-17.128,0-25.9,4.445-25.9,11.617s8.772,10.728,25.9,10.728
						c17.129,0,25.9-3.912,25.9-11.083S103.065,30.255,85.936,30.255z M86.085,44.93c-4.903,0-7.414-1.018-7.414-3.071
						c0-2.053,2.511-3.325,7.414-3.325c4.903,0,7.414,1.171,7.414,3.223S90.988,44.93,86.085,44.93z"/>
				</g>
			</g>
			<g>
				<g>
					<path fill="#E27162" d="M102.554,29.317h2.355c3.306,0,5.986-2.68,5.986-5.986V8.361c0-3.306-2.68-5.986-5.986-5.986h-2.355
						c-3.306,0-5.986,2.68-5.986,5.986v9.83v5.139C96.568,26.637,99.248,29.317,102.554,29.317z"/>
				</g>
				<g>
					<path fill="#E27162" d="M71.566,29.314c6.716,0.05,14.838-0.51,20.258-1.413c1.877-0.313,3.241-1.951,3.241-3.853v0
						c0-2.282-1.944-4.092-4.217-3.896c-4.519,0.389-11.517,0.493-15.177,0.47c-0.448-0.003-0.805-0.367-0.805-0.815v0
						c0-0.448,0.357-0.813,0.806-0.814c3.423-0.012,10.032-0.108,14.034-0.534c1.751-0.187,3.08-1.656,3.08-3.417v0
						c0-1.988-1.674-3.56-3.657-3.426c-3.9,0.264-10.236,0.406-13.358,0.464c-0.495,0.009-0.89-0.399-0.874-0.893v0
						c0.016-0.464,0.391-0.831,0.856-0.834c3.737-0.022,9.835-0.184,13.562-0.468c1.96-0.149,3.471-1.783,3.471-3.749v0
						c0-2.077-1.683-3.76-3.76-3.76H66.514c-3.306,0-5.986,2.68-5.986,5.986v10.633C60.527,25.534,63.167,29.314,71.566,29.314z"/>
				</g>
			</g>
		</g>
	</g>
	<g>
		<g>
			<path fill="#FFFFFF" d="M1.375,42.288l0-6.473c0-0.982,0.554-1.877,1.432-2.317c2.855-1.43,4.688-4.769,4.688-12.174v-4.04
				c0-1.62-2.465-1.847-4.06-1.562l0,0c-1.595,0.285-3.06-0.942-3.06-2.562V6.551c0-3.306,2.68-5.986,5.986-5.986h9.487
				c3.306,0,5.986,2.68,5.986,5.986v19.032c0,11.006-4.684,18.588-11.823,22.082C6.028,49.614,1.375,46.722,1.375,42.288z
				 M31.968,49.822h-1.767c-3.306,0-5.986-2.68-5.986-5.986V6.551c0-3.306,2.68-5.986,5.986-5.986h1.767
				c3.306,0,5.986,2.68,5.986,5.986v10.492c0,0.707,0.573,1.28,1.28,1.28h0c0.707,0,1.28-0.573,1.28-1.28V6.551
				c0-3.306,2.68-5.986,5.986-5.986h1.767c3.306,0,5.986,2.68,5.986,5.986v37.285c0,3.306-2.68,5.986-5.986,5.986H46.5
				c-3.306,0-5.986-2.68-5.986-5.986V32.923c0-0.707-0.573-1.28-1.28-1.28h0c-0.707,0-1.28,0.573-1.28,1.28v10.913
				C37.954,47.142,35.274,49.822,31.968,49.822z"/>
			<path fill="#D86E5F" d="M48.267,50.198H46.5c-3.508,0-6.361-2.854-6.361-6.361V32.922c0-0.499-0.406-0.904-0.905-0.904
				s-0.905,0.405-0.905,0.904v10.914c0,3.508-2.854,6.361-6.361,6.361h-1.767c-3.507,0-6.361-2.854-6.361-6.361V6.551
				c0-3.508,2.854-6.361,6.361-6.361h1.767c3.508,0,6.361,2.854,6.361,6.361v10.493c0,0.499,0.406,0.905,0.905,0.905
				s0.905-0.406,0.905-0.905V6.551c0-3.508,2.854-6.361,6.361-6.361h1.767c3.508,0,6.361,2.854,6.361,6.361v37.286
				C54.628,47.344,51.775,50.198,48.267,50.198z M39.234,31.268c0.913,0,1.655,0.742,1.655,1.654v10.914
				c0,3.094,2.517,5.611,5.611,5.611h1.767c3.094,0,5.611-2.518,5.611-5.611V6.551c0-3.094-2.517-5.611-5.611-5.611H46.5
				c-3.094,0-5.611,2.517-5.611,5.611v10.493c0,0.913-0.743,1.655-1.655,1.655s-1.655-0.742-1.655-1.655V6.551
				c0-3.094-2.517-5.611-5.611-5.611h-1.767c-3.094,0-5.611,2.517-5.611,5.611v37.286c0,3.094,2.517,5.611,5.611,5.611h1.767
				c3.094,0,5.611-2.518,5.611-5.611V32.922C37.579,32.01,38.321,31.268,39.234,31.268z M7.368,48.657
				c-1.171,0-2.337-0.326-3.373-0.972C2.12,46.515,1,44.498,1,42.288l0-6.473c0-1.13,0.628-2.146,1.639-2.652
				C5.696,31.63,7.12,27.869,7.12,21.323v-4.04c0-0.305-0.116-0.55-0.353-0.75c-0.664-0.556-2.145-0.643-3.266-0.443
				c-0.869,0.157-1.757-0.081-2.435-0.648C0.389,14.875,0,14.043,0,13.159V6.551c0-3.508,2.854-6.361,6.361-6.361h9.487
				c3.508,0,6.361,2.854,6.361,6.361v19.032c0,10.505-4.386,18.676-12.033,22.419C9.282,48.44,8.323,48.657,7.368,48.657z
				 M1.75,42.288c0,1.949,0.988,3.729,2.642,4.761c1.659,1.035,3.697,1.141,5.454,0.28c7.489-3.665,11.613-11.388,11.613-21.746
				V6.551c0-3.094-2.517-5.611-5.611-5.611H6.361c-3.094,0-5.611,2.517-5.611,5.611v6.608c0,0.661,0.291,1.284,0.797,1.708
				c0.507,0.425,1.173,0.6,1.822,0.485c1.293-0.232,2.995-0.133,3.879,0.606c0.407,0.341,0.622,0.799,0.622,1.325v4.04
				c0,6.862-1.556,10.836-4.895,12.509C2.22,34.211,1.75,34.97,1.75,35.815L1.75,42.288z"/>
		</g>
		<g>
			<g>
				<g>
					<path fill="#FFFFFF" d="M83.85,28.255c-17.128,0-25.9,4.445-25.9,11.617s8.772,10.728,25.9,10.728
						c17.129,0,25.9-3.912,25.9-11.083S100.979,28.255,83.85,28.255z M83.999,42.93c-4.903,0-7.414-1.018-7.414-3.071
						c0-2.053,2.511-3.325,7.414-3.325c4.903,0,7.414,1.171,7.414,3.223S88.902,42.93,83.999,42.93z"/>
					<path fill="#D86E5F" d="M83.851,50.974c-17.436,0-26.275-3.735-26.275-11.103c0-4.479,3.414-11.992,26.275-11.992
						c21.717,0,26.275,6.328,26.275,11.637C110.126,47.012,101.04,50.974,83.851,50.974z M83.851,28.629
						c-16.222,0-25.525,4.098-25.525,11.242c0,6.869,8.588,10.353,25.525,10.353c16.699,0,25.525-3.703,25.525-10.708
						C109.376,32.496,100.311,28.629,83.851,28.629z M83.999,43.305c-5.168,0-7.789-1.159-7.789-3.445c0-1.382,1.012-3.7,7.789-3.7
						c6.437,0,7.788,1.956,7.788,3.598C91.787,41.375,90.436,43.305,83.999,43.305z M83.999,36.91c-4.474,0-7.039,1.075-7.039,2.95
						c0,1.788,2.368,2.695,7.039,2.695c2.629,0,7.038-0.363,7.038-2.798C91.037,37.921,88.538,36.91,83.999,36.91z"/>
				</g>
			</g>
			<g>
				<g>
					<path fill="#FFFFFF" d="M100.468,27.317h2.355c3.306,0,5.986-2.68,5.986-5.986V6.361c0-3.306-2.68-5.986-5.986-5.986h-2.355
						c-3.306,0-5.986,2.68-5.986,5.986v9.83v5.139C94.482,24.636,97.162,27.317,100.468,27.317z"/>
					<path fill="#D86E5F" d="M102.823,27.691h-2.355c-3.508,0-6.361-2.853-6.361-6.361V6.361C94.106,2.854,96.96,0,100.468,0h2.355
						c3.508,0,6.361,2.854,6.361,6.361V21.33C109.185,24.838,106.331,27.691,102.823,27.691z M100.468,0.75
						c-3.094,0-5.611,2.517-5.611,5.611V21.33c0,3.094,2.518,5.611,5.611,5.611h2.355c3.094,0,5.611-2.517,5.611-5.611V6.361
						c0-3.094-2.518-5.611-5.611-5.611H100.468z"/>
				</g>
				<g>
					<path fill="#FFFFFF" d="M69.48,27.313c6.716,0.05,14.838-0.51,20.258-1.413c1.877-0.313,3.241-1.951,3.241-3.853v0
						c0-2.282-1.944-4.092-4.217-3.896c-4.519,0.389-11.517,0.493-15.177,0.47c-0.448-0.003-0.805-0.367-0.805-0.815v0
						c0-0.448,0.357-0.813,0.806-0.814c3.423-0.012,10.032-0.108,14.034-0.534c1.751-0.187,3.08-1.656,3.08-3.417v0
						c0-1.988-1.674-3.56-3.657-3.426c-3.9,0.264-10.236,0.406-13.358,0.464c-0.495,0.009-0.89-0.399-0.874-0.893v0
						c0.016-0.464,0.391-0.831,0.856-0.834c3.737-0.022,9.835-0.184,13.562-0.468C89.19,7.735,90.7,6.101,90.7,4.135v0
						c0-2.077-1.683-3.76-3.76-3.76H64.428c-3.306,0-5.986,2.68-5.986,5.986v10.633C58.441,23.534,61.081,27.313,69.48,27.313z"/>
					<path fill="#D86E5F" d="M70.312,27.692c-0.28,0-0.558-0.001-0.833-0.003c-7.894-0.001-11.413-3.299-11.413-10.695V6.361
						C58.066,2.854,60.92,0,64.428,0H86.94c2.28,0,4.135,1.855,4.135,4.135c0,2.149-1.677,3.96-3.817,4.124
						c-3.607,0.274-9.693,0.446-13.589,0.469c-0.262,0.001-0.474,0.208-0.482,0.472c-0.005,0.137,0.045,0.266,0.141,0.362
						c0.093,0.095,0.225,0.146,0.352,0.143c3.333-0.062,9.499-0.204,13.339-0.463c1.063-0.072,2.072,0.288,2.85,1.014
						c0.768,0.717,1.208,1.733,1.208,2.787c0,1.953-1.468,3.582-3.415,3.79c-4.257,0.454-11.259,0.526-14.072,0.536
						c-0.242,0.001-0.433,0.194-0.433,0.439c0,0.245,0.19,0.438,0.433,0.439c3.638,0.022,10.675-0.084,15.143-0.469
						c1.175-0.101,2.356,0.3,3.232,1.104c0.885,0.811,1.392,1.965,1.392,3.166c0,2.104-1.495,3.88-3.555,4.224
						C84.626,27.132,76.9,27.692,70.312,27.692z M64.428,0.75c-3.094,0-5.611,2.517-5.611,5.611v10.633
						c0,6.97,3.189,9.944,10.664,9.944h0.003c6.737,0.043,14.838-0.516,20.193-1.408c1.696-0.282,2.928-1.747,2.928-3.483
						c0-0.991-0.419-1.943-1.148-2.613c-0.731-0.671-1.678-0.991-2.661-0.909c-4.494,0.387-11.57,0.496-15.211,0.472
						c-0.65-0.003-1.179-0.537-1.179-1.189c0-0.654,0.529-1.188,1.181-1.189c2.801-0.01,9.772-0.082,13.994-0.532
						c1.565-0.167,2.745-1.476,2.745-3.044c0-0.859-0.345-1.654-0.97-2.239c-0.623-0.582-1.436-0.873-2.287-0.813
						c-3.856,0.261-10.035,0.403-13.376,0.465c-0.35,0.006-0.66-0.124-0.899-0.367c-0.238-0.241-0.367-0.574-0.356-0.914
						c0.022-0.667,0.562-1.193,1.229-1.196c3.883-0.022,9.946-0.193,13.536-0.467c1.752-0.133,3.124-1.616,3.124-3.375
						c0-1.866-1.519-3.385-3.385-3.385H64.428z"/>
				</g>
			</g>
		</g>
	</g>
</g>
</svg>
