<svg xmlns="http://www.w3.org/2000/svg" viewBox="0 0 128.684 116.857"><defs><style>.cls-1{fill:#ed7565;}.cls-2{fill:#fef3ec;}.cls-3{fill:#fad5c6;}.cls-4{fill:#9fb0da;}.cls-5{fill:#f5c3b3;}.cls-6{fill:#f5b3a3;}.cls-7{fill:#040000;}.cls-8{fill:#1c0404;}.cls-9{fill:#231815;}.cls-10{fill:#a13c23;}.cls-11{fill:#131313;}.cls-12{opacity:0.1;}.cls-13{fill:#fff;}.cls-14{fill:#f8b54a;}</style></defs><g id="레이어_2" data-name="레이어 2"><g id="레이어_1-2" data-name="레이어 1"><circle class="cls-1" cx="48.366" cy="62.223" r="48.366"/><circle class="cls-1" cx="118.56" cy="45.871" r="8.08"/><path class="cls-2" d="M100.156,55.162a55.641,55.641,0,0,1,8.535,6.1c8.728,8.5,5.244,25.865,4.472,29.41a12.933,12.933,0,0,1-7.906,10.722,13.226,13.226,0,0,1-10.853-.76q-1.474-12.422-3.142-25.1Q89.519,62.3,87.64,49.381A65.881,65.881,0,0,1,100.156,55.162Z"/><path class="cls-3" d="M92.694,28.433,83.141,49.781l-15.6-2.8L79.349,27.015Z"/><path class="cls-4" d="M95.68,81.567q.015,1.29-.03,2.55c-.02.71-.05,1.41-.08,2.1h-.01c-.04.86-.1,1.7-.18,2.54-.05.71-.12,1.41-.2,2.11-.1.85-.2,1.69-.33,2.52-.09.71-.2,1.41-.32,2.1-.14.83-.29,1.65-.45,2.45a.185.185,0,0,1-.02.07c-.13.71-.28,1.41-.43,2.1-.2.85-.4,1.69-.61,2.51-.17.71-.36,1.4-.55,2.08-.23.86-.48,1.69-.73,2.5-.22.72-.44,1.41-.66,2.08-.28.86-.57,1.69-.86,2.49-.26.72-.51,1.41-.77,2.07-.24.62-.47,1.21-.7,1.78-.47.01-.95.02-1.42.04h-.04l-45.77,1.2c.05-1.95.12-3.96.23-6.03.04-.69.08-1.4.12-2.11.06-.83.11-1.68.17-2.53.06-.7.11-1.41.17-2.12.07-.84.14-1.68.23-2.53.06-.7.13-1.4.21-2.11.08-.84.17-1.68.27-2.53.08-.69.17-1.39.26-2.1.04-.33.08-.67.13-1.02.06-.5.13-1,.2-1.51.1-.69.2-1.39.3-2.09.13-.84.26-1.68.4-2.53.1-.69.22-1.4.34-2.1.14-.83.29-1.67.45-2.51.12-.69.25-1.39.39-2.09.15-.83.32-1.67.49-2.52.14-.69.29-1.39.44-2.09q.855-4.035,1.92-8.19a217.952,217.952,0,0,1,8.8-26.99,37.446,37.446,0,0,1,15.16-1.12,22.607,22.607,0,0,1,8.97,3.41,23.39,23.39,0,0,1,6.56,6.56c2.87,4.28,4.3,9.14,5.51,13.56a69,69,0,0,1,2.39,15.87v.02C95.66,80.167,95.67,80.867,95.68,81.567Z"/><circle class="cls-5" cx="101.798" cy="16.863" r="4.124"/><path class="cls-3" d="M104.493,16.093a16.079,16.079,0,0,1-32.14.77c-.01-.26-.02-.51-.02-.77A16.039,16.039,0,0,1,91.193.253c.17.02.33.06.5.09a16.08,16.08,0,0,1,11.77,10.08A15.9,15.9,0,0,1,104.493,16.093Z"/><circle class="cls-6" cx="100.237" cy="22.064" r="2.162"/><path class="cls-7" d="M90.186,32.713c-.139,0-.281,0-.424-.01a9.582,9.582,0,0,1-5.453-2.031.5.5,0,1,1,.62-.785,8.486,8.486,0,0,0,10.043.348.5.5,0,0,1,.562.827A9.594,9.594,0,0,1,90.186,32.713Z"/><path class="cls-7" d="M98.075,23.563a.419.419,0,0,1-.1-.013l-2.737-.736a.375.375,0,0,1,.2-.725l1.884.507a5.824,5.824,0,0,1-.145-4.512.375.375,0,0,1,.7.267,5.042,5.042,0,0,0-.33,2.09,5.131,5.131,0,0,0,.843,2.54.375.375,0,0,1-.008.426A.379.379,0,0,1,98.075,23.563Z"/><path class="cls-7" d="M90.82,14.35a.363.363,0,0,1-.147-.031.375.375,0,0,1-.2-.492,2.063,2.063,0,0,1,1.27-1.151,2.021,2.021,0,0,1,2.038.563.376.376,0,0,1-.541.521,1.281,1.281,0,0,0-1.283-.365,1.323,1.323,0,0,0-.794.727A.374.374,0,0,1,90.82,14.35Z"/><path class="cls-8" d="M104.493,13.7c-4.361-1.228-8.244-3.715-9.555-7.463a10.417,10.417,0,0,1-.374-5c.162.054.31.126.471.19A16.077,16.077,0,0,1,104.493,13.7Z"/><circle class="cls-6" cx="89.242" cy="17.74" r="2.162"/><path class="cls-7" d="M93.659,25.678a2.619,2.619,0,0,1-1.522-.484,2.784,2.784,0,0,1-1.108-2.173.375.375,0,0,1,.75,0,2.007,2.007,0,0,0,.791,1.562,1.922,1.922,0,0,0,1.99.126.375.375,0,0,1,.34.669A2.731,2.731,0,0,1,93.659,25.678Z"/><circle class="cls-7" cx="92.166" cy="17.079" r="1.004"/><circle class="cls-7" cx="99.568" cy="19.068" r="1.004"/><path class="cls-9" d="M82.506,18.324a.5.5,0,0,1-.492-.419,2.466,2.466,0,0,1,.936-2.418,2.332,2.332,0,0,1,1.571-.4.5.5,0,0,1,.451.546.511.511,0,0,1-.546.45,1.338,1.338,0,0,0-.9.219A1.461,1.461,0,0,0,83,17.744a.5.5,0,0,1-.412.574A.576.576,0,0,1,82.506,18.324Z"/><path class="cls-2" d="M92.84,58.183c-1.22-.65-3.428-1.133-4.678.086-1.128,1.1-.8,2.936-.657,3.74.064.358.787,4.12,3.343,4.49,2.229.322,4.677-2.1,4.591-4.591C95.359,59.57,93.05,58.294,92.84,58.183Z"/><path class="cls-3" d="M122.47,74.747a11.084,11.084,0,0,1-3.05,6.2c-.22.23-.44.44-.65.64a12.418,12.418,0,0,1-1.7,1.33,1.845,1.845,0,0,1-.16.1l-.26-.13-2.24-1.09-2.76-1.34-5.86-2.85c2.33-2.43,3.2-4.47,3.43-6.08a6.609,6.609,0,0,0,.06-1.23c-.08-2.1-1.13-3.74-.16-5.08a3.092,3.092,0,0,1,1.88-1.08c.37-.1.78-.18,1.22-.26a9.817,9.817,0,0,1,5.17.23C121.07,65.537,123.01,70.577,122.47,74.747Z"/><path class="cls-2" d="M89.342,41.325c-2.235,1.475-2.258,4.64-2.262,5.207-.068,9.393,18.315,15.652,22.006,14.661a3.748,3.748,0,0,0,.571-.192,16.2,16.2,0,0,0,4.5-3.088c.393-.411.686-.766.869-.992l.981-1.274a9.463,9.463,0,0,0-1.345-13.265l-6.281-4.834a8.7,8.7,0,0,0-2.262-1.251,9.674,9.674,0,0,0-10.9,3.35L94.2,40.966A5.891,5.891,0,0,0,89.342,41.325Z"/><path class="cls-10" d="M100.894,43.994c-1.511,3.37.3,6.94,1.846,9.991a22.165,22.165,0,0,0,5.951,7.277,6.99,6.99,0,0,0,.736-.171,10.975,10.975,0,0,0,4.73-3.181h0c.4-.408.69-.763.873-.989l.981-1.274a9.722,9.722,0,0,0-1.771-13.593l-4.127-3.193C105.971,39,102.288,40.885,100.894,43.994Z"/><path class="cls-6" d="M93.017,46.4c-.173.1-.082.679.154,1.112a1.878,1.878,0,0,0,1.483.989c.248.014.678-.023.742-.216s-.3-.319-.519-.825c-.192-.447-.048-.673-.246-.816-.227-.162-.459.1-.954,0C93.274,46.559,93.139,46.324,93.017,46.4Z"/><circle class="cls-11" cx="102.48" cy="45.681" r="0.954"/><circle class="cls-11" cx="96.599" cy="41.155" r="0.954"/><path class="cls-10" d="M110.811,43.513a3.477,3.477,0,0,1,2.692-1.448c1.66.009,2.424,1.628,4.03,3.142,3.942,3.719,7.593,1.745,9.925,5.032,1.108,1.562,1.695,4,.764,5.65-1.579,2.807-7.244,2.841-10.982,1.019C111.627,54.173,108.733,46.463,110.811,43.513Z"/><path class="cls-7" d="M115.548,56.39a.5.5,0,0,1-.3-.1,13.429,13.429,0,0,1-5.511-11.062.511.511,0,0,1,.507-.493.5.5,0,0,1,.493.507,12.428,12.428,0,0,0,5.1,10.24.5.5,0,0,1-.3.9Z"/><path class="cls-11" d="M96.816,49.148H96.8a2.4,2.4,0,0,1-2.352-1.923,2.182,2.182,0,0,1,.586-1.671.375.375,0,1,1,.557.5,1.459,1.459,0,0,0-.4,1.077A1.647,1.647,0,0,0,96.835,48.4a.375.375,0,0,1-.019.75Z"/><path class="cls-11" d="M93.9,47.014a2.456,2.456,0,0,1-2.21-1.8.375.375,0,1,1,.715-.227,1.641,1.641,0,0,0,1.643,1.264,1.457,1.457,0,0,0,.939-.66.375.375,0,1,1,.629.409A2.184,2.184,0,0,1,94.149,47,1.9,1.9,0,0,1,93.9,47.014Z"/><path class="cls-7" d="M94.793,64.677a.492.492,0,0,1-.21-.046.5.5,0,0,1-.244-.663,4.057,4.057,0,0,0-.31-4.141,3.864,3.864,0,0,0-2.251-1.41A.5.5,0,1,1,92,57.44a4.869,4.869,0,0,1,2.835,1.787,5.059,5.059,0,0,1,.417,5.16A.5.5,0,0,1,94.793,64.677Z"/><path class="cls-4" d="M120.42,85.307c-.03.12-.06.24-.1.36-.17.68-.38,1.37-.6,2.08-.27.81-.56,1.64-.91,2.49-.26.68-.56,1.37-.88,2.06-.38.8-.79,1.61-1.24,2.42-.01.02-.02.03-.03.05q-.585,1.05-1.23,2.04c-.54.85-1.11,1.67-1.71,2.45q-.78,1.05-1.62,2.01c-.73.85-1.49,1.65-2.27,2.41-.7.7-1.42,1.35-2.15,1.97q-1.5,1.29-3.03,2.37c-.97.7-1.95,1.34-2.91,1.93-1.43.87-2.84,1.63-4.2,2.29-.4.2-.8.39-1.19.56a.01.01,0,0,0-.01.01c-1.06.48-2.08.91-3.03,1.27-1.77.69-3.33,1.18-4.56,1.54a2.646,2.646,0,0,1-.79.11h-.01c-.21-.02-.42-.04-.62-.07H87.3a2.9,2.9,0,0,1-1.35-.74c-.43-.41-.9-.88-1.39-1.39-.65-.66-1.34-1.41-2.07-2.24s-1.47-1.72-2.24-2.7c-.54-.7-1.1-1.44-1.65-2.22-.6-.84-1.2-1.73-1.8-2.66-.45-.71-.9-1.44-1.33-2.2-.26-.43-.5-.86-.74-1.31-.24-.43-.48-.87-.72-1.33-.36-.71-.72-1.44-1.07-2.19-.39-.84-.78-1.72-1.15-2.62-.28-.7-.56-1.43-.83-2.17-.31-.85-.61-1.72-.88-2.61-.22-.7-.43-1.42-.62-2.15-.24-.85-.45-1.71-.64-2.59-.07-.27-.12-.54-.18-.81-.09-.45-.18-.89-.26-1.33-.16-.87-.3-1.73-.41-2.58-.1-.72-.19-1.43-.26-2.13a60.846,60.846,0,0,1,2.03-22.63,2.911,2.911,0,0,1,2-2.01c2.5-.72,5.01-1.44,7.51-2.15a2.891,2.891,0,0,1,3.7,2.8,55.672,55.672,0,0,0,5.75,25.31,3.778,3.778,0,0,0,.17.35,2.9,2.9,0,0,0,3.1,1.57,2.491,2.491,0,0,0,.37-.09,17.144,17.144,0,0,0,3.29-1.38c.01,0,.02-.01.03-.01a17.122,17.122,0,0,0,7.56-8.31,2.906,2.906,0,0,1,4.79-.89c.4.43.81.85,1.21,1.28,1.75,1.84,3.5,3.69,5.25,5.53,1.2,1.27,2.4,2.53,3.6,3.8.23.24.46.49.7.73.31.33.62.67.94,1a3.209,3.209,0,0,1,.39.52A2.866,2.866,0,0,1,120.42,85.307Z"/><ellipse class="cls-11" cx="95.925" cy="44.997" rx="1.526" ry="2.234" transform="translate(1.764 93.577) rotate(-52.421)"/><path class="cls-8" d="M96.451,2.816c.115-.768-1.666-1.818-3.31-2.1-1.1-.187-2.9-.157-3.077.457-.244.859,2.631,3.081,5.04,2.506C95.285,3.639,96.367,3.38,96.451,2.816Z"/><path class="cls-3" d="M113.075,66.029q-.644-1.9-1.289-3.806"/><path class="cls-3" d="M113.075,66.418a2.6,2.6,0,0,0,.424-1.4c.1-2.344-2.2-5.051-3.928-4.727a2.22,2.22,0,0,0-1.668,1.842c-.069.865.69,1.078.973,2.329.317,1.4-.439,1.975,0,2.572C109.535,67.927,112.1,67.8,113.075,66.418Z"/><path class="cls-7" d="M114.25,68.768a.468.468,0,0,1-.1-.01.5.5,0,0,1-.392-.589,4.337,4.337,0,0,0-.383-2.859,4.029,4.029,0,0,0-.921-1.151.5.5,0,1,1,.654-.756,5.018,5.018,0,0,1,1.15,1.437,5.337,5.337,0,0,1,.48,3.526A.5.5,0,0,1,114.25,68.768Z"/><g class="cls-12"><path class="cls-13" d="M45.88,78.427l9.98.63,7.29.46,4.82.3,2.37.15,20.17,1.27,1.51.1,3.66.23,7.81.49.43.03,4.75.3,5.67.36,2.31.14.42.03,3.03.19a3.209,3.209,0,0,0-.39-.52c-.32-.33-.63-.67-.94-1,.21-.2.43-.41.65-.64l-1.35-.09-3.61-.22-2.81-.18-2.55-.16-4.33-.27-.8-.06-8.31-.52-.03-.01-3.89-.24-.47-.03-2.57-.16-18.45-1.16-2.54-.16-3.77-.24-6.73-.42-10.89-.69Z"/></g><g class="cls-12"><path class="cls-13" d="M120.32,85.667c-.17.68-.38,1.37-.6,2.08l-5.93-.37-6.07-.39-12.16-.77-2.95-.18-3.77-.24-18.07-1.14-1.95-.12-8.02-.5-7.92-.5-7.88-.5-2.85-.18.42-2.09,2.82.18,8.84.56,7.76.49,6.39.4,2.15.14,19.07,1.2,2.75.17,3.3.21,12.47.78,5.96.38Z"/></g><g class="cls-12"><path class="cls-13" d="M118.81,90.237c-.26.68-.56,1.37-.88,2.06l-4.99-.31-5.85-.37-11.91-.75-1.98-.13-6.05-.38-15.6-.98-1.47-.1-13.3-.84-6.88-.43-5.69-.36-2.97-.19.41-2.09,2.9.18,6.7.43,7.7.48,10.51.67,1.69.1,16.77,1.06,5.02.32,2.44.15,11.93.76,6.01.38Z"/></g><g class="cls-12"><path class="cls-13" d="M116.66,94.767q-.585,1.05-1.23,2.04l-4.33-.27-4.08-.26-12.49-.79-.76-.05-8.3-.52-12.74-.8-.94-.06-23.45-1.48-1.42-.09-3.41-.22-3.19-.2.41-2.09,3.08.2,4.46.28,4.64.29,18.05,1.14,1.19.07,14.08.89,7.28.46,1.34.08,12.12.77,5.2.33Z"/></g><g class="cls-12"><path class="cls-13" d="M113.72,99.257q-.78,1.05-1.62,2.01l-4.49-.28-1.28-.08h-.01l-11.98-.76-.71-.04-8.96-.57-10.41-.66-.25-.01-30.07-1.9-1.02-.07c.08-.69.17-1.39.26-2.1l2.11.14,27.65,1.74.6.04,11.01.69,9.51.6h.02l13.17.84,1.83.12Z"/></g><g class="cls-12"><path class="cls-13" d="M109.83,103.677c-.7.7-1.42,1.35-2.15,1.97l-10.98-.68-4.23-.27-15.67-.99-.72-.04-33.64-2.13c.06-.7.13-1.4.21-2.11l32.56,2.06.26.02,14.38.91,3.17.2,15.19.96Z"/></g><g class="cls-12"><path class="cls-13" d="M42.21,104.067l35.06,2.22,1.33.08,13.14.83,12.91.82c-.97.7-1.95,1.34-2.91,1.93l-10.66-.67-10.83-.69-1.78-.11-36.43-2.29Z"/></g><g class="cls-12"><path class="cls-13" d="M97.54,112.237c-.4.2-.8.39-1.19.56a.01.01,0,0,0-.01.01,18.225,18.225,0,0,1-2.08,1.33l-.95-.06-3.86-.24-4.89-.31-2.08-.13-40.73-2.57c.04-.69.08-1.4.12-2.11l38.43,2.43,2.19.14,7.73.48Z"/></g><path class="cls-9" d="M88.591,116.749c-.235,0-.467-.008-.7-.024s-.456-.043-.654-.071c-.031,0-.062,0-.086-.007a10.714,10.714,0,0,1-5.314-2.482,17.066,17.066,0,0,1-2.316-2.389,23.329,23.329,0,0,1-1.914-2.792c-.43-.727-.844-1.483-1.231-2.245-.434-.888-.842-1.787-1.219-2.684-.314-.718-.616-1.471-.889-2.228-.165-.427-.328-.865-.481-1.292-.131-.348-.256-.7-.377-1.055L72.4,96.431c-.2-.625-.414-1.3-.627-2.034-.2-.694-.408-1.431-.592-2.209-.209-.8-.412-1.68-.606-2.605-.143-.706-.275-1.426-.407-2.185-.143-.837-.274-1.712-.387-2.618-.091-.7-.172-1.405-.243-2.147-.081-.847-.152-1.714-.193-2.621-.05-.681-.081-1.411-.091-2.151a75.008,75.008,0,0,1,1.074-14.522,1,1,0,0,1,1.971.337A72.96,72.96,0,0,0,71.25,77.821q.015,1.07.087,2.075c.041.9.11,1.732.187,2.546.07.718.149,1.407.237,2.086.109.881.237,1.725.374,2.531.128.738.257,1.439.395,2.12.186.887.381,1.732.587,2.527.182.762.376,1.465.571,2.129.208.713.415,1.374.613,1.985l.071.216c.042.129.085.26.125.392l.8,2.395c.116.334.234.675.365,1.021.153.429.31.851.477,1.283q.4,1.1.854,2.138c.368.877.761,1.741,1.172,2.583.36.711.753,1.428,1.162,2.12a21.7,21.7,0,0,0,1.749,2.553,15.1,15.1,0,0,0,2.041,2.109,8.766,8.766,0,0,0,4.276,2.031c.03,0,.059,0,.081.007.181.027.373.045.563.063a10.366,10.366,0,0,0,5.735-1.469,17.265,17.265,0,0,0,1.938-1.235,1,1,0,0,1,1.34,1.482,1.069,1.069,0,0,1-.12.1,19.272,19.272,0,0,1-2.194,1.4A12.7,12.7,0,0,1,88.591,116.749Z"/><path class="cls-8" d="M94.259,1.714C94.027,1.3,93.332.38,90.794.1a18.733,18.733,0,0,0-9.324,1.43c-9.279,4.506-11.18,13.61-19.632,17.743-9.736,4.761-15.2-3.448-27.685,1.967-2.569,1.114-9.441,4.1-12.28,10.726-2.909,6.8,1.547,10.126.256,19.417C20.6,62.427,13.545,63.174,13.5,71.326c-.052,9.6,9.655,19.863,20.435,22.227,10.431,2.288,19.927-3.274,20.977-3.866.136-.076.845-.508,1.458-.939,15.015-10.552,8.66-49.059,21.078-55.1,1.356-.659,4.745-1.971,6.458-5.33,1.032-2.024,1.709-5.45.123-7.361-1.1-1.329-2.528-.987-3.121-2.417a3.948,3.948,0,0,1,1.022-4.025,4.787,4.787,0,0,1,1.818-1.028,6.049,6.049,0,0,1,1.912-.331c1.168-.031,9.368-4.2,8.9-10.135A3.046,3.046,0,0,0,94.259,1.714Z"/><rect class="cls-14" x="81.909" y="11.632" width="6.227" height="2.232" rx="1.116" transform="translate(14.924 -37.026) rotate(26.85)"/><path class="cls-6" d="M116.053,31.22a2.575,2.575,0,0,0-1.568-2.988,2.186,2.186,0,0,0-2.352,1.036.1.1,0,0,1-.184-.04,2.264,2.264,0,0,0-1.716-1.97,2.578,2.578,0,0,0-2.69,2.032c-.644,2.973,2.695,5.67,3.067,5.96a.085.085,0,0,0,.075.017c.462-.1,4.692-1.084,5.368-4.047Z"/><path class="cls-6" d="M112.015,23.177a1.071,1.071,0,0,0-.652-1.243.909.909,0,0,0-.978.431.04.04,0,0,1-.076-.017.942.942,0,0,0-.714-.819,1.074,1.074,0,0,0-1.119.845c-.267,1.236,1.121,2.358,1.276,2.479a.038.038,0,0,0,.031.007c.192-.042,1.951-.451,2.232-1.683Z"/></g></g></svg>