<svg width="243" height="202" viewBox="0 0 243 202" fill="none" xmlns="http://www.w3.org/2000/svg">
<rect x="36" y="8.00001" width="14" height="24" fill="#DBFF8D"/>
<rect x="217.733" y="71.4785" width="14" height="24" transform="rotate(-31.7467 217.733 71.4785)" fill="#DBFF8D"/>
<rect x="192" y="4.59821" width="8.73911" height="14.9813" transform="rotate(-31.7467 192 4.59821)" fill="#DBFF8D"/>
<rect x="137" y="21.968" width="7.54127" height="12.9279" transform="rotate(-31.7467 137 21.968)" fill="#90FF8D"/>
<rect x="53.4834" y="64" width="7.54127" height="12.9279" transform="rotate(15.633 53.4834 64)" fill="#90FF8D"/>
<rect x="1.67773" y="119" width="3.632" height="6.22629" transform="rotate(15.633 1.67773 119)" fill="#8DADFF"/>
<rect x="213" y="144.459" width="11.0934" height="19.0172" transform="rotate(-18.1685 213 144.459)" fill="#8DADFF"/>
<rect x="2" y="59.459" width="11.0934" height="19.0172" transform="rotate(-18.1685 2 59.459)" fill="#8DFFE4"/>
<rect x="29.8789" y="163.147" width="11.0934" height="19.0172" transform="rotate(1.14012 29.8789 163.147)" fill="#8DFFE4"/>
<rect x="191" y="187.535" width="4.92325" height="8.43986" transform="rotate(-18.1685 191 187.535)" fill="#8DFFE4"/>
<path d="M99.2769 192.826C136.433 192.826 166.554 162.705 166.554 125.549C166.554 88.3932 136.433 58.2723 99.2769 58.2723C62.1209 58.2723 32 88.3932 32 125.549C32 162.705 62.1209 192.826 99.2769 192.826Z" fill="#ED7565"/>
<path d="M196.917 114.043C203.124 114.043 208.156 109.011 208.156 102.804C208.156 96.5964 203.124 91.5644 196.917 91.5644C190.71 91.5644 185.678 96.5964 185.678 102.804C185.678 109.011 190.71 114.043 196.917 114.043Z" fill="#ED7565"/>
<path d="M171.317 115.727C175.533 118.176 179.508 121.016 183.189 124.212C195.33 136.036 190.483 160.191 189.41 165.122C189.102 168.371 187.916 171.476 185.979 174.104C184.042 176.731 181.426 178.782 178.412 180.036C175.965 180.94 173.353 181.314 170.75 181.131C168.148 180.949 165.613 180.215 163.316 178.979C161.949 167.459 160.492 155.821 158.945 144.065C157.329 131.792 155.65 119.666 153.907 107.686C159.976 109.75 165.811 112.445 171.317 115.727Z" fill="#FEF3EC"/>
<path d="M160.937 78.5474L147.649 108.242L125.949 104.348L142.374 76.575L160.937 78.5474Z" fill="#FAD5C6"/>
<path d="M165.091 152.457C165.105 153.653 165.091 154.835 165.05 156.004C165.022 156.991 164.98 157.965 164.938 158.925H164.924C164.869 160.121 164.785 161.289 164.674 162.458C164.604 163.445 164.507 164.419 164.396 165.393C164.257 166.575 164.118 167.744 163.937 168.898C163.812 169.886 163.659 170.859 163.492 171.819C163.297 172.974 163.088 174.114 162.866 175.227C162.863 175.261 162.853 175.294 162.838 175.325C162.657 176.312 162.448 177.286 162.24 178.246C161.962 179.428 161.683 180.596 161.391 181.737C161.155 182.725 160.89 183.684 160.626 184.63C160.306 185.827 159.958 186.981 159.611 188.108C159.305 189.109 158.999 190.069 158.693 191.001C158.303 192.197 157.9 193.352 157.496 194.465C157.135 195.466 156.787 196.426 156.425 197.344C156.091 198.206 155.772 199.027 155.452 199.82C154.798 199.834 154.13 199.848 153.476 199.876H153.421L89.7549 201.545C89.8244 198.832 89.9218 196.037 90.0748 193.157C90.1305 192.197 90.1861 191.21 90.2417 190.222C90.3252 189.068 90.3947 187.885 90.4782 186.703C90.5617 185.729 90.6312 184.742 90.7147 183.754C90.812 182.586 90.9094 181.417 91.0346 180.235C91.1181 179.261 91.2154 178.287 91.3267 177.3C91.438 176.131 91.5632 174.963 91.7023 173.781C91.8136 172.821 91.9387 171.847 92.0639 170.859C92.1196 170.4 92.1752 169.928 92.2448 169.441C92.3282 168.745 92.4256 168.05 92.523 167.34C92.6621 166.38 92.8012 165.407 92.9403 164.433C93.1211 163.265 93.3019 162.096 93.4967 160.914C93.6358 159.954 93.8027 158.966 93.9696 157.993C94.1643 156.838 94.373 155.67 94.5956 154.501C94.7625 153.542 94.9433 152.568 95.138 151.594C95.3467 150.44 95.5832 149.271 95.8196 148.089C96.0144 147.129 96.223 146.155 96.4317 145.182C97.2245 141.44 98.1148 137.643 99.1024 133.789C102.362 121.022 106.451 108.481 111.343 96.2465C118.192 94.2908 125.369 93.7606 132.431 94.6885C136.881 95.3585 141.136 96.976 144.908 99.4318C148.528 101.834 151.631 104.936 154.033 108.557C158.025 114.51 160.014 121.27 161.697 127.419C163.66 134.623 164.776 142.031 165.022 149.494V149.522C165.063 150.509 165.077 151.483 165.091 152.457Z" fill="#9FB0DA"/>
<path d="M173.6 68.1901C176.768 68.1901 179.336 65.6218 179.336 62.4536C179.336 59.2854 176.768 56.7171 173.6 56.7171C170.432 56.7171 167.863 59.2854 167.863 62.4536C167.863 65.6218 170.432 68.1901 173.6 68.1901Z" fill="#F5C3B3"/>
<path d="M177.35 61.3825C177.353 67.2238 175.071 72.8347 170.992 77.0155C166.912 81.1962 161.359 83.6152 155.52 83.7551C149.68 83.895 144.017 81.7448 139.742 77.7641C135.467 73.7835 132.919 68.2883 132.643 62.4536C132.629 62.0919 132.615 61.7442 132.615 61.3825C132.605 58.1144 133.313 54.884 134.688 51.9196C136.064 48.9552 138.074 46.3292 140.577 44.2274C143.08 42.1256 146.013 40.5992 149.171 39.7563C152.328 38.9133 155.632 38.7743 158.85 39.3491C159.086 39.377 159.309 39.4326 159.545 39.4743C163.234 40.2431 166.669 41.9314 169.532 44.3826C172.394 46.8339 174.59 49.9685 175.917 53.4956C176.871 56.0153 177.357 58.6882 177.35 61.3825Z" fill="#FAD5C6"/>
<path d="M171.429 72.6955C173.09 72.6955 174.437 71.3491 174.437 69.6882C174.437 68.0273 173.09 66.6808 171.429 66.6808C169.768 66.6808 168.422 68.0273 168.422 69.6882C168.422 71.3491 169.768 72.6955 171.429 72.6955Z" fill="#F5B3A3"/>
<path d="M164.497 81.6285C162.298 83.13 159.678 83.89 157.017 83.7979C154.356 83.7059 151.795 82.7665 149.705 81.1166" stroke="#040000" stroke-miterlimit="10" stroke-linecap="round"/>
<path d="M167.655 64.337C167.274 65.332 167.107 66.3959 167.163 67.4598C167.241 68.8126 167.675 70.1208 168.422 71.2516L164.613 70.2279" stroke="#040000" stroke-width="0.75" stroke-linecap="round" stroke-linejoin="round"/>
<path d="M162.074 57.7757C161.785 57.4668 161.417 57.2431 161.009 57.1291C160.602 57.015 160.171 57.0149 159.764 57.1289C159.446 57.2326 159.154 57.4028 158.907 57.6283C158.66 57.8537 158.463 58.1292 158.331 58.4364" stroke="#040000" stroke-width="0.75" stroke-linecap="round" stroke-linejoin="round"/>
<path d="M177.349 58.0539C171.283 56.3457 165.882 52.8863 164.058 47.6729C163.321 45.4315 163.143 43.044 163.538 40.7179C163.763 40.793 163.969 40.8932 164.193 40.9822C167.647 42.489 170.663 44.844 172.963 47.8286C175.263 50.8131 176.772 54.3304 177.349 58.0539Z" fill="#1C0404"/>
<path d="M156.135 66.6809C157.796 66.6809 159.143 65.3344 159.143 63.6735C159.143 62.0126 157.796 60.6662 156.135 60.6662C154.474 60.6662 153.128 62.0126 153.128 63.6735C153.128 65.3344 154.474 66.6809 156.135 66.6809Z" fill="#F5B3A3"/>
<path d="M163.771 73.8319C163.253 74.1015 162.67 74.224 162.087 74.1859C161.504 74.1479 160.942 73.9509 160.463 73.6163C160.06 73.3118 159.731 72.9197 159.502 72.4696C159.272 72.0195 159.148 71.5231 159.138 71.018" stroke="#040000" stroke-width="0.75" stroke-miterlimit="10" stroke-linecap="round"/>
<path d="M160.203 64.1506C160.974 64.1506 161.6 63.5253 161.6 62.754C161.6 61.9827 160.974 61.3575 160.203 61.3575C159.432 61.3575 158.807 61.9827 158.807 62.754C158.807 63.5253 159.432 64.1506 160.203 64.1506Z" fill="#040000"/>
<path d="M170.498 66.9173C171.269 66.9173 171.895 66.2921 171.895 65.5208C171.895 64.7495 171.269 64.1242 170.498 64.1242C169.727 64.1242 169.102 64.7495 169.102 65.5208C169.102 66.2921 169.727 66.9173 170.498 66.9173Z" fill="#040000"/>
<path d="M149.504 60.6787C148.898 60.6141 148.289 60.7664 147.786 61.1085C147.383 61.416 147.074 61.8302 146.894 62.3041C146.714 62.778 146.67 63.2929 146.767 63.7904" stroke="#231815" stroke-miterlimit="10" stroke-linecap="round"/>
<path d="M161.14 119.93C159.443 119.025 156.371 118.354 154.633 120.049C153.064 121.579 153.52 124.133 153.719 125.252C153.808 125.75 154.814 130.982 158.369 131.497C161.469 131.945 164.875 128.576 164.755 125.111C164.644 121.859 161.432 120.084 161.14 119.93Z" fill="#FEF3EC"/>
<path d="M202.355 142.97C201.896 146.223 200.41 149.245 198.113 151.594C197.807 151.914 197.501 152.206 197.208 152.484C196.475 153.169 195.684 153.788 194.844 154.334C194.772 154.385 194.698 154.431 194.621 154.474L194.26 154.293L191.144 152.777L187.305 150.913L179.153 146.948C182.394 143.568 183.605 140.731 183.924 138.491C184.005 137.925 184.033 137.352 184.008 136.78C183.897 133.859 182.436 131.578 183.785 129.714C184.447 128.914 185.376 128.38 186.4 128.212C186.915 128.072 187.485 127.961 188.097 127.85C190.48 127.311 192.963 127.422 195.289 128.17C200.408 130.159 203.106 137.17 202.355 142.97Z" fill="#FAD5C6"/>
<path d="M156.274 96.4801C153.165 98.5319 153.133 102.934 153.127 103.723C153.033 116.789 178.603 125.495 183.737 124.116C184.009 124.049 184.275 123.96 184.532 123.849C186.846 122.782 188.963 121.329 190.791 119.554C191.338 118.982 191.745 118.488 192 118.174L193.365 116.402C195.551 113.702 196.581 110.247 196.231 106.791C195.88 103.334 194.177 100.157 191.494 97.9504L182.757 91.2263C181.801 90.4929 180.74 89.9063 179.61 89.4862C176.915 88.5568 173.995 88.5072 171.27 89.3447C168.545 90.1822 166.156 91.8634 164.449 94.146L163.031 95.9808C161.934 95.5773 160.764 95.4131 159.598 95.4993C158.433 95.5854 157.299 95.9198 156.274 96.4801Z" fill="#FEF3EC"/>
<path d="M172.343 100.193C170.241 104.88 172.76 109.846 174.911 114.09C176.915 118.017 179.737 121.469 183.189 124.212C183.534 124.152 183.876 124.072 184.212 123.975C186.757 123.105 189.027 121.579 190.792 119.55C191.348 118.982 191.752 118.489 192.006 118.174L193.371 116.402C195.541 113.564 196.5 109.983 196.038 106.44C195.577 102.897 193.732 99.6813 190.907 97.4942L185.167 93.0528C179.405 93.2461 174.282 95.8681 172.343 100.193Z" fill="#A13C23"/>
<path d="M161.387 103.539C161.146 103.679 161.273 104.484 161.601 105.086C161.804 105.468 162.099 105.794 162.459 106.034C162.819 106.275 163.233 106.421 163.664 106.462C164.009 106.481 164.607 106.43 164.696 106.161C164.785 105.893 164.278 105.718 163.974 105.014C163.707 104.392 163.907 104.078 163.632 103.879C163.316 103.654 162.993 104.018 162.305 103.879C161.744 103.761 161.556 103.434 161.387 103.539Z" fill="#F5B3A3"/>
<path d="M174.55 103.866C175.283 103.866 175.877 103.272 175.877 102.539C175.877 101.806 175.283 101.212 174.55 101.212C173.817 101.212 173.223 101.806 173.223 102.539C173.223 103.272 173.817 103.866 174.55 103.866Z" fill="#131313"/>
<path d="M166.369 97.5707C167.102 97.5707 167.696 96.9766 167.696 96.2437C167.696 95.5108 167.102 94.9167 166.369 94.9167C165.636 94.9167 165.042 95.5108 165.042 96.2437C165.042 96.9766 165.636 97.5707 166.369 97.5707Z" fill="#131313"/>
<path d="M186.138 99.5236C186.568 98.9248 187.128 98.4321 187.777 98.083C188.426 97.7339 189.146 97.5377 189.883 97.5095C192.192 97.522 193.254 99.774 195.488 101.88C200.972 107.053 206.05 104.307 209.294 108.879C210.835 111.052 211.652 114.443 210.357 116.739C208.16 120.643 200.28 120.69 195.081 118.156C187.273 114.352 183.248 103.627 186.138 99.5236Z" fill="#A13C23"/>
<path d="M185.346 101.925C185.3 104.804 185.945 107.652 187.228 110.23C188.511 112.808 190.394 115.041 192.718 116.74" stroke="#040000" stroke-linecap="round" stroke-linejoin="round"/>
<path d="M164.577 102.712C164.338 102.966 164.153 103.267 164.036 103.596C163.918 103.925 163.869 104.275 163.892 104.623C164.028 105.257 164.379 105.825 164.886 106.23C165.394 106.634 166.026 106.85 166.674 106.84" stroke="#131313" stroke-width="0.75" stroke-linecap="round" stroke-linejoin="round"/>
<path d="M164.561 102.705C164.377 103.001 164.134 103.256 163.846 103.454C163.559 103.652 163.235 103.789 162.892 103.857C162.244 103.888 161.604 103.693 161.083 103.306C160.562 102.918 160.192 102.361 160.035 101.731" stroke="#131313" stroke-width="0.75" stroke-linecap="round" stroke-linejoin="round"/>
<path d="M159.813 119.575C161.218 119.878 162.47 120.666 163.352 121.8C164.01 122.734 164.404 123.827 164.493 124.965C164.581 126.103 164.362 127.245 163.857 128.269" stroke="#040000" stroke-linecap="round" stroke-linejoin="round"/>
<path d="M199.504 157.659C199.462 157.826 199.42 157.993 199.365 158.16C199.128 159.106 198.836 160.065 198.53 161.053C198.155 162.18 197.751 163.334 197.264 164.517C196.903 165.462 196.485 166.422 196.04 167.382C195.512 168.495 194.941 169.622 194.315 170.748C194.301 170.776 194.288 170.79 194.274 170.818C193.731 171.791 193.161 172.737 192.563 173.655C191.812 174.838 191.019 175.978 190.184 177.063C189.461 178.037 188.71 178.969 187.931 179.859C186.915 181.042 185.858 182.154 184.773 183.212C183.799 184.185 182.798 185.089 181.782 185.952C180.392 187.148 178.987 188.247 177.568 189.248C176.219 190.222 174.855 191.112 173.52 191.933C171.531 193.143 169.57 194.2 167.678 195.118C167.121 195.397 166.565 195.661 166.023 195.897C166.019 195.897 166.015 195.899 166.013 195.902C166.01 195.904 166.009 195.908 166.009 195.911C164.534 196.579 163.115 197.177 161.794 197.678C159.332 198.638 157.162 199.319 155.451 199.82C155.094 199.926 154.724 199.978 154.352 199.973H154.338C154.046 199.945 153.754 199.917 153.476 199.876H153.434C152.727 199.708 152.078 199.352 151.556 198.846C150.958 198.276 150.304 197.622 149.623 196.913C148.719 195.995 147.759 194.952 146.743 193.797C145.728 192.643 144.699 191.405 143.627 190.041C142.876 189.068 142.097 188.038 141.332 186.953C140.498 185.785 139.663 184.547 138.829 183.253C138.203 182.266 137.577 181.25 136.978 180.193C136.617 179.595 136.283 178.997 135.949 178.371C135.615 177.773 135.281 177.161 134.948 176.521C134.447 175.533 133.946 174.518 133.459 173.475C132.917 172.306 132.374 171.082 131.86 169.83C131.47 168.856 131.081 167.841 130.705 166.812C130.274 165.629 129.857 164.419 129.481 163.181C129.175 162.208 128.883 161.206 128.619 160.191C128.285 159.008 127.993 157.812 127.728 156.588C127.631 156.212 127.561 155.837 127.478 155.461C127.353 154.835 127.228 154.223 127.116 153.611C126.894 152.401 126.699 151.205 126.546 150.022C126.407 149.021 126.282 148.033 126.184 147.06C125.141 136.483 126.099 125.804 129.008 115.581C129.195 114.917 129.549 114.311 130.036 113.822C130.523 113.332 131.126 112.976 131.79 112.785C135.268 111.784 138.759 110.782 142.236 109.795C142.839 109.619 143.473 109.587 144.09 109.701C144.707 109.814 145.289 110.07 145.789 110.449C146.289 110.827 146.693 111.317 146.97 111.88C147.247 112.443 147.388 113.062 147.383 113.69C147.238 125.891 149.979 137.954 155.381 148.896C155.452 149.062 155.531 149.224 155.618 149.383C156.004 150.163 156.633 150.798 157.411 151.192C158.188 151.585 159.072 151.717 159.93 151.566C160.104 151.538 160.276 151.496 160.445 151.441C162.033 150.962 163.566 150.319 165.021 149.522C165.035 149.522 165.049 149.508 165.063 149.508C169.768 146.947 173.473 142.875 175.579 137.949C175.836 137.327 176.245 136.779 176.769 136.355C177.292 135.932 177.912 135.645 178.574 135.522C179.236 135.399 179.918 135.444 180.559 135.651C181.199 135.859 181.778 136.223 182.242 136.711C182.798 137.309 183.368 137.893 183.925 138.491C186.359 141.05 188.793 143.624 191.227 146.183C192.897 147.95 194.566 149.702 196.235 151.469C196.555 151.803 196.875 152.151 197.209 152.484C197.64 152.943 198.071 153.416 198.516 153.875C198.721 154.098 198.903 154.34 199.059 154.599C199.333 155.054 199.514 155.558 199.59 156.084C199.666 156.609 199.637 157.145 199.504 157.659Z" fill="#9FB0DA"/>
<path d="M167.895 103.483C168.61 102.554 168.087 100.952 166.727 99.9054C165.366 98.8587 163.684 98.7634 162.969 99.6925C162.254 100.622 162.777 102.223 164.138 103.27C165.498 104.316 167.18 104.412 167.895 103.483Z" fill="#131313"/>
<path d="M166.162 42.9143C166.322 41.846 163.845 40.3854 161.558 39.9932C160.028 39.733 157.524 39.7748 157.278 40.6288C156.939 41.8237 160.938 44.9145 164.289 44.1147C164.54 44.059 166.045 43.6988 166.162 42.9143Z" fill="#1C0404"/>
<path d="M189.287 130.843C188.69 129.081 188.092 127.317 187.494 125.549L189.287 130.843Z" fill="#FAD5C6"/>
<path d="M189.286 131.384C189.665 130.805 189.87 130.129 189.876 129.437C190.015 126.177 186.816 122.411 184.412 122.862C183.814 123.009 183.274 123.331 182.86 123.788C182.447 124.244 182.179 124.814 182.092 125.424C181.996 126.627 183.052 126.923 183.446 128.664C183.886 130.611 182.835 131.411 183.446 132.241C184.362 133.483 187.93 133.307 189.286 131.384Z" fill="#FAD5C6"/>
<path d="M188.88 127.716C189.466 128.223 189.954 128.833 190.32 129.516C191.021 130.885 191.233 132.452 190.92 133.958" stroke="#040000" stroke-linecap="round" stroke-linejoin="round"/>
<path opacity="0.1" d="M95.8193 148.089L109.701 148.965L119.842 149.605L126.546 150.022L129.843 150.231L157.9 151.998L160 152.137L165.091 152.457L175.955 153.138L176.553 153.18L183.16 153.597L191.047 154.098L194.26 154.293L194.844 154.335L199.059 154.599C198.903 154.34 198.721 154.098 198.517 153.875C198.071 153.416 197.64 152.944 197.209 152.484C197.501 152.206 197.807 151.914 198.113 151.594L196.235 151.469L191.214 151.163L187.305 150.913L183.758 150.69L177.735 150.315L176.622 150.231L165.063 149.508L165.021 149.494L159.61 149.16L158.957 149.118L155.382 148.896L129.718 147.282L126.185 147.06L120.941 146.726L111.579 146.142L96.4314 145.182L95.8193 148.089Z" fill="white"/>
<path opacity="0.1" d="M199.364 158.16C199.128 159.106 198.835 160.065 198.529 161.053L190.281 160.538L181.838 159.996L164.923 158.925L160.82 158.674L155.576 158.341L130.44 156.755L127.728 156.588L116.572 155.892L105.555 155.197L94.5942 154.501L90.6299 154.251L91.2141 151.344L95.1367 151.594L107.433 152.373L118.227 153.055L127.116 153.611L130.106 153.806L156.633 155.475L160.458 155.712L165.048 156.004L182.394 157.089L190.684 157.617L199.364 158.16Z" fill="white"/>
<path opacity="0.1" d="M197.265 164.517C196.903 165.462 196.486 166.422 196.041 167.382L189.1 166.951L180.962 166.436L164.396 165.393L161.641 165.212L153.226 164.683L131.526 163.32L129.482 163.181L110.981 162.013L101.411 161.415L93.4965 160.914L89.3652 160.65L89.9355 157.742L93.9694 157.993L103.289 158.591L114 159.259L128.619 160.191L130.97 160.33L154.297 161.804L161.28 162.249L164.674 162.458L181.268 163.515L189.628 164.044L197.265 164.517Z" fill="white"/>
<path opacity="0.1" d="M194.274 170.818C193.731 171.791 193.161 172.737 192.563 173.655L186.54 173.28L180.864 172.918L163.491 171.819L162.434 171.75L150.888 171.026L133.167 169.914L131.86 169.83L99.2408 167.772L97.2655 167.646L92.5222 167.34L88.085 167.062L88.6553 164.155L92.9395 164.433L99.1434 164.823L105.598 165.226L130.705 166.812L132.36 166.909L151.946 168.147L162.072 168.787L163.936 168.898L180.795 169.969L188.028 170.428L194.274 170.818Z" fill="white"/>
<path opacity="0.1" d="M190.185 177.063C189.461 178.037 188.71 178.969 187.931 179.859L181.686 179.47L179.905 179.359H179.891L163.227 178.301L162.24 178.246L149.776 177.453L135.296 176.535L134.948 176.521L93.121 173.878L91.7021 173.781C91.8134 172.821 91.9386 171.847 92.0638 170.86L94.9988 171.054L133.46 173.475L134.294 173.53L149.609 174.49L162.838 175.325H162.866L181.185 176.493L183.73 176.66L190.185 177.063Z" fill="white"/>
<path opacity="0.1" d="M184.772 183.212C183.799 184.185 182.797 185.089 181.782 185.952L166.509 185.006L160.625 184.63L138.828 183.253L137.826 183.198L91.0332 180.235C91.1167 179.261 91.214 178.287 91.3253 177.3L136.616 180.165L136.978 180.193L156.98 181.459L161.39 181.737L182.519 183.073L184.772 183.212Z" fill="white"/>
<path opacity="0.1" d="M90.714 183.754L139.482 186.842L141.332 186.953L159.61 188.108L177.568 189.248C176.219 190.222 174.855 191.112 173.52 191.933L158.692 191.001L143.628 190.041L141.152 189.888L90.4775 186.703L90.714 183.754Z" fill="white"/>
<path opacity="0.1" d="M167.678 195.119C167.122 195.397 166.565 195.661 166.023 195.897C166.019 195.897 166.015 195.899 166.013 195.902C166.01 195.904 166.009 195.908 166.009 195.911C165.087 196.593 164.121 197.211 163.115 197.761L161.794 197.678L156.425 197.344L149.623 196.913L146.73 196.732L90.0742 193.157C90.1299 192.197 90.1855 191.21 90.2411 190.222L143.697 193.602L146.743 193.797L157.496 194.465L167.678 195.119Z" fill="white"/>
<path d="M131.191 127.335C130.051 133.92 129.557 140.601 129.717 147.282C129.731 148.284 129.773 149.271 129.842 150.231C129.898 151.469 129.995 152.651 130.106 153.806C130.204 154.821 130.315 155.795 130.44 156.755C130.593 157.993 130.774 159.189 130.969 160.33C131.15 161.373 131.33 162.361 131.525 163.32C131.79 164.586 132.068 165.782 132.36 166.909C132.61 167.966 132.888 168.968 133.167 169.914C133.459 170.915 133.751 171.847 134.029 172.71C134.112 172.974 134.21 173.252 134.293 173.53C134.613 174.476 134.947 175.492 135.295 176.535C135.503 177.133 135.712 177.745 135.949 178.371C136.157 178.955 136.38 179.553 136.616 180.165C136.978 181.167 137.381 182.182 137.826 183.198C138.341 184.422 138.898 185.646 139.482 186.842C140.01 187.885 140.567 188.901 141.151 189.888C141.909 191.186 142.76 192.427 143.696 193.602C144.603 194.742 145.619 195.79 146.729 196.732C148.626 198.385 150.949 199.474 153.433 199.876H153.475C153.753 199.917 154.045 199.945 154.338 199.973H154.351C157.424 200.093 160.467 199.325 163.115 197.761C164.12 197.211 165.087 196.593 166.008 195.911C166.008 195.908 166.009 195.904 166.012 195.902C166.015 195.899 166.018 195.897 166.022 195.897" stroke="#231815" stroke-width="2" stroke-linecap="round" stroke-linejoin="round"/>
<path d="M163.114 41.3814C162.791 40.8055 161.825 39.5258 158.294 39.1363C153.872 38.6822 149.407 39.367 145.325 41.1255C132.418 47.3933 129.773 60.0569 118.017 65.8059C104.474 72.4284 96.8735 61.0097 79.5069 68.542C75.9334 70.0916 66.3745 74.2451 62.4254 83.4618C58.379 92.9206 64.5773 97.547 62.7815 110.471C60.6547 125.833 50.8412 126.872 50.7786 138.211C50.7063 151.565 64.2087 165.841 79.2036 169.129C93.7131 172.312 106.922 164.575 108.383 163.752C108.572 163.646 109.558 163.045 110.411 162.445C131.296 147.768 122.457 94.2045 139.73 85.8015C141.616 84.8848 146.33 83.0598 148.713 78.3875C150.149 75.5721 151.09 70.8065 148.884 68.1483C147.354 66.2997 145.368 66.7754 144.543 64.7863C144.236 63.8131 144.207 62.7738 144.458 61.7849C144.709 60.796 145.231 59.8966 145.964 59.1875C146.692 58.5306 147.555 58.0423 148.493 57.7576C149.349 57.462 150.247 57.3065 151.153 57.2972C152.778 57.2541 164.184 51.455 163.533 43.1994C163.53 42.5698 163.387 41.9488 163.114 41.3814Z" fill="#1C0404"/>
<path d="M153.446 56.6004L148.489 54.0906C147.724 53.7033 146.79 54.0095 146.402 54.7744C146.015 55.5393 146.321 56.4733 147.086 56.8606L152.044 59.3704C152.809 59.7576 153.743 59.4515 154.13 58.6866C154.518 57.9216 154.211 56.9877 153.446 56.6004Z" fill="#F8B54A"/>
<path d="M193.43 82.4241C193.628 81.5848 193.516 80.7024 193.115 79.9389C192.715 79.1754 192.052 78.5821 191.249 78.2678C190.622 78.1318 189.967 78.1979 189.379 78.4568C188.792 78.7157 188.301 79.154 187.978 79.7089C187.962 79.7332 187.94 79.7523 187.914 79.7634C187.887 79.7746 187.858 79.7773 187.83 79.7712C187.802 79.7651 187.777 79.7505 187.757 79.7294C187.738 79.7083 187.725 79.6817 187.722 79.6533C187.656 79.0059 187.391 78.3948 186.963 77.9041C186.536 77.4134 185.967 77.0672 185.335 76.913C184.476 76.8565 183.625 77.1109 182.938 77.6299C182.251 78.1488 181.773 78.8977 181.593 79.7395C180.697 83.8749 185.342 87.6265 185.859 88.0298C185.873 88.0417 185.89 88.05 185.908 88.0541C185.927 88.0583 185.945 88.058 185.963 88.0535C186.606 87.9144 192.49 86.5457 193.43 82.4241Z" fill="#F5B3A3"/>
<path d="M187.813 71.2364C187.895 70.8873 187.849 70.5202 187.682 70.2026C187.515 69.885 187.24 69.6381 186.906 69.5073C186.645 69.4508 186.373 69.4784 186.128 69.5861C185.884 69.6938 185.68 69.8761 185.545 70.1069C185.54 70.1182 185.531 70.1273 185.52 70.1327C185.508 70.1382 185.496 70.1397 185.483 70.1369C185.471 70.1342 185.46 70.1274 185.452 70.1176C185.444 70.1079 185.44 70.0958 185.44 70.0832C185.412 69.814 185.302 69.56 185.124 69.356C184.946 69.152 184.71 69.0081 184.447 68.944C184.089 68.9209 183.736 69.0269 183.45 69.2426C183.164 69.4583 182.966 69.7695 182.89 70.1194C182.519 71.8387 184.449 73.3994 184.665 73.5677C184.671 73.5723 184.678 73.5756 184.685 73.5773C184.693 73.5789 184.701 73.579 184.708 73.5774C184.975 73.519 187.422 72.9501 187.813 71.2364Z" fill="#F5B3A3"/>
</svg>
