<svg width="165" height="163" viewBox="0 0 165 163" fill="none" xmlns="http://www.w3.org/2000/svg">
<path d="M31.3939 86.52V69.924H33.1759V86.52H31.3939ZM24.4459 71.04C25.0579 71.04 25.6159 71.142 26.1199 71.346C26.6359 71.55 27.0799 71.856 27.4519 72.264C27.8239 72.672 28.1119 73.176 28.3159 73.776C28.5319 74.376 28.6399 75.072 28.6399 75.864V77.736C28.6399 78.528 28.5319 79.224 28.3159 79.824C28.1119 80.424 27.8239 80.928 27.4519 81.336C27.0799 81.732 26.6359 82.032 26.1199 82.236C25.6159 82.44 25.0579 82.542 24.4459 82.542C23.8339 82.542 23.2699 82.44 22.7539 82.236C22.2499 82.032 21.8119 81.732 21.4399 81.336C21.0679 80.928 20.7739 80.424 20.5579 79.824C20.3539 79.224 20.2519 78.528 20.2519 77.736V75.864C20.2519 75.072 20.3539 74.376 20.5579 73.776C20.7739 73.164 21.0679 72.66 21.4399 72.264C21.8119 71.856 22.2499 71.55 22.7539 71.346C23.2699 71.142 23.8339 71.04 24.4459 71.04ZM24.4459 80.94C24.7699 80.94 25.0819 80.88 25.3819 80.76C25.6819 80.64 25.9459 80.442 26.1739 80.166C26.4019 79.89 26.5819 79.536 26.7139 79.104C26.8579 78.66 26.9299 78.12 26.9299 77.484V76.116C26.9299 75.48 26.8579 74.946 26.7139 74.514C26.5819 74.07 26.3959 73.71 26.1559 73.434C25.9279 73.158 25.6639 72.96 25.3639 72.84C25.0759 72.72 24.7699 72.66 24.4459 72.66C24.1219 72.66 23.8099 72.72 23.5099 72.84C23.2099 72.96 22.9459 73.158 22.7179 73.434C22.4899 73.71 22.3039 74.07 22.1599 74.514C22.0279 74.946 21.9619 75.48 21.9619 76.116V77.484C21.9619 78.12 22.0279 78.66 22.1599 79.104C22.3039 79.536 22.4899 79.89 22.7179 80.166C22.9459 80.442 23.2099 80.64 23.5099 80.76C23.8099 80.88 24.1219 80.94 24.4459 80.94ZM36.0982 82.146V71.418H43.8562V82.146H36.0982ZM37.8622 80.616H42.0922V72.948H37.8622V80.616ZM46.8802 86.52V69.924H48.6622V86.52H46.8802ZM55.9225 78.348C55.8385 78.552 55.7125 78.762 55.5445 78.978C55.3765 79.194 55.1485 79.458 54.8605 79.77C54.4885 80.178 54.0745 80.616 53.6185 81.084C53.1625 81.54 52.6285 82.05 52.0165 82.614L50.8465 81.408C51.3865 80.916 51.8785 80.448 52.3225 80.004C52.7785 79.56 53.2105 79.11 53.6185 78.654C53.9185 78.33 54.1585 78.036 54.3385 77.772C54.5185 77.508 54.6565 77.25 54.7525 76.998C54.8485 76.746 54.9145 76.488 54.9505 76.224C54.9865 75.96 55.0045 75.66 55.0045 75.324V72.966H51.4405V71.418H60.2785V72.966H56.8045V75.324C56.8045 75.684 56.8225 75.996 56.8585 76.26C56.8945 76.524 56.9605 76.776 57.0565 77.016C57.1645 77.256 57.3145 77.508 57.5065 77.772C57.6985 78.024 57.9565 78.324 58.2805 78.672C58.6645 79.092 59.0545 79.494 59.4505 79.878C59.8585 80.262 60.3325 80.688 60.8725 81.156L59.7025 82.362C59.0905 81.798 58.5805 81.318 58.1725 80.922C57.7645 80.514 57.3865 80.124 57.0385 79.752C56.7865 79.476 56.5585 79.218 56.3545 78.978C56.1505 78.738 56.0125 78.528 55.9405 78.348H55.9225ZM62.5285 86.52V69.924H64.3105V86.52H62.5285ZM72.3088 73.164V71.652H77.0968V69.834H78.8788V71.652H83.6848V73.164H78.8788V73.29C78.8788 73.47 78.8968 73.65 78.9328 73.83C78.9808 73.998 79.0648 74.166 79.1848 74.334C79.3048 74.49 79.4728 74.652 79.6888 74.82C79.9168 74.976 80.2048 75.138 80.5528 75.306C81.1528 75.582 81.7588 75.846 82.3708 76.098C82.9828 76.338 83.6308 76.578 84.3148 76.818L83.7208 78.204C82.9528 77.928 82.2628 77.67 81.6508 77.43C81.0388 77.178 80.4868 76.944 79.9948 76.728C79.3948 76.464 78.9448 76.236 78.6448 76.044C78.3448 75.84 78.1288 75.636 77.9968 75.432H77.9788C77.8468 75.66 77.6308 75.87 77.3308 76.062C77.0308 76.254 76.5808 76.482 75.9808 76.746C75.4888 76.962 74.9368 77.19 74.3248 77.43C73.7128 77.67 73.0228 77.928 72.2548 78.204L71.6248 76.818C72.3088 76.578 72.9628 76.338 73.5868 76.098C74.2108 75.846 74.8168 75.582 75.4048 75.306C75.7528 75.15 76.0348 74.988 76.2508 74.82C76.4668 74.652 76.6348 74.484 76.7548 74.316C76.8868 74.148 76.9768 73.98 77.0248 73.812C77.0728 73.632 77.0968 73.458 77.0968 73.29V73.164H72.3088ZM77.1148 86.52V81.048H70.4008V79.536H85.6288V81.048H78.9148V86.52H77.1148ZM88.4252 76.44C88.4252 76.056 88.5272 75.696 88.7312 75.36C88.9472 75.024 89.2652 74.736 89.6852 74.496C90.1172 74.244 90.6452 74.052 91.2692 73.92C91.9052 73.776 92.6432 73.704 93.4832 73.704C94.3232 73.704 95.0552 73.776 95.6792 73.92C96.3152 74.052 96.8432 74.244 97.2632 74.496C97.6952 74.736 98.0132 75.024 98.2172 75.36C98.4332 75.696 98.5412 76.056 98.5412 76.44V76.872C98.5412 77.256 98.4332 77.616 98.2172 77.952C98.0132 78.288 97.6952 78.582 97.2632 78.834C96.8432 79.074 96.3152 79.266 95.6792 79.41C95.0552 79.542 94.3232 79.608 93.4832 79.608C92.6432 79.608 91.9052 79.542 91.2692 79.41C90.6452 79.266 90.1172 79.074 89.6852 78.834C89.2652 78.582 88.9472 78.288 88.7312 77.952C88.5272 77.616 88.4252 77.256 88.4252 76.872V76.44ZM92.5832 86.52V82.002H85.8692V80.49H101.097V82.002H94.3832V86.52H92.5832ZM94.4012 71.49H99.6752V72.984H87.2912V71.49H92.5652V69.6H94.4012V71.49ZM90.1892 76.782C90.1892 76.926 90.2492 77.082 90.3692 77.25C90.5012 77.418 90.6992 77.568 90.9632 77.7C91.2392 77.832 91.5812 77.946 91.9892 78.042C92.4092 78.126 92.9072 78.168 93.4832 78.168C94.0592 78.168 94.5512 78.126 94.9592 78.042C95.3792 77.946 95.7212 77.832 95.9852 77.7C96.2612 77.568 96.4592 77.418 96.5792 77.25C96.7112 77.082 96.7772 76.926 96.7772 76.782V76.53C96.7772 76.386 96.7112 76.23 96.5792 76.062C96.4592 75.894 96.2612 75.744 95.9852 75.612C95.7212 75.48 95.3792 75.372 94.9592 75.288C94.5512 75.192 94.0592 75.144 93.4832 75.144C92.9072 75.144 92.4092 75.192 91.9892 75.288C91.5812 75.372 91.2392 75.48 90.9632 75.612C90.6992 75.744 90.5012 75.894 90.3692 76.062C90.2492 76.23 90.1892 76.386 90.1892 76.53V76.782ZM110.067 78.438C110.007 78.618 109.905 78.81 109.761 79.014C109.629 79.206 109.473 79.41 109.293 79.626C108.933 80.058 108.531 80.514 108.087 80.994C107.643 81.474 107.181 81.96 106.701 82.452L105.495 81.246C106.035 80.73 106.539 80.226 107.007 79.734C107.475 79.242 107.901 78.744 108.285 78.24C108.645 77.772 108.885 77.31 109.005 76.854C109.125 76.398 109.185 75.912 109.185 75.396V73.02H106.341V71.526H113.577V73.02H110.913V75.396C110.913 75.912 110.979 76.392 111.111 76.836C111.255 77.28 111.507 77.736 111.867 78.204C112.251 78.696 112.647 79.164 113.055 79.608C113.463 80.052 113.937 80.532 114.477 81.048L113.271 82.236C112.791 81.756 112.353 81.312 111.957 80.904C111.573 80.484 111.201 80.058 110.841 79.626C110.661 79.41 110.505 79.206 110.373 79.014C110.241 78.81 110.145 78.618 110.085 78.438H110.067ZM115.269 70.266H117.015V85.71H115.269V76.908H112.749V75.36H115.269V70.266ZM120.309 86.52H118.563V69.924H120.309V86.52ZM128.956 80.256C129.688 80.256 130.366 80.328 130.99 80.472C131.626 80.604 132.178 80.802 132.646 81.066C133.114 81.33 133.48 81.648 133.744 82.02C134.008 82.392 134.14 82.818 134.14 83.298V83.946C134.14 84.426 134.008 84.852 133.744 85.224C133.48 85.608 133.114 85.926 132.646 86.178C132.178 86.442 131.626 86.64 130.99 86.772C130.366 86.916 129.688 86.988 128.956 86.988C128.224 86.988 127.54 86.916 126.904 86.772C126.28 86.64 125.734 86.442 125.266 86.178C124.798 85.926 124.432 85.608 124.168 85.224C123.904 84.852 123.772 84.426 123.772 83.946V83.298C123.772 82.818 123.904 82.392 124.168 82.02C124.432 81.648 124.798 81.33 125.266 81.066C125.734 80.802 126.28 80.604 126.904 80.472C127.54 80.328 128.224 80.256 128.956 80.256ZM136.57 77.556V79.068H121.342V77.556H127.138V74.298H128.938V77.556H136.57ZM123.34 70.59H134.302V72.696C134.302 72.888 134.29 73.14 134.266 73.452C134.254 73.752 134.23 74.076 134.194 74.424C134.158 74.772 134.11 75.132 134.05 75.504C133.99 75.864 133.924 76.206 133.852 76.53L132.088 76.332C132.244 75.648 132.352 75 132.412 74.388C132.472 73.764 132.502 73.206 132.502 72.714V72.102H123.34V70.59ZM128.956 85.53C129.436 85.53 129.88 85.482 130.288 85.386C130.708 85.302 131.068 85.182 131.368 85.026C131.68 84.882 131.926 84.708 132.106 84.504C132.286 84.3 132.376 84.078 132.376 83.838V83.406C132.376 83.178 132.286 82.962 132.106 82.758C131.926 82.542 131.68 82.362 131.368 82.218C131.068 82.062 130.708 81.942 130.288 81.858C129.88 81.762 129.436 81.714 128.956 81.714C128.476 81.714 128.026 81.762 127.606 81.858C127.198 81.942 126.838 82.062 126.526 82.218C126.226 82.362 125.986 82.542 125.806 82.758C125.626 82.962 125.536 83.178 125.536 83.406V83.838C125.536 84.078 125.626 84.3 125.806 84.504C125.986 84.708 126.226 84.882 126.526 85.026C126.838 85.182 127.198 85.302 127.606 85.386C128.026 85.482 128.476 85.53 128.956 85.53Z" fill="#767676"/>
<path d="M76.9352 153.87C119.425 153.87 153.87 119.425 153.87 76.9352C153.87 34.445 119.425 0 76.9352 0C34.445 0 0 34.445 0 76.9352C0 119.425 34.445 153.87 76.9352 153.87Z" fill="#ED7565"/>
<path d="M157.476 108.607C160.246 108.607 162.492 106.361 162.492 103.591C162.492 100.82 160.246 98.5739 157.476 98.5739C154.705 98.5739 152.459 100.82 152.459 103.591C152.459 106.361 154.705 108.607 157.476 108.607Z" fill="#ED7565"/>
<path d="M163.746 93.7246C164.438 93.7246 165 93.1629 165 92.4701C165 91.7772 164.438 91.2156 163.746 91.2156C163.053 91.2156 162.491 91.7772 162.491 92.4701C162.491 93.1629 163.053 93.7246 163.746 93.7246Z" fill="#ED7565"/>
<path d="M151.774 97.6396C153.159 97.6396 154.282 96.5169 154.282 95.1319C154.282 93.747 153.159 92.6243 151.774 92.6243C150.389 92.6243 149.266 93.747 149.266 95.1319C149.266 96.5169 150.389 97.6396 151.774 97.6396Z" fill="#ED7565"/>
<path d="M109.109 51.1021C112.256 50.7068 116.066 53.5861 118.005 56.1557C120.812 59.8757 119.323 62.4229 121.89 66.6225C124.789 71.3453 128.232 70.6719 131.054 74.1758C135.77 80.0332 134.909 92.8219 127.88 98.0494C119.692 104.14 105.831 97.9585 100.011 89.517C90.2747 75.3987 101.084 52.1247 109.109 51.1021Z" fill="#1C0404"/>
<path d="M122.521 43.2839C125.523 43.2839 127.956 40.8509 127.956 37.8495C127.956 34.8482 125.523 32.4152 122.521 32.4152C119.52 32.4152 117.087 34.8482 117.087 37.8495C117.087 40.8509 119.52 43.2839 122.521 43.2839Z" fill="#F5C3B3"/>
<path d="M108.087 52.8903L102.033 80.9213L82.5752 65.5195L102.845 44.5424L108.087 52.8903Z" fill="#F5C3B3"/>
<path d="M126.074 36.8349C126.077 42.3686 123.915 47.6839 120.051 51.6446C116.186 55.6052 110.925 57.8967 105.393 58.0293C99.8612 58.1618 94.4968 56.1248 90.4469 52.3538C86.3971 48.5828 83.9833 43.377 83.7215 37.8496C83.7084 37.5069 83.6952 37.1775 83.6952 36.8349C83.6853 33.7389 84.3558 30.6786 85.6591 27.8703C86.9624 25.062 88.8668 22.5743 91.2375 20.5832C93.6083 18.5921 96.3875 17.1461 99.3788 16.3475C102.37 15.5489 105.5 15.4173 108.548 15.9618C108.772 15.9882 108.983 16.0409 109.207 16.0804C112.702 16.8087 115.956 18.4081 118.667 20.7302C121.379 23.0524 123.46 26.022 124.717 29.3633C125.62 31.7504 126.08 34.2825 126.074 36.8349V36.8349Z" fill="#FAD5C6"/>
<path d="M117.24 54.353C112.645 57.5356 106.976 58.7676 101.474 57.7792" stroke="#040000" stroke-miterlimit="10" stroke-linecap="round"/>
<path d="M115.755 35.8373C115.636 36.9776 115.792 38.1298 116.209 39.1975C116.627 40.2651 117.294 41.2172 118.156 41.9741H114.421" stroke="#040000" stroke-width="0.75" stroke-linecap="round" stroke-linejoin="round"/>
<path d="M109.892 31.9236C109.618 31.6311 109.269 31.4194 108.883 31.3116C108.497 31.2038 108.089 31.204 107.703 31.3122C107.402 31.4107 107.125 31.5719 106.891 31.7852C106.657 31.9985 106.471 32.259 106.345 32.5496" stroke="#040000" stroke-width="0.75" stroke-linecap="round" stroke-linejoin="round"/>
<path d="M127.1 52.6505C127.208 52.7277 127.298 52.826 127.366 52.9393C127.434 53.0525 127.478 53.1784 127.496 53.3093C127.627 53.9484 127.161 54.3728 127.046 55.1133C126.915 55.987 127.422 56.2334 127.544 57.0504C127.562 57.8585 127.376 58.6581 127.003 59.3753C126.63 60.0925 126.083 60.7042 125.411 61.1539C124.001 62.1092 121.956 62.0591 121.458 60.9905C120.442 58.8294 125.734 52.0469 127.1 52.6505Z" fill="#FAD5C6"/>
<path d="M127.162 54.5994C127.358 54.0326 127.434 53.4315 127.386 52.8337C127.339 52.236 127.168 51.6546 126.886 51.1258C126.055 49.5195 124.674 48.2655 122.996 47.593C121.613 47.1234 120.129 47.0409 118.704 47.3542C117.278 47.6675 115.965 48.3648 114.907 49.3706C114.431 49.8104 114.058 50.3502 113.815 50.9513C113.573 51.5523 113.466 52.1997 113.504 52.8468C113.733 57.574 113.963 62.3003 114.193 67.0257C114.226 67.9968 114.581 68.9291 115.203 69.6759C115.825 70.4227 116.677 70.9414 117.626 71.1503C117.847 71.1939 118.07 71.2234 118.295 71.2386H118.353C119.299 71.2638 120.227 70.98 120.997 70.4302C121.766 69.8804 122.336 69.0946 122.619 68.1919L127.162 54.5994Z" fill="#FAD5C6"/>
<path d="M123.392 47.8684C122.011 47.3996 120.528 47.3174 119.103 47.6307C117.678 47.9441 116.366 48.641 115.309 49.646C114.833 50.0857 114.46 50.6255 114.217 51.2266C113.975 51.8277 113.868 52.4751 113.906 53.1222L114.169 58.4762L114.598 67.3051C114.631 68.2762 114.986 69.2087 115.607 69.9555C116.229 70.7023 117.081 71.221 118.03 71.4297" stroke="#040000" stroke-width="0.75" stroke-linecap="round" stroke-linejoin="round"/>
<path d="M117.042 52.8415C117.512 51.751 117.737 50.5707 117.701 49.3838C117.701 49.3548 117.693 49.3152 117.701 49.2849C117.698 49.1755 117.688 49.0664 117.672 48.9581" stroke="#040000" stroke-width="0.75" stroke-linecap="round" stroke-linejoin="round"/>
<path d="M119.406 54.353C119.901 52.8526 120.146 51.2811 120.131 49.7013C120.131 49.3838 120.11 49.0794 120.091 48.7789C120.088 48.6764 120.077 48.5742 120.06 48.4732" stroke="#040000" stroke-width="0.75" stroke-linecap="round" stroke-linejoin="round"/>
<path d="M121.891 54.0064C122.375 52.6497 122.611 51.2168 122.587 49.7765C122.587 49.4866 122.561 49.2099 122.541 48.9318C122.543 48.8787 122.538 48.8256 122.526 48.7737" stroke="#040000" stroke-width="0.75" stroke-linecap="round" stroke-linejoin="round"/>
<path d="M125.037 50.2074C125.02 51.7334 124.771 53.2478 124.296 54.6983" stroke="#040000" stroke-width="0.75" stroke-linecap="round" stroke-linejoin="round"/>
<path d="M109.207 16.0804C108.917 18.7647 108.126 21.3707 106.874 23.7629C102.196 32.5786 91.4172 37.2829 83.7216 37.8496C83.7084 37.507 83.6953 37.1775 83.6953 36.8349C83.6918 33.684 84.3913 30.5721 85.743 27.7259C87.0947 24.8796 89.0644 22.3709 91.5086 20.3824C93.9528 18.394 96.8099 16.976 99.8716 16.2318C102.933 15.4875 106.123 15.4358 109.207 16.0804Z" fill="#040000"/>
<path d="M124.717 29.3633C118.76 28.9548 113.081 26.7937 110.38 22.3134C109.26 20.3772 108.632 18.1967 108.548 15.9619C108.772 15.9882 108.983 16.0409 109.207 16.0805C112.702 16.8087 115.956 18.4081 118.667 20.7303C121.379 23.0524 123.46 26.022 124.717 29.3633V29.3633Z" fill="#1C0404"/>
<path d="M105.657 41.8542C107.23 41.8542 108.506 40.5787 108.506 39.0052C108.506 37.4318 107.23 36.1562 105.657 36.1562C104.083 36.1562 102.808 37.4318 102.808 39.0052C102.808 40.5787 104.083 41.8542 105.657 41.8542Z" fill="#F5B3A3"/>
<path d="M120.704 41.8542C122.278 41.8542 123.553 40.5787 123.553 39.0052C123.553 37.4318 122.278 36.1562 120.704 36.1562C119.131 36.1562 117.855 37.4318 117.855 39.0052C117.855 40.5787 119.131 41.8542 120.704 41.8542Z" fill="#F5B3A3"/>
<path d="M109.609 44.8376C110.017 44.4635 110.52 44.2084 111.062 44.0999C111.605 43.9914 112.168 44.0337 112.688 44.2222C113.131 44.4026 113.527 44.6809 113.846 45.0362C114.166 45.3916 114.4 45.8148 114.533 46.2739" stroke="#040000" stroke-width="0.75" stroke-miterlimit="10" stroke-linecap="round"/>
<path d="M108.548 37.5452C109.279 37.5452 109.871 36.9529 109.871 36.2222C109.871 35.4915 109.279 34.8992 108.548 34.8992C107.817 34.8992 107.225 35.4915 107.225 36.2222C107.225 36.9529 107.817 37.5452 108.548 37.5452Z" fill="#040000"/>
<path d="M118.647 37.5452C119.378 37.5452 119.97 36.9529 119.97 36.2222C119.97 35.4915 119.378 34.8992 118.647 34.8992C117.916 34.8992 117.324 35.4915 117.324 36.2222C117.324 36.9529 117.916 37.5452 118.647 37.5452Z" fill="#040000"/>
<path d="M108.601 151.334C97.3524 155.492 85.2471 156.789 73.3733 155.109C67.1061 154.186 60.9923 152.421 55.1976 149.862C54.8484 148.288 54.5388 146.582 54.3029 144.752C54.1513 143.588 54.0393 142.469 53.9669 141.398L56.6155 134.361L57.617 131.673L58.8293 128.458L59.8308 125.769L61.0431 122.554L62.0446 119.879L63.2517 116.655L64.2532 113.98L65.4655 110.751L66.467 108.076L67.6793 104.861L68.6808 102.186L69.8931 98.9573L70.8946 96.2823L82.5171 65.3153C82.7068 64.8125 83.0005 64.3554 83.3788 63.9738C83.7572 63.5922 84.2118 63.2947 84.713 63.1007C85.2141 62.9067 85.7505 62.8206 86.2872 62.848C86.8239 62.8754 87.3488 63.0156 87.8276 63.2596C100.689 69.8088 105.657 77.2804 107.857 82.7886C108.042 83.2498 108.213 83.7242 108.384 84.1854C110.242 89.6936 110.058 94.8592 109.439 100.591C109.346 101.487 109.228 102.41 109.122 103.345C108.991 104.413 108.846 105.52 108.714 106.653C108.608 107.549 108.503 108.471 108.411 109.407C108.292 110.488 108.2 111.595 108.108 112.741C108.042 113.637 107.989 114.559 107.95 115.508C107.897 116.589 107.87 117.709 107.857 118.855C107.844 119.765 107.857 120.7 107.897 121.649C107.923 122.743 107.976 123.876 108.068 125.035C108.134 125.958 108.226 126.894 108.332 127.855C108.45 128.962 108.595 130.096 108.78 131.268C108.806 131.453 108.846 131.637 108.872 131.835C108.991 132.599 109.136 133.364 109.28 134.102C109.333 134.418 109.386 134.734 109.465 135.037C109.623 135.894 109.808 136.737 110.005 137.554C110.229 138.542 110.48 139.491 110.73 140.414C111.059 141.639 111.402 142.799 111.745 143.892C112.008 144.736 112.285 145.553 112.548 146.317C112.6 146.467 112.64 146.622 112.667 146.778C112.79 147.36 112.774 147.962 112.621 148.537C112.468 149.111 112.182 149.641 111.786 150.085C111.39 150.528 110.896 150.872 110.342 151.089C109.789 151.306 109.192 151.39 108.601 151.334V151.334Z" fill="#9FB0DA"/>
<path d="M126.93 102.538C126.891 103.803 126.851 104.738 126.825 105.318L126.785 105.99C126.733 106.886 126.667 107.782 126.614 108.652C126.561 109.601 126.509 110.523 126.443 111.432C126.377 112.566 126.298 113.673 126.206 114.753C126.126 115.702 126.047 116.624 125.942 117.52C125.81 118.667 125.652 119.774 125.468 120.828C125.296 121.777 125.099 122.686 124.861 123.542C124.571 124.653 124.188 125.738 123.715 126.784C123.288 127.711 122.758 128.586 122.134 129.393C121.713 129.922 121.245 130.411 120.737 130.856C120.081 131.412 119.385 131.918 118.655 132.371C118.101 132.727 117.693 132.938 117.693 132.938C116.334 133.666 114.885 134.211 113.384 134.559C112.1 134.857 110.788 135.016 109.47 135.033C107.575 135.074 105.682 134.861 103.843 134.401C102.605 134.07 101.397 133.633 100.233 133.096C98.3888 132.219 96.6767 131.088 95.1463 129.736C94.297 128.986 93.5165 128.161 92.8139 127.272C92.2171 126.945 91.6998 126.49 91.2985 125.941C91.1378 125.726 91.0233 125.481 90.962 125.22C90.9008 124.959 90.8942 124.689 90.9427 124.425C91.0349 123.99 91.1272 123.569 91.2062 123.134C91.4434 122.04 91.6675 120.947 91.8915 119.853C92.0891 118.944 92.2736 118.034 92.4581 117.125C92.6953 116.031 92.9193 114.938 93.1433 113.844C93.341 112.935 93.5255 112.025 93.71 111.116C93.9471 110.022 94.1712 108.929 94.3952 107.835C94.5797 106.926 94.7773 106.03 94.9618 105.12C95.1858 104.027 95.4098 102.92 95.6339 101.826C95.8315 100.917 96.016 100.008 96.2005 99.0983C97.0702 94.9606 97.9267 90.8361 98.7833 86.6983C98.8916 86.1511 99.1881 85.659 99.6214 85.3076C100.055 84.9561 100.597 84.7675 101.155 84.7744C101.618 84.7685 102.072 84.899 102.461 85.1498C102.85 85.4006 103.157 85.7604 103.343 86.1844C103.557 86.6394 103.908 87.0163 104.346 87.2627C104.785 87.509 105.289 87.6126 105.789 87.5589C106.289 87.5053 106.76 87.2971 107.137 86.9634C107.513 86.6297 107.776 86.187 107.889 85.6969C108.007 85.3542 108.113 84.9985 108.232 84.6427C108.284 84.4977 108.324 84.3396 108.39 84.1814C109.286 81.3351 110.129 78.2252 110.88 74.8782C111.777 70.9119 112.458 66.9001 112.923 62.8604C112.996 62.5285 113.138 62.2158 113.34 61.9426C113.542 61.6695 113.799 61.4422 114.096 61.2755C114.392 61.1088 114.72 61.0065 115.058 60.9753C115.396 60.9442 115.737 60.9848 116.059 61.0946L124.295 63.875C124.593 63.9784 124.869 64.1346 125.112 64.3362C125.631 64.8742 125.924 65.5914 125.929 66.3392C126.918 78.3783 127.252 90.4622 126.93 102.538V102.538Z" fill="#9FB0DA"/>
<path opacity="0.1" d="M126.93 102.538C126.891 103.803 126.851 104.738 126.825 105.318L109.128 103.341L105.596 102.946L105.28 102.907L95.6339 101.826L69.8984 98.9533L60.3975 97.886L60.7005 95.1319L70.8999 96.2783L96.1953 99.0983L105.63 100.152L106.223 100.232L109.439 100.587L126.93 102.538Z" fill="white"/>
<path opacity="0.1" d="M126.614 108.652C126.561 109.601 126.509 110.523 126.443 111.432L108.416 109.407L94.3952 107.839L67.6846 104.861L59.7122 103.965L60.0285 101.211L68.6861 102.186L94.9619 105.124L108.719 106.653L126.614 108.652Z" fill="white"/>
<path opacity="0.1" d="M126.206 114.753C126.127 115.702 126.047 116.624 125.942 117.52L107.955 115.504L93.1434 113.844L65.4707 110.747L59.0402 110.022L59.3432 107.268L66.4722 108.072L93.71 111.116L108.113 112.737L126.206 114.753Z" fill="white"/>
<path opacity="0.1" d="M125.468 120.828C125.296 121.777 125.099 122.686 124.862 123.542L107.902 121.645L91.8916 119.853L63.2517 116.655L58.3497 116.101L58.6528 113.347L64.2532 113.98L92.453 117.129L107.857 118.855L125.468 120.828Z" fill="white"/>
<path opacity="0.1" d="M123.715 126.784C123.288 127.711 122.758 128.586 122.134 129.393L108.337 127.855L91.2986 125.945L61.0432 122.558L57.6698 122.176L57.9808 119.422L62.0394 119.883L91.2011 123.138L108.068 125.035L123.715 126.784Z" fill="white"/>
<path opacity="0.1" d="M118.655 132.371C118.102 132.727 117.693 132.938 117.693 132.938C116.334 133.666 114.886 134.211 113.384 134.559L109.286 134.098L100.233 133.096L58.8294 128.458L56.9977 128.247L57.3008 125.493L59.8309 125.769L95.1464 129.736L108.785 131.264L118.655 132.371Z" fill="white"/>
<path opacity="0.1" d="M110.735 140.41L56.6156 134.361L56.3125 134.322L56.6288 131.568L57.6171 131.673L110.011 137.55C110.235 138.538 110.485 139.487 110.735 140.41Z" fill="white"/>
<path opacity="0.1" d="M112.667 146.774L55.6351 140.396L55.9382 137.642L111.745 143.888C112.008 144.732 112.285 145.549 112.548 146.313C112.6 146.463 112.64 146.618 112.667 146.774Z" fill="white"/>
<path d="M108.991 87.8118L104.885 105.322L107.867 82.1297C108.532 83.5098 108.917 85.0079 109 86.5376C109.021 86.9621 109.018 87.3876 108.991 87.8118V87.8118Z" fill="#02050C"/>
<path d="M143.15 157.448C127.654 157.04 112.161 156.644 96.6736 156.262C95.5403 156.223 94.4071 156.196 93.2738 156.17C93.9045 150.861 95.8773 145.799 99.006 141.464C100.982 138.917 103.266 136.624 105.806 134.638C105.86 134.595 105.918 134.556 105.977 134.519C106.57 134.071 107.611 133.307 108.929 132.147C110.323 131.081 111.549 129.81 112.566 128.379C113.745 126.383 114.368 124.108 114.371 121.79C123.068 123.74 131.761 125.686 140.449 127.627C141.623 128.33 142.681 129.21 143.585 130.237C151.373 139.188 143.822 155.985 143.15 157.448Z" fill="#FEF3EC"/>
<path d="M108.283 16.6603C107.205 15.5323 105.298 15.7023 104.066 15.8696C100.42 16.3849 96.6789 16.9133 93.1513 19.1469C83.5239 25.2414 81.8187 40.0291 71.2003 48.045C59.6925 56.7421 50.6699 47.6892 36.0166 58.0467C33.0029 60.1761 24.9475 65.8754 23.0697 75.1918C21.1485 84.7441 27.7939 87.8422 28.6346 100.17C29.6321 114.824 20.74 117.696 22.8813 128.217C25.4008 140.603 40.6906 151.234 55.2319 151.377C69.3041 151.516 80.053 141.781 81.2481 140.735C81.4023 140.603 82.2009 139.851 82.8742 139.13C99.3974 121.472 80.8172 73.5156 95.2083 62.382C96.7804 61.1657 100.797 58.5606 102.101 53.7653C102.892 50.8768 102.837 46.2752 100.276 44.238C98.4948 42.8214 96.7488 43.6463 95.5984 41.9623C95.1255 41.1193 94.8969 40.1612 94.9381 39.1955C94.9793 38.2298 95.2887 37.2946 95.8316 36.4949C96.3821 35.7476 97.0913 35.1315 97.9084 34.691C98.6432 34.251 99.4441 33.9324 100.28 33.7475C101.779 33.393 111.231 25.8001 109.027 18.2758C108.915 17.6846 108.659 17.13 108.283 16.6603V16.6603Z" fill="#1C0404"/>
<path d="M99.6927 36.8533C99.1196 36.7935 98.5438 36.9377 98.0666 37.2605C97.6842 37.5517 97.391 37.9441 97.2203 38.3934C97.0495 38.8427 97.0081 39.3308 97.1007 39.8024" stroke="#231815" stroke-miterlimit="10" stroke-linecap="round"/>
<path d="M102.267 32.6452L97.1834 31.2788C96.3991 31.068 95.5923 31.5329 95.3815 32.3173C95.1707 33.1017 95.6357 33.9084 96.42 34.1192L101.504 35.4856C102.288 35.6964 103.095 35.2315 103.306 34.4471C103.517 33.6628 103.052 32.856 102.267 32.6452Z" fill="#F8B54A"/>
<path d="M151.477 117.329C152.625 120.667 150.106 123.99 149.655 124.586C142.177 134.451 117.949 126.214 114.891 122.214C114.727 122.006 114.579 121.786 114.449 121.555C113.326 119.416 112.575 117.102 112.227 114.711C112.147 113.966 112.127 113.36 112.116 112.977V110.857C112.035 107.567 113.257 104.378 115.517 101.986C117.777 99.5931 120.891 98.1911 124.18 98.085H134.625C135.767 98.0855 136.902 98.2574 137.993 98.5949C140.555 99.4531 142.778 101.103 144.341 103.307C145.905 105.511 146.727 108.155 146.69 110.857V113.049C147.747 113.381 148.721 113.934 149.546 114.672C150.372 115.41 151.03 116.316 151.477 117.329Z" fill="#FEF3EC"/>
<path d="M137.268 110.834C136.137 115.569 131.375 117.839 127.31 119.784C123.537 121.576 119.423 122.536 115.247 122.602C115.024 122.356 114.814 122.099 114.617 121.832C113.209 119.709 112.387 117.251 112.234 114.708C112.148 113.964 112.127 113.358 112.116 112.974V110.857C112.126 107.472 113.475 104.229 115.869 101.836C118.262 99.4434 121.505 98.0947 124.889 98.085L131.765 98.0665C135.979 101.539 138.31 106.468 137.268 110.834Z" fill="#A13C23"/>
<path d="M134.256 112.579C134.95 112.579 135.513 112.016 135.513 111.322C135.513 110.627 134.95 110.065 134.256 110.065C133.561 110.065 132.999 110.627 132.999 111.322C132.999 112.016 133.561 112.579 134.256 112.579Z" fill="#131313"/>
<path d="M144.035 112.579C144.729 112.579 145.292 112.016 145.292 111.322C145.292 110.627 144.729 110.065 144.035 110.065C143.34 110.065 142.778 110.627 142.778 111.322C142.778 112.016 143.34 112.579 144.035 112.579Z" fill="#131313"/>
<path d="M141.651 117.885C143.277 117.885 144.595 116.985 144.595 115.875C144.595 114.764 143.277 113.864 141.651 113.864C140.025 113.864 138.707 114.764 138.707 115.875C138.707 116.985 140.025 117.885 141.651 117.885Z" fill="#131313"/>
<path d="M127.294 102.362C127.317 101.665 127.181 100.971 126.896 100.334C126.61 99.6965 126.183 99.1329 125.647 98.6859C123.906 97.3681 121.806 98.4394 118.913 98.7307C111.808 99.4449 109.58 94.4493 104.504 96.0082C102.092 96.7501 99.5213 98.8216 99.1642 101.295C98.5593 105.495 104.447 110.083 109.815 111.178C117.879 112.84 127.098 107.113 127.294 102.362Z" fill="#A13C23"/>
<path d="M126.503 104.621C124.874 106.81 122.743 108.575 120.289 109.769C117.836 110.963 115.131 111.551 112.404 111.482" stroke="#040000" stroke-linecap="round" stroke-linejoin="round"/>
<path d="M141.643 117.212C141.675 117.542 141.64 117.874 141.538 118.189C141.437 118.504 141.271 118.795 141.053 119.044C140.585 119.441 139.993 119.664 139.38 119.675C138.766 119.685 138.167 119.483 137.686 119.103" stroke="#131313" stroke-width="0.75" stroke-linecap="round" stroke-linejoin="round"/>
<path d="M141.658 117.212C141.625 117.542 141.661 117.874 141.762 118.189C141.864 118.504 142.029 118.795 142.248 119.044C142.716 119.441 143.307 119.664 143.921 119.675C144.534 119.685 145.133 119.483 145.615 119.103" stroke="#131313" stroke-width="0.75" stroke-linecap="round" stroke-linejoin="round"/>
<path d="M135.57 140.868C136.441 140.511 142.174 138.242 145.387 140.868C149.414 144.163 146.614 152.79 143.351 157.34C142.098 159.089 140.255 161.66 136.984 162.093C133.941 162.498 130.106 160.991 129.458 158.594C128.471 154.943 135.426 151.239 134.07 147.075C133.882 146.514 133.574 146.001 133.169 145.571" fill="#A13C23"/>
<path d="M124.856 140.868C125.729 140.511 131.461 138.242 134.675 140.868C138.702 144.163 135.902 152.79 132.638 157.34C131.386 159.089 129.544 161.66 126.272 162.093C123.229 162.498 119.394 160.991 118.746 158.594C117.758 154.943 124.714 151.239 123.358 147.075C123.169 146.515 122.862 146.002 122.457 145.571" fill="#FEF3EC"/>
<path d="M132.444 157.345C131.496 158.837 130.258 160.123 128.803 161.126C127.973 161.639 127.045 161.971 126.078 162.098C123.034 162.503 119.2 160.997 118.552 158.6C117.564 154.948 124.52 151.244 123.164 147.08C122.975 146.52 122.668 146.007 122.263 145.576" stroke="#050101" stroke-linecap="round" stroke-linejoin="round"/>
<path d="M132.829 129.027C128.706 128.815 124.787 127.169 121.749 124.374" stroke="#050101" stroke-linecap="round" stroke-linejoin="round"/>
<path d="M106.675 139.619C106.679 143.04 105.75 146.398 103.988 149.331C102.225 152.263 99.6967 154.66 96.6736 156.262C95.5403 156.223 94.4071 156.196 93.2738 156.17C93.9045 150.861 95.8773 145.799 99.006 141.464C100.982 138.917 103.266 136.624 105.806 134.638C105.86 134.595 105.918 134.556 105.977 134.519C106.445 136.179 106.68 137.895 106.675 139.619V139.619Z" fill="#A13C23"/>
</svg>
