<svg width="351" height="221" viewBox="0 0 351 221" fill="none" xmlns="http://www.w3.org/2000/svg">
<circle cx="315.5" cy="92.5" r="1.5" fill="#FCA599"/>
<g filter="url(#filter0_d_1940_841)">
<rect x="8" y="67" width="327" height="138" rx="15" fill="#F5F8FF"/>
</g>
<mask id="mask0_1940_841" style="mask-type:alpha" maskUnits="userSpaceOnUse" x="8" y="67" width="327" height="138">
<rect x="8" y="67" width="327" height="138" rx="15" fill="#A4B8FF"/>
</mask>
<g mask="url(#mask0_1940_841)">
<path d="M-8.25045 150.224C-3.44306 152.718 1.90616 153.985 7.32133 153.912C9.21933 153.823 11.1103 153.622 12.9844 153.308C24.5517 151.692 26.3493 149.813 30.7064 150.097C38.2212 150.584 43.4999 156.871 45.2133 158.911C52.9855 168.166 51.7685 179.876 51.6059 181.246C50.705 188.788 47.3008 190.508 48.2945 197.217C49.0488 202.307 51.3234 203.468 51.3956 208.273C51.4632 212.929 49.417 218.113 46.7179 220.393C38.0992 227.675 8.81431 217.173 -4.00925 195.684C-15.2726 176.806 -9.93868 155.983 -8.25045 150.224Z" fill="#A4B8FF"/>
<path d="M353.948 115.121C350.097 116.475 347.092 108.221 337.796 107.506C330.959 106.978 329.235 111.184 321.875 111.659C314.031 112.166 304.344 108.142 300.185 100.814C294.042 89.9892 302.439 76.3142 305.954 70.5872C312.926 59.2312 328.674 43.3692 340.565 47.7442C348.576 50.6912 351.023 61.4202 354.64 77.2792C358.056 92.2712 359.788 113.071 353.948 115.121Z" fill="#A4B8FF"/>
</g>
<path d="M98.3251 181.979C84.0691 180.096 70.5661 178.401 61.2921 167.457C52.4181 156.984 49.1791 140.119 54.7571 127.157C60.9111 112.857 72.1951 116.319 84.5281 99.9272C94.8841 86.1642 89.4931 80.3172 101.955 55.6342C108.677 42.3212 112.672 34.4102 121.561 27.6782C139.941 13.7582 163.003 17.1782 167.669 17.8782C193.469 21.7082 212.222 39.9312 214.504 42.2032C222.066 49.7292 226.666 57.3191 238.466 62.1711C246.366 65.4211 248.399 63.6992 256.982 66.5282C261.355 67.9692 277.03 73.7562 287.116 89.0382C298.354 106.063 295.796 124.483 295.104 128.974C291.081 155.06 270.136 170.574 260.613 177.625C256.584 180.603 252.336 183.273 247.906 185.612C217.839 201.368 188.947 193.951 98.3251 181.979Z" fill="#CEECFE"/>
<path d="M199.897 181.354C230.42 181.354 255.164 178.379 255.164 174.708C255.164 171.038 230.42 168.062 199.897 168.062C169.374 168.062 144.63 171.038 144.63 174.708C144.63 178.379 169.374 181.354 199.897 181.354Z" fill="#A4B8FF"/>
<path d="M233.79 148.965C233.609 151.05 233.138 153.1 232.39 155.054C231.792 156.463 231.026 157.794 230.108 159.019C223.132 168.425 206.327 167.233 196.991 164.771C183.038 161.118 173.261 151.064 169.527 147.255C166.518 144.146 166 143.576 166 143.576C157.883 134.792 155.393 129.376 151.321 129.661C151.01 129.687 149.039 129.273 148.935 130.491C148.131 141.218 147.181 151.591 146.083 161.61C146.036 162.518 145.656 163.378 145.015 164.023C144.374 164.669 143.516 165.055 142.608 165.108C130.963 165.16 120.694 166.378 118.126 165.212C116.607 164.656 115.355 163.545 114.625 162.102C114.318 161.276 114.221 160.386 114.343 159.513C114.465 158.641 114.803 157.812 115.325 157.101C117.815 153.733 124.324 154.743 125.258 154.899H125.31C125.913 154.948 126.518 154.853 127.077 154.622C127.635 154.39 128.131 154.029 128.521 153.568C128.912 153.106 129.186 152.559 129.323 151.97C129.459 151.381 129.452 150.769 129.304 150.183C127.656 140.476 126.849 130.645 126.892 120.8C126.918 112.086 127.629 103.388 129.018 94.7851C129.164 93.8197 129.663 92.9427 130.419 92.3235C128.24 83.151 127.436 71.3096 134.309 63.4067C135.667 61.8758 137.239 60.5493 138.977 59.4682C139.131 59.3822 139.297 59.321 139.47 59.2868C161.487 50.9175 176.477 45.2171 178.604 48.6114C179.122 49.4406 178.266 49.8033 178.552 52.2908C179.115 55.3652 180.546 58.2148 182.675 60.5046C183.573 61.6614 184.543 62.7605 185.58 63.7954C186.617 64.8577 187.577 65.7128 188.355 66.3865C189.133 67.0602 189.781 67.6043 190.403 68.0966C191.57 69.0294 192.53 69.729 192.971 70.0658C193.06 70.1349 193.156 70.1956 193.256 70.2472C201.767 76.4224 209.755 83.2861 217.141 90.7688C223.735 99.022 228.484 108.591 231.067 118.831C233.705 128.644 234.626 138.839 233.79 148.965Z" fill="#FEF3EC"/>
<path d="M107.307 38.2497C105.046 44.8104 110.004 51.3478 110.894 52.519C125.608 71.9134 173.29 55.719 179.309 47.8549C179.633 47.4461 179.924 47.013 180.181 46.5594C182.39 42.3528 183.868 37.8021 184.553 33.1011C184.711 31.6372 184.75 30.4427 184.768 29.6887V25.5195C184.768 11.7063 174.086 0.403881 161.029 0.403881H140.471C138.224 0.405677 135.991 0.744576 133.845 1.40923C128.804 3.09527 124.43 6.33785 121.354 10.669C118.277 15.0002 116.658 20.196 116.729 25.5066V29.8234C114.647 30.4743 112.729 31.5631 111.104 33.0165C109.479 34.47 108.184 36.2544 107.307 38.2497Z" fill="#FEF3EC"/>
<path d="M135.272 25.478C137.497 34.7853 146.867 39.2524 154.867 43.0769C162.293 46.5978 170.388 48.4868 178.607 48.6167C179.047 48.1339 179.461 47.6289 179.849 47.1035C182.62 42.9283 184.238 38.0963 184.54 33.0959C184.706 31.6319 184.748 30.4374 184.769 29.6834V25.5195C175.077 10.434 164.74 1.07749 159.634 0.403796C156.99 0.105401 154.33 -0.0278676 151.669 0.00476531C149.359 0.0462231 147.44 0.217236 146.101 0.367521C137.855 7.28061 133.228 16.9299 135.272 25.478Z" fill="#A13C23"/>
<path d="M141.2 28.9059C142.566 28.9059 143.674 27.7992 143.674 26.434C143.674 25.0688 142.566 23.9621 141.2 23.9621C139.834 23.9621 138.726 25.0688 138.726 26.434C138.726 27.7992 139.834 28.9059 141.2 28.9059Z" fill="#131313"/>
<path d="M121.955 28.9059C123.321 28.9059 124.429 27.7992 124.429 26.434C124.429 25.0688 123.321 23.9621 121.955 23.9621C120.588 23.9621 119.481 25.0688 119.481 26.434C119.481 27.7992 120.588 28.9059 121.955 28.9059Z" fill="#131313"/>
<path d="M126.643 39.3431C129.842 39.3431 132.436 37.5728 132.436 35.389C132.436 33.2053 129.842 31.435 126.643 31.435C123.443 31.435 120.849 33.2053 120.849 35.389C120.849 37.5728 123.443 39.3431 126.643 39.3431Z" fill="#131313"/>
<path d="M154.692 5.38925C155.288 4.15363 156.159 3.07023 157.237 2.22158C158.316 1.37293 159.574 0.7814 160.916 0.492048C165.159 -0.2231 167.835 3.57029 172.612 6.71072C184.339 14.4452 192.789 7.78344 200.211 15.1344C203.738 18.6273 206.323 24.5816 204.684 29.2146C201.907 37.0786 187.451 39.7008 177.088 36.7158C161.528 32.2358 150.698 13.8441 154.692 5.38925Z" fill="#A13C23"/>
<path d="M183.788 39.3923H183.707C178.984 39.0961 174.368 37.853 170.136 35.7372C165.903 33.6214 162.14 30.6761 159.07 27.0767C155.413 22.4825 153.044 16.9987 152.208 11.188C152.158 10.8478 152.245 10.5017 152.45 10.2257C152.656 9.94965 152.962 9.76641 153.303 9.71624C153.643 9.66607 153.99 9.75309 154.266 9.95816C154.542 10.1632 154.726 10.4695 154.776 10.8097C155.543 16.1624 157.722 21.2146 161.091 25.4469C163.932 28.7708 167.415 31.4893 171.33 33.4404C175.246 35.3915 179.514 36.5354 183.881 36.8038C184.225 36.8148 184.55 36.9618 184.786 37.2125C185.021 37.4633 185.147 37.7972 185.136 38.1408C185.125 38.4844 184.978 38.8095 184.727 39.0447C184.476 39.2799 184.142 39.4059 183.798 39.3949L183.788 39.3923Z" fill="#040000"/>
<path d="M140.232 94.6543C153.609 79.0227 154.602 57.9341 142.449 47.5517C130.296 37.1693 109.599 41.4247 96.222 57.0563C82.8445 72.688 81.852 93.7766 94.005 104.159C106.158 114.541 126.855 110.286 140.232 94.6543Z" fill="#D0DAEF"/>
<path d="M142.445 47.5414L150.181 54.1513C159.258 61.891 161.529 76.4064 154.792 90.7431C146.234 108.956 126.384 119.989 110.474 115.421C107.257 114.517 104.272 112.932 101.724 110.772L93.9877 104.162C96.5363 106.322 99.5207 107.907 102.738 108.811C118.648 113.379 138.492 102.333 147.053 84.1331C153.793 69.7965 151.509 55.2837 142.445 47.5414Z" fill="#9FB0DA"/>
<path d="M142.444 47.5413L150.18 54.1512C150.439 54.3663 150.681 54.5866 150.924 54.8146L143.188 48.2046C142.945 47.9766 142.698 47.7564 142.444 47.5413Z" fill="#9FB0DA"/>
<path d="M143.189 48.2047L150.912 54.8147C151.366 55.2361 151.799 55.6766 152.208 56.1361L144.472 49.5288C144.057 49.0702 143.622 48.6271 143.176 48.2047" fill="#9FB0DA"/>
<path d="M144.491 49.5286L152.227 56.136C152.647 56.5998 153.049 57.0817 153.43 57.5766L145.691 50.9693C145.313 50.4718 144.913 49.9899 144.491 49.5286Z" fill="#9FB0DA"/>
<path d="M145.691 50.9695L153.43 57.5768C153.819 58.095 154.19 58.6133 154.537 59.1574L146.801 52.5475C146.455 52.0033 146.085 51.4773 145.691 50.9695Z" fill="#9FB0DA"/>
<path d="M146.802 52.5474L154.543 59.1573C154.909 59.7222 155.251 60.3078 155.581 60.9089L147.827 54.299C147.508 53.6979 147.168 53.1149 146.802 52.5474Z" fill="#9FB0DA"/>
<path d="M147.826 54.299L155.562 60.9167C155.904 61.5593 156.218 62.2122 156.506 62.9015L148.767 56.2915C148.482 55.6127 148.168 54.9493 147.826 54.3067" fill="#9FB0DA"/>
<path d="M148.767 56.2837L156.506 62.8936C156.825 63.6502 157.11 64.4302 157.362 65.2256L149.615 58.6157C149.356 57.8202 149.081 57.0403 148.76 56.2837" fill="#9FB0DA"/>
<path d="M149.616 58.6157L157.354 65.2256C157.654 66.1835 157.902 67.1566 158.099 68.1406L150.363 61.5307C150.166 60.5464 149.917 59.5733 149.616 58.6157Z" fill="#9FB0DA"/>
<path d="M150.371 61.5307L158.107 68.1406C158.372 69.4858 158.545 70.8476 158.625 72.2164L150.894 65.6065C150.813 64.2378 150.64 62.8761 150.376 61.5307" fill="#9FB0DA"/>
<path d="M150.894 65.6065L158.63 72.2165C158.864 76.6001 158.3 80.9897 156.965 85.172L149.229 78.5621C150.564 74.3798 151.128 69.9901 150.894 65.6065Z" fill="#9FB0DA"/>
<path d="M149.228 78.5519L156.964 85.1619C156.507 86.6302 155.971 88.0729 155.359 89.4839L147.623 82.8739C148.235 81.463 148.771 80.0203 149.228 78.5519Z" fill="#9FB0DA"/>
<path d="M147.623 82.8738L155.359 89.4838C155.178 89.9035 154.989 90.3233 154.792 90.743C154.48 91.4012 154.159 92.0386 153.819 92.6864L146.083 86.0764C146.429 85.439 146.752 84.7912 147.053 84.1331C147.25 83.7133 147.44 83.2936 147.623 82.8738Z" fill="#9FB0DA"/>
<path d="M146.083 86.0764L153.819 92.6864C153.35 93.5743 152.854 94.4431 152.33 95.293L144.594 88.6831C145.113 87.8367 145.609 86.9678 146.083 86.0764Z" fill="#9FB0DA"/>
<path d="M144.595 88.683L152.331 95.2929C151.859 96.065 151.366 96.8191 150.851 97.5549L143.112 90.9476C143.631 90.2083 144.125 89.4534 144.595 88.683Z" fill="#9FB0DA"/>
<path d="M143.112 90.9477L150.85 97.555C150.363 98.246 149.861 98.9274 149.344 99.5994L141.605 92.9895C142.124 92.3244 142.626 91.6438 143.112 90.9477Z" fill="#9FB0DA"/>
<path d="M141.604 92.9894L149.343 99.5994C148.84 100.242 148.321 100.871 147.787 101.486L140.048 94.8758C140.58 94.2625 141.099 93.6338 141.604 92.9894Z" fill="#9FB0DA"/>
<path d="M140.054 94.8759L147.801 101.486C147.282 102.09 146.745 102.679 146.19 103.253L138.454 96.643C139.002 96.0704 139.541 95.4796 140.062 94.8759" fill="#9FB0DA"/>
<path d="M138.446 96.6431L146.182 103.253C145.632 103.827 145.07 104.384 144.496 104.927L136.758 98.317C137.333 97.7763 137.896 97.2183 138.446 96.6431Z" fill="#9FB0DA"/>
<path d="M136.757 98.3168L144.496 104.927C143.908 105.481 143.308 106.018 142.696 106.538L134.96 99.9285C135.572 99.4103 136.171 98.873 136.757 98.3168Z" fill="#9FB0DA"/>
<path d="M134.96 99.9284L142.696 106.538C142.063 107.077 141.417 107.601 140.759 108.093L133.017 101.491C133.673 100.992 134.318 100.473 134.955 99.9361" fill="#9FB0DA"/>
<path d="M133.019 101.491L140.755 108.101C140.063 108.631 139.356 109.139 138.633 109.624L130.897 103.017C131.616 102.53 132.324 102.021 133.019 101.491Z" fill="#9FB0DA"/>
<path d="M130.902 103.017L138.638 109.624C137.855 110.155 137.061 110.656 136.255 111.13L128.519 104.52C129.325 104.045 130.119 103.544 130.902 103.017Z" fill="#9FB0DA"/>
<path d="M128.519 104.52L136.255 111.13C135.342 111.665 134.415 112.165 133.475 112.628L125.739 106.018C126.674 105.556 127.601 105.057 128.519 104.52Z" fill="#9FB0DA"/>
<path d="M125.739 106.017L133.475 112.627C132.289 113.21 131.09 113.728 129.878 114.182L122.142 107.572C123.352 107.12 124.551 106.601 125.739 106.017Z" fill="#9FB0DA"/>
<path d="M122.141 107.575L129.877 114.185C123.711 116.672 116.906 117.105 110.474 115.421C107.257 114.517 104.272 112.932 101.724 110.772L93.9878 104.162C96.5364 106.322 99.5208 107.907 102.738 108.811C109.17 110.495 115.975 110.062 122.141 107.575Z" fill="#9FB0DA"/>
<path d="M130.992 43.8154C130.279 43.832 129.571 43.7067 128.907 43.4469C128.244 43.1871 127.639 42.798 127.127 42.3021C126.596 41.7163 126.194 41.0259 125.946 40.2753C125.698 39.5246 125.61 38.7305 125.688 37.9439C125.713 37.6903 125.835 37.4561 126.028 37.2897C126.221 37.1232 126.471 37.0374 126.726 37.05C126.981 37.0698 127.219 37.1899 127.387 37.3841C127.554 37.5782 127.638 37.8307 127.62 38.0864C127.567 38.5967 127.619 39.1124 127.771 39.6023C127.924 40.0922 128.174 40.5462 128.507 40.9366C129.267 41.5524 130.216 41.8884 131.195 41.8884C132.174 41.8884 133.123 41.5524 133.883 40.9366C133.988 40.8638 134.106 40.8123 134.231 40.7852C134.356 40.758 134.485 40.7557 134.611 40.7783C134.736 40.8009 134.856 40.848 134.964 40.917C135.071 40.986 135.164 41.0754 135.237 41.1802C135.31 41.285 135.361 41.4031 135.389 41.5278C135.416 41.6525 135.418 41.7813 135.395 41.9069C135.373 42.0325 135.326 42.1524 135.257 42.2598C135.188 42.3672 135.098 42.4599 134.993 42.5328C133.82 43.3543 132.425 43.8015 130.992 43.8154Z" fill="#131313"/>
<path d="M122.291 43.8155C120.858 43.8043 119.461 43.3579 118.287 42.5355C118.177 42.465 118.083 42.3731 118.009 42.2653C117.935 42.1575 117.884 42.036 117.859 41.908C117.833 41.78 117.834 41.6482 117.86 41.5204C117.887 41.3926 117.939 41.2714 118.013 41.1642C118.088 41.0569 118.183 40.9657 118.293 40.896C118.404 40.8264 118.527 40.7797 118.656 40.7587C118.785 40.7377 118.917 40.7429 119.044 40.7739C119.171 40.805 119.29 40.8613 119.395 40.9394C120.155 41.5554 121.105 41.8915 122.084 41.8915C123.063 41.8915 124.012 41.5554 124.773 40.9394C125.106 40.5488 125.356 40.0948 125.508 39.6049C125.66 39.1149 125.711 38.5993 125.658 38.0892C125.638 37.8321 125.721 37.5777 125.888 37.3819C126.056 37.1861 126.295 37.0649 126.552 37.0449C126.809 37.025 127.064 37.108 127.26 37.2756C127.456 37.4433 127.577 37.6819 127.597 37.9389C127.676 38.7253 127.588 39.5194 127.341 40.27C127.094 41.0207 126.691 41.7112 126.161 42.2971C125.649 42.7938 125.043 43.1838 124.379 43.4445C123.714 43.7052 123.005 43.8313 122.291 43.8155Z" fill="#131313"/>
<path d="M121.882 22.5165C121.77 22.5165 121.661 22.5165 121.552 22.5165C120.78 22.4406 120.056 22.1104 119.493 21.578C118.929 21.0456 118.559 20.3412 118.44 19.5756C118.395 19.3231 118.451 19.063 118.597 18.8518C118.742 18.6407 118.966 18.4957 119.218 18.4484C119.343 18.4253 119.472 18.427 119.596 18.4536C119.72 18.4801 119.838 18.531 119.943 18.6033C120.047 18.6755 120.137 18.7677 120.205 18.8745C120.274 18.9813 120.321 19.1007 120.344 19.2258C120.389 19.5722 120.55 19.8933 120.8 20.1373C121.05 20.3813 121.376 20.5339 121.723 20.5706C122.19 20.5842 122.648 20.4519 123.036 20.1922C123.423 19.9325 123.72 19.5584 123.884 19.1221C123.991 18.8947 124.183 18.7177 124.418 18.6285C124.654 18.5393 124.914 18.5448 125.146 18.6438C125.377 18.7428 125.561 18.9276 125.659 19.1594C125.757 19.3911 125.761 19.6518 125.67 19.8865C125.36 20.6434 124.837 21.2944 124.165 21.761C123.493 22.2277 122.7 22.49 121.882 22.5165Z" fill="#131313"/>
<path d="M134.541 89.7968C144.46 78.2068 145.195 62.5704 136.184 54.872C127.172 47.1735 111.827 50.3282 101.908 61.9182C91.9895 73.5082 91.254 89.1445 100.265 96.843C109.277 104.541 124.623 101.387 134.541 89.7968Z" fill="#9FB0DA"/>
<path d="M171.85 131.779C167.127 141.67 165.128 152.641 166.059 163.561C164.702 163.001 155.945 159.537 149.202 163.991C148.315 164.577 143.149 167.984 143.722 172.257C143.937 173.544 144.555 174.729 145.486 175.644H207.994C214.062 175.999 220.045 174.074 224.765 170.248C229.486 166.421 232.604 160.969 233.506 154.962C234.409 148.956 233.031 142.829 229.642 137.786C226.254 132.743 221.101 129.148 215.195 127.708L171.85 131.779Z" fill="#FEF3EC"/>
<path d="M223.568 160.558C221.343 160.567 219.12 160.406 216.919 160.078C215.57 159.853 214.366 159.105 213.567 157.996C212.768 156.888 212.439 155.509 212.652 154.16C212.865 152.811 213.602 151.601 214.704 150.792C215.805 149.983 217.182 149.641 218.534 149.841C219.779 150.038 230.936 151.603 238.441 146.159C241.279 144.196 243.248 141.212 243.936 137.831C244.623 134.451 243.975 130.936 242.129 128.021C240.511 125.882 238.304 124.262 235.778 123.357C231.2 121.504 227.27 118.343 224.481 114.27C219.489 106.691 217.803 95.1763 225.892 87.8071C228.537 85.5579 231.632 83.8999 234.971 82.9444C238.31 81.9889 241.815 81.7581 245.251 82.2673C249.119 82.7952 252.742 84.466 255.653 87.0653C258.564 89.6646 260.631 93.0738 261.589 96.8553C261.869 98.1912 261.61 99.5833 260.868 100.73C260.127 101.876 258.963 102.683 257.629 102.977C256.295 103.271 254.899 103.027 253.744 102.299C252.589 101.57 251.768 100.416 251.46 99.0863C250.921 97.3309 249.88 95.771 248.466 94.5982C247.053 93.4253 245.327 92.6905 243.501 92.4841C241.618 92.2291 239.703 92.362 237.873 92.8745C236.044 93.3869 234.338 94.2681 232.863 95.4639C228.749 99.2132 231.249 105.668 233.153 108.557C234.939 111.046 237.433 112.942 240.311 113.998C244.231 115.535 247.653 118.12 250.203 121.469C252.753 124.818 254.332 128.804 254.768 132.989C255.204 137.174 254.479 141.399 252.674 145.201C250.869 149.003 248.053 152.236 244.533 154.546C238.336 158.671 231.011 160.771 223.568 160.558Z" fill="#FEF3EC"/>
<path d="M200.514 142.537L189.145 129.089L200.514 142.537Z" fill="#FEF3EC"/>
<path d="M145.639 176.004C145.409 176.003 145.183 175.942 144.985 175.826C144.787 175.71 144.623 175.543 144.511 175.343C143.737 173.981 143.331 172.442 143.333 170.876C143.385 169.321 143.798 167.8 144.539 166.432C147.778 160.643 157.623 160.472 158.735 160.472H158.758C161.216 160.474 163.654 160.901 165.965 161.734C165.134 156.328 165.697 150.799 167.599 145.669L167.789 145.172C169.668 140.965 172.388 137.186 175.781 134.068C179.174 130.949 183.169 128.555 187.522 127.034C194.971 124.447 203.071 124.416 210.54 126.946C210.866 127.056 211.135 127.29 211.288 127.598C211.441 127.906 211.466 128.262 211.356 128.587C211.246 128.913 211.011 129.182 210.703 129.335C210.395 129.488 210.039 129.512 209.713 129.402C202.798 127.055 195.297 127.081 188.398 129.475C184.394 130.862 180.715 133.052 177.587 135.91C174.459 138.767 171.949 142.233 170.208 146.094L170.029 146.571C168.023 152.016 167.644 157.926 168.94 163.582C168.992 163.819 168.976 164.066 168.894 164.295C168.812 164.524 168.667 164.725 168.476 164.876C168.285 165.026 168.056 165.12 167.814 165.146C167.572 165.173 167.328 165.131 167.109 165.025C164.51 163.746 161.653 163.076 158.756 163.066H158.738C158.354 163.066 149.363 163.118 146.808 167.694C146.282 168.678 145.982 169.767 145.932 170.881C145.934 171.999 146.225 173.097 146.775 174.071C146.885 174.268 146.943 174.49 146.941 174.717C146.939 174.943 146.878 175.165 146.763 175.36C146.649 175.555 146.485 175.717 146.289 175.829C146.093 175.942 145.87 176.001 145.644 176.001L145.639 176.004Z" fill="#F9E1D4"/>
<path d="M223.568 160.558C221.343 160.567 219.12 160.406 216.919 160.078C215.57 159.853 214.366 159.105 213.567 157.996C212.768 156.888 212.439 155.509 212.652 154.16C212.865 152.811 213.602 151.601 214.704 150.792C215.805 149.983 217.182 149.641 218.534 149.841C219.779 150.038 230.936 151.603 238.441 146.159C241.279 144.196 243.248 141.212 243.936 137.831C244.623 134.451 243.975 130.936 242.129 128.021C240.511 125.882 238.304 124.262 235.778 123.357C231.2 121.504 227.27 118.343 224.481 114.27C219.489 106.691 217.803 95.1763 225.892 87.8071C228.537 85.5579 231.632 83.8999 234.971 82.9444C238.31 81.9889 241.815 81.7581 245.251 82.2673C249.119 82.7952 252.742 84.466 255.653 87.0653C258.564 89.6646 260.631 93.0738 261.589 96.8553C261.869 98.1912 261.61 99.5833 260.868 100.73C260.127 101.876 258.963 102.683 257.629 102.977C256.295 103.271 254.899 103.027 253.744 102.299C252.589 101.57 251.768 100.416 251.46 99.0863C250.921 97.3309 249.88 95.771 248.466 94.5982C247.053 93.4253 245.327 92.6905 243.501 92.4841C241.618 92.2291 239.703 92.362 237.873 92.8745C236.044 93.3869 234.338 94.2681 232.863 95.4639C228.749 99.2132 231.249 105.668 233.153 108.557C234.939 111.046 237.433 112.942 240.311 113.998C244.231 115.535 247.653 118.12 250.203 121.469C252.753 124.818 254.332 128.804 254.768 132.989C255.204 137.174 254.479 141.399 252.674 145.201C250.869 149.003 248.053 152.236 244.533 154.546C238.336 158.671 231.011 160.771 223.568 160.558Z" fill="#FEF3EC"/>
<path d="M257.934 102.924C257.268 103.073 256.579 103.089 255.907 102.972C255.235 102.854 254.593 102.606 254.017 102.24C253.441 101.874 252.943 101.398 252.552 100.84C252.16 100.281 251.883 99.651 251.736 98.9853C251.199 97.2276 250.16 95.6653 248.745 94.4912C247.33 93.317 245.602 92.5824 243.774 92.378C241.936 92.12 240.064 92.2372 238.272 92.7227C236.48 93.2081 234.805 94.0517 233.349 95.2023C231.761 92.0366 230.493 88.7209 229.562 85.3042C234.35 82.4083 240.009 81.2977 245.538 82.169C249.408 82.6914 253.033 84.3604 255.945 86.9605C258.857 89.5607 260.923 92.9728 261.876 96.757C262.024 97.4206 262.04 98.1069 261.921 98.7765C261.803 99.4461 261.554 100.086 261.188 100.659C260.821 101.232 260.345 101.727 259.787 102.116C259.229 102.504 258.599 102.779 257.934 102.924Z" fill="#A13C23"/>
<path d="M82.6234 63.0388H82.5612L76.4823 62.7537C76.1397 62.737 75.8177 62.5852 75.5868 62.3317C75.3559 62.0782 75.235 61.7436 75.2505 61.4012C75.2737 61.0608 75.4274 60.7424 75.6795 60.5122C75.9316 60.282 76.2628 60.1578 76.6042 60.1652L82.6934 60.4476C83.0373 60.4555 83.364 60.5996 83.6016 60.8482C83.8392 61.0967 83.9682 61.4294 83.9603 61.773C83.9524 62.1166 83.8082 62.443 83.5594 62.6804C83.3106 62.9178 82.9777 63.0467 82.6338 63.0388H82.6234Z" fill="white"/>
<path d="M90.4628 52.4566C90.1952 52.4567 89.9342 52.374 89.7155 52.22C89.4968 52.066 89.3312 51.8482 89.2413 51.5964L87.1951 45.8597C87.1379 45.6994 87.1129 45.5294 87.1214 45.3595C87.1299 45.1896 87.1718 45.023 87.2448 44.8692C87.3922 44.5587 87.657 44.3194 87.9809 44.2039C88.3049 44.0885 88.6615 44.1064 88.9722 44.2536C89.283 44.4008 89.5225 44.6654 89.6381 44.9891L91.6842 50.7258C91.7541 50.9213 91.7758 51.1307 91.7477 51.3364C91.7196 51.5421 91.6424 51.738 91.5227 51.9077C91.403 52.0773 91.2442 52.2157 91.0597 52.3113C90.8753 52.4068 90.6705 52.4567 90.4628 52.4566Z" fill="white"/>
<path d="M87.3867 58.3721C87.1061 58.3721 86.8331 58.2812 86.6087 58.113L80.9629 53.9361C80.6878 53.73 80.5059 53.4231 80.4573 53.0829C80.4086 52.7428 80.4972 52.3972 80.7036 52.1224C80.9099 51.8475 81.2171 51.6657 81.5575 51.6172C81.898 51.5686 82.2438 51.6571 82.5189 51.8632L88.1517 56.0349C88.3694 56.1981 88.5303 56.4255 88.6114 56.6851C88.6925 56.9446 88.6899 57.2231 88.6038 57.4811C88.5178 57.739 88.3527 57.9634 88.1319 58.1224C87.9111 58.2814 87.6459 58.3669 87.3737 58.3669L87.3867 58.3721Z" fill="white"/>
<path d="M184.768 25.5272V29.673C184.742 30.4244 184.716 31.6422 184.534 33.0932C184.534 33.0932 184.431 33.9224 184.145 35.2957L162.439 0.445206C168.644 1.03361 174.396 3.94733 178.538 8.6005C182.681 13.2537 184.906 19.3012 184.768 25.5272Z" fill="#A13C23"/>
<path d="M162.726 2.11394L155.984 0.0902824L159.396 0.279434L162.433 0.445265L162.726 2.11394Z" fill="#A13C23"/>
<path d="M231.068 118.831C218.5 117.383 206.904 111.368 198.488 101.932C190.071 92.4952 185.422 80.2959 185.424 67.6562C185.424 66.3607 185.476 65.0651 185.58 63.7955C186.617 64.8578 187.577 65.7129 188.355 66.3866C189.133 67.0603 189.781 67.6044 190.404 68.0967C191.571 69.0295 192.53 69.7291 192.971 70.066C193.06 70.135 193.156 70.1957 193.256 70.2474C201.767 76.4226 209.756 83.2862 217.141 90.769C223.735 99.0222 228.484 108.591 231.068 118.831Z" fill="#A13C23"/>
<g clip-path="url(#clip0_1940_841)">
<path d="M95.268 15.5C95.8412 18.5153 95.4252 21.6352 94.082 24.395C92.9585 26.6485 91.2521 28.5601 89.14 29.931" stroke="#7F83FD" stroke-width="3" stroke-linecap="round" stroke-linejoin="round"/>
<path d="M64.5 51.006C65.592 51.2773 66.5748 51.8765 67.316 52.723C67.9112 53.5184 68.3088 54.4438 68.476 55.423C68.6433 56.4022 68.5754 57.4072 68.278 58.355" stroke="#FE7968" stroke-width="3" stroke-linecap="round" stroke-linejoin="round"/>
</g>
<g clip-path="url(#clip1_1940_841)">
<path d="M72.379 89.5C70.4959 90.3 68.9535 91.7359 68.021 93.557C66.809 96.072 66.577 100.081 68.57 101.167C70.14 102.023 73.128 101.083 73.732 99.117C74.332 97.166 72.272 95.206 70.726 94.459C69.4425 93.9372 68.0279 93.8302 66.6806 94.153C65.3332 94.4758 64.1207 95.2123 63.213 96.259C62.5561 97.0439 62.0699 97.9569 61.7853 98.94C61.5007 99.923 61.424 100.955 61.56 101.969" stroke="#7F83FD" stroke-width="3" stroke-linecap="round" stroke-linejoin="round"/>
</g>
<path d="M225.355 72.4578C225.286 70.7082 224.61 69.0418 223.443 67.7494C221.809 66.0255 218.691 64.6411 217.226 65.9151C216.072 66.9186 215.919 69.5964 217.3 70.6685C218.67 71.733 220.85 70.6664 221.91 69.6496C222.712 68.776 223.224 67.6733 223.373 66.4961C223.523 65.3188 223.303 64.1261 222.744 63.0851C222.318 62.3236 221.739 61.6607 221.043 61.1386C220.347 60.6164 219.55 60.2465 218.702 60.0525" stroke="#FFBE5B" stroke-width="3" stroke-linecap="round" stroke-linejoin="round"/>
<g clip-path="url(#clip2_1940_841)">
<path d="M237.488 42.8333C234.804 42.3132 232.346 40.9784 230.449 39.0106C228.551 37.0429 227.306 34.5379 226.884 31.837" stroke="#FFBE5B" stroke-width="3" stroke-linecap="round" stroke-linejoin="round"/>
</g>
<path d="M221.492 8.82197C221.206 8.66933 218.652 7.35626 216.272 8.61239C214.1 9.76186 212.713 12.7128 213.699 14.3292C214.311 15.3329 215.909 15.9382 216.862 15.379C217.958 14.7353 217.961 12.6933 217.344 11.5028C216.409 9.69882 213.55 8.8815 210.245 9.686" stroke="#FE7968" stroke-width="3" stroke-linecap="round" stroke-linejoin="round"/>
<defs>
<filter id="filter0_d_1940_841" x="0" y="59" width="351" height="162" filterUnits="userSpaceOnUse" color-interpolation-filters="sRGB">
<feFlood flood-opacity="0" result="BackgroundImageFix"/>
<feColorMatrix in="SourceAlpha" type="matrix" values="0 0 0 0 0 0 0 0 0 0 0 0 0 0 0 0 0 0 127 0" result="hardAlpha"/>
<feOffset dx="4" dy="4"/>
<feGaussianBlur stdDeviation="6"/>
<feComposite in2="hardAlpha" operator="out"/>
<feColorMatrix type="matrix" values="0 0 0 0 0.641667 0 0 0 0 0.7205 0 0 0 0 1 0 0 0 0.2 0"/>
<feBlend mode="normal" in2="BackgroundImageFix" result="effect1_dropShadow_1940_841"/>
<feBlend mode="normal" in="SourceGraphic" in2="effect1_dropShadow_1940_841" result="shape"/>
</filter>
<clipPath id="clip0_1940_841">
<rect width="34.018" height="45.855" fill="white" transform="translate(63 14)"/>
</clipPath>
<clipPath id="clip1_1940_841">
<rect width="15.338" height="15.473" fill="white" transform="translate(60 88)"/>
</clipPath>
<clipPath id="clip2_1940_841">
<rect width="10.908" height="16.089" fill="white" transform="translate(241.364 34.1641) rotate(105)"/>
</clipPath>
</defs>
</svg>
